<svg width="203" height="426" viewBox="0 0 203 426" fill="none" xmlns="http://www.w3.org/2000/svg">
<rect y="270" width="203" height="156" rx="15" fill="#FF82BE"/>
<rect y="172" width="203" height="193" rx="15" fill="#FDACD3"/>
<rect width="203" height="294" rx="15" fill="#FECAE3"/>
<path d="M21.14 263.58C21.42 263.607 21.64 263.707 21.8 263.88C21.9733 264.04 22.04 264.273 22 264.58L21.64 267.26H24.02L24.42 264.42C24.4467 264.153 24.5667 263.94 24.78 263.78C24.9933 263.62 25.26 263.553 25.58 263.58C25.86 263.607 26.08 263.707 26.24 263.88C26.4133 264.04 26.48 264.273 26.44 264.58L26.08 267.26H27.06C27.38 267.26 27.6133 267.367 27.76 267.58C27.9067 267.793 27.98 268.04 27.98 268.32C27.98 268.6 27.9067 268.847 27.76 269.06C27.6133 269.273 27.38 269.38 27.06 269.38H25.78L25.42 272.12H26.44C26.76 272.12 26.9933 272.227 27.14 272.44C27.2867 272.653 27.36 272.9 27.36 273.18C27.36 273.46 27.2867 273.707 27.14 273.92C26.9933 274.133 26.76 274.24 26.44 274.24H25.14L24.74 277.2C24.7133 277.467 24.5933 277.68 24.38 277.84C24.1667 278 23.8933 278.067 23.56 278.04C23.28 278.013 23.0533 277.92 22.88 277.76C22.72 277.587 22.66 277.347 22.7 277.04L23.08 274.24H20.7L20.3 277.2C20.2733 277.467 20.1533 277.68 19.94 277.84C19.7267 278 19.4533 278.067 19.12 278.04C18.84 278.013 18.6133 277.92 18.44 277.76C18.28 277.587 18.22 277.347 18.26 277.04L18.64 274.24H17.64C17.32 274.24 17.0867 274.133 16.94 273.92C16.7933 273.707 16.72 273.46 16.72 273.18C16.72 272.9 16.7933 272.653 16.94 272.44C17.0867 272.227 17.32 272.12 17.64 272.12H18.92L19.3 269.38H18.26C17.94 269.38 17.7067 269.273 17.56 269.06C17.4133 268.847 17.34 268.6 17.34 268.32C17.34 268.04 17.4133 267.793 17.56 267.58C17.7067 267.367 17.94 267.26 18.26 267.26H19.58L19.98 264.42C20.0067 264.153 20.1267 263.94 20.34 263.78C20.5533 263.62 20.82 263.553 21.14 263.58ZM20.96 272.12H23.38L23.76 269.38H21.32L20.96 272.12ZM38.9716 263.7C39.2782 263.7 39.5049 263.807 39.6516 264.02C39.7982 264.233 39.8716 264.487 39.8716 264.78C39.8716 265.073 39.7982 265.327 39.6516 265.54C39.5049 265.753 39.2782 265.86 38.9716 265.86H33.0316V269.88H38.5516C38.8582 269.88 39.0849 269.987 39.2316 270.2C39.3782 270.413 39.4516 270.667 39.4516 270.96C39.4516 271.253 39.3782 271.507 39.2316 271.72C39.0849 271.933 38.8582 272.04 38.5516 272.04H33.0316V276.94C33.0316 277.327 32.9049 277.607 32.6516 277.78C32.3982 277.953 32.0982 278.04 31.7516 278.04C31.4049 278.04 31.1049 277.953 30.8516 277.78C30.5982 277.607 30.4716 277.327 30.4716 276.94V265.36C30.4716 264.733 30.5916 264.3 30.8316 264.06C31.0849 263.82 31.5316 263.7 32.1716 263.7H38.9716ZM50.0127 263.7C50.3193 263.7 50.5393 263.807 50.6727 264.02C50.8193 264.22 50.8927 264.467 50.8927 264.76C50.8927 265.04 50.8193 265.287 50.6727 265.5C50.5393 265.713 50.3193 265.82 50.0127 265.82H44.0327V269.6H49.6127C49.906 269.6 50.1193 269.707 50.2527 269.92C50.3993 270.12 50.4727 270.36 50.4727 270.64C50.4727 270.92 50.3993 271.167 50.2527 271.38C50.1193 271.58 49.906 271.68 49.6127 271.68H44.0327V275.8H50.1527C50.4593 275.8 50.6793 275.907 50.8127 276.12C50.9593 276.333 51.0327 276.58 51.0327 276.86C51.0327 277.153 50.9593 277.407 50.8127 277.62C50.6793 277.82 50.4593 277.92 50.1527 277.92H43.1927C42.5527 277.92 42.106 277.8 41.8527 277.56C41.6127 277.32 41.4927 276.887 41.4927 276.26V265.36C41.4927 264.733 41.6127 264.3 41.8527 264.06C42.106 263.82 42.5527 263.7 43.1927 263.7H50.0127ZM58.6206 263.48C59.5406 263.48 60.3406 263.58 61.0206 263.78C61.7006 263.98 62.274 264.24 62.7406 264.56C63.0473 264.773 63.214 265.033 63.2406 265.34C63.2673 265.647 63.1873 265.933 63.0006 266.2C62.8273 266.453 62.6006 266.62 62.3206 266.7C62.0406 266.78 61.7606 266.733 61.4806 266.56C61.054 266.307 60.6206 266.127 60.1806 266.02C59.7406 265.9 59.2006 265.84 58.5606 265.84C57.454 265.84 56.6006 266.207 56.0006 266.94C55.4006 267.66 55.1006 268.88 55.1006 270.6V271.02C55.1006 272.7 55.3873 273.913 55.9606 274.66C56.534 275.393 57.4073 275.76 58.5806 275.76C59.2473 275.76 59.8273 275.687 60.3206 275.54C60.8273 275.38 61.314 275.147 61.7806 274.84C62.0473 274.653 62.3273 274.587 62.6206 274.64C62.914 274.68 63.1606 274.84 63.3606 275.12C63.5606 275.4 63.6406 275.707 63.6006 276.04C63.5606 276.373 63.3806 276.653 63.0606 276.88C62.4873 277.293 61.814 277.607 61.0406 277.82C60.2806 278.033 59.4406 278.14 58.5206 278.14C57.574 278.14 56.7273 278.007 55.9806 277.74C55.2473 277.473 54.6206 277.06 54.1006 276.5C53.594 275.94 53.2006 275.227 52.9206 274.36C52.654 273.48 52.5206 272.433 52.5206 271.22V270.4C52.5206 269.187 52.654 268.147 52.9206 267.28C53.2006 266.4 53.6006 265.68 54.1206 265.12C54.6406 264.56 55.2806 264.147 56.0406 263.88C56.8006 263.613 57.6606 263.48 58.6206 263.48ZM70.8847 263.58C71.2314 263.58 71.5314 263.66 71.7847 263.82C72.038 263.98 72.258 264.293 72.4447 264.76L76.9447 276.36C77.0914 276.747 77.0914 277.08 76.9447 277.36C76.798 277.64 76.558 277.833 76.2247 277.94C75.8914 278.047 75.558 278.06 75.2247 277.98C74.9047 277.9 74.6714 277.647 74.5247 277.22L73.3647 274.02H68.3247L67.1447 277.3C66.998 277.687 66.7714 277.92 66.4647 278C66.1714 278.067 65.8647 278.047 65.5447 277.94C65.2247 277.833 64.9914 277.653 64.8447 277.4C64.698 277.147 64.698 276.833 64.8447 276.46L69.3447 264.76C69.518 264.293 69.7314 263.98 69.9847 263.82C70.2514 263.66 70.5514 263.58 70.8847 263.58ZM70.8447 266.78C70.738 267.18 70.6314 267.54 70.5247 267.86C70.4314 268.167 70.3047 268.547 70.1447 269L69.0847 271.9H72.6047L71.5647 269C71.3914 268.533 71.2514 268.133 71.1447 267.8C71.0514 267.467 70.9514 267.127 70.8447 266.78ZM87.3533 263.7C87.6599 263.7 87.8799 263.807 88.0133 264.02C88.1599 264.22 88.2333 264.467 88.2333 264.76C88.2333 265.04 88.1599 265.287 88.0133 265.5C87.8799 265.713 87.6599 265.82 87.3533 265.82H81.3733V269.6H86.9533C87.2466 269.6 87.4599 269.707 87.5933 269.92C87.7399 270.12 87.8133 270.36 87.8133 270.64C87.8133 270.92 87.7399 271.167 87.5933 271.38C87.4599 271.58 87.2466 271.68 86.9533 271.68H81.3733V275.8H87.4933C87.7999 275.8 88.0199 275.907 88.1533 276.12C88.2999 276.333 88.3733 276.58 88.3733 276.86C88.3733 277.153 88.2999 277.407 88.1533 277.62C88.0199 277.82 87.7999 277.92 87.4933 277.92H80.5333C79.8933 277.92 79.4466 277.8 79.1933 277.56C78.9533 277.32 78.8333 276.887 78.8333 276.26V265.36C78.8333 264.733 78.9533 264.3 79.1933 264.06C79.4466 263.82 79.8933 263.7 80.5333 263.7H87.3533ZM94.5013 263.48C95.3146 263.48 96.0213 263.58 96.6213 263.78C97.2213 263.98 97.7146 264.247 98.1013 264.58C98.5013 264.913 98.7946 265.3 98.9813 265.74C99.1679 266.18 99.2613 266.64 99.2613 267.12V267.22C99.2613 267.58 99.2079 267.94 99.1013 268.3C98.9946 268.647 98.8346 268.973 98.6213 269.28C98.4213 269.573 98.1746 269.833 97.8813 270.06C97.5879 270.273 97.2546 270.44 96.8813 270.56C97.2546 270.613 97.6213 270.713 97.9813 270.86C98.3413 271.007 98.6613 271.213 98.9413 271.48C99.2213 271.733 99.4413 272.053 99.6013 272.44C99.7746 272.813 99.8613 273.26 99.8613 273.78V273.98C99.8613 274.54 99.7479 275.073 99.5213 275.58C99.2946 276.073 98.9613 276.513 98.5213 276.9C98.0813 277.273 97.5346 277.573 96.8813 277.8C96.2279 278.027 95.4746 278.14 94.6213 278.14C93.8346 278.14 93.1146 278.06 92.4613 277.9C91.8079 277.727 91.1879 277.453 90.6013 277.08C90.2946 276.88 90.1146 276.627 90.0613 276.32C90.0213 276 90.0879 275.7 90.2613 275.42C90.4479 275.113 90.6746 274.927 90.9413 274.86C91.2079 274.793 91.4946 274.853 91.8013 275.04C92.2679 275.347 92.7013 275.56 93.1013 275.68C93.5013 275.8 93.9479 275.86 94.4413 275.86C94.9746 275.86 95.4213 275.813 95.7813 275.72C96.1413 275.613 96.4279 275.473 96.6413 275.3C96.8679 275.113 97.0279 274.9 97.1213 274.66C97.2279 274.407 97.2813 274.14 97.2813 273.86V273.7C97.2813 273.02 97.0546 272.52 96.6013 272.2C96.1479 271.867 95.4079 271.7 94.3813 271.7H93.3213C93.0013 271.7 92.7679 271.593 92.6213 271.38C92.4746 271.167 92.4013 270.907 92.4013 270.6C92.4013 270.293 92.4746 270.033 92.6213 269.82C92.7679 269.607 93.0013 269.5 93.3213 269.5H94.1613C95.0546 269.5 95.7079 269.333 96.1213 269C96.5479 268.653 96.7613 268.133 96.7613 267.44V267.38C96.7613 266.873 96.5813 266.473 96.2213 266.18C95.8613 265.873 95.2813 265.72 94.4813 265.72C94.0013 265.72 93.5879 265.8 93.2413 265.96C92.9079 266.12 92.5679 266.353 92.2213 266.66C91.9679 266.887 91.6946 266.987 91.4013 266.96C91.1079 266.92 90.8679 266.78 90.6813 266.54C90.4813 266.3 90.3879 266.04 90.4013 265.76C90.4279 265.48 90.5346 265.227 90.7213 265C91.1479 264.533 91.6746 264.167 92.3013 263.9C92.9279 263.62 93.6613 263.48 94.5013 263.48Z" fill="#FF82BE"/>
</svg>
