<svg width="203" height="426" viewBox="0 0 203 426" fill="none" xmlns="http://www.w3.org/2000/svg">
<rect y="270" width="203" height="156" rx="15" fill="#A1C83D"/>
<rect y="172" width="203" height="193" rx="15" fill="#BBDA6C"/>
<rect width="203" height="294" rx="15" fill="#E1F1B9"/>
<path d="M19.14 263.58C19.42 263.607 19.64 263.707 19.8 263.88C19.9733 264.04 20.04 264.273 20 264.58L19.64 267.26H22.02L22.42 264.42C22.4467 264.153 22.5667 263.94 22.78 263.78C22.9933 263.62 23.26 263.553 23.58 263.58C23.86 263.607 24.08 263.707 24.24 263.88C24.4133 264.04 24.48 264.273 24.44 264.58L24.08 267.26H25.06C25.38 267.26 25.6133 267.367 25.76 267.58C25.9067 267.793 25.98 268.04 25.98 268.32C25.98 268.6 25.9067 268.847 25.76 269.06C25.6133 269.273 25.38 269.38 25.06 269.38H23.78L23.42 272.12H24.44C24.76 272.12 24.9933 272.227 25.14 272.44C25.2867 272.653 25.36 272.9 25.36 273.18C25.36 273.46 25.2867 273.707 25.14 273.92C24.9933 274.133 24.76 274.24 24.44 274.24H23.14L22.74 277.2C22.7133 277.467 22.5933 277.68 22.38 277.84C22.1667 278 21.8933 278.067 21.56 278.04C21.28 278.013 21.0533 277.92 20.88 277.76C20.72 277.587 20.66 277.347 20.7 277.04L21.08 274.24H18.7L18.3 277.2C18.2733 277.467 18.1533 277.68 17.94 277.84C17.7267 278 17.4533 278.067 17.12 278.04C16.84 278.013 16.6133 277.92 16.44 277.76C16.28 277.587 16.22 277.347 16.26 277.04L16.64 274.24H15.64C15.32 274.24 15.0867 274.133 14.94 273.92C14.7933 273.707 14.72 273.46 14.72 273.18C14.72 272.9 14.7933 272.653 14.94 272.44C15.0867 272.227 15.32 272.12 15.64 272.12H16.92L17.3 269.38H16.26C15.94 269.38 15.7067 269.273 15.56 269.06C15.4133 268.847 15.34 268.6 15.34 268.32C15.34 268.04 15.4133 267.793 15.56 267.58C15.7067 267.367 15.94 267.26 16.26 267.26H17.58L17.98 264.42C18.0067 264.153 18.1267 263.94 18.34 263.78C18.5533 263.62 18.82 263.553 19.14 263.58ZM18.96 272.12H21.38L21.76 269.38H19.32L18.96 272.12ZM36.9916 263.7C37.2982 263.7 37.5182 263.807 37.6516 264.02C37.7982 264.22 37.8716 264.467 37.8716 264.76C37.8716 265.04 37.7982 265.287 37.6516 265.5C37.5182 265.713 37.2982 265.82 36.9916 265.82H31.0116V269.6H36.5916C36.8849 269.6 37.0982 269.707 37.2316 269.92C37.3782 270.12 37.4516 270.36 37.4516 270.64C37.4516 270.92 37.3782 271.167 37.2316 271.38C37.0982 271.58 36.8849 271.68 36.5916 271.68H31.0116V275.8H37.1316C37.4382 275.8 37.6582 275.907 37.7916 276.12C37.9382 276.333 38.0116 276.58 38.0116 276.86C38.0116 277.153 37.9382 277.407 37.7916 277.62C37.6582 277.82 37.4382 277.92 37.1316 277.92H30.1716C29.5316 277.92 29.0849 277.8 28.8316 277.56C28.5916 277.32 28.4716 276.887 28.4716 276.26V265.36C28.4716 264.733 28.5916 264.3 28.8316 264.06C29.0849 263.82 29.5316 263.7 30.1716 263.7H36.9916ZM45.9795 263.58C46.3662 263.58 46.6862 263.667 46.9395 263.84C47.1929 264.013 47.3195 264.293 47.3195 264.68V276.94C47.3195 277.327 47.1929 277.607 46.9395 277.78C46.6862 277.953 46.3862 278.04 46.0395 278.04C45.6929 278.04 45.3929 277.953 45.1395 277.78C44.8862 277.607 44.7595 277.327 44.7595 276.94V266.58L42.1795 268.06C41.8462 268.247 41.5329 268.287 41.2395 268.18C40.9462 268.06 40.7195 267.853 40.5595 267.56C40.4129 267.293 40.3662 267.007 40.4195 266.7C40.4729 266.393 40.6529 266.153 40.9595 265.98L44.3395 264.1C44.6862 263.913 44.9862 263.78 45.2395 263.7C45.4929 263.62 45.7395 263.58 45.9795 263.58ZM60.3419 263.7C60.6485 263.7 60.8752 263.807 61.0219 264.02C61.1685 264.233 61.2419 264.487 61.2419 264.78C61.2419 265.073 61.1685 265.327 61.0219 265.54C60.8752 265.753 60.6485 265.86 60.3419 265.86H54.4019V269.88H59.9219C60.2285 269.88 60.4552 269.987 60.6019 270.2C60.7485 270.413 60.8219 270.667 60.8219 270.96C60.8219 271.253 60.7485 271.507 60.6019 271.72C60.4552 271.933 60.2285 272.04 59.9219 272.04H54.4019V276.94C54.4019 277.327 54.2752 277.607 54.0219 277.78C53.7685 277.953 53.4685 278.04 53.1219 278.04C52.7752 278.04 52.4752 277.953 52.2219 277.78C51.9685 277.607 51.8419 277.327 51.8419 276.94V265.36C51.8419 264.733 51.9619 264.3 52.2019 264.06C52.4552 263.82 52.9019 263.7 53.5419 263.7H60.3419ZM68.803 263.58C69.1896 263.58 69.5096 263.667 69.763 263.84C70.0163 264.013 70.143 264.293 70.143 264.68V276.94C70.143 277.327 70.0163 277.607 69.763 277.78C69.5096 277.953 69.2096 278.04 68.863 278.04C68.5163 278.04 68.2163 277.953 67.963 277.78C67.7096 277.607 67.583 277.327 67.583 276.94V266.58L65.003 268.06C64.6696 268.247 64.3563 268.287 64.063 268.18C63.7696 268.06 63.543 267.853 63.383 267.56C63.2363 267.293 63.1896 267.007 63.243 266.7C63.2963 266.393 63.4763 266.153 63.783 265.98L67.163 264.1C67.5096 263.913 67.8096 263.78 68.063 263.7C68.3163 263.62 68.563 263.58 68.803 263.58ZM80.2653 263.7C81.7986 263.7 82.9386 263.993 83.6853 264.58C84.432 265.153 84.8053 266.047 84.8053 267.26V267.5C84.8053 267.833 84.7653 268.153 84.6853 268.46C84.6053 268.767 84.472 269.053 84.2853 269.32C84.112 269.573 83.8786 269.8 83.5853 270C83.3053 270.187 82.952 270.333 82.5253 270.44C82.9653 270.507 83.3653 270.62 83.7253 270.78C84.0853 270.94 84.392 271.16 84.6453 271.44C84.912 271.707 85.112 272.033 85.2453 272.42C85.392 272.793 85.4653 273.24 85.4653 273.76V274.08C85.4653 275.293 85.092 276.24 84.3453 276.92C83.5986 277.587 82.4453 277.92 80.8853 277.92H76.3653C75.7253 277.92 75.2786 277.8 75.0253 277.56C74.7853 277.32 74.6653 276.887 74.6653 276.26V265.36C74.6653 264.733 74.7853 264.3 75.0253 264.06C75.2786 263.82 75.7253 263.7 76.3653 263.7H80.2653ZM77.2053 275.8H79.5253C80.0853 275.8 80.572 275.78 80.9853 275.74C81.412 275.7 81.7586 275.613 82.0253 275.48C82.3053 275.333 82.512 275.127 82.6453 274.86C82.7786 274.593 82.8453 274.24 82.8453 273.8V273.54C82.8453 273.207 82.792 272.913 82.6853 272.66C82.5786 272.407 82.392 272.2 82.1253 272.04C81.8586 271.88 81.4986 271.76 81.0453 271.68C80.592 271.6 80.0253 271.56 79.3453 271.56H77.2053V275.8ZM77.2053 269.48H79.2853C79.872 269.48 80.352 269.453 80.7253 269.4C81.112 269.333 81.412 269.227 81.6253 269.08C81.852 268.933 82.0053 268.74 82.0853 268.5C82.1653 268.26 82.2053 267.953 82.2053 267.58V267.4C82.2053 266.76 81.9653 266.34 81.4853 266.14C81.0186 265.927 80.2453 265.82 79.1653 265.82H77.2053V269.48ZM91.748 263.48C92.668 263.48 93.4546 263.627 94.108 263.92C94.7613 264.2 95.2946 264.607 95.708 265.14C96.1213 265.673 96.4213 266.32 96.608 267.08C96.808 267.827 96.908 268.66 96.908 269.58V270.3C96.908 271.887 96.768 273.193 96.488 274.22C96.2213 275.233 95.8346 276.033 95.328 276.62C94.8346 277.193 94.2346 277.593 93.528 277.82C92.8213 278.033 92.0413 278.14 91.188 278.14C90.548 278.14 89.9546 278.08 89.408 277.96C88.8613 277.84 88.4146 277.68 88.068 277.48C87.7613 277.293 87.5746 277.073 87.508 276.82C87.4413 276.567 87.468 276.287 87.588 275.98C87.708 275.673 87.8946 275.467 88.148 275.36C88.4146 275.24 88.7213 275.253 89.068 275.4C89.7613 275.68 90.5213 275.82 91.348 275.82C91.8146 275.82 92.228 275.753 92.588 275.62C92.948 275.487 93.248 275.267 93.488 274.96C93.7413 274.653 93.9413 274.253 94.088 273.76C94.2346 273.253 94.328 272.627 94.368 271.88C94.0213 272.293 93.548 272.607 92.948 272.82C92.3613 273.033 91.7546 273.14 91.128 273.14C90.4213 273.14 89.788 273.033 89.228 272.82C88.6813 272.593 88.2146 272.28 87.828 271.88C87.4413 271.48 87.1413 271 86.928 270.44C86.728 269.867 86.628 269.227 86.628 268.52V268.22C86.628 267.553 86.7413 266.933 86.968 266.36C87.208 265.773 87.548 265.267 87.988 264.84C88.428 264.413 88.9613 264.08 89.588 263.84C90.228 263.6 90.948 263.48 91.748 263.48ZM91.808 265.8C90.928 265.8 90.2613 266.02 89.808 266.46C89.368 266.887 89.148 267.5 89.148 268.3V268.42C89.148 269.26 89.3546 269.887 89.768 270.3C90.1813 270.7 90.828 270.9 91.708 270.9C92.1613 270.9 92.5546 270.84 92.888 270.72C93.2213 270.587 93.4946 270.413 93.708 270.2C93.9213 269.973 94.0746 269.713 94.168 269.42C94.2746 269.127 94.328 268.813 94.328 268.48V268.28C94.328 267.493 94.1146 266.887 93.688 266.46C93.2613 266.02 92.6346 265.8 91.808 265.8Z" fill="#A1C83D"/>
</svg>
