<svg width="203" height="426" viewBox="0 0 203 426" fill="none" xmlns="http://www.w3.org/2000/svg">
<rect y="270" width="203" height="156" rx="15" fill="#FFC861"/>
<rect y="172" width="203" height="193" rx="15" fill="#FFE687"/>
<rect width="203" height="294" rx="15" fill="#FFF3C7"/>
<path d="M22.14 263.58C22.42 263.607 22.64 263.707 22.8 263.88C22.9733 264.04 23.04 264.273 23 264.58L22.64 267.26H25.02L25.42 264.42C25.4467 264.153 25.5667 263.94 25.78 263.78C25.9933 263.62 26.26 263.553 26.58 263.58C26.86 263.607 27.08 263.707 27.24 263.88C27.4133 264.04 27.48 264.273 27.44 264.58L27.08 267.26H28.06C28.38 267.26 28.6133 267.367 28.76 267.58C28.9067 267.793 28.98 268.04 28.98 268.32C28.98 268.6 28.9067 268.847 28.76 269.06C28.6133 269.273 28.38 269.38 28.06 269.38H26.78L26.42 272.12H27.44C27.76 272.12 27.9933 272.227 28.14 272.44C28.2867 272.653 28.36 272.9 28.36 273.18C28.36 273.46 28.2867 273.707 28.14 273.92C27.9933 274.133 27.76 274.24 27.44 274.24H26.14L25.74 277.2C25.7133 277.467 25.5933 277.68 25.38 277.84C25.1667 278 24.8933 278.067 24.56 278.04C24.28 278.013 24.0533 277.92 23.88 277.76C23.72 277.587 23.66 277.347 23.7 277.04L24.08 274.24H21.7L21.3 277.2C21.2733 277.467 21.1533 277.68 20.94 277.84C20.7267 278 20.4533 278.067 20.12 278.04C19.84 278.013 19.6133 277.92 19.44 277.76C19.28 277.587 19.22 277.347 19.26 277.04L19.64 274.24H18.64C18.32 274.24 18.0867 274.133 17.94 273.92C17.7933 273.707 17.72 273.46 17.72 273.18C17.72 272.9 17.7933 272.653 17.94 272.44C18.0867 272.227 18.32 272.12 18.64 272.12H19.92L20.3 269.38H19.26C18.94 269.38 18.7067 269.273 18.56 269.06C18.4133 268.847 18.34 268.6 18.34 268.32C18.34 268.04 18.4133 267.793 18.56 267.58C18.7067 267.367 18.94 267.26 19.26 267.26H20.58L20.98 264.42C21.0067 264.153 21.1267 263.94 21.34 263.78C21.5533 263.62 21.82 263.553 22.14 263.58ZM21.96 272.12H24.38L24.76 269.38H22.32L21.96 272.12ZM39.9716 263.7C40.2782 263.7 40.5049 263.807 40.6516 264.02C40.7982 264.233 40.8716 264.487 40.8716 264.78C40.8716 265.073 40.7982 265.327 40.6516 265.54C40.5049 265.753 40.2782 265.86 39.9716 265.86H34.0316V269.88H39.5516C39.8582 269.88 40.0849 269.987 40.2316 270.2C40.3782 270.413 40.4516 270.667 40.4516 270.96C40.4516 271.253 40.3782 271.507 40.2316 271.72C40.0849 271.933 39.8582 272.04 39.5516 272.04H34.0316V276.94C34.0316 277.327 33.9049 277.607 33.6516 277.78C33.3982 277.953 33.0982 278.04 32.7516 278.04C32.4049 278.04 32.1049 277.953 31.8516 277.78C31.5982 277.607 31.4716 277.327 31.4716 276.94V265.36C31.4716 264.733 31.5916 264.3 31.8316 264.06C32.0849 263.82 32.5316 263.7 33.1716 263.7H39.9716ZM50.9927 263.7C51.2993 263.7 51.526 263.807 51.6727 264.02C51.8193 264.233 51.8927 264.487 51.8927 264.78C51.8927 265.073 51.8193 265.327 51.6727 265.54C51.526 265.753 51.2993 265.86 50.9927 265.86H45.0527V269.88H50.5727C50.8793 269.88 51.106 269.987 51.2527 270.2C51.3993 270.413 51.4727 270.667 51.4727 270.96C51.4727 271.253 51.3993 271.507 51.2527 271.72C51.106 271.933 50.8793 272.04 50.5727 272.04H45.0527V276.94C45.0527 277.327 44.926 277.607 44.6727 277.78C44.4193 277.953 44.1193 278.04 43.7727 278.04C43.426 278.04 43.126 277.953 42.8727 277.78C42.6193 277.607 42.4927 277.327 42.4927 276.94V265.36C42.4927 264.733 42.6127 264.3 42.8527 264.06C43.106 263.82 43.5527 263.7 44.1927 263.7H50.9927ZM62.0138 263.7C62.3204 263.7 62.5471 263.807 62.6937 264.02C62.8404 264.233 62.9137 264.487 62.9137 264.78C62.9137 265.073 62.8404 265.327 62.6937 265.54C62.5471 265.753 62.3204 265.86 62.0138 265.86H56.0737V269.88H61.5937C61.9004 269.88 62.1271 269.987 62.2738 270.2C62.4204 270.413 62.4937 270.667 62.4937 270.96C62.4937 271.253 62.4204 271.507 62.2738 271.72C62.1271 271.933 61.9004 272.04 61.5937 272.04H56.0737V276.94C56.0737 277.327 55.9471 277.607 55.6937 277.78C55.4404 277.953 55.1404 278.04 54.7937 278.04C54.4471 278.04 54.1471 277.953 53.8937 277.78C53.6404 277.607 53.5137 277.327 53.5137 276.94V265.36C53.5137 264.733 53.6337 264.3 53.8737 264.06C54.1271 263.82 54.5737 263.7 55.2137 263.7H62.0138ZM68.6348 263.48C69.4482 263.48 70.1548 263.58 70.7548 263.78C71.3548 263.98 71.8482 264.247 72.2348 264.58C72.6348 264.913 72.9282 265.3 73.1148 265.74C73.3015 266.18 73.3948 266.64 73.3948 267.12V267.22C73.3948 267.58 73.3415 267.94 73.2348 268.3C73.1282 268.647 72.9682 268.973 72.7548 269.28C72.5548 269.573 72.3082 269.833 72.0148 270.06C71.7215 270.273 71.3882 270.44 71.0148 270.56C71.3882 270.613 71.7548 270.713 72.1148 270.86C72.4748 271.007 72.7948 271.213 73.0748 271.48C73.3548 271.733 73.5748 272.053 73.7348 272.44C73.9082 272.813 73.9948 273.26 73.9948 273.78V273.98C73.9948 274.54 73.8815 275.073 73.6548 275.58C73.4282 276.073 73.0948 276.513 72.6548 276.9C72.2148 277.273 71.6682 277.573 71.0148 277.8C70.3615 278.027 69.6082 278.14 68.7548 278.14C67.9682 278.14 67.2482 278.06 66.5948 277.9C65.9415 277.727 65.3215 277.453 64.7348 277.08C64.4282 276.88 64.2482 276.627 64.1948 276.32C64.1548 276 64.2215 275.7 64.3948 275.42C64.5815 275.113 64.8082 274.927 65.0748 274.86C65.3415 274.793 65.6282 274.853 65.9348 275.04C66.4015 275.347 66.8348 275.56 67.2348 275.68C67.6348 275.8 68.0815 275.86 68.5748 275.86C69.1082 275.86 69.5548 275.813 69.9148 275.72C70.2748 275.613 70.5615 275.473 70.7748 275.3C71.0015 275.113 71.1615 274.9 71.2548 274.66C71.3615 274.407 71.4148 274.14 71.4148 273.86V273.7C71.4148 273.02 71.1882 272.52 70.7348 272.2C70.2815 271.867 69.5415 271.7 68.5148 271.7H67.4548C67.1348 271.7 66.9015 271.593 66.7548 271.38C66.6082 271.167 66.5348 270.907 66.5348 270.6C66.5348 270.293 66.6082 270.033 66.7548 269.82C66.9015 269.607 67.1348 269.5 67.4548 269.5H68.2948C69.1882 269.5 69.8415 269.333 70.2548 269C70.6815 268.653 70.8948 268.133 70.8948 267.44V267.38C70.8948 266.873 70.7148 266.473 70.3548 266.18C69.9948 265.873 69.4148 265.72 68.6148 265.72C68.1348 265.72 67.7215 265.8 67.3748 265.96C67.0415 266.12 66.7015 266.353 66.3548 266.66C66.1015 266.887 65.8282 266.987 65.5348 266.96C65.2415 266.92 65.0015 266.78 64.8148 266.54C64.6148 266.3 64.5215 266.04 64.5348 265.76C64.5615 265.48 64.6682 265.227 64.8548 265C65.2815 264.533 65.8082 264.167 66.4348 263.9C67.0615 263.62 67.7948 263.48 68.6348 263.48ZM81.8972 263.48C82.8172 263.48 83.6172 263.58 84.2972 263.78C84.9772 263.98 85.5505 264.24 86.0172 264.56C86.3239 264.773 86.4905 265.033 86.5172 265.34C86.5439 265.647 86.4639 265.933 86.2772 266.2C86.1039 266.453 85.8772 266.62 85.5972 266.7C85.3172 266.78 85.0372 266.733 84.7572 266.56C84.3305 266.307 83.8972 266.127 83.4572 266.02C83.0172 265.9 82.4772 265.84 81.8372 265.84C80.7305 265.84 79.8772 266.207 79.2772 266.94C78.6772 267.66 78.3772 268.88 78.3772 270.6V271.02C78.3772 272.7 78.6639 273.913 79.2372 274.66C79.8105 275.393 80.6839 275.76 81.8572 275.76C82.5239 275.76 83.1039 275.687 83.5972 275.54C84.1039 275.38 84.5905 275.147 85.0572 274.84C85.3239 274.653 85.6039 274.587 85.8972 274.64C86.1905 274.68 86.4372 274.84 86.6372 275.12C86.8372 275.4 86.9172 275.707 86.8772 276.04C86.8372 276.373 86.6572 276.653 86.3372 276.88C85.7639 277.293 85.0905 277.607 84.3172 277.82C83.5572 278.033 82.7172 278.14 81.7972 278.14C80.8505 278.14 80.0039 278.007 79.2572 277.74C78.5239 277.473 77.8972 277.06 77.3772 276.5C76.8705 275.94 76.4772 275.227 76.1972 274.36C75.9305 273.48 75.7972 272.433 75.7972 271.22V270.4C75.7972 269.187 75.9305 268.147 76.1972 267.28C76.4772 266.4 76.8772 265.68 77.3972 265.12C77.9172 264.56 78.5572 264.147 79.3172 263.88C80.0772 263.613 80.9372 263.48 81.8972 263.48ZM96.8813 263.7C97.4946 263.7 97.9279 263.813 98.1813 264.04C98.4479 264.253 98.5812 264.6 98.5812 265.08C98.5812 265.2 98.5746 265.313 98.5613 265.42C98.5479 265.513 98.5213 265.627 98.4813 265.76C98.4413 265.88 98.3813 266.04 98.3012 266.24C98.2213 266.427 98.1146 266.68 97.9813 267L93.3013 277.38C93.1413 277.74 92.9013 277.947 92.5813 278C92.2746 278.067 91.9746 278.033 91.6813 277.9C91.3879 277.767 91.1679 277.567 91.0213 277.3C90.8879 277.033 90.9146 276.7 91.1013 276.3L95.9013 265.86H89.0613C88.7546 265.86 88.5279 265.753 88.3813 265.54C88.2346 265.327 88.1613 265.073 88.1613 264.78C88.1613 264.487 88.2346 264.233 88.3813 264.02C88.5279 263.807 88.7546 263.7 89.0613 263.7H96.8813Z" fill="#FFC861"/>
</svg>
