<svg width="203" height="426" viewBox="0 0 203 426" fill="none" xmlns="http://www.w3.org/2000/svg">
<rect y="270" width="203" height="156" rx="15" fill="#86BBFC"/>
<rect y="172" width="203" height="193" rx="15" fill="#AED3FE"/>
<rect width="203" height="294" rx="15" fill="#DBECFF"/>
<path d="M22.14 263.58C22.42 263.607 22.64 263.707 22.8 263.88C22.9733 264.04 23.04 264.273 23 264.58L22.64 267.26H25.02L25.42 264.42C25.4467 264.153 25.5667 263.94 25.78 263.78C25.9933 263.62 26.26 263.553 26.58 263.58C26.86 263.607 27.08 263.707 27.24 263.88C27.4133 264.04 27.48 264.273 27.44 264.58L27.08 267.26H28.06C28.38 267.26 28.6133 267.367 28.76 267.58C28.9067 267.793 28.98 268.04 28.98 268.32C28.98 268.6 28.9067 268.847 28.76 269.06C28.6133 269.273 28.38 269.38 28.06 269.38H26.78L26.42 272.12H27.44C27.76 272.12 27.9933 272.227 28.14 272.44C28.2867 272.653 28.36 272.9 28.36 273.18C28.36 273.46 28.2867 273.707 28.14 273.92C27.9933 274.133 27.76 274.24 27.44 274.24H26.14L25.74 277.2C25.7133 277.467 25.5933 277.68 25.38 277.84C25.1667 278 24.8933 278.067 24.56 278.04C24.28 278.013 24.0533 277.92 23.88 277.76C23.72 277.587 23.66 277.347 23.7 277.04L24.08 274.24H21.7L21.3 277.2C21.2733 277.467 21.1533 277.68 20.94 277.84C20.7267 278 20.4533 278.067 20.12 278.04C19.84 278.013 19.6133 277.92 19.44 277.76C19.28 277.587 19.22 277.347 19.26 277.04L19.64 274.24H18.64C18.32 274.24 18.0867 274.133 17.94 273.92C17.7933 273.707 17.72 273.46 17.72 273.18C17.72 272.9 17.7933 272.653 17.94 272.44C18.0867 272.227 18.32 272.12 18.64 272.12H19.92L20.3 269.38H19.26C18.94 269.38 18.7067 269.273 18.56 269.06C18.4133 268.847 18.34 268.6 18.34 268.32C18.34 268.04 18.4133 267.793 18.56 267.58C18.7067 267.367 18.94 267.26 19.26 267.26H20.58L20.98 264.42C21.0067 264.153 21.1267 263.94 21.34 263.78C21.5533 263.62 21.82 263.553 22.14 263.58ZM21.96 272.12H24.38L24.76 269.38H22.32L21.96 272.12ZM36.4716 263.7C37.5116 263.7 38.4182 263.827 39.1916 264.08C39.9782 264.32 40.6382 264.713 41.1716 265.26C41.7049 265.793 42.1049 266.487 42.3716 267.34C42.6382 268.193 42.7716 269.227 42.7716 270.44V271.18C42.7716 272.393 42.6382 273.427 42.3716 274.28C42.1049 275.133 41.7049 275.833 41.1716 276.38C40.6382 276.913 39.9782 277.307 39.1916 277.56C38.4182 277.8 37.5116 277.92 36.4716 277.92H33.1716C32.5316 277.92 32.0849 277.8 31.8316 277.56C31.5916 277.32 31.4716 276.887 31.4716 276.26V265.36C31.4716 264.733 31.5916 264.3 31.8316 264.06C32.0849 263.82 32.5316 263.7 33.1716 263.7H36.4716ZM34.0116 275.76H36.1316C36.8649 275.76 37.4849 275.68 37.9916 275.52C38.5116 275.36 38.9316 275.093 39.2516 274.72C39.5849 274.347 39.8249 273.86 39.9716 273.26C40.1182 272.647 40.1916 271.887 40.1916 270.98V270.64C40.1916 269.747 40.1182 268.993 39.9716 268.38C39.8249 267.767 39.5849 267.273 39.2516 266.9C38.9316 266.527 38.5116 266.26 37.9916 266.1C37.4849 265.94 36.8649 265.86 36.1316 265.86H34.0116V275.76ZM50.4755 263.7C52.0088 263.7 53.1488 263.993 53.8955 264.58C54.6421 265.153 55.0155 266.047 55.0155 267.26V267.5C55.0155 267.833 54.9755 268.153 54.8955 268.46C54.8155 268.767 54.6821 269.053 54.4955 269.32C54.3221 269.573 54.0888 269.8 53.7955 270C53.5155 270.187 53.1621 270.333 52.7355 270.44C53.1755 270.507 53.5755 270.62 53.9355 270.78C54.2955 270.94 54.6021 271.16 54.8555 271.44C55.1221 271.707 55.3221 272.033 55.4555 272.42C55.6021 272.793 55.6755 273.24 55.6755 273.76V274.08C55.6755 275.293 55.3021 276.24 54.5555 276.92C53.8088 277.587 52.6555 277.92 51.0955 277.92H46.5755C45.9355 277.92 45.4888 277.8 45.2355 277.56C44.9955 277.32 44.8755 276.887 44.8755 276.26V265.36C44.8755 264.733 44.9955 264.3 45.2355 264.06C45.4888 263.82 45.9355 263.7 46.5755 263.7H50.4755ZM47.4155 275.8H49.7355C50.2955 275.8 50.7821 275.78 51.1955 275.74C51.6221 275.7 51.9688 275.613 52.2355 275.48C52.5155 275.333 52.7221 275.127 52.8555 274.86C52.9888 274.593 53.0555 274.24 53.0555 273.8V273.54C53.0555 273.207 53.0021 272.913 52.8955 272.66C52.7888 272.407 52.6021 272.2 52.3355 272.04C52.0688 271.88 51.7088 271.76 51.2555 271.68C50.8021 271.6 50.2355 271.56 49.5555 271.56H47.4155V275.8ZM47.4155 269.48H49.4955C50.0821 269.48 50.5621 269.453 50.9355 269.4C51.3221 269.333 51.6221 269.227 51.8355 269.08C52.0621 268.933 52.2155 268.74 52.2955 268.5C52.3755 268.26 52.4155 267.953 52.4155 267.58V267.4C52.4155 266.76 52.1755 266.34 51.6955 266.14C51.2288 265.927 50.4555 265.82 49.3755 265.82H47.4155V269.48ZM66.0181 263.7C66.3248 263.7 66.5448 263.807 66.6781 264.02C66.8248 264.22 66.8981 264.467 66.8981 264.76C66.8981 265.04 66.8248 265.287 66.6781 265.5C66.5448 265.713 66.3248 265.82 66.0181 265.82H60.0381V269.6H65.6181C65.9115 269.6 66.1248 269.707 66.2581 269.92C66.4048 270.12 66.4781 270.36 66.4781 270.64C66.4781 270.92 66.4048 271.167 66.2581 271.38C66.1248 271.58 65.9115 271.68 65.6181 271.68H60.0381V275.8H66.1581C66.4648 275.8 66.6848 275.907 66.8181 276.12C66.9648 276.333 67.0381 276.58 67.0381 276.86C67.0381 277.153 66.9648 277.407 66.8181 277.62C66.6848 277.82 66.4648 277.92 66.1581 277.92H59.1981C58.5581 277.92 58.1115 277.8 57.8581 277.56C57.6181 277.32 57.4981 276.887 57.4981 276.26V265.36C57.4981 264.733 57.6181 264.3 57.8581 264.06C58.1115 263.82 58.5581 263.7 59.1981 263.7H66.0181ZM74.6261 263.48C75.5461 263.48 76.3461 263.58 77.0261 263.78C77.7061 263.98 78.2794 264.24 78.7461 264.56C79.0528 264.773 79.2194 265.033 79.2461 265.34C79.2728 265.647 79.1928 265.933 79.0061 266.2C78.8328 266.453 78.6061 266.62 78.3261 266.7C78.0461 266.78 77.7661 266.733 77.4861 266.56C77.0594 266.307 76.6261 266.127 76.1861 266.02C75.7461 265.9 75.2061 265.84 74.5661 265.84C73.4594 265.84 72.6061 266.207 72.0061 266.94C71.4061 267.66 71.1061 268.88 71.1061 270.6V271.02C71.1061 272.7 71.3928 273.913 71.9661 274.66C72.5394 275.393 73.4128 275.76 74.5861 275.76C75.2528 275.76 75.8328 275.687 76.3261 275.54C76.8328 275.38 77.3194 275.147 77.7861 274.84C78.0528 274.653 78.3328 274.587 78.6261 274.64C78.9194 274.68 79.1661 274.84 79.3661 275.12C79.5661 275.4 79.6461 275.707 79.6061 276.04C79.5661 276.373 79.3861 276.653 79.0661 276.88C78.4928 277.293 77.8194 277.607 77.0461 277.82C76.2861 278.033 75.4461 278.14 74.5261 278.14C73.5794 278.14 72.7328 278.007 71.9861 277.74C71.2528 277.473 70.6261 277.06 70.1061 276.5C69.5994 275.94 69.2061 275.227 68.9261 274.36C68.6594 273.48 68.5261 272.433 68.5261 271.22V270.4C68.5261 269.187 68.6594 268.147 68.9261 267.28C69.2061 266.4 69.6061 265.68 70.1261 265.12C70.6461 264.56 71.2861 264.147 72.0461 263.88C72.8061 263.613 73.6661 263.48 74.6261 263.48ZM90.1302 263.7C90.4368 263.7 90.6635 263.807 90.8102 264.02C90.9568 264.233 91.0302 264.487 91.0302 264.78C91.0302 265.073 90.9568 265.327 90.8102 265.54C90.6635 265.753 90.4368 265.86 90.1302 265.86H84.1902V269.88H89.7102C90.0168 269.88 90.2435 269.987 90.3902 270.2C90.5368 270.413 90.6102 270.667 90.6102 270.96C90.6102 271.253 90.5368 271.507 90.3902 271.72C90.2435 271.933 90.0168 272.04 89.7102 272.04H84.1902V276.94C84.1902 277.327 84.0635 277.607 83.8102 277.78C83.5568 277.953 83.2568 278.04 82.9102 278.04C82.5635 278.04 82.2635 277.953 82.0102 277.78C81.7568 277.607 81.6302 277.327 81.6302 276.94V265.36C81.6302 264.733 81.7502 264.3 81.9902 264.06C82.2435 263.82 82.6902 263.7 83.3302 263.7H90.1302ZM101.151 263.7C101.458 263.7 101.685 263.807 101.831 264.02C101.978 264.233 102.051 264.487 102.051 264.78C102.051 265.073 101.978 265.327 101.831 265.54C101.685 265.753 101.458 265.86 101.151 265.86H95.2113V269.88H100.731C101.038 269.88 101.265 269.987 101.411 270.2C101.558 270.413 101.631 270.667 101.631 270.96C101.631 271.253 101.558 271.507 101.411 271.72C101.265 271.933 101.038 272.04 100.731 272.04H95.2113V276.94C95.2113 277.327 95.0846 277.607 94.8313 277.78C94.5779 277.953 94.2779 278.04 93.9313 278.04C93.5846 278.04 93.2846 277.953 93.0313 277.78C92.7779 277.607 92.6513 277.327 92.6513 276.94V265.36C92.6513 264.733 92.7713 264.3 93.0113 264.06C93.2646 263.82 93.7113 263.7 94.3513 263.7H101.151Z" fill="#86BBFC"/>
</svg>
