<svg width="176" height="81" viewBox="0 0 176 81" fill="none" xmlns="http://www.w3.org/2000/svg">
<path fill-rule="evenodd" clip-rule="evenodd" d="M70.81 10.9726H73.5763C74.4985 10.9726 75.2597 11.2738 75.8602 11.8762C76.4821 12.4786 76.793 13.2317 76.793 14.1353C76.793 15.0604 76.4821 15.835 75.8602 16.4589C75.2597 17.0828 74.4985 17.3948 73.5763 17.3948H70.81V38.1459C70.81 39.0495 70.499 39.8026 69.8771 40.405C69.2767 41.0074 68.5261 41.3086 67.6255 41.3086C66.7248 41.3086 65.9635 41.0074 65.3416 40.405C64.7197 39.8026 64.4088 39.0495 64.4088 38.1459V17.3948H62.0927C61.6424 17.3948 61.2242 17.3087 60.8382 17.1366C60.4522 16.9645 60.1091 16.7278 59.8089 16.4266C59.5301 16.1254 59.3049 15.7812 59.1334 15.3939C58.9618 15.0066 58.876 14.5871 58.876 14.1353C58.876 13.2317 59.187 12.4786 59.8089 11.8762C60.4308 11.2738 61.1921 10.9726 62.0927 10.9726H64.4088V3.16269C64.4088 2.25906 64.7197 1.50604 65.3416 0.903626C65.9635 0.301209 66.7248 0 67.6255 0C68.5261 0 69.2767 0.301209 69.8771 0.903626C70.499 1.50604 70.81 2.25906 70.81 3.16269V10.9726ZM138.25 8.2911C139.089 9.13036 140.119 9.54999 141.34 9.54999C142.522 9.54999 143.533 9.13036 144.372 8.2911C145.212 7.45184 145.631 6.42184 145.631 5.2011C145.631 3.98036 145.212 2.96944 144.372 2.16833C143.533 1.32907 142.522 0.909443 141.34 0.909443C140.119 0.909443 139.089 1.32907 138.25 2.16833C137.41 2.96944 136.991 3.98036 136.991 5.2011C136.991 6.42184 137.41 7.45184 138.25 8.2911ZM143.628 13.3839C142.98 12.7354 142.217 12.4111 141.34 12.4111C140.424 12.4111 139.642 12.7354 138.993 13.3839C138.383 14.0324 138.078 14.8144 138.078 15.73V38.0466C138.078 38.924 138.383 39.687 138.993 40.3355C139.642 40.984 140.424 41.3083 141.34 41.3083C142.217 41.3083 142.98 40.984 143.628 40.3355C144.277 39.687 144.601 38.924 144.601 38.0466V15.73C144.601 14.8144 144.277 14.0324 143.628 13.3839ZM167.188 13.5573C165.433 12.7943 163.545 12.4128 161.523 12.4128C159.539 12.4128 157.67 12.7943 155.915 13.5573C154.16 14.3202 152.634 15.3502 151.337 16.6472C150.04 17.9443 149.01 19.4702 148.247 21.225C147.484 22.9798 147.103 24.8682 147.103 26.89C147.103 28.8737 147.484 30.743 148.247 32.4978C149.01 34.2526 150.04 35.7785 151.337 37.0755C152.634 38.3726 154.16 39.4026 155.915 40.1655C157.67 40.9285 159.539 41.31 161.523 41.31C163.011 41.31 164.422 41.1002 165.757 40.6805C167.131 40.2609 168.389 39.6696 169.534 38.9067C169.725 39.5933 170.106 40.1655 170.678 40.6233C171.251 41.0811 171.918 41.31 172.681 41.31C173.597 41.31 174.379 40.9857 175.027 40.3372C175.676 39.6887 176 38.9257 176 38.0483V26.89C176 24.8682 175.619 22.9798 174.856 21.225C174.093 19.4702 173.063 17.9443 171.766 16.6472C170.469 15.3502 168.943 14.3202 167.188 13.5573ZM164.613 34.1572C163.659 34.5768 162.629 34.7867 161.523 34.7867C160.455 34.7867 159.425 34.5768 158.433 34.1572C157.479 33.7376 156.64 33.1844 155.915 32.4978C155.228 31.773 154.675 30.9337 154.256 29.98C153.836 28.9882 153.626 27.9582 153.626 26.89C153.626 25.7837 153.836 24.7537 154.256 23.8C154.675 22.8463 155.228 22.0261 155.915 21.3395C156.64 20.6146 157.479 20.0424 158.433 19.6228C159.425 19.2032 160.455 18.9934 161.523 18.9934C162.629 18.9934 163.659 19.2032 164.613 19.6228C165.567 20.0424 166.387 20.6146 167.073 21.3395C167.798 22.0261 168.37 22.8463 168.79 23.8C169.21 24.7537 169.419 25.7837 169.419 26.89C169.419 27.9582 169.21 28.9882 168.79 29.98C168.37 30.9337 167.798 31.773 167.073 32.4978C166.387 33.1844 165.567 33.7376 164.613 34.1572ZM121.107 12.4128C123.129 12.4128 125.017 12.7943 126.772 13.5573C128.527 14.3202 130.052 15.3502 131.349 16.6472C132.647 17.9443 133.677 19.4702 134.439 21.225C135.202 22.9798 135.584 24.8682 135.584 26.89C135.584 28.8737 135.202 30.743 134.439 32.4978C133.677 34.2526 132.647 35.7785 131.349 37.0755C130.052 38.3726 128.527 39.4026 126.772 40.1655C125.017 40.9285 123.129 41.31 121.107 41.31C119.657 41.31 118.265 41.1192 116.93 40.7378C115.594 40.3181 114.355 39.7268 113.21 38.9639V50.3511C113.21 51.2666 112.886 52.0296 112.237 52.64C111.627 53.2885 110.864 53.6127 109.948 53.6127C109.071 53.6127 108.308 53.2885 107.66 52.64C107.011 52.0296 106.687 51.2666 106.687 50.3511V26.89C106.687 24.8682 107.068 22.9798 107.831 21.225C108.594 19.4702 109.624 17.9443 110.921 16.6472C112.218 15.3502 113.744 14.3202 115.499 13.5573C117.254 12.7943 119.123 12.4128 121.107 12.4128ZM121.107 34.7867C122.213 34.7867 123.243 34.5768 124.197 34.1572C125.15 33.7376 125.971 33.1844 126.657 32.4978C127.382 31.773 127.954 30.9337 128.374 29.98C128.794 28.9882 129.003 27.9582 129.003 26.89C129.003 25.7837 128.794 24.7537 128.374 23.8C127.954 22.8463 127.382 22.0261 126.657 21.3395C125.971 20.6146 125.15 20.0424 124.197 19.6228C123.243 19.2032 122.213 18.9934 121.107 18.9934C120.039 18.9934 119.009 19.2032 118.017 19.6228C117.063 20.0424 116.224 20.6146 115.499 21.3395C114.812 22.0261 114.259 22.8463 113.84 23.8C113.42 24.7537 113.21 25.7837 113.21 26.89C113.21 27.9582 113.42 28.9882 113.84 29.98C114.259 30.9337 114.812 31.773 115.499 32.4978C116.224 33.1844 117.063 33.7376 118.017 34.1572C119.009 34.5768 120.039 34.7867 121.107 34.7867ZM96.392 13.5573C94.6372 12.7943 92.7489 12.4128 90.727 12.4128C88.7433 12.4128 86.8741 12.7943 85.1192 13.5573C83.3644 14.3202 81.8385 15.3502 80.5415 16.6472C79.2444 17.9443 78.2144 19.4702 77.4515 21.225C76.6885 22.9798 76.307 24.8682 76.307 26.89C76.307 28.8737 76.6885 30.743 77.4515 32.4978C78.2144 34.2526 79.2444 35.7785 80.5415 37.0755C81.8385 38.3726 83.3644 39.4026 85.1192 40.1655C86.8741 40.9285 88.7433 41.31 90.727 41.31C92.7489 41.31 94.6372 40.9285 96.392 40.1655C98.1468 39.4026 99.6727 38.3726 100.97 37.0755C102.267 35.7785 103.297 34.2526 104.06 32.4978C104.823 30.743 105.204 28.8737 105.204 26.89C105.204 24.8682 104.823 22.9798 104.06 21.225C103.297 19.4702 102.267 17.9443 100.97 16.6472C99.6727 15.3502 98.1468 14.3202 96.392 13.5573ZM93.817 34.1572C92.8633 34.5768 91.8333 34.7867 90.727 34.7867C89.6589 34.7867 88.6289 34.5768 87.637 34.1572C86.6833 33.7376 85.8441 33.1844 85.1192 32.4978C84.4326 31.773 83.8794 30.9337 83.4598 29.98C83.0402 28.9882 82.8304 27.9582 82.8304 26.89C82.8304 25.7837 83.0402 24.7537 83.4598 23.8C83.8794 22.8463 84.4326 22.0261 85.1192 21.3395C85.8441 20.6146 86.6833 20.0424 87.637 19.6228C88.6289 19.2032 89.6589 18.9934 90.727 18.9934C91.8333 18.9934 92.8633 19.2032 93.817 19.6228C94.7707 20.0424 95.5909 20.6146 96.2776 21.3395C97.0024 22.0261 97.5746 22.8463 97.9942 23.8C98.4139 24.7537 98.6237 25.7837 98.6237 26.89C98.6237 27.9582 98.4139 28.9882 97.9942 29.98C97.5746 30.9337 97.0024 31.773 96.2776 32.4978C95.5909 33.1844 94.7707 33.7376 93.817 34.1572ZM45.4018 12.4399C47.4215 12.4399 49.3078 12.821 51.0608 13.5831C52.8137 14.3452 54.338 15.3741 55.6337 16.6698C56.9293 17.9654 57.9582 19.4897 58.7203 21.2427C59.4825 22.9956 59.8636 24.8819 59.8636 26.9016V38.048C59.8636 38.9244 59.5396 39.6866 58.8918 40.3344C58.244 40.9822 57.4628 41.3061 56.5482 41.3061C55.7861 41.3061 55.1192 41.0775 54.5476 40.6202C53.976 40.1629 53.5949 39.5913 53.4044 38.9054C52.2612 39.6675 51.0036 40.2582 49.6318 40.6774C48.298 41.0965 46.888 41.3061 45.4018 41.3061C43.4203 41.3061 41.553 40.9251 39.8001 40.1629C38.0471 39.4008 36.5229 38.3719 35.2272 37.0762C33.9316 35.7806 32.9027 34.2563 32.1405 32.5034C31.3784 30.7504 30.9973 28.8832 30.9973 26.9016C30.9973 24.8819 31.3784 22.9956 32.1405 21.2427C32.9027 19.4897 33.9316 17.9654 35.2272 16.6698C36.5229 15.3741 38.0471 14.3452 39.8001 13.5831C41.553 12.821 43.4203 12.4399 45.4018 12.4399ZM45.4018 34.7898C46.507 34.7898 47.5359 34.5802 48.4885 34.161C49.4412 33.7418 50.2605 33.1893 50.9465 32.5034C51.6705 31.7793 52.2421 30.941 52.6613 29.9883C53.0805 28.9975 53.2901 27.9686 53.2901 26.9016C53.2901 25.7965 53.0805 24.7676 52.6613 23.8149C52.2421 22.8622 51.6705 22.0429 50.9465 21.357C50.2605 20.6329 49.4412 20.0613 48.4885 19.6422C47.5359 19.223 46.507 19.0134 45.4018 19.0134C44.3348 19.0134 43.3059 19.223 42.3152 19.6422C41.3625 20.0613 40.5241 20.6329 39.8001 21.357C39.1141 22.0429 38.5616 22.8622 38.1424 23.8149C37.7232 24.7676 37.5136 25.7965 37.5136 26.9016C37.5136 27.9686 37.7232 28.9975 38.1424 29.9883C38.5616 30.941 39.1141 31.7793 39.8001 32.5034C40.5241 33.1893 41.3625 33.7418 42.3152 34.161C43.3059 34.5802 44.3348 34.7898 45.4018 34.7898ZM24.39 15.3103C22.9988 14.287 21.4625 13.5137 19.7809 12.9903C17.0576 12.1426 14.4425 12.1101 11.9353 12.8926L11.4553 13.0425C8.6547 14.0727 6.35011 15.6604 4.54147 17.8055C2.66613 20.0495 1.59463 22.6182 1.32697 25.5116C1.1474 27.4995 1.34066 29.4003 1.90676 31.2139C2.07588 31.7558 2.27794 32.2884 2.51293 32.8119L1.34237 33.7484C-0.199992 34.9823 -0.450058 37.2329 0.783829 38.7752C2.01772 40.3176 4.26831 40.5676 5.81066 39.3338L6.9365 38.4331C7.59131 38.9337 8.28728 39.3772 9.02441 39.7636C11.8941 41.268 14.9514 41.748 18.1963 41.2035C18.8941 41.0637 19.5809 40.8884 20.2566 40.6775C22.6215 39.9393 24.6609 38.6588 26.375 36.8359C27.6622 35.4585 28.813 33.3626 29.8274 30.5483C29.9865 29.9327 29.9745 29.3316 29.7913 28.7448C29.7136 28.4959 29.6037 28.2375 29.4616 27.9696C28.9996 27.1772 28.323 26.6664 27.4319 26.4372C26.8164 26.2781 26.2063 26.2929 25.6018 26.4815C25.3528 26.5592 25.115 26.6725 24.8883 26.8213C24.1014 27.3011 23.5845 27.9893 23.3375 28.886C22.778 30.407 22.1643 31.5352 21.4962 32.2706C20.5402 33.2715 19.3955 33.98 18.0619 34.3963L17.8218 34.4712C16.3594 34.8496 14.9371 34.8252 13.5549 34.3981C13.1871 34.3057 12.8255 34.1751 12.4702 34.0062L29.6532 20.2597C31.1956 19.0258 31.4456 16.7752 30.2118 15.2329C28.9779 13.6905 26.7273 13.4405 25.1849 14.6743L24.39 15.3103ZM18.8474 19.7444C17.4349 19.1241 16.0008 18.9396 14.5451 19.1906C14.1372 19.2594 13.7377 19.3548 13.3466 19.4769C10.7683 20.2817 9.08539 22.0168 8.29777 24.6823C7.92168 25.8817 7.85627 27.1013 8.10154 28.341L18.8474 19.7444Z" fill="url(#paint0_linear_5149_401)"/>
<path d="M6.272 63.3109V64.5749C6.272 65.5509 6.576 66.2229 7.264 66.8149C7.968 67.4069 8.576 67.8869 9.056 68.2389C9.504 68.5589 9.472 69.0709 9.184 69.4709C8.944 69.8069 8.416 70.0629 7.936 69.7269C7.552 69.4549 6.96 68.9909 6.336 68.4629C5.584 67.8389 5.344 67.5509 5.264 67.2309H5.248C5.168 67.5989 4.88 67.9509 4.128 68.5749C3.504 69.1029 2.912 69.5669 2.288 70.0149C1.824 70.3509 1.28 70.0949 1.04 69.7589C0.768 69.3749 0.688 68.8149 1.184 68.4629C1.888 67.9509 2.496 67.4709 3.2 66.8789C3.888 66.2869 4.192 65.6149 4.192 64.6389V63.3109C4.192 62.7029 4.688 62.4309 5.232 62.4309C5.776 62.4309 6.272 62.7029 6.272 63.3109ZM12.768 62.7989V69.8229C12.768 70.4149 12.272 70.6869 11.744 70.6869C11.216 70.6869 10.72 70.4149 10.72 69.8229V62.7989C10.72 62.2069 11.216 61.9349 11.744 61.9349C12.272 61.9349 12.768 62.2069 12.768 62.7989ZM10.72 76.1109V73.3749C10.72 73.1029 10.624 73.0069 10.352 73.0069H3.6C3.104 73.0069 2.88 72.6069 2.88 72.1429C2.88 71.6789 3.104 71.2789 3.6 71.2789H11.408C12.432 71.2789 12.768 71.5989 12.768 72.6069V76.1109C12.768 76.7029 12.272 76.9749 11.744 76.9749C11.216 76.9749 10.72 76.7029 10.72 76.1109ZM21.1385 64.3509H17.1705C16.8985 64.3509 16.8025 64.4469 16.8025 64.7189V65.6469H20.9945C21.4745 65.6469 21.6985 66.0309 21.6985 66.4789C21.6985 66.9269 21.4745 67.3109 20.9945 67.3109H16.8025V68.2549C16.8025 68.5269 16.8985 68.6229 17.1705 68.6229C19.0105 68.6229 20.6585 68.5269 22.2105 68.3189C22.7065 68.2549 22.9945 68.5909 23.0425 69.0389C23.0905 69.5029 22.9305 69.9349 22.4665 69.9989C21.1545 70.1749 19.3145 70.3189 16.1465 70.3189C15.1225 70.3189 14.7865 69.9989 14.7865 68.9909V63.9829C14.7865 62.9749 15.1225 62.6549 16.1465 62.6549H21.1385C21.6345 62.6549 21.8585 63.0549 21.8585 63.5029C21.8585 63.9509 21.6345 64.3509 21.1385 64.3509ZM25.8425 65.4549H27.3465C27.8585 65.4549 28.0825 65.8549 28.0825 66.3349C28.0825 66.8309 27.8585 67.2309 27.3465 67.2309H25.8425V70.1429C25.8425 70.7349 25.3465 71.0069 24.8185 71.0069C24.2905 71.0069 23.7945 70.7349 23.7945 70.1429V62.7989C23.7945 62.2069 24.2905 61.9349 24.8185 61.9349C25.3465 61.9349 25.8425 62.2069 25.8425 62.7989V65.4549ZM23.7945 76.1109V73.6949C23.7945 73.4229 23.6985 73.3269 23.4265 73.3269H16.8345C16.3385 73.3269 16.1145 72.9269 16.1145 72.4629C16.1145 71.9989 16.3385 71.5989 16.8345 71.5989H24.4825C25.5065 71.5989 25.8425 71.9189 25.8425 72.9269V76.1109C25.8425 76.7029 25.3465 76.9749 24.8185 76.9749C24.2905 76.9749 23.7945 76.7029 23.7945 76.1109ZM33.045 68.7669C30.453 68.7669 29.109 67.4869 29.109 65.6309C29.109 63.7749 30.453 62.4949 33.045 62.4949C35.637 62.4949 36.981 63.7749 36.981 65.6309C36.981 67.4869 35.637 68.7669 33.045 68.7669ZM33.045 64.1749C31.685 64.1749 31.045 64.7509 31.045 65.6309C31.045 66.5109 31.685 67.0869 33.045 67.0869C34.405 67.0869 35.045 66.5109 35.045 65.6309C35.045 64.7509 34.405 64.1749 33.045 64.1749ZM38.549 75.0549V62.7989C38.549 62.2069 39.045 61.9349 39.573 61.9349C40.085 61.9349 40.581 62.2069 40.581 62.7989V75.0549C40.581 75.6469 40.085 75.9189 39.573 75.9189C39.045 75.9189 38.549 75.6469 38.549 75.0549ZM28.933 69.7589C31.653 69.7589 34.453 69.7269 37.141 69.4869C37.637 69.4389 37.893 69.7749 37.925 70.2389C37.957 70.6869 37.781 71.1189 37.301 71.1669C36.389 71.2469 35.285 71.3269 34.085 71.3749V74.8949C34.085 75.4869 33.589 75.7589 33.077 75.7589C32.549 75.7589 32.053 75.4869 32.053 74.8949V71.4389C31.029 71.4549 29.973 71.4709 28.933 71.4709C28.437 71.4709 28.213 71.0709 28.213 70.6069C28.213 70.1589 28.437 69.7589 28.933 69.7589ZM46.7595 69.9349C44.1355 69.9349 42.7755 68.4309 42.7755 66.3509C42.7755 64.2709 44.1355 62.7669 46.7595 62.7669C49.3835 62.7669 50.7435 64.2709 50.7435 66.3509C50.7435 68.4309 49.3835 69.9349 46.7595 69.9349ZM46.7595 64.4629C45.3675 64.4629 44.7115 65.2469 44.7115 66.3509C44.7115 67.4549 45.3675 68.2389 46.7595 68.2389C48.1515 68.2389 48.8075 67.4549 48.8075 66.3509C48.8075 65.2469 48.1515 64.4629 46.7595 64.4629ZM51.0635 73.1509C48.9355 73.3429 45.7675 73.4549 42.6955 73.4549C42.1995 73.4549 41.9755 73.0549 41.9755 72.5749C41.9755 72.1109 42.1995 71.7109 42.6955 71.7109C45.4155 71.7109 48.2315 71.6789 50.9195 71.4389C51.4155 71.3909 51.6555 71.7429 51.6875 72.2069C51.7195 72.6709 51.5435 73.1029 51.0635 73.1509ZM52.3115 75.0549V62.7989C52.3115 62.2069 52.8075 61.9349 53.3355 61.9349C53.8475 61.9349 54.3435 62.2069 54.3435 62.7989V75.0549C54.3435 75.6469 53.8475 75.9189 53.3355 75.9189C52.8075 75.9189 52.3115 75.6469 52.3115 75.0549ZM60.49 65.6949C60.49 63.4869 62.394 62.3029 65.53 62.3029C68.666 62.3029 70.57 63.4869 70.57 65.6949C70.57 67.9029 68.666 69.0869 65.53 69.0869C62.394 69.0869 60.49 67.9029 60.49 65.6949ZM68.522 65.6949C68.522 64.7189 67.658 64.0309 65.53 64.0309C63.402 64.0309 62.538 64.7189 62.538 65.6949C62.538 66.6709 63.402 67.3589 65.53 67.3589C67.658 67.3589 68.522 66.6709 68.522 65.6949ZM66.794 71.9829H64.266V76.1109C64.266 76.7029 63.786 76.9589 63.29 76.9589C62.778 76.9589 62.298 76.7029 62.298 76.1109V71.9829H59.482C58.986 71.9829 58.762 71.5829 58.762 71.1349C58.762 70.6709 58.986 70.2709 59.482 70.2709H71.578C72.074 70.2709 72.298 70.6709 72.298 71.1349C72.298 71.5829 72.074 71.9829 71.578 71.9829H68.762V76.1109C68.762 76.7029 68.282 76.9589 67.786 76.9589C67.274 76.9589 66.794 76.7029 66.794 76.1109V71.9829ZM85.3405 74.6069H73.2445C72.7485 74.6069 72.5245 74.2069 72.5245 73.7429C72.5245 73.2789 72.7485 72.8789 73.2445 72.8789H78.2685V70.7189H75.6125C74.5885 70.7189 74.2525 70.3989 74.2525 69.3909V64.0949C74.2525 63.0869 74.5885 62.7669 75.6125 62.7669H83.5645C84.0605 62.7669 84.2845 63.1669 84.2845 63.6309C84.2845 64.0949 84.0605 64.4949 83.5645 64.4949H76.6205C76.3485 64.4949 76.2525 64.5909 76.2525 64.8629V65.9029H83.4045C83.9005 65.9029 84.1245 66.3029 84.1245 66.7349C84.1245 67.1669 83.9005 67.5669 83.4045 67.5669H76.2525V68.6229C76.2525 68.8949 76.3485 68.9909 76.6205 68.9909H83.8045C84.3005 68.9909 84.5245 69.3909 84.5245 69.8549C84.5245 70.3189 84.3005 70.7189 83.8045 70.7189H80.3165V72.8789H85.3405C85.8365 72.8789 86.0605 73.2789 86.0605 73.7429C86.0605 74.2069 85.8365 74.6069 85.3405 74.6069ZM87.343 72.3349C86.847 72.3349 86.623 71.9349 86.623 71.4869C86.623 71.0389 86.847 70.6389 87.343 70.6389H88.191V64.7509H87.439C86.943 64.7509 86.719 64.3509 86.719 63.9029C86.719 63.4549 86.943 63.0549 87.439 63.0549H94.447C94.943 63.0549 95.167 63.4549 95.167 63.9029C95.167 64.3509 94.943 64.7509 94.447 64.7509H93.807V70.4469C94.111 70.4149 94.399 70.3829 94.703 70.3349C95.199 70.2709 95.487 70.6069 95.535 71.0549C95.583 71.5189 95.423 71.9509 94.959 72.0149C93.039 72.2709 90.943 72.3349 87.343 72.3349ZM90.143 70.6229C90.735 70.6229 91.295 70.6069 91.855 70.5749V64.7509H90.143V70.6229ZM98.543 62.7989V75.0549C98.543 75.6469 98.047 75.9189 97.503 75.9189C96.975 75.9189 96.479 75.6469 96.479 75.0549V62.7989C96.479 62.2069 96.975 61.9349 97.503 61.9349C98.047 61.9349 98.543 62.2069 98.543 62.7989ZM100.209 67.6149C100.209 64.4629 101.505 62.7669 104.049 62.7669C106.593 62.7669 107.889 64.4629 107.889 67.6149C107.889 70.7669 106.593 72.4629 104.049 72.4629C101.505 72.4629 100.209 70.7669 100.209 67.6149ZM105.921 67.6149C105.921 65.5989 105.425 64.5429 104.049 64.5429C102.673 64.5429 102.177 65.5989 102.177 67.6149C102.177 69.6309 102.673 70.6869 104.049 70.6869C105.425 70.6869 105.921 69.6309 105.921 67.6149ZM111.617 66.6549H113.121C113.633 66.6549 113.857 67.0549 113.857 67.5349C113.857 68.0309 113.633 68.4309 113.121 68.4309H111.617V75.0549C111.617 75.6469 111.121 75.9189 110.593 75.9189C110.065 75.9189 109.569 75.6469 109.569 75.0549V62.7989C109.569 62.2069 110.065 61.9349 110.593 61.9349C111.121 61.9349 111.617 62.2069 111.617 62.7989V66.6549ZM115.764 72.7029C116.356 72.8149 116.74 73.2949 116.516 73.9029L115.7 76.1109C115.508 76.6229 115.108 76.7669 114.676 76.6869C114.244 76.6069 113.972 76.3189 114.052 75.8709L114.452 73.4389C114.564 72.7989 115.188 72.5909 115.764 72.7029ZM120.973 66.1749C120.973 64.0629 122.269 62.5269 124.813 62.5269C127.357 62.5269 128.653 64.0629 128.653 66.1749C128.653 68.2869 127.357 69.8229 124.813 69.8229C122.269 69.8229 120.973 68.2869 120.973 66.1749ZM126.701 66.1749C126.701 65.0869 126.189 64.2229 124.813 64.2229C123.437 64.2229 122.925 65.0869 122.925 66.1749C122.925 67.2629 123.437 68.1269 124.813 68.1269C126.189 68.1269 126.701 67.2629 126.701 66.1749ZM132.749 62.7989V70.7349C132.749 71.3269 132.253 71.5989 131.725 71.5989C131.197 71.5989 130.701 71.3269 130.701 70.7349V62.7989C130.701 62.2069 131.197 61.9349 131.725 61.9349C132.253 61.9349 132.749 62.2069 132.749 62.7989ZM128.957 71.4069V71.7909C128.957 72.7669 129.373 73.2789 130.205 73.7269C131.085 74.1909 131.933 74.5909 132.909 75.0389C133.357 75.2469 133.421 75.7749 133.213 76.1909C133.005 76.6069 132.573 76.8629 132.061 76.6389C131.181 76.2549 130.445 75.8869 129.725 75.5029C128.381 74.7829 128.077 74.4149 127.949 74.0309H127.933C127.821 74.4469 127.485 74.8309 126.141 75.5509C125.421 75.9349 124.685 76.3029 123.805 76.6869C123.293 76.9109 122.861 76.6549 122.653 76.2389C122.445 75.7909 122.509 75.2469 122.957 75.0389C123.933 74.5909 124.781 74.1909 125.661 73.7269C126.493 73.2789 126.909 72.7669 126.909 71.7909V71.4069C126.909 70.8149 127.405 70.5429 127.933 70.5429C128.461 70.5429 128.957 70.8149 128.957 71.4069ZM147.072 74.6069H134.976C134.48 74.6069 134.256 74.2069 134.256 73.7429C134.256 73.2789 134.48 72.8789 134.976 72.8789H140V70.7189H137.344C136.32 70.7189 135.984 70.3989 135.984 69.3909V64.0949C135.984 63.0869 136.32 62.7669 137.344 62.7669H145.296C145.792 62.7669 146.016 63.1669 146.016 63.6309C146.016 64.0949 145.792 64.4949 145.296 64.4949H138.352C138.08 64.4949 137.984 64.5909 137.984 64.8629V65.9029H145.136C145.632 65.9029 145.856 66.3029 145.856 66.7349C145.856 67.1669 145.632 67.5669 145.136 67.5669H137.984V68.6229C137.984 68.8949 138.08 68.9909 138.352 68.9909H145.536C146.032 68.9909 146.256 69.3909 146.256 69.8549C146.256 70.3189 146.032 70.7189 145.536 70.7189H142.048V72.8789H147.072C147.568 72.8789 147.792 73.2789 147.792 73.7429C147.792 74.2069 147.568 74.6069 147.072 74.6069ZM149.074 72.3349C148.578 72.3349 148.354 71.9349 148.354 71.4869C148.354 71.0389 148.578 70.6389 149.074 70.6389H149.922V64.7509H149.17C148.674 64.7509 148.45 64.3509 148.45 63.9029C148.45 63.4549 148.674 63.0549 149.17 63.0549H156.178C156.674 63.0549 156.898 63.4549 156.898 63.9029C156.898 64.3509 156.674 64.7509 156.178 64.7509H155.538V70.4469C155.842 70.4149 156.13 70.3829 156.434 70.3349C156.93 70.2709 157.218 70.6069 157.266 71.0549C157.314 71.5189 157.154 71.9509 156.69 72.0149C154.77 72.2709 152.674 72.3349 149.074 72.3349ZM151.874 70.6229C152.466 70.6229 153.026 70.6069 153.586 70.5749V64.7509H151.874V70.6229ZM160.274 62.7989V75.0549C160.274 75.6469 159.778 75.9189 159.234 75.9189C158.706 75.9189 158.21 75.6469 158.21 75.0549V62.7989C158.21 62.2069 158.706 61.9349 159.234 61.9349C159.778 61.9349 160.274 62.2069 160.274 62.7989ZM161.941 67.6149C161.941 64.4629 163.237 62.7669 165.781 62.7669C168.325 62.7669 169.621 64.4629 169.621 67.6149C169.621 70.7669 168.325 72.4629 165.781 72.4629C163.237 72.4629 161.941 70.7669 161.941 67.6149ZM167.653 67.6149C167.653 65.5989 167.157 64.5429 165.781 64.5429C164.405 64.5429 163.909 65.5989 163.909 67.6149C163.909 69.6309 164.405 70.6869 165.781 70.6869C167.157 70.6869 167.653 69.6309 167.653 67.6149ZM173.349 66.6549H174.853C175.365 66.6549 175.589 67.0549 175.589 67.5349C175.589 68.0309 175.365 68.4309 174.853 68.4309H173.349V75.0549C173.349 75.6469 172.853 75.9189 172.325 75.9189C171.797 75.9189 171.301 75.6469 171.301 75.0549V62.7989C171.301 62.2069 171.797 61.9349 172.325 61.9349C172.853 61.9349 173.349 62.2069 173.349 62.7989V66.6549Z" fill="white"/>
<defs>
<linearGradient id="paint0_linear_5149_401" x1="0" y1="26.8064" x2="176" y2="26.8064" gradientUnits="userSpaceOnUse">
<stop stop-color="#F4AFDD"/>
<stop offset="0.365" stop-color="#F7DC75"/>
<stop offset="0.655" stop-color="#BCD1EB"/>
<stop offset="1" stop-color="#9EB366"/>
</linearGradient>
</defs>
</svg>
