<svg width="1040" height="316" viewBox="0 0 1040 316" fill="none" xmlns="http://www.w3.org/2000/svg">
<path d="M953.701 72.623C965.636 72.623 976.782 74.8749 987.141 79.3785C997.499 83.8822 1006.51 89.9621 1014.16 97.6183C1021.82 105.275 1027.9 114.282 1032.4 124.64C1036.91 134.999 1039.16 146.145 1039.16 158.08V223.946C1039.16 229.125 1037.24 233.629 1033.42 237.457C1029.59 241.285 1024.97 243.199 1019.57 243.199C1015.06 243.199 1011.12 241.848 1007.74 239.146C1004.37 236.443 1002.12 233.066 1000.99 229.012C994.234 233.516 986.803 237.006 978.696 239.483C970.815 241.96 962.483 243.199 953.701 243.199C941.992 243.199 930.958 240.947 920.599 236.443C910.241 231.94 901.234 225.86 893.577 218.204C885.921 210.547 879.841 201.54 875.338 191.182C870.834 180.823 868.582 169.789 868.582 158.08C868.582 146.145 870.834 134.999 875.338 124.64C879.841 114.282 885.921 105.275 893.577 97.6183C901.234 89.9621 910.241 83.8822 920.599 79.3785C930.958 74.8749 941.992 72.623 953.701 72.623ZM953.701 204.693C960.231 204.693 966.311 203.454 971.941 200.977C977.571 198.5 982.412 195.235 986.465 191.182C990.744 186.903 994.121 181.949 996.598 176.32C999.075 170.465 1000.31 164.385 1000.31 158.08C1000.31 151.55 999.075 145.47 996.598 139.84C994.121 134.211 990.744 129.369 986.465 125.316C982.412 121.037 977.571 117.66 971.941 115.183C966.311 112.706 960.231 111.467 953.701 111.467C947.396 111.467 941.316 112.706 935.461 115.183C929.832 117.66 924.878 121.037 920.599 125.316C916.546 129.369 913.281 134.211 910.804 139.84C908.327 145.47 907.088 151.55 907.088 158.08C907.088 164.385 908.327 170.465 910.804 176.32C913.281 181.949 916.546 186.903 920.599 191.182C924.878 195.235 929.832 198.5 935.461 200.977C941.316 203.454 947.396 204.693 953.701 204.693Z" fill="white"/>
<path d="M834.55 55.7305C827.344 55.7305 821.264 53.2534 816.31 48.2994C811.356 43.3454 808.879 37.2655 808.879 30.0596C808.879 22.8538 811.356 16.8864 816.31 12.1576C821.264 7.20357 827.344 4.72656 834.55 4.72656C841.53 4.72656 847.498 7.20357 852.452 12.1576C857.406 16.8864 859.883 22.8538 859.883 30.0596C859.883 37.2655 857.406 43.3454 852.452 48.2994C847.498 53.2534 841.53 55.7305 834.55 55.7305ZM834.55 72.6192C839.729 72.6192 844.233 74.5332 848.061 78.3613C851.889 82.1894 853.803 86.8057 853.803 92.2101V223.942C853.803 229.121 851.889 233.625 848.061 237.453C844.233 241.281 839.729 243.195 834.55 243.195C829.145 243.195 824.529 241.281 820.701 237.453C817.098 233.625 815.297 229.121 815.297 223.942V92.2101C815.297 86.8057 817.098 82.1894 820.701 78.3613C824.529 74.5332 829.145 72.6192 834.55 72.6192Z" fill="white"/>
<path d="M715.158 72.623C727.093 72.623 738.239 74.8749 748.598 79.3785C758.956 83.8822 767.963 89.9621 775.62 97.6183C783.276 105.275 789.356 114.282 793.859 124.64C798.363 134.999 800.615 146.145 800.615 158.08C800.615 169.789 798.363 180.823 793.859 191.182C789.356 201.54 783.276 210.547 775.62 218.204C767.963 225.86 758.956 231.94 748.598 236.444C738.239 240.947 727.093 243.199 715.158 243.199C706.601 243.199 698.382 242.073 690.501 239.821C682.619 237.344 675.301 233.854 668.545 229.35V296.567C668.545 301.972 666.631 306.475 662.803 310.078C659.2 313.906 654.697 315.82 649.292 315.82C644.113 315.82 639.609 313.906 635.781 310.078C631.953 306.475 630.039 301.972 630.039 296.567V158.08C630.039 146.145 632.291 134.999 636.795 124.64C641.298 114.282 647.378 105.275 655.034 97.6183C662.691 89.9621 671.698 83.8822 682.056 79.3785C692.415 74.8749 703.449 72.623 715.158 72.623ZM715.158 204.693C721.688 204.693 727.768 203.454 733.398 200.977C739.027 198.5 743.869 195.235 747.922 191.182C752.201 186.903 755.578 181.949 758.055 176.32C760.532 170.465 761.771 164.385 761.771 158.08C761.771 151.55 760.532 145.47 758.055 139.84C755.578 134.211 752.201 129.369 747.922 125.316C743.869 121.037 739.027 117.66 733.398 115.183C727.768 112.706 721.688 111.467 715.158 111.467C708.853 111.467 702.773 112.706 696.918 115.183C691.289 117.66 686.335 121.037 682.056 125.316C678.003 129.369 674.738 134.211 672.261 139.84C669.784 145.47 668.545 151.55 668.545 158.08C668.545 164.385 669.784 170.465 672.261 176.32C674.738 181.949 678.003 186.903 682.056 191.182C686.335 195.235 691.289 198.5 696.918 200.977C702.773 203.454 708.853 204.693 715.158 204.693Z" fill="white"/>
<path d="M535.826 72.623C547.761 72.623 558.907 74.8749 569.266 79.3785C579.624 83.8822 588.631 89.9621 596.288 97.6183C603.944 105.275 610.024 114.282 614.527 124.64C619.031 134.999 621.283 146.145 621.283 158.08C621.283 169.789 619.031 180.823 614.527 191.182C610.024 201.54 603.944 210.547 596.288 218.204C588.631 225.86 579.624 231.94 569.266 236.443C558.907 240.947 547.761 243.199 535.826 243.199C524.117 243.199 513.083 240.947 502.724 236.443C492.366 231.94 483.359 225.86 475.702 218.204C468.046 210.547 461.966 201.54 457.463 191.182C452.959 180.823 450.707 169.789 450.707 158.08C450.707 146.145 452.959 134.999 457.463 124.64C461.966 114.282 468.046 105.275 475.702 97.6183C483.359 89.9621 492.366 83.8822 502.724 79.3785C513.083 74.8749 524.117 72.623 535.826 72.623ZM535.826 204.693C542.356 204.693 548.436 203.454 554.066 200.977C559.695 198.5 564.537 195.235 568.59 191.182C572.869 186.903 576.246 181.949 578.723 176.32C581.2 170.465 582.439 164.385 582.439 158.08C582.439 151.55 581.2 145.47 578.723 139.84C576.246 134.211 572.869 129.369 568.59 125.316C564.537 121.037 559.695 117.66 554.066 115.183C548.436 112.706 542.356 111.467 535.826 111.467C529.521 111.467 523.441 112.706 517.586 115.183C511.957 117.66 507.003 121.037 502.724 125.316C498.671 129.369 495.406 134.211 492.929 139.84C490.452 145.47 489.213 151.55 489.213 158.08C489.213 164.385 490.452 170.465 492.929 176.32C495.406 181.949 498.671 186.903 502.724 191.182C507.003 195.235 511.957 198.5 517.586 200.977C523.441 203.454 529.521 204.693 535.826 204.693Z" fill="white"/>
<path d="M268.1 72.623C280.034 72.623 291.181 74.8749 301.539 79.3785C311.898 83.8822 320.905 89.9621 328.561 97.6183C336.217 105.275 342.297 114.282 346.801 124.64C351.305 134.999 353.556 146.145 353.556 158.08V223.946C353.556 229.125 351.642 233.629 347.814 237.457C343.986 241.285 339.37 243.199 333.966 243.199C329.462 243.199 325.521 241.848 322.143 239.146C318.766 236.443 316.514 233.066 315.388 229.012C308.632 233.516 301.201 237.006 293.095 239.483C285.213 241.96 276.882 243.199 268.1 243.199C256.39 243.199 245.356 240.947 234.998 236.443C224.639 231.94 215.632 225.86 207.976 218.204C200.32 210.547 194.24 201.54 189.736 191.182C185.232 180.823 182.98 169.789 182.98 158.08C182.98 146.145 185.232 134.999 189.736 124.64C194.24 114.282 200.32 105.275 207.976 97.6183C215.632 89.9621 224.639 83.8822 234.998 79.3785C245.356 74.8749 256.39 72.623 268.1 72.623ZM268.1 204.693C274.63 204.693 280.71 203.454 286.339 200.977C291.969 198.5 296.81 195.235 300.864 191.182C305.142 186.903 308.52 181.949 310.997 176.32C313.474 170.465 314.712 164.385 314.712 158.08C314.712 151.55 313.474 145.47 310.997 139.84C308.52 134.211 305.142 129.369 300.864 125.316C296.81 121.037 291.969 117.66 286.339 115.183C280.71 112.706 274.63 111.467 268.1 111.467C261.794 111.467 255.715 112.706 249.86 115.183C244.23 117.66 239.276 121.037 234.998 125.316C230.944 129.369 227.679 134.211 225.202 139.84C222.725 145.47 221.487 151.55 221.487 158.08C221.487 164.385 222.725 170.465 225.202 176.32C227.679 181.949 230.944 186.903 234.998 191.182C239.276 195.235 244.23 198.5 249.86 200.977C255.715 203.454 261.794 204.693 268.1 204.693Z" fill="white"/>
<path d="M418.454 64.5993H434.794C440.241 64.5993 444.737 66.3726 448.284 69.9192C451.957 73.4659 453.794 77.8992 453.794 83.2191C453.794 88.6657 451.957 93.2257 448.284 96.899C444.737 100.572 440.241 102.409 434.794 102.409H418.454V224.578C418.454 229.898 416.617 234.331 412.944 237.877C409.398 241.424 404.964 243.197 399.644 243.197C394.324 243.197 389.828 241.424 386.154 237.877C382.481 234.331 380.644 229.898 380.644 224.578V102.409H366.965C364.305 102.409 361.835 101.902 359.555 100.889C357.275 99.8756 355.248 98.4823 353.475 96.709C351.828 94.9356 350.498 92.909 349.485 90.629C348.472 88.3491 347.965 85.8791 347.965 83.2191C347.965 77.8992 349.801 73.4659 353.475 69.9192C357.148 66.3726 361.645 64.5993 366.965 64.5993H380.644V18.6198C380.644 13.2999 382.481 8.86657 386.154 5.31994C389.828 1.77331 394.324 0 399.644 0C404.964 0 409.398 1.77331 412.944 5.31994C416.617 8.86657 418.454 13.2999 418.454 18.6198V64.5993Z" fill="white"/>
<path fill-rule="evenodd" clip-rule="evenodd" d="M144.233 89.74C136.018 83.6954 126.945 79.1276 117.014 76.0365C100.939 71.0329 85.502 70.8408 70.7028 75.4601L67.8689 76.3446C51.3377 82.426 37.734 91.7978 27.0579 104.46C15.988 117.706 9.66308 132.869 8.08311 149.948C7.02313 161.682 8.16393 172.902 11.5055 183.608C12.5053 186.811 13.7 189.96 15.0897 193.055L8.20097 198.566C-0.903348 205.849 -2.37945 219.134 4.90401 228.238C12.1875 237.343 25.4724 238.819 34.5767 231.535L41.2071 226.231C45.069 229.182 49.1732 231.797 53.52 234.076C70.4595 242.956 88.5062 245.789 107.66 242.575C111.78 241.75 115.834 240.715 119.822 239.47C133.781 235.113 145.82 227.554 155.938 216.794C163.536 208.663 170.329 196.291 176.317 179.679C177.256 176.045 177.185 172.497 176.104 169.033C175.646 167.564 174.997 166.039 174.158 164.458C171.431 159.78 167.437 156.765 162.177 155.412C158.543 154.472 154.942 154.56 151.374 155.674C149.904 156.132 148.501 156.801 147.162 157.679C142.517 160.511 139.466 164.574 138.008 169.867C134.706 178.845 131.083 185.505 127.139 189.846C121.496 195.754 114.739 199.936 106.867 202.393L105.45 202.835C96.8173 205.069 88.4216 204.925 80.2627 202.404C78.0967 201.86 75.9672 201.091 73.8742 200.097L175.316 118.944C184.42 111.66 185.896 98.3755 178.613 89.2712C171.329 80.1668 158.045 78.6907 148.94 85.9742L144.233 89.74ZM111.519 115.912C103.176 112.245 94.7055 111.153 86.1077 112.636C83.7004 113.042 81.3421 113.605 79.0331 114.326C63.8141 119.077 53.88 129.319 49.2307 145.053C47.0091 152.138 46.6241 159.343 48.0756 166.666L111.519 115.912Z" fill="white"/>
</svg>
