<svg width="27" height="24" viewBox="0 0 27 24" fill="none" xmlns="http://www.w3.org/2000/svg">
<path d="M19.8393 0C17.7687 0 15.91 0.898732 14.6053 2.33115C14.0575 2.93265 12.9424 2.93274 12.3945 2.33125C11.0897 0.898775 9.23117 0 7.16014 0C3.20505 0 0 3.27619 0 7.30798C0 11.3398 2.4527 15.0359 5.62292 18.072C7.64385 20.0079 10.2899 21.885 11.9424 22.9913C12.8883 23.6246 14.1092 23.6198 15.0516 22.9815C16.6743 21.8824 19.2729 20.0255 21.3771 18.072C24.9206 14.7838 27 11.3524 27 7.30798C27 3.26359 23.7949 0 19.8393 0Z" fill="#FDACD3"/>
</svg>
