<svg width="489" height="147" viewBox="0 0 489 147" fill="none" xmlns="http://www.w3.org/2000/svg">
<path d="M449.323 34.0186C454.864 34.0186 460.04 35.0641 464.849 37.1552C469.659 39.2463 473.841 42.0693 477.396 45.6242C480.951 49.1791 483.774 53.3613 485.865 58.1709C487.956 62.9804 489.002 68.1559 489.002 73.6973V104.28C489.002 106.685 488.113 108.776 486.335 110.553C484.558 112.331 482.415 113.219 479.905 113.219C477.814 113.219 475.984 112.592 474.416 111.337C472.848 110.083 471.802 108.514 471.279 106.632C468.143 108.723 464.692 110.344 460.928 111.494C457.269 112.644 453.4 113.219 449.323 113.219C443.886 113.219 438.763 112.174 433.953 110.083C429.144 107.992 424.961 105.168 421.406 101.614C417.852 98.0587 415.029 93.8765 412.937 89.067C410.846 84.2574 409.801 79.1342 409.801 73.6973C409.801 68.1559 410.846 62.9804 412.937 58.1709C415.029 53.3613 417.852 49.1791 421.406 45.6242C424.961 42.0693 429.144 39.2463 433.953 37.1552C438.763 35.0641 443.886 34.0186 449.323 34.0186ZM449.323 95.3403C452.355 95.3403 455.178 94.7652 457.792 93.6151C460.406 92.465 462.654 90.949 464.536 89.067C466.522 87.0804 468.09 84.7802 469.241 82.1663C470.391 79.4479 470.966 76.6249 470.966 73.6973C470.966 70.6652 470.391 67.8422 469.241 65.2283C468.09 62.6144 466.522 60.3665 464.536 58.4845C462.654 56.498 460.406 54.9296 457.792 53.7795C455.178 52.6294 452.355 52.0544 449.323 52.0544C446.395 52.0544 443.572 52.6294 440.854 53.7795C438.24 54.9296 435.94 56.498 433.953 58.4845C432.071 60.3665 430.555 62.6144 429.405 65.2283C428.255 67.8422 427.68 70.6652 427.68 73.6973C427.68 76.6249 428.255 79.4479 429.405 82.1663C430.555 84.7802 432.071 87.0804 433.953 89.067C435.94 90.949 438.24 92.465 440.854 93.6151C443.572 94.7652 446.395 95.3403 449.323 95.3403Z" fill="#BCD1EB"/>
<path d="M393.997 26.1755C390.652 26.1755 387.829 25.0253 385.528 22.7251C383.228 20.4249 382.078 17.6019 382.078 14.2561C382.078 10.9104 383.228 8.13964 385.528 5.94398C387.829 3.64376 390.652 2.49365 393.997 2.49365C397.239 2.49365 400.009 3.64376 402.31 5.94398C404.61 8.13964 405.76 10.9104 405.76 14.2561C405.76 17.6019 404.61 20.4249 402.31 22.7251C400.009 25.0253 397.239 26.1755 393.997 26.1755ZM393.997 34.0171C396.402 34.0171 398.493 34.9058 400.271 36.6833C402.048 38.4607 402.937 40.6041 402.937 43.1134V104.278C402.937 106.683 402.048 108.774 400.271 110.552C398.493 112.329 396.402 113.218 393.997 113.218C391.488 113.218 389.345 112.329 387.567 110.552C385.894 108.774 385.058 106.683 385.058 104.278V43.1134C385.058 40.6041 385.894 38.4607 387.567 36.6833C389.345 34.9058 391.488 34.0171 393.997 34.0171Z" fill="#BCD1EB"/>
<path d="M338.561 34.0186C344.102 34.0186 349.278 35.0641 354.087 37.1552C358.897 39.2463 363.079 42.0693 366.634 45.6242C370.189 49.1791 373.012 53.3613 375.103 58.1709C377.194 62.9804 378.24 68.1559 378.24 73.6973C378.24 79.1342 377.194 84.2574 375.103 89.067C373.012 93.8765 370.189 98.0587 366.634 101.614C363.079 105.169 358.897 107.992 354.087 110.083C349.278 112.174 344.102 113.219 338.561 113.219C334.588 113.219 330.772 112.697 327.112 111.651C323.453 110.501 320.055 108.88 316.918 106.789V137.999C316.918 140.508 316.029 142.599 314.252 144.272C312.579 146.05 310.488 146.938 307.979 146.938C305.574 146.938 303.483 146.05 301.705 144.272C299.928 142.599 299.039 140.508 299.039 137.999V73.6973C299.039 68.1559 300.085 62.9804 302.176 58.1709C304.267 53.3613 307.09 49.1791 310.645 45.6242C314.2 42.0693 318.382 39.2463 323.191 37.1552C328.001 35.0641 333.124 34.0186 338.561 34.0186ZM338.561 95.3403C341.593 95.3403 344.416 94.7653 347.03 93.6151C349.644 92.465 351.892 90.949 353.774 89.067C355.76 87.0804 357.329 84.7802 358.479 82.1663C359.629 79.4479 360.204 76.6249 360.204 73.6973C360.204 70.6652 359.629 67.8422 358.479 65.2283C357.329 62.6145 355.76 60.3665 353.774 58.4845C351.892 56.498 349.644 54.9296 347.03 53.7795C344.416 52.6294 341.593 52.0544 338.561 52.0544C335.633 52.0544 332.81 52.6294 330.092 53.7795C327.478 54.9296 325.178 56.498 323.191 58.4845C321.309 60.3665 319.793 62.6145 318.643 65.2283C317.493 67.8422 316.918 70.6652 316.918 73.6973C316.918 76.6249 317.493 79.4479 318.643 82.1663C319.793 84.7802 321.309 87.0804 323.191 89.067C325.178 90.949 327.478 92.465 330.092 93.6151C332.81 94.7653 335.633 95.3403 338.561 95.3403Z" fill="#BCD1EB"/>
<path d="M255.295 34.0186C260.837 34.0186 266.012 35.0641 270.822 37.1552C275.631 39.2463 279.814 42.0693 283.369 45.6242C286.923 49.1791 289.746 53.3613 291.838 58.1709C293.929 62.9804 294.974 68.1559 294.974 73.6973C294.974 79.1342 293.929 84.2574 291.838 89.067C289.746 93.8765 286.923 98.0587 283.369 101.614C279.814 105.168 275.631 107.992 270.822 110.083C266.012 112.174 260.837 113.219 255.295 113.219C249.859 113.219 244.735 112.174 239.926 110.083C235.116 107.992 230.934 105.168 227.379 101.614C223.824 98.0587 221.001 93.8765 218.91 89.067C216.819 84.2574 215.773 79.1342 215.773 73.6973C215.773 68.1559 216.819 62.9804 218.91 58.1709C221.001 53.3613 223.824 49.1791 227.379 45.6242C230.934 42.0693 235.116 39.2463 239.926 37.1552C244.735 35.0641 249.859 34.0186 255.295 34.0186ZM255.295 95.3403C258.327 95.3403 261.15 94.7652 263.764 93.6151C266.378 92.465 268.626 90.949 270.508 89.067C272.495 87.0804 274.063 84.7802 275.213 82.1663C276.363 79.4479 276.938 76.6249 276.938 73.6973C276.938 70.6652 276.363 67.8422 275.213 65.2283C274.063 62.6144 272.495 60.3665 270.508 58.4845C268.626 56.498 266.378 54.9296 263.764 53.7795C261.15 52.6294 258.327 52.0544 255.295 52.0544C252.368 52.0544 249.545 52.6294 246.826 53.7795C244.213 54.9296 241.912 56.498 239.926 58.4845C238.044 60.3665 236.528 62.6144 235.378 65.2283C234.227 67.8422 233.652 70.6652 233.652 73.6973C233.652 76.6249 234.227 79.4479 235.378 82.1663C236.528 84.7802 238.044 87.0804 239.926 89.067C241.912 90.949 244.213 92.465 246.826 93.6151C249.545 94.7652 252.368 95.3403 255.295 95.3403Z" fill="#BCD1EB"/>
<path d="M131.073 34.0972C136.609 34.0972 141.779 35.1416 146.583 37.2305C151.388 39.3193 155.565 42.1393 159.116 45.6904C162.668 49.2415 165.488 53.4192 167.576 58.2236C169.665 63.028 170.71 68.198 170.71 73.7335V104.283C170.71 106.685 169.822 108.774 168.046 110.55C166.271 112.325 164.13 113.213 161.623 113.213C159.534 113.213 157.707 112.586 156.14 111.333C154.573 110.08 153.529 108.513 153.007 106.633C149.873 108.722 146.427 110.341 142.667 111.49C139.011 112.639 135.147 113.213 131.073 113.213C125.642 113.213 120.525 112.169 115.72 110.08C110.916 107.991 106.738 105.171 103.187 101.62C99.6359 98.0688 96.8159 93.8911 94.7271 89.0867C92.6382 84.2823 91.5938 79.1646 91.5938 73.7335C91.5938 68.198 92.6382 63.028 94.7271 58.2236C96.8159 53.4192 99.6359 49.2415 103.187 45.6904C106.738 42.1393 110.916 39.3193 115.72 37.2305C120.525 35.1416 125.642 34.0972 131.073 34.0972ZM131.073 95.3533C134.102 95.3533 136.922 94.7789 139.533 93.63C142.144 92.4811 144.39 90.9667 146.27 89.0867C148.254 87.1023 149.821 84.8045 150.97 82.1934C152.119 79.4779 152.693 76.6579 152.693 73.7335C152.693 70.7046 152.119 67.8846 150.97 65.2736C149.821 62.6625 148.254 60.4169 146.27 58.537C144.39 56.5525 142.144 54.9859 139.533 53.837C136.922 52.6881 134.102 52.1137 131.073 52.1137C128.149 52.1137 125.329 52.6881 122.613 53.837C120.002 54.9859 117.705 56.5525 115.72 58.537C113.84 60.4169 112.326 62.6625 111.177 65.2736C110.028 67.8846 109.454 70.7046 109.454 73.7335C109.454 76.6579 110.028 79.4779 111.177 82.1934C112.326 84.8045 113.84 87.1023 115.72 89.0867C117.705 90.9667 120.002 92.4811 122.613 93.63C125.329 94.7789 128.149 95.3533 131.073 95.3533Z" fill="#BCD1EB"/>
<path d="M40.6882 93.1508C41.6961 93.6384 42.7223 94.0133 43.7669 94.2756C47.5551 95.4464 51.4534 95.5132 55.4617 94.476L56.1196 94.2706C59.7746 93.1298 62.9121 91.1878 65.5322 88.4446C67.3633 86.4291 69.0454 83.3369 70.5787 79.1681C71.2557 76.7106 72.6725 74.8244 74.8292 73.5094C75.4506 73.1015 76.1024 72.7911 76.7847 72.5782C78.4417 72.061 80.1137 72.0204 81.8007 72.4565C84.2431 73.0847 86.0973 74.4848 87.3635 76.6566C87.7531 77.3908 88.0544 78.0989 88.2673 78.7812C88.7693 80.3894 88.8023 82.0371 88.3662 83.7241C85.586 91.4375 82.432 97.1819 78.904 100.957C74.2061 105.953 68.6164 109.463 62.1348 111.486C60.2829 112.064 58.4006 112.545 56.4879 112.928C47.5944 114.42 39.2151 113.105 31.3498 108.981C27.0016 106.702 23.1759 103.698 19.8727 99.9688C19.6201 99.6733 19.3674 99.3778 19.1147 99.0823C18.8468 98.738 18.5789 98.3938 18.311 98.0496C15.3673 94.1016 13.211 89.9346 11.842 85.5485C10.2904 80.5777 9.76072 75.3681 10.2529 69.9198C10.9865 61.9895 13.9232 54.9492 19.0631 48.799C24.0202 42.9197 30.3366 38.5683 38.0123 35.7446L39.3281 35.3339C46.1995 33.1891 53.3671 33.2783 60.831 35.6015C68.2948 37.9247 74.7149 42.0445 80.0913 47.9607C80.2009 48.1404 80.3592 48.3049 80.5663 48.4542C80.5967 48.5517 80.6439 48.6172 80.7078 48.6507L80.7534 48.7969L80.8494 48.8472L80.9178 49.0665C80.9818 49.1 81.0213 49.1412 81.0365 49.1899L81.0594 49.263C81.1873 49.33 81.2588 49.3879 81.274 49.4367L81.3197 49.5829C81.3836 49.6164 81.4384 49.7062 81.484 49.8524L81.5297 49.9986L81.6027 49.9758L81.7396 50.4144C81.8492 50.5942 81.9192 50.7328 81.9497 50.8302L82.4973 52.5846C82.4637 52.6486 82.4622 52.7293 82.4926 52.8268L82.6295 53.2654C82.6264 53.4268 82.6309 53.6125 82.643 53.8227L82.6658 53.8958C82.6811 53.9445 82.6475 54.0085 82.5653 54.0876L82.6337 54.3069C82.6002 54.3709 82.5987 54.4516 82.6291 54.549L82.6244 54.7912C82.6396 54.8399 82.6305 54.8962 82.597 54.9602C82.6122 55.0089 82.6106 55.0896 82.5923 55.2023L82.4917 55.3941L82.5146 55.4672L82.5099 55.7094L82.4824 55.8784L82.455 56.0474L82.4503 56.2895C82.4655 56.3382 82.432 56.4022 82.3498 56.4813C82.365 56.5301 82.3634 56.6108 82.3451 56.7235C82.3116 56.7874 82.2781 56.8514 82.2445 56.9153L82.2171 57.0843L82.0662 57.3721L82.0388 57.5411L81.961 57.806C81.9762 57.8548 81.9427 57.9187 81.8604 57.9979C81.7934 58.1257 81.7507 58.246 81.7324 58.3587L81.5587 58.5734C81.5252 58.6373 81.4917 58.7013 81.4582 58.7652L81.4307 58.9342L81.3804 59.0301L81.257 59.1489C81.2235 59.2128 81.19 59.2768 81.1565 59.3407L81.0559 59.5325C80.9736 59.6117 80.9158 59.6832 80.8822 59.7472C80.8 59.8263 80.7086 59.9618 80.608 60.1537L80.4846 60.2724C80.4511 60.3363 80.41 60.3759 80.3612 60.3911C80.279 60.4703 80.1891 60.5251 80.0916 60.5555L80.1145 60.6286L80.0139 60.8204C79.9164 60.8509 79.8509 60.898 79.8174 60.962C79.7839 61.0259 79.7428 61.0655 79.694 61.0807C79.6605 61.1447 79.5706 61.1995 79.4244 61.2451C79.3909 61.309 79.3498 61.3486 79.3011 61.3638L40.6882 93.1508ZM58.9196 54.4086C54.8393 52.4733 50.693 51.8689 46.4808 52.5953C45.363 52.7838 44.268 53.0453 43.1959 53.38C36.1295 55.5856 31.517 60.3412 29.3583 67.6467C28.2058 71.3223 28.1178 75.0667 29.0941 78.8801L58.9196 54.4086Z" fill="#BCD1EB"/>
<path d="M200.693 30.0735H208.275C210.802 30.0735 212.888 30.899 214.534 32.5501C216.239 34.2012 217.091 36.265 217.091 38.7417C217.091 41.2773 216.239 43.4001 214.534 45.1102C212.888 46.8202 210.802 47.6753 208.275 47.6753H200.693V104.549C200.693 107.026 199.84 109.09 198.136 110.741C196.49 112.392 194.433 113.218 191.965 113.218C189.496 113.218 187.409 112.392 185.705 110.741C184.001 109.09 183.148 107.026 183.148 104.549V47.6753H176.801C175.566 47.6753 174.42 47.4394 173.362 46.9677C172.304 46.4959 171.364 45.8473 170.541 45.0217C169.777 44.1962 169.16 43.2527 168.69 42.1913C168.219 41.1299 167.984 39.98 167.984 38.7417C167.984 36.265 168.837 34.2012 170.541 32.5501C172.246 30.899 174.332 30.0735 176.801 30.0735H183.148V8.66823C183.148 6.19159 184.001 4.12773 185.705 2.47664C187.409 0.825545 189.496 0 191.965 0C194.433 0 196.49 0.825545 198.136 2.47664C199.84 4.12773 200.693 6.19159 200.693 8.66823V30.0735Z" fill="#BCD1EB"/>
<path fill-rule="evenodd" clip-rule="evenodd" d="M8.77565 106.279C5.39384 102.051 6.07921 95.883 10.3065 92.5012L75.6536 40.2235C79.8809 36.8417 86.0492 37.5271 89.431 41.7543C92.8129 45.9816 92.1275 52.15 87.9002 55.5318L22.5531 107.809C18.3258 111.191 12.1575 110.506 8.77565 106.279Z" fill="#BCD1EB"/>
</svg>
