<svg width="252" height="258" viewBox="0 0 252 258" fill="none" xmlns="http://www.w3.org/2000/svg">
<rect width="252" height="258" rx="49" fill="white"/>
<path d="M107.545 171.063C109.738 172.124 111.97 172.939 114.242 173.51C122.482 176.056 130.962 176.202 139.681 173.946L141.112 173.499C149.062 171.017 155.887 166.793 161.587 160.826C165.57 156.442 169.229 149.716 172.564 140.647C174.036 135.302 177.118 131.199 181.81 128.339C183.161 127.451 184.579 126.776 186.063 126.313C189.668 125.188 193.305 125.1 196.974 126.048C202.287 127.415 206.32 130.46 209.075 135.184C209.922 136.781 210.577 138.322 211.041 139.806C212.133 143.304 212.204 146.888 211.256 150.558C205.208 167.336 198.347 179.831 190.673 188.044C180.454 198.911 168.295 206.546 154.196 210.946C150.168 212.204 146.074 213.249 141.913 214.082C122.568 217.328 104.341 214.467 87.2321 205.498C77.7737 200.54 69.4519 194.005 62.2668 185.894C61.7172 185.251 61.1675 184.608 60.6179 183.965C60.0352 183.217 59.4524 182.468 58.8697 181.719C52.4665 173.131 47.7759 164.067 44.798 154.526C41.4231 143.714 40.2709 132.382 41.3414 120.53C42.9372 103.28 49.3253 87.9659 60.5057 74.5877C71.2884 61.799 85.028 52.3335 101.724 46.1914L104.587 45.298C119.534 40.6326 135.125 40.8267 151.36 45.8802C167.596 50.9337 181.561 59.8951 193.256 72.7642C193.494 73.1552 193.839 73.513 194.289 73.8378C194.355 74.0498 194.458 74.1922 194.597 74.2652L194.696 74.5832L194.905 74.6926L195.054 75.1696C195.193 75.2425 195.279 75.332 195.312 75.438L195.362 75.597C195.64 75.7428 195.795 75.8688 195.829 75.9748L195.928 76.2928C196.067 76.3657 196.186 76.5612 196.285 76.8792L196.385 77.1972L196.544 77.1476L196.841 78.1016C197.08 78.4926 197.232 78.7941 197.298 79.0061L198.489 82.8223C198.416 82.9614 198.413 83.137 198.479 83.349L198.777 84.303C198.77 84.6541 198.78 85.0583 198.806 85.5154L198.856 85.6744C198.889 85.7804 198.816 85.9195 198.637 86.0917L198.786 86.5687C198.713 86.7078 198.71 86.8833 198.776 87.0954L198.766 87.622C198.799 87.728 198.779 87.8506 198.706 87.9897C198.739 88.0957 198.736 88.2712 198.696 88.5163L198.477 88.9336L198.527 89.0926L198.517 89.6193L198.457 89.987L198.397 90.3546L198.387 90.8813C198.42 90.9873 198.347 91.1264 198.169 91.2986C198.202 91.4046 198.198 91.5801 198.158 91.8252C198.086 91.9643 198.013 92.1034 197.94 92.2425L197.88 92.6101L197.552 93.2361L197.492 93.6037L197.323 94.18C197.356 94.286 197.283 94.4251 197.104 94.5973C196.958 94.8755 196.866 95.1371 196.826 95.3822L196.448 95.8492C196.375 95.9882 196.302 96.1273 196.229 96.2664L196.169 96.6341L196.06 96.8427L195.792 97.101C195.719 97.2401 195.646 97.3792 195.573 97.5183L195.354 97.9356C195.175 98.1078 195.049 98.2634 194.976 98.4025C194.797 98.5747 194.599 98.8694 194.38 99.2867L194.111 99.545C194.039 99.6841 193.949 99.7702 193.843 99.8032C193.664 99.9754 193.469 100.095 193.257 100.161L193.306 100.32L193.088 100.737C192.876 100.803 192.733 100.906 192.66 101.045C192.587 101.184 192.498 101.27 192.392 101.303C192.319 101.442 192.123 101.562 191.805 101.661C191.732 101.8 191.643 101.886 191.537 101.919L107.545 171.063ZM147.203 86.7898C138.327 82.5801 129.308 81.2654 120.145 82.8456C117.714 83.2555 115.332 83.8244 113 84.5524C97.629 89.3501 87.5957 99.6946 82.9 115.586C80.3932 123.581 80.2016 131.726 82.3254 140.021L147.203 86.7898Z" fill="#D1D1D1"/>
<path fill-rule="evenodd" clip-rule="evenodd" d="M38.1282 199.649C30.772 190.454 32.2628 177.037 41.4581 169.68L183.603 55.9645C192.798 48.6083 206.216 50.0991 213.572 59.2944C220.928 68.4896 219.437 81.9072 210.242 89.2634L68.0972 202.979C58.902 210.336 45.4844 208.845 38.1282 199.649Z" fill="#D1D1D1"/>
</svg>
