<svg width="608" height="183" viewBox="0 0 608 183" fill="none" xmlns="http://www.w3.org/2000/svg">
<path d="M557.819 42.2266C564.698 42.2266 571.123 43.5246 577.094 46.1206C583.065 48.7166 588.257 52.2213 592.671 56.6345C597.084 61.0478 600.588 66.2398 603.184 72.2107C605.78 78.1816 607.079 84.6067 607.079 91.4862V129.453C607.079 132.439 605.975 135.035 603.769 137.241C601.562 139.448 598.901 140.551 595.786 140.551C593.19 140.551 590.918 139.772 588.971 138.215C587.024 136.657 585.726 134.71 585.077 132.374C581.183 134.97 576.9 136.982 572.227 138.409C567.684 139.837 562.881 140.551 557.819 140.551C551.069 140.551 544.709 139.253 538.738 136.657C532.767 134.061 527.575 130.556 523.162 126.143C518.749 121.73 515.244 116.538 512.648 110.567C510.052 104.596 508.754 98.2359 508.754 91.4862C508.754 84.6067 510.052 78.1816 512.648 72.2107C515.244 66.2398 518.749 61.0478 523.162 56.6345C527.575 52.2213 532.767 48.7166 538.738 46.1206C544.709 43.5246 551.069 42.2266 557.819 42.2266ZM557.819 118.355C561.583 118.355 565.088 117.641 568.333 116.213C571.578 114.786 574.369 112.903 576.705 110.567C579.171 108.101 581.118 105.245 582.546 102C583.974 98.6253 584.688 95.1206 584.688 91.4862C584.688 87.722 583.974 84.2173 582.546 80.9723C581.118 77.7272 579.171 74.9365 576.705 72.6001C574.369 70.1339 571.578 68.1868 568.333 66.759C565.088 65.3312 561.583 64.6173 557.819 64.6173C554.184 64.6173 550.68 65.3312 547.305 66.759C544.06 68.1868 541.204 70.1339 538.738 72.6001C536.402 74.9365 534.519 77.7272 533.092 80.9723C531.664 84.2173 530.95 87.722 530.95 91.4862C530.95 95.1206 531.664 98.6253 533.092 102C534.519 105.245 536.402 108.101 538.738 110.567C541.204 112.903 544.06 114.786 547.305 116.213C550.68 117.641 554.184 118.355 557.819 118.355Z" fill="#6E97CF"/>
<path d="M489.133 32.4928C484.98 32.4928 481.475 31.065 478.619 28.2094C475.764 25.3537 474.336 21.8491 474.336 17.6954C474.336 13.5418 475.764 10.102 478.619 7.37622C481.475 4.52059 484.98 3.09277 489.133 3.09277C493.157 3.09277 496.597 4.52059 499.453 7.37622C502.308 10.102 503.736 13.5418 503.736 17.6954C503.736 21.8491 502.308 25.3537 499.453 28.2094C496.597 31.065 493.157 32.4928 489.133 32.4928ZM489.133 42.2279C492.119 42.2279 494.715 43.3312 496.921 45.5378C499.128 47.7445 500.231 50.4054 500.231 53.5206V129.454C500.231 132.44 499.128 135.036 496.921 137.243C494.715 139.449 492.119 140.552 489.133 140.552C486.018 140.552 483.357 139.449 481.151 137.243C479.074 135.036 478.035 132.44 478.035 129.454V53.5206C478.035 50.4054 479.074 47.7445 481.151 45.5378C483.357 43.3312 486.018 42.2279 489.133 42.2279Z" fill="#6E97CF"/>
<path d="M420.311 42.2266C427.191 42.2266 433.616 43.5246 439.587 46.1206C445.557 48.7166 450.749 52.2213 455.163 56.6345C459.576 61.0478 463.081 66.2398 465.677 72.2107C468.273 78.1816 469.571 84.6067 469.571 91.4862C469.571 98.2359 468.273 104.596 465.677 110.567C463.081 116.538 459.576 121.73 455.163 126.143C450.749 130.556 445.557 134.061 439.587 136.657C433.616 139.253 427.191 140.551 420.311 140.551C415.379 140.551 410.641 139.902 406.098 138.604C401.555 137.176 397.336 135.164 393.442 132.568V171.314C393.442 174.429 392.339 177.025 390.132 179.102C388.055 181.309 385.459 182.412 382.344 182.412C379.359 182.412 376.763 181.309 374.556 179.102C372.349 177.025 371.246 174.429 371.246 171.314V91.4862C371.246 84.6067 372.544 78.1816 375.14 72.2107C377.736 66.2398 381.241 61.0478 385.654 56.6345C390.067 52.2213 395.259 48.7166 401.23 46.1206C407.201 43.5246 413.561 42.2266 420.311 42.2266ZM420.311 118.355C424.075 118.355 427.58 117.641 430.825 116.213C434.07 114.786 436.861 112.903 439.197 110.567C441.663 108.101 443.61 105.245 445.038 102C446.466 98.6253 447.18 95.1206 447.18 91.4862C447.18 87.722 446.466 84.2173 445.038 80.9723C443.61 77.7272 441.663 74.9365 439.197 72.6001C436.861 70.1339 434.07 68.1868 430.825 66.759C427.58 65.3312 424.075 64.6173 420.311 64.6173C416.677 64.6173 413.172 65.3312 409.797 66.759C406.552 68.1868 403.696 70.1339 401.23 72.6001C398.894 74.9365 397.012 77.7272 395.584 80.9723C394.156 84.2173 393.442 87.722 393.442 91.4862C393.442 95.1206 394.156 98.6253 395.584 102C397.012 105.245 398.894 108.101 401.23 110.567C403.696 112.903 406.552 114.786 409.797 116.213C413.172 117.641 416.677 118.355 420.311 118.355Z" fill="#6E97CF"/>
<path d="M316.94 42.2266C323.819 42.2266 330.245 43.5246 336.215 46.1206C342.186 48.7166 347.378 52.2213 351.792 56.6345C356.205 61.0478 359.71 66.2398 362.306 72.2107C364.902 78.1816 366.2 84.6067 366.2 91.4862C366.2 98.2359 364.902 104.596 362.306 110.567C359.71 116.538 356.205 121.73 351.792 126.143C347.378 130.556 342.186 134.061 336.215 136.657C330.245 139.253 323.819 140.551 316.94 140.551C310.19 140.551 303.83 139.253 297.859 136.657C291.888 134.061 286.696 130.556 282.283 126.143C277.87 121.73 274.365 116.538 271.769 110.567C269.173 104.596 267.875 98.2359 267.875 91.4862C267.875 84.6067 269.173 78.1816 271.769 72.2107C274.365 66.2398 277.87 61.0478 282.283 56.6345C286.696 52.2213 291.888 48.7166 297.859 46.1206C303.83 43.5246 310.19 42.2266 316.94 42.2266ZM316.94 118.355C320.704 118.355 324.209 117.641 327.454 116.213C330.699 114.786 333.49 112.903 335.826 110.567C338.292 108.101 340.239 105.245 341.667 102C343.095 98.6253 343.809 95.1206 343.809 91.4862C343.809 87.722 343.095 84.2173 341.667 80.9723C340.239 77.7272 338.292 74.9365 335.826 72.6001C333.49 70.1339 330.699 68.1868 327.454 66.759C324.209 65.3312 320.704 64.6173 316.94 64.6173C313.306 64.6173 309.801 65.3312 306.426 66.759C303.181 68.1868 300.325 70.1339 297.859 72.6001C295.523 74.9365 293.641 77.7272 292.213 80.9723C290.785 84.2173 290.071 87.722 290.071 91.4862C290.071 95.1206 290.785 98.6253 292.213 102C293.641 105.245 295.523 108.101 297.859 110.567C300.325 112.903 303.181 114.786 306.426 116.213C309.801 117.641 313.306 118.355 316.94 118.355Z" fill="#6E97CF"/>
<path d="M162.723 42.3311C169.595 42.3311 176.014 43.6277 181.978 46.2209C187.943 48.8142 193.129 52.3151 197.538 56.7236C201.946 61.1321 205.447 66.3186 208.04 72.2831C210.634 78.2476 211.93 84.6659 211.93 91.538V129.464C211.93 132.447 210.828 135.04 208.624 137.244C206.42 139.448 203.762 140.55 200.65 140.55C198.056 140.55 195.787 139.772 193.842 138.216C191.897 136.661 190.601 134.716 189.953 132.382C186.063 134.975 181.784 136.985 177.116 138.411C172.578 139.837 167.78 140.55 162.723 140.55C155.981 140.55 149.627 139.254 143.663 136.661C137.699 134.067 132.512 130.566 128.103 126.158C123.695 121.749 120.194 116.563 117.601 110.598C115.008 104.634 113.711 98.2804 113.711 91.538C113.711 84.6659 115.008 78.2476 117.601 72.2831C120.194 66.3186 123.695 61.1321 128.103 56.7236C132.512 52.3151 137.699 48.8142 143.663 46.2209C149.627 43.6277 155.981 42.3311 162.723 42.3311ZM162.723 118.378C166.484 118.378 169.984 117.665 173.226 116.239C176.468 114.812 179.255 112.932 181.589 110.598C184.053 108.135 185.998 105.282 187.424 102.041C188.85 98.6694 189.564 95.1685 189.564 91.538C189.564 87.7778 188.85 84.2769 187.424 81.0353C185.998 77.7938 184.053 75.006 181.589 72.6721C179.255 70.2085 176.468 68.2636 173.226 66.8373C169.984 65.411 166.484 64.6978 162.723 64.6978C159.093 64.6978 155.592 65.411 152.221 66.8373C148.979 68.2636 146.127 70.2085 143.663 72.6721C141.329 75.006 139.449 77.7938 138.023 81.0353C136.596 84.2769 135.883 87.7778 135.883 91.538C135.883 95.1685 136.596 98.6694 138.023 102.041C139.449 105.282 141.329 108.135 143.663 110.598C146.127 112.932 148.979 114.812 152.221 116.239C155.592 117.665 159.093 118.378 162.723 118.378Z" fill="#6E97CF"/>
<path d="M50.5128 115.643C51.7641 116.249 53.0381 116.714 54.3349 117.04C59.0378 118.493 63.8774 118.576 68.8535 117.289L69.6702 117.034C74.2078 115.617 78.1029 113.206 81.3557 109.801C83.6289 107.299 85.7172 103.46 87.6207 98.2844C88.4611 95.2335 90.22 92.8918 92.8975 91.2594C93.669 90.753 94.4782 90.3676 95.3252 90.1032C97.3823 89.4612 99.458 89.4108 101.552 89.9522C104.584 90.7321 106.886 92.4702 108.458 95.1665C108.942 96.0779 109.316 96.9571 109.58 97.8041C110.204 99.8006 110.245 101.846 109.703 103.941C106.252 113.516 102.336 120.648 97.9562 125.335C92.124 131.537 85.1845 135.894 77.1379 138.406C74.8389 139.123 72.5021 139.72 70.1275 140.196C59.0866 142.048 48.684 140.415 38.9196 135.296C33.5214 132.466 28.772 128.737 24.6712 124.108C24.3575 123.741 24.0438 123.374 23.7302 123.007C23.3976 122.58 23.065 122.152 22.7324 121.725C19.0779 116.824 16.4009 111.651 14.7013 106.205C12.7751 100.034 12.1176 93.5669 12.7286 86.803C13.6393 76.9579 17.2851 68.2176 23.6661 60.5823C29.8201 53.2835 37.6616 47.8813 47.1907 44.3758L48.8242 43.8659C57.3549 41.2033 66.2532 41.314 75.5193 44.1982C84.7853 47.0824 92.7556 52.1969 99.4302 59.5416C99.5663 59.7647 99.7628 59.969 100.02 60.1543C100.058 60.2753 100.116 60.3566 100.196 60.3983L100.252 60.5798L100.371 60.6422L100.456 60.9144C100.536 60.9561 100.585 61.0071 100.604 61.0676L100.632 61.1584C100.791 61.2416 100.88 61.3135 100.899 61.374L100.955 61.5555C101.035 61.5971 101.103 61.7087 101.159 61.8902L101.216 62.0717L101.307 62.0433L101.477 62.5878C101.613 62.811 101.7 62.983 101.737 63.104L102.417 65.2821C102.375 65.3614 102.374 65.4616 102.411 65.5826L102.581 66.1271C102.577 66.3275 102.583 66.5582 102.598 66.8191L102.626 66.9098C102.645 66.9703 102.604 67.0497 102.502 67.148L102.587 67.4202C102.545 67.4996 102.543 67.5998 102.581 67.7208L102.575 68.0214C102.594 68.0819 102.583 68.1518 102.541 68.2312C102.56 68.2917 102.558 68.3919 102.535 68.5318L102.41 68.7699L102.439 68.8607L102.433 69.1613L102.399 69.3711L102.365 69.5809L102.359 69.8815C102.378 69.942 102.336 70.0214 102.234 70.1197C102.253 70.1802 102.251 70.2804 102.228 70.4202C102.187 70.4996 102.145 70.579 102.103 70.6584L102.069 70.8682L101.882 71.2255L101.848 71.4353L101.751 71.7642C101.77 71.8247 101.729 71.9041 101.627 72.0024C101.543 72.1611 101.49 72.3105 101.468 72.4503L101.252 72.7168C101.21 72.7962 101.169 72.8756 101.127 72.955L101.093 73.1648L101.031 73.2839L100.877 73.4313C100.836 73.5107 100.794 73.5901 100.753 73.6694L100.628 73.9076C100.526 74.0059 100.454 74.0947 100.412 74.1741C100.31 74.2724 100.197 74.4406 100.072 74.6787L99.9185 74.8261C99.8769 74.9055 99.8258 74.9546 99.7653 74.9735C99.6632 75.0718 99.5516 75.1398 99.4306 75.1776L99.459 75.2683L99.3341 75.5065C99.2131 75.5443 99.1318 75.6028 99.0902 75.6822C99.0486 75.7616 98.9975 75.8107 98.937 75.8296C98.8954 75.909 98.7838 75.977 98.6023 76.0337C98.5607 76.1131 98.5097 76.1622 98.4492 76.1811L50.5128 115.643ZM73.1464 67.5464C68.0808 65.1438 62.9334 64.3935 57.7041 65.2954C56.3164 65.5293 54.957 65.854 53.626 66.2695C44.8534 69.0077 39.1271 74.9115 36.4472 83.981C35.0164 88.5441 34.9071 93.1927 36.1192 97.9268L73.1464 67.5464Z" fill="#6E97CF"/>
<path d="M249.145 37.335H258.558C261.695 37.335 264.286 38.3599 266.329 40.4096C268.445 42.4594 269.503 45.0216 269.503 48.0963C269.503 51.2441 268.445 53.8795 266.329 56.0025C264.286 58.1255 261.695 59.187 258.558 59.187H249.145V129.794C249.145 132.869 248.087 135.431 245.971 137.481C243.928 139.53 241.374 140.555 238.31 140.555C235.245 140.555 232.655 139.53 230.539 137.481C228.423 135.431 227.364 132.869 227.364 129.794V59.187H219.484C217.952 59.187 216.529 58.8941 215.216 58.3085C213.902 57.7228 212.735 56.9176 211.713 55.8927C210.765 54.8678 209.998 53.6965 209.415 52.3788C208.831 51.0611 208.539 49.6336 208.539 48.0963C208.539 45.0216 209.597 42.4594 211.713 40.4096C213.829 38.3599 216.419 37.335 219.484 37.335H227.364V10.7613C227.364 7.68662 228.423 5.12441 230.539 3.07465C232.655 1.02488 235.245 0 238.31 0C241.374 0 243.928 1.02488 245.971 3.07465C248.087 5.12441 249.145 7.68662 249.145 10.7613V37.335Z" fill="#6E97CF"/>
<path fill-rule="evenodd" clip-rule="evenodd" d="M10.8987 131.941C6.70034 126.693 7.5512 119.035 12.7992 114.837L93.9251 49.9359C99.1731 45.7375 106.831 46.5884 111.029 51.8364C115.228 57.0843 114.377 64.7421 109.129 68.9405L28.0029 133.841C22.7549 138.04 15.0971 137.189 10.8987 131.941Z" fill="#6E97CF"/>
</svg>
