<svg width="967" height="295" viewBox="0 0 967 295" fill="none" xmlns="http://www.w3.org/2000/svg">
<path fill-rule="evenodd" clip-rule="evenodd" d="M388.696 60.2361H403.883C408.945 60.2361 413.124 61.8896 416.42 65.1967C419.834 68.5038 421.541 72.6376 421.541 77.5982C421.541 82.677 419.834 86.9289 416.42 90.3541C413.124 93.7793 408.945 95.4919 403.883 95.4919H388.696V209.409C388.696 214.37 386.989 218.503 383.575 221.811C380.279 225.118 376.159 226.771 371.214 226.771C366.27 226.771 362.091 225.118 358.677 221.811C355.263 218.503 353.556 214.37 353.556 209.409V95.4919H340.841C338.369 95.4919 336.074 95.0195 333.954 94.0746C331.835 93.1297 329.952 91.8305 328.304 90.177C326.773 88.5234 325.537 86.6337 324.595 84.5077C323.654 82.3817 323.183 80.0786 323.183 77.5982C323.183 72.6376 324.89 68.5038 328.304 65.1967C331.718 61.8896 335.897 60.2361 340.841 60.2361H353.556V17.3622C353.556 12.4015 355.263 8.2677 358.677 4.96062C362.091 1.65354 366.27 0 371.214 0C376.159 0 380.279 1.65354 383.575 4.96062C386.989 8.2677 388.696 12.4015 388.696 17.3622V60.2361ZM758.918 45.5178C763.525 50.1251 769.179 52.4287 775.881 52.4287C782.373 52.4287 787.923 50.1251 792.53 45.5178C797.137 40.9106 799.441 35.2562 799.441 28.5547C799.441 21.8533 797.137 16.3036 792.53 11.9058C787.923 7.2985 782.373 4.99487 775.881 4.99487C769.179 4.99487 763.525 7.2985 758.918 11.9058C754.311 16.3036 752.007 21.8533 752.007 28.5547C752.007 35.2562 754.311 40.9106 758.918 45.5178ZM788.446 73.4755C784.886 69.9154 780.698 68.1353 775.881 68.1353C770.855 68.1353 766.562 69.9154 763.002 73.4755C759.651 77.0357 757.975 81.3288 757.975 86.3549V208.866C757.975 213.683 759.651 217.871 763.002 221.431C766.562 224.992 770.855 226.772 775.881 226.772C780.698 226.772 784.886 224.992 788.446 221.431C792.006 217.871 793.786 213.683 793.786 208.866V86.3549C793.786 81.3288 792.006 77.0357 788.446 73.4755ZM917.798 74.4211C908.165 70.2326 897.799 68.1384 886.699 68.1384C875.809 68.1384 865.548 70.2326 855.914 74.4211C846.281 78.6095 837.904 84.2638 830.784 91.3841C823.664 98.5044 818.009 106.881 813.821 116.515C809.632 126.148 807.538 136.514 807.538 147.614C807.538 158.504 809.632 168.765 813.821 178.399C818.009 188.032 823.664 196.409 830.784 203.529C837.904 210.649 846.281 216.304 855.914 220.492C865.548 224.681 875.809 226.775 886.699 226.775C894.867 226.775 902.615 225.623 909.945 223.319C917.484 221.016 924.395 217.77 930.678 213.581C931.725 217.351 933.819 220.492 936.96 223.005C940.102 225.518 943.766 226.775 947.955 226.775C952.981 226.775 957.274 224.995 960.834 221.434C964.394 217.874 966.175 213.686 966.175 208.869V147.614C966.175 136.514 964.08 126.148 959.892 116.515C955.703 106.881 950.049 98.5044 942.929 91.3841C935.809 84.2638 927.432 78.6095 917.798 74.4211ZM903.662 187.508C898.427 189.812 892.773 190.964 886.699 190.964C880.836 190.964 875.181 189.812 869.736 187.508C864.501 185.205 859.893 182.168 855.914 178.399C852.145 174.42 849.108 169.812 846.805 164.577C844.501 159.132 843.349 153.477 843.349 147.614C843.349 141.54 844.501 135.886 846.805 130.651C849.108 125.415 852.145 120.912 855.914 117.143C859.893 113.164 864.501 110.023 869.736 107.719C875.181 105.415 880.836 104.264 886.699 104.264C892.773 104.264 898.427 105.415 903.662 107.719C908.898 110.023 913.4 113.164 917.17 117.143C921.149 120.912 924.29 125.415 926.594 130.651C928.898 135.886 930.049 141.54 930.049 147.614C930.049 153.477 928.898 159.132 926.594 164.577C924.29 169.812 921.149 174.42 917.17 178.399C913.4 182.168 908.898 185.205 903.662 187.508ZM664.848 68.1384C675.947 68.1384 686.313 70.2326 695.947 74.4211C705.58 78.6095 713.957 84.2638 721.077 91.3841C728.198 98.5044 733.852 106.881 738.04 116.515C742.229 126.148 744.323 136.514 744.323 147.614C744.323 158.504 742.229 168.765 738.04 178.399C733.852 188.032 728.198 196.409 721.077 203.529C713.957 210.649 705.58 216.304 695.947 220.492C686.313 224.681 675.947 226.775 664.848 226.775C656.89 226.775 649.246 225.728 641.916 223.633C634.586 221.33 627.78 218.084 621.498 213.895V276.408C621.498 281.434 619.718 285.622 616.157 288.973C612.807 292.533 608.618 294.313 603.592 294.313C598.775 294.313 594.587 292.533 591.027 288.973C587.467 285.622 585.687 281.434 585.687 276.408V147.614C585.687 136.514 587.781 126.148 591.969 116.515C596.158 106.881 601.812 98.5044 608.932 91.3841C616.053 84.2638 624.43 78.6095 634.063 74.4211C643.696 70.2326 653.958 68.1384 664.848 68.1384ZM664.848 190.964C670.921 190.964 676.575 189.812 681.811 187.508C687.046 185.205 691.549 182.168 695.318 178.399C699.297 174.42 702.439 169.812 704.742 164.577C707.046 159.132 708.198 153.477 708.198 147.614C708.198 141.54 707.046 135.886 704.742 130.651C702.439 125.415 699.297 120.912 695.318 117.143C691.549 113.164 687.046 110.023 681.811 107.719C676.575 105.415 670.921 104.264 664.848 104.264C658.984 104.264 653.33 105.415 647.885 107.719C642.649 110.023 638.042 113.164 634.063 117.143C630.293 120.912 627.257 125.415 624.953 130.651C622.649 135.886 621.498 141.54 621.498 147.614C621.498 153.477 622.649 159.132 624.953 164.577C627.257 169.812 630.293 174.42 634.063 178.399C638.042 182.168 642.649 185.205 647.885 187.508C653.33 189.812 658.984 190.964 664.848 190.964ZM529.169 74.4211C519.536 70.2326 509.17 68.1384 498.07 68.1384C487.181 68.1384 476.919 70.2326 467.286 74.4211C457.652 78.6095 449.275 84.2638 442.155 91.3841C435.035 98.5044 429.38 106.881 425.192 116.515C421.004 126.148 418.909 136.514 418.909 147.614C418.909 158.504 421.004 168.765 425.192 178.399C429.38 188.032 435.035 196.409 442.155 203.529C449.275 210.649 457.652 216.304 467.286 220.492C476.919 224.681 487.181 226.775 498.07 226.775C509.17 226.775 519.536 224.681 529.169 220.492C538.803 216.304 547.18 210.649 554.3 203.529C561.42 196.409 567.075 188.032 571.263 178.399C575.451 168.765 577.546 158.504 577.546 147.614C577.546 136.514 575.451 126.148 571.263 116.515C567.075 106.881 561.42 98.5044 554.3 91.3841C547.18 84.2638 538.803 78.6095 529.169 74.4211ZM515.034 187.508C509.798 189.812 504.144 190.964 498.07 190.964C492.207 190.964 486.552 189.812 481.107 187.508C475.872 185.205 471.265 182.168 467.286 178.399C463.516 174.42 460.479 169.812 458.176 164.577C455.872 159.132 454.72 153.477 454.72 147.614C454.72 141.54 455.872 135.886 458.176 130.651C460.479 125.415 463.516 120.912 467.286 117.143C471.265 113.164 475.872 110.023 481.107 107.719C486.552 105.415 492.207 104.264 498.07 104.264C504.144 104.264 509.798 105.415 515.034 107.719C520.269 110.023 524.772 113.164 528.541 117.143C532.52 120.912 535.661 125.415 537.965 130.651C540.269 135.886 541.421 141.54 541.421 147.614C541.421 153.477 540.269 159.132 537.965 164.577C535.661 169.812 532.52 174.42 528.541 178.399C524.772 182.168 520.269 185.205 515.034 187.508ZM249.251 68.2961C260.339 68.2961 270.694 70.3881 280.317 74.572C289.94 78.756 298.308 84.4043 305.421 91.517C312.533 98.6297 318.182 106.998 322.366 116.621C326.549 126.244 328.641 136.599 328.641 147.686V208.876C328.641 213.688 326.863 217.872 323.307 221.428C319.751 224.985 315.462 226.763 310.441 226.763C306.257 226.763 302.596 225.508 299.459 222.997C296.321 220.487 294.229 217.349 293.183 213.583C286.907 217.767 280.003 221.01 272.472 223.311C265.15 225.612 257.41 226.763 249.251 226.763C238.373 226.763 228.122 224.671 218.499 220.487C208.876 216.303 200.508 210.655 193.396 203.542C186.283 196.429 180.635 188.061 176.451 178.438C172.267 168.815 170.175 158.565 170.175 147.686C170.175 136.599 172.267 126.244 176.451 116.621C180.635 106.998 186.283 98.6297 193.396 91.517C200.508 84.4043 208.876 78.756 218.499 74.572C228.122 70.3881 238.373 68.2961 249.251 68.2961ZM249.251 190.99C255.318 190.99 260.966 189.839 266.196 187.538C271.426 185.237 275.924 182.204 279.689 178.438C283.664 174.464 286.802 169.861 289.103 164.631C291.404 159.192 292.555 153.544 292.555 147.686C292.555 141.62 291.404 135.971 289.103 130.741C286.802 125.511 283.664 121.014 279.689 117.248C275.924 113.273 271.426 110.135 266.196 107.834C260.966 105.533 255.318 104.383 249.251 104.383C243.394 104.383 237.745 105.533 232.306 107.834C227.076 110.135 222.474 113.273 218.499 117.248C214.734 121.014 211.7 125.511 209.399 130.741C207.098 135.971 205.948 141.62 205.948 147.686C205.948 153.544 207.098 159.192 209.399 164.631C211.7 169.861 214.734 174.464 218.499 178.438C222.474 182.204 227.076 185.237 232.306 187.538C237.745 189.839 243.394 190.99 249.251 190.99ZM133.891 84.0597C126.249 78.4349 117.808 74.1845 108.568 71.3086C93.6183 66.6553 79.2617 66.4766 65.4985 70.7725L62.8629 71.5951C47.4888 77.2508 34.8373 85.9667 24.9085 97.7426C14.6135 110.061 8.73126 124.163 7.26188 140.047C6.27609 150.96 7.33705 161.394 10.4447 171.351C11.3757 174.333 12.4883 177.265 13.7827 180.146L7.36916 185.277C-1.09789 192.051 -2.47067 204.406 4.30297 212.873C11.0766 221.34 23.4316 222.713 31.8987 215.939L38.0764 210.997C41.6653 213.739 45.4793 216.168 49.5184 218.286C65.2721 226.545 82.0557 229.179 99.869 226.19C103.7 225.423 107.47 224.46 111.18 223.303C124.162 219.25 135.358 212.221 144.768 202.214C151.834 194.652 158.152 183.146 163.72 167.697C164.594 164.317 164.528 161.017 163.522 157.796C163.096 156.429 162.492 155.011 161.712 153.541C159.176 149.19 155.462 146.386 150.57 145.128C147.191 144.254 143.842 144.336 140.523 145.371C139.156 145.798 137.851 146.42 136.606 147.237C132.286 149.871 129.448 153.649 128.093 158.571C125.021 166.921 121.652 173.114 117.984 177.152C112.737 182.646 106.452 186.536 99.1312 188.821L97.8135 189.232C89.7851 191.309 81.977 191.176 74.3892 188.831C72.3786 188.326 70.4019 187.613 68.459 186.691L162.787 111.229C171.254 104.455 172.627 92.1 165.853 83.633C159.079 75.1659 146.724 73.7931 138.257 80.5668L133.891 84.0597ZM103.469 108.398C95.7062 104.984 87.825 103.967 79.8251 105.347C77.5862 105.724 75.3931 106.248 73.2456 106.918C59.0919 111.336 49.8531 120.861 45.5293 135.494C43.462 142.087 43.1047 148.792 44.4575 155.607L103.469 108.398Z" fill="url(#paint0_linear_3577_429)"/>
<defs>
<linearGradient id="paint0_linear_3577_429" x1="0" y1="147.156" x2="966.175" y2="147.156" gradientUnits="userSpaceOnUse">
<stop stop-color="#F4AFDD"/>
<stop offset="0.365" stop-color="#F7DC75"/>
<stop offset="0.655" stop-color="#BCD1EB"/>
<stop offset="1" stop-color="#9EB366"/>
</linearGradient>
</defs>
</svg>
