<svg width="252" height="258" viewBox="0 0 252 258" fill="none" xmlns="http://www.w3.org/2000/svg">
<rect width="252" height="258" rx="49" fill="white"/>
<path fill-rule="evenodd" clip-rule="evenodd" d="M178.883 58.8036C170.578 52.6879 161.404 48.0672 151.362 44.9415C135.127 39.888 119.535 39.6939 104.588 44.3593L101.726 45.2527C85.0299 51.3948 71.2903 60.8602 60.5076 73.649C49.3272 87.0271 42.9391 102.341 41.3433 119.592C40.2728 131.443 41.425 142.775 44.7999 153.588C45.8133 156.834 47.0249 160.026 48.4349 163.162L41.46 168.742C32.2647 176.098 30.7739 189.516 38.1301 198.711C45.4863 207.906 58.9039 209.397 68.0991 202.041L74.8272 196.658C78.7191 199.63 82.8547 202.264 87.234 204.559C104.343 213.528 122.57 216.39 141.915 213.143C146.076 212.31 150.17 211.265 154.198 210.008C168.297 205.607 180.456 197.973 190.675 187.105C198.349 178.893 205.21 166.398 211.258 149.619C212.206 145.949 212.134 142.365 211.043 138.867C210.579 137.383 209.924 135.843 209.077 134.246C206.322 129.521 202.289 126.476 196.976 125.109C193.306 124.161 189.669 124.249 186.065 125.374C184.581 125.837 183.163 126.513 181.811 127.4C177.12 130.26 174.038 134.363 172.566 139.709C169.231 148.777 165.571 155.503 161.588 159.887C155.889 165.854 149.064 170.079 141.114 172.56L139.683 173.007C130.964 175.263 122.484 175.118 114.244 172.571C112.068 172.025 109.93 171.254 107.827 170.258L210.244 88.3247C219.439 80.9685 220.93 67.5509 213.574 58.3557C206.218 49.1604 192.8 47.6696 183.605 55.0258L178.883 58.8036ZM145.848 85.2309C137.411 81.5151 128.844 80.4071 120.147 81.9069C117.716 82.3168 115.334 82.8857 113.002 83.6137C97.6309 88.4114 87.5976 98.7559 82.9019 114.647C80.6541 121.816 80.2679 129.105 81.743 136.515L145.848 85.2309Z" fill="url(#paint0_linear_4084_597)"/>
<defs>
<linearGradient id="paint0_linear_4084_597" x1="218.247" y1="127.719" x2="33.457" y2="127.719" gradientUnits="userSpaceOnUse">
<stop stop-color="#9EB366"/>
<stop offset="0.285" stop-color="#BCD1EB"/>
<stop offset="0.68" stop-color="#F7DC75"/>
<stop offset="1" stop-color="#F4AFDD"/>
</linearGradient>
</defs>
</svg>
