<svg width="129" height="56" viewBox="0 0 129 56" fill="none" xmlns="http://www.w3.org/2000/svg">
<path d="M18.8 35.64L24.6 17.28C25.4 14.76 27.04 13.92 29.56 13.92C32.52 13.92 34.12 15.36 34.12 18.36V40.84C34.12 42.72 33 44.04 31.12 44.04C29.24 44.04 28.12 42.72 28.12 40.84V23.8H28.04L21.92 41.68C21.48 43.08 20.28 43.84 18.76 43.84C17.24 43.84 16.04 43.08 15.6 41.68L9.48 23.8H9.4V40.84C9.4 42.72 8.28 44.04 6.4 44.04C4.52 44.04 3.4 42.72 3.4 40.84V18.36C3.4 15.36 5 13.92 7.96 13.92C10.48 13.92 12.12 14.76 12.92 17.28L18.72 35.64H18.8ZM57.2991 27.28V41.12C57.2991 43 56.1791 44.04 54.2991 44.04C52.6191 44.04 51.7791 42.96 51.5391 41.56C50.6991 43.28 48.8191 44.4 45.9391 44.4C40.7791 44.4 37.3391 39.88 37.3391 34.04C37.3391 28.2 40.7791 23.84 45.7391 23.84C48.6191 23.84 50.5791 24.96 51.5391 26.52C51.7391 25.16 52.6191 24.16 54.3391 24.16C56.2191 24.16 57.2991 25.4 57.2991 27.28ZM43.2591 34.12C43.2591 37.2 44.9391 39.44 47.4191 39.44C49.8991 39.44 51.4991 37.2 51.4991 34.12C51.4991 31.04 49.8991 28.8 47.4191 28.8C44.9391 28.8 43.2591 31.04 43.2591 34.12ZM69.1541 28.88C67.4741 28.88 66.5541 30.24 66.5541 32.16V41C66.5541 42.88 65.4341 44.04 63.5541 44.04C61.6741 44.04 60.5141 42.88 60.5141 41V27.24C60.5141 25.36 61.5941 24.16 63.4741 24.16C65.1541 24.16 66.1941 25 66.3941 26.96C66.8341 25.12 68.5941 23.84 70.7141 23.84C71.8341 23.84 72.7541 24 73.7941 24.48C74.9941 25.04 75.6741 26.24 75.1141 27.68C74.5141 29.12 73.1941 29.64 71.6741 29.28C70.8741 29.08 70.0741 28.88 69.1541 28.88ZM76.3266 36.76V27.2C76.3266 25.32 77.4466 24.16 79.3266 24.16C81.2066 24.16 82.3666 25.32 82.3666 27.2V36.04C82.3666 37.84 83.7266 39.28 85.6866 39.28C87.5266 39.28 89.0066 37.96 89.0066 36.08V27.2C89.0066 25.32 90.1266 24.16 92.0066 24.16C93.8866 24.16 95.0466 25.32 95.0466 27.2V41C95.0466 43.04 93.8866 44.04 92.0866 44.04C90.3666 44.04 89.2866 42.76 89.1666 41.36C88.3266 43.24 86.0866 44.4 83.7266 44.4C79.1266 44.4 76.3266 41.32 76.3266 36.76Z" fill="#849754"/>
<path d="M129 28.4292C129 26.7724 127.657 25.4292 126 25.4292H123.571C121.914 25.4292 120.571 24.0861 120.571 22.4292V20C120.571 18.3431 119.228 17 117.571 17H114.429C112.772 17 111.429 18.3431 111.429 20V22.4292C111.429 24.0861 110.086 25.4292 108.429 25.4292H106C104.343 25.4292 103 26.7724 103 28.4292V31.5708C103 33.2276 104.343 34.5708 106 34.5708H108.429C110.086 34.5708 111.429 35.9139 111.429 37.5708V40C111.429 41.6569 112.772 43 114.429 43H117.571C119.228 43 120.571 41.6569 120.571 40V37.5708C120.571 35.9139 121.914 34.5708 123.571 34.5708H126C127.657 34.5708 129 33.2276 129 31.5708V28.4292Z" fill="#849754"/>
</svg>
