<svg width="186" height="174" viewBox="0 0 186 174" fill="none" xmlns="http://www.w3.org/2000/svg">
<path fill-rule="evenodd" clip-rule="evenodd" d="M145.843 17.821C137.539 11.7052 128.365 7.08453 118.323 3.95882C102.088 -1.09469 86.4964 -1.28875 71.5494 3.37665L68.6872 4.27003C51.9908 10.4122 38.2513 19.8776 27.4685 32.6663C16.2881 46.0445 9.90001 61.3587 8.30426 78.609C7.23369 90.4602 8.38589 101.792 11.7609 112.605C12.7742 115.851 13.9859 119.043 15.3959 122.179L8.42091 127.759C-0.774346 135.115 -2.26519 148.533 5.09101 157.728C12.4472 166.923 25.8648 168.414 35.0601 161.058L41.7881 155.676C45.6801 158.647 49.8157 161.281 54.195 163.577C71.3036 172.546 89.5306 175.407 108.876 172.161C113.037 171.328 117.131 170.282 121.159 169.025C135.258 164.624 147.417 156.99 157.636 146.122C165.31 137.91 172.171 125.415 178.218 108.636C179.167 104.967 179.095 101.383 178.003 97.8845C177.54 96.4004 176.885 94.8599 176.037 93.263C173.283 88.5387 169.25 85.4933 163.937 84.1268C160.267 83.1782 156.63 83.2664 153.026 84.3914C151.542 84.8546 150.124 85.5299 148.772 86.4171C144.081 89.2775 140.999 93.3804 139.527 98.7261C136.191 107.794 132.532 114.52 128.549 118.905C122.85 124.872 116.025 129.096 108.075 131.577L106.644 132.024C97.9247 134.28 89.4451 134.135 81.2048 131.588C79.0294 131.042 76.8905 130.271 74.7881 129.276L177.205 47.3421C186.4 39.9859 187.891 26.5683 180.535 17.373C173.179 8.17776 159.761 6.68691 150.566 14.0431L145.843 17.821ZM112.809 44.2482C104.372 40.5324 95.8044 39.4244 87.1082 40.9242C84.6768 41.3342 82.295 41.9031 79.9628 42.631C64.5918 47.4288 54.5585 57.7732 49.8629 73.6644C47.6151 80.8333 47.2288 88.1227 48.704 95.5326L112.809 44.2482Z" fill="#6E97CF"/>
</svg>
