<svg width="232" height="24" viewBox="0 0 232 24" fill="none" xmlns="http://www.w3.org/2000/svg">
<path d="M37.922 3.536C38.408 3.536 38.84 3.77 38.84 4.292V5.93C38.84 7.082 39.2 7.874 40.046 8.594C40.892 9.296 41.648 9.872 42.242 10.304C42.638 10.592 42.62 11.06 42.368 11.402C42.134 11.726 41.684 11.924 41.27 11.618C40.784 11.276 40.046 10.718 39.29 10.088C38.408 9.368 38.048 8.918 37.958 8.54H37.94C37.85 8.954 37.454 9.458 36.572 10.16C35.816 10.79 35.078 11.366 34.322 11.906C33.908 12.194 33.44 11.996 33.206 11.69C32.972 11.348 32.918 10.844 33.35 10.538C34.196 9.926 34.952 9.35 35.798 8.648C36.644 7.928 37.004 7.136 37.004 5.984V4.292C37.004 3.77 37.454 3.536 37.922 3.536ZM45.302 2.996C45.77 2.996 46.202 3.23 46.202 3.752V11.978C46.202 12.5 45.77 12.734 45.302 12.734C44.834 12.734 44.402 12.5 44.402 11.978V3.752C44.402 3.23 44.834 2.996 45.302 2.996ZM36.014 13.508H44.816C45.86 13.508 46.202 13.832 46.202 14.858V18.98C46.202 19.502 45.77 19.736 45.302 19.736C44.834 19.736 44.402 19.502 44.402 18.98V15.416C44.402 15.146 44.294 15.056 44.024 15.056H36.014C35.564 15.056 35.366 14.696 35.366 14.282C35.366 13.868 35.564 13.508 36.014 13.508ZM55.6728 3.23C56.1588 3.23 56.5908 3.464 56.5908 4.004V4.598C56.5908 5.588 57.1308 6.182 58.3908 6.74C59.5608 7.262 60.5328 7.658 61.5948 8.072C61.9548 8.216 62.0268 8.702 61.8828 9.062C61.7388 9.44 61.3248 9.692 60.9288 9.53C59.9748 9.17 58.9128 8.738 57.9408 8.306C56.3388 7.622 55.7988 7.082 55.6908 6.65H55.6728C55.5468 7.136 55.0248 7.658 53.4228 8.342C52.4328 8.774 51.4248 9.188 50.4528 9.566C49.9848 9.746 49.6068 9.476 49.4628 9.098C49.3008 8.738 49.3548 8.216 49.7508 8.072C50.8128 7.658 51.7848 7.262 52.9548 6.74C54.2148 6.182 54.7548 5.588 54.7548 4.598V4.004C54.7548 3.464 55.1868 3.23 55.6728 3.23ZM62.6028 10.754C63.0348 10.754 63.2328 11.078 63.2328 11.51C63.2328 11.924 63.0348 12.266 62.6028 12.266H48.7428C48.3108 12.266 48.1128 11.924 48.1128 11.51C48.1128 11.078 48.3108 10.754 48.7428 10.754H62.6028ZM51.0288 13.364C51.4788 13.364 51.9108 13.598 51.9108 14.102V15.236H59.4348V14.102C59.4348 13.598 59.8668 13.364 60.2988 13.364C60.7488 13.364 61.1988 13.598 61.1988 14.102V18.224C61.1988 19.25 60.8568 19.574 59.8128 19.574H51.5328C50.4888 19.574 50.1648 19.25 50.1648 18.224V14.102C50.1648 13.598 50.5968 13.364 51.0288 13.364ZM51.9108 17.846C51.9108 18.044 52.0008 18.116 52.1988 18.116H59.1468C59.3448 18.116 59.4348 18.044 59.4348 17.846V16.658H51.9108V17.846ZM65.2516 3.914H71.4436C72.4876 3.914 72.8296 4.238 72.8296 5.264V6.56C72.8296 7.55 72.7216 8.486 72.5056 9.278C72.3616 9.764 71.8936 9.926 71.4076 9.818C70.9396 9.71 70.6516 9.404 70.7776 8.9C70.9576 8.108 71.0476 7.37 71.0476 6.506V5.858C71.0476 5.57 70.9396 5.48 70.6696 5.48H65.2516C64.8196 5.48 64.6216 5.12 64.6216 4.706C64.6216 4.274 64.8196 3.914 65.2516 3.914ZM75.7996 2.996C76.2676 2.996 76.6996 3.23 76.6996 3.734V8H78.4456C78.9136 8 79.1116 8.36 79.1116 8.792C79.1116 9.224 78.9136 9.584 78.4456 9.584H76.6996V14.714C76.6996 15.218 76.2676 15.452 75.7996 15.452C75.3496 15.452 74.9176 15.218 74.9176 14.714V3.734C74.9176 3.23 75.3496 2.996 75.7996 2.996ZM67.6096 7.694C68.0596 7.694 68.4916 7.928 68.4916 8.432V11.312C70.0576 11.258 71.6776 11.186 73.3156 11.042C73.7296 10.988 73.9456 11.294 73.9816 11.726C74.0176 12.122 73.8376 12.5 73.4416 12.536C70.6876 12.77 67.5016 12.86 64.1896 12.86C63.7576 12.86 63.5596 12.518 63.5596 12.104C63.5596 11.69 63.7576 11.348 64.1896 11.348H66.7276V8.432C66.7276 7.928 67.1596 7.694 67.6096 7.694ZM66.9076 14.282C67.3576 14.282 67.8076 14.516 67.8076 15.038V17.504C67.8076 17.774 67.8976 17.882 68.1856 17.882H76.5016C76.9336 17.882 77.1316 18.224 77.1316 18.638C77.1316 19.052 76.9336 19.412 76.5016 19.412H67.3756C66.3316 19.412 65.9896 19.088 65.9896 18.062V15.038C65.9896 14.516 66.4216 14.282 66.9076 14.282ZM91.6244 3.932C92.0564 3.932 92.2544 4.292 92.2544 4.706C92.2544 5.12 92.0564 5.462 91.6244 5.462H88.7444V6.434C88.7444 7.586 89.0684 8.306 89.9324 9.008C90.7604 9.692 91.5344 10.268 92.0744 10.646C92.4704 10.952 92.4704 11.384 92.2184 11.744C91.9844 12.032 91.5524 12.266 91.1024 11.96C90.7064 11.672 89.9684 11.114 89.1944 10.502C88.2764 9.782 87.9704 9.368 87.8804 9.008H87.8624C87.7724 9.404 87.4124 9.854 86.5124 10.592C85.7204 11.204 84.9644 11.762 84.2804 12.248C83.8664 12.554 83.3984 12.338 83.1824 12.032C82.9304 11.672 82.9124 11.204 83.3264 10.898C84.1544 10.304 84.9284 9.746 85.7744 9.062C86.6204 8.36 86.9444 7.64 86.9444 6.47V5.462H83.9384C83.4884 5.462 83.2904 5.12 83.2904 4.706C83.2904 4.292 83.4884 3.932 83.9384 3.932H91.6244ZM95.4764 2.996C95.9264 2.996 96.3584 3.23 96.3584 3.752V12.122C96.3584 12.626 95.9264 12.86 95.4764 12.86C95.0084 12.86 94.5764 12.626 94.5764 12.122V8.648H91.9844C91.5344 8.648 91.3364 8.288 91.3364 7.874C91.3364 7.442 91.5344 7.1 91.9844 7.1H94.5764V3.752C94.5764 3.23 95.0084 2.996 95.4764 2.996ZM91.1744 13.022C94.5044 13.022 96.4484 14.174 96.4484 16.424C96.4484 18.674 94.5044 19.826 91.1744 19.826C87.8444 19.826 85.9004 18.674 85.9004 16.424C85.9004 14.174 87.8444 13.022 91.1744 13.022ZM91.1744 14.48C88.7264 14.48 87.6824 15.236 87.6824 16.424C87.6824 17.612 88.7264 18.368 91.1744 18.368C93.6044 18.368 94.6664 17.612 94.6664 16.424C94.6664 15.236 93.6044 14.48 91.1744 14.48ZM101.095 3.752C101.545 3.752 101.995 4.004 101.995 4.508V6.65H109.447V4.508C109.447 4.004 109.897 3.752 110.329 3.752C110.797 3.752 111.247 4.004 111.247 4.508V10.862C111.247 11.888 110.905 12.212 109.861 12.212H106.621V15.452H112.651C113.083 15.452 113.281 15.794 113.281 16.208C113.281 16.622 113.083 16.982 112.651 16.982H98.7913C98.3593 16.982 98.1613 16.622 98.1613 16.208C98.1613 15.794 98.3593 15.452 98.7913 15.452H104.821V12.212H101.581C100.537 12.212 100.213 11.888 100.213 10.862V4.508C100.213 4.004 100.645 3.752 101.095 3.752ZM101.995 10.322C101.995 10.592 102.103 10.682 102.373 10.682H109.069C109.339 10.682 109.447 10.592 109.447 10.322V8.18H101.995V10.322Z" fill="white"/>
<circle cx="12" cy="12" r="12" fill="#F9D64F"/>
<path d="M11.166 4.932C13.902 4.932 15.288 6.39 15.288 8.19V8.28C15.288 9.504 14.586 10.8 13.056 11.268C14.586 11.502 15.81 12.456 15.81 14.202V14.382C15.81 16.362 14.316 18.126 11.274 18.126C9.852 18.126 8.592 17.766 7.584 17.082C7.134 16.794 7.08 16.29 7.332 15.894C7.602 15.462 8.016 15.354 8.448 15.624C9.33 16.218 10.158 16.506 11.184 16.506C13.218 16.506 13.992 15.48 13.992 14.328V14.184C13.992 12.6 12.768 12.096 11.148 12.096H10.122C9.672 12.096 9.474 11.736 9.474 11.304C9.474 10.872 9.672 10.53 10.122 10.53H11.004C12.462 10.53 13.524 9.882 13.524 8.406V8.352C13.524 7.254 12.75 6.516 11.166 6.516C10.158 6.516 9.474 6.894 8.844 7.578C8.502 7.902 8.034 7.866 7.746 7.524C7.44 7.2 7.476 6.75 7.746 6.426C8.448 5.562 9.636 4.932 11.166 4.932Z" fill="black"/>
<line x1="151" y1="11" x2="231" y2="11" stroke="#F9D64F" stroke-width="2" stroke-linecap="round" stroke-dasharray="5 5"/>
</svg>
