<svg width="236" height="24" viewBox="0 0 236 24" fill="none" xmlns="http://www.w3.org/2000/svg">
<path d="M37.922 3.536C38.408 3.536 38.84 3.77 38.84 4.292V5.93C38.84 7.082 39.2 7.874 40.046 8.594C40.892 9.296 41.648 9.872 42.242 10.304C42.638 10.592 42.62 11.06 42.368 11.402C42.134 11.726 41.684 11.924 41.27 11.618C40.784 11.276 40.046 10.718 39.29 10.088C38.408 9.368 38.048 8.918 37.958 8.54H37.94C37.85 8.954 37.454 9.458 36.572 10.16C35.816 10.79 35.078 11.366 34.322 11.906C33.908 12.194 33.44 11.996 33.206 11.69C32.972 11.348 32.918 10.844 33.35 10.538C34.196 9.926 34.952 9.35 35.798 8.648C36.644 7.928 37.004 7.136 37.004 5.984V4.292C37.004 3.77 37.454 3.536 37.922 3.536ZM45.302 2.996C45.77 2.996 46.202 3.23 46.202 3.752V11.978C46.202 12.5 45.77 12.734 45.302 12.734C44.834 12.734 44.402 12.5 44.402 11.978V3.752C44.402 3.23 44.834 2.996 45.302 2.996ZM36.014 13.508H44.816C45.86 13.508 46.202 13.832 46.202 14.858V18.98C46.202 19.502 45.77 19.736 45.302 19.736C44.834 19.736 44.402 19.502 44.402 18.98V15.416C44.402 15.146 44.294 15.056 44.024 15.056H36.014C35.564 15.056 35.366 14.696 35.366 14.282C35.366 13.868 35.564 13.508 36.014 13.508ZM55.9248 4.022C56.3568 4.022 56.5548 4.382 56.5548 4.796C56.5548 5.21 56.3568 5.57 55.9248 5.57H50.9568C50.6868 5.57 50.5788 5.66 50.5788 5.93V10.07C50.5788 10.358 50.6868 10.448 50.9568 10.448C53.3148 10.448 55.3128 10.322 57.2568 10.07C57.6708 10.016 57.9408 10.304 57.9768 10.718C58.0308 11.15 57.8688 11.546 57.4728 11.582C55.7988 11.816 53.6568 11.978 50.1648 11.978C49.1208 11.978 48.7788 11.654 48.7788 10.628V5.372C48.7788 4.346 49.1208 4.022 50.1648 4.022H55.9248ZM60.0108 2.996C60.4788 2.996 60.9108 3.23 60.9108 3.752V7.604H62.8908C63.3588 7.604 63.5568 7.964 63.5568 8.378C63.5568 8.828 63.3588 9.17 62.8908 9.17H60.9108V14.408C60.9108 14.93 60.4788 15.164 60.0108 15.164C59.5428 15.164 59.1108 14.93 59.1108 14.408V3.752C59.1108 3.23 59.5428 2.996 60.0108 2.996ZM51.4968 13.652C51.9468 13.652 52.3968 13.886 52.3968 14.408V17.45C52.3968 17.72 52.4868 17.81 52.7748 17.81H60.6948C61.1448 17.81 61.3428 18.17 61.3428 18.602C61.3428 19.016 61.1448 19.376 60.6948 19.376H51.9648C50.9208 19.376 50.5788 19.052 50.5788 18.026V14.408C50.5788 13.886 51.0108 13.652 51.4968 13.652ZM76.1416 3.932C76.5736 3.932 76.7716 4.292 76.7716 4.706C76.7716 5.12 76.5736 5.462 76.1416 5.462H73.2616V6.434C73.2616 7.586 73.5856 8.306 74.4496 9.008C75.2776 9.692 76.0516 10.268 76.5916 10.646C76.9876 10.952 76.9876 11.384 76.7356 11.744C76.5016 12.032 76.0696 12.266 75.6196 11.96C75.2236 11.672 74.4856 11.114 73.7116 10.502C72.7936 9.782 72.4876 9.368 72.3976 9.008H72.3796C72.2896 9.404 71.9296 9.854 71.0296 10.592C70.2376 11.204 69.4816 11.762 68.7976 12.248C68.3836 12.554 67.9156 12.338 67.6996 12.032C67.4476 11.672 67.4296 11.204 67.8436 10.898C68.6716 10.304 69.4456 9.746 70.2916 9.062C71.1376 8.36 71.4616 7.64 71.4616 6.47V5.462H68.4556C68.0056 5.462 67.8076 5.12 67.8076 4.706C67.8076 4.292 68.0056 3.932 68.4556 3.932H76.1416ZM79.9936 2.996C80.4436 2.996 80.8756 3.23 80.8756 3.752V12.122C80.8756 12.626 80.4436 12.86 79.9936 12.86C79.5256 12.86 79.0936 12.626 79.0936 12.122V8.648H76.5016C76.0516 8.648 75.8536 8.288 75.8536 7.874C75.8536 7.442 76.0516 7.1 76.5016 7.1H79.0936V3.752C79.0936 3.23 79.5256 2.996 79.9936 2.996ZM75.6916 13.022C79.0216 13.022 80.9656 14.174 80.9656 16.424C80.9656 18.674 79.0216 19.826 75.6916 19.826C72.3616 19.826 70.4176 18.674 70.4176 16.424C70.4176 14.174 72.3616 13.022 75.6916 13.022ZM75.6916 14.48C73.2436 14.48 72.1996 15.236 72.1996 16.424C72.1996 17.612 73.2436 18.368 75.6916 18.368C78.1216 18.368 79.1836 17.612 79.1836 16.424C79.1836 15.236 78.1216 14.48 75.6916 14.48ZM85.6124 3.752C86.0624 3.752 86.5124 4.004 86.5124 4.508V6.65H93.9644V4.508C93.9644 4.004 94.4144 3.752 94.8464 3.752C95.3144 3.752 95.7644 4.004 95.7644 4.508V10.862C95.7644 11.888 95.4224 12.212 94.3784 12.212H91.1384V15.452H97.1684C97.6004 15.452 97.7984 15.794 97.7984 16.208C97.7984 16.622 97.6004 16.982 97.1684 16.982H83.3084C82.8764 16.982 82.6784 16.622 82.6784 16.208C82.6784 15.794 82.8764 15.452 83.3084 15.452H89.3384V12.212H86.0984C85.0544 12.212 84.7304 11.888 84.7304 10.862V4.508C84.7304 4.004 85.1624 3.752 85.6124 3.752ZM86.5124 10.322C86.5124 10.592 86.6204 10.682 86.8904 10.682H93.5864C93.8564 10.682 93.9644 10.592 93.9644 10.322V8.18H86.5124V10.322Z" fill="white"/>
<circle cx="12" cy="12" r="12" fill="#B4D757"/>
<path d="M11.4 4.932C14.118 4.932 15.414 6.39 15.414 8.172V8.352C15.414 9.702 14.838 10.8 13.632 12.06L9.492 16.416H15.36C15.792 16.416 15.99 16.758 15.99 17.172C15.99 17.586 15.792 17.928 15.36 17.928H8.43C7.494 17.928 7.116 17.622 7.116 16.956C7.116 16.65 7.278 16.398 7.656 15.984L12.048 11.34C13.326 10.008 13.614 9.324 13.614 8.37V8.28C13.614 7.236 12.876 6.552 11.436 6.552C10.248 6.552 9.474 7.056 8.826 7.992C8.556 8.352 8.124 8.424 7.746 8.154C7.368 7.884 7.224 7.452 7.494 7.038C8.268 5.85 9.528 4.932 11.4 4.932Z" fill="black"/>
<line x1="155" y1="11" x2="235" y2="11" stroke="#B4D757" stroke-width="2" stroke-linecap="round" stroke-dasharray="5 5"/>
</svg>
