<svg width="253" height="24" viewBox="0 0 253 24" fill="none" xmlns="http://www.w3.org/2000/svg">
<path d="M37.094 3.932C39.866 3.932 41.306 5.804 41.306 9.296C41.306 12.788 39.866 14.66 37.094 14.66C34.322 14.66 32.9 12.788 32.9 9.296C32.9 5.804 34.322 3.932 37.094 3.932ZM37.094 5.516C35.348 5.516 34.646 6.848 34.646 9.296C34.646 11.744 35.348 13.076 37.094 13.076C38.858 13.076 39.56 11.744 39.56 9.296C39.56 6.848 38.858 5.516 37.094 5.516ZM44.528 2.996C44.996 2.996 45.428 3.23 45.428 3.752V8.432H47.408C47.876 8.432 48.074 8.774 48.074 9.206C48.074 9.638 47.876 9.998 47.408 9.998H45.428V17.792C45.428 18.314 44.996 18.548 44.528 18.548C44.06 18.548 43.628 18.314 43.628 17.792V3.752C43.628 3.23 44.06 2.996 44.528 2.996ZM52.9548 3.914C55.7448 3.914 57.1848 5.804 57.1848 9.296C57.1848 12.788 55.7448 14.678 52.9548 14.678C50.1648 14.678 48.7428 12.788 48.7428 9.296C48.7428 5.804 50.1648 3.914 52.9548 3.914ZM52.9548 5.498C51.1908 5.498 50.4888 6.848 50.4888 9.296C50.4888 11.744 51.1908 13.094 52.9548 13.094C54.7368 13.094 55.4388 11.744 55.4388 9.296C55.4388 6.848 54.7368 5.498 52.9548 5.498ZM60.7668 2.996C61.2528 2.996 61.6848 3.23 61.6848 3.752V17.792C61.6848 18.314 61.2528 18.548 60.7668 18.548C60.3168 18.548 59.8668 18.314 59.8668 17.792V3.752C59.8668 3.23 60.3168 2.996 60.7668 2.996ZM74.2696 4.22C75.3136 4.22 75.6556 4.544 75.6556 5.57V7.604C75.6556 10.61 74.7736 11.6 69.2476 14.984C68.8516 15.218 68.3836 15.02 68.1496 14.678C67.9156 14.336 67.8976 13.796 68.2936 13.544C73.3876 10.448 73.8556 9.854 73.8556 7.532V6.146C73.8556 5.876 73.7656 5.786 73.4776 5.786H68.7976C68.3476 5.786 68.1496 5.426 68.1496 5.012C68.1496 4.58 68.3476 4.22 68.7976 4.22H74.2696ZM79.8496 2.996C80.3356 2.996 80.7676 3.23 80.7676 3.752V17.792C80.7676 18.314 80.3356 18.548 79.8496 18.548C79.3996 18.548 78.9496 18.314 78.9496 17.792V3.752C78.9496 3.23 79.3996 2.996 79.8496 2.996ZM85.6304 3.374C86.0804 3.374 86.5124 3.608 86.5124 4.112V5.444H93.9644V4.112C93.9644 3.608 94.3964 3.374 94.8284 3.374C95.2784 3.374 95.7284 3.608 95.7284 4.112V8.63C95.7284 9.656 95.3864 9.98 94.3424 9.98H91.1204V11.924H97.1684C97.6004 11.924 97.7984 12.266 97.7984 12.68C97.7984 13.094 97.6004 13.436 97.1684 13.436H83.3084C82.8764 13.436 82.6784 13.094 82.6784 12.68C82.6784 12.266 82.8764 11.924 83.3084 11.924H89.3564V9.98H86.1344C85.0904 9.98 84.7664 9.656 84.7664 8.63V4.112C84.7664 3.608 85.1984 3.374 85.6304 3.374ZM85.6304 14.48C86.0984 14.48 86.5304 14.714 86.5304 15.236V17.54C86.5304 17.81 86.6384 17.918 86.9084 17.918H95.4224C95.8544 17.918 96.0524 18.26 96.0524 18.674C96.0524 19.088 95.8544 19.448 95.4224 19.448H86.0984C85.0544 19.448 84.7304 19.124 84.7304 18.098V15.236C84.7304 14.714 85.1624 14.48 85.6304 14.48ZM86.5124 8.216C86.5124 8.414 86.6024 8.486 86.8004 8.486H93.6764C93.8744 8.486 93.9644 8.414 93.9644 8.216V6.92H86.5124V8.216ZM110.707 3.932C111.139 3.932 111.337 4.292 111.337 4.706C111.337 5.12 111.139 5.462 110.707 5.462H107.827V6.434C107.827 7.586 108.151 8.306 109.015 9.008C109.843 9.692 110.617 10.268 111.157 10.646C111.553 10.952 111.553 11.384 111.301 11.744C111.067 12.032 110.635 12.266 110.185 11.96C109.789 11.672 109.051 11.114 108.277 10.502C107.359 9.782 107.053 9.368 106.963 9.008H106.945C106.855 9.404 106.495 9.854 105.595 10.592C104.803 11.204 104.047 11.762 103.363 12.248C102.949 12.554 102.481 12.338 102.265 12.032C102.013 11.672 101.995 11.204 102.409 10.898C103.237 10.304 104.011 9.746 104.857 9.062C105.703 8.36 106.027 7.64 106.027 6.47V5.462H103.021C102.571 5.462 102.373 5.12 102.373 4.706C102.373 4.292 102.571 3.932 103.021 3.932H110.707ZM114.559 2.996C115.009 2.996 115.441 3.23 115.441 3.752V12.122C115.441 12.626 115.009 12.86 114.559 12.86C114.091 12.86 113.659 12.626 113.659 12.122V8.648H111.067C110.617 8.648 110.419 8.288 110.419 7.874C110.419 7.442 110.617 7.1 111.067 7.1H113.659V3.752C113.659 3.23 114.091 2.996 114.559 2.996ZM110.257 13.022C113.587 13.022 115.531 14.174 115.531 16.424C115.531 18.674 113.587 19.826 110.257 19.826C106.927 19.826 104.983 18.674 104.983 16.424C104.983 14.174 106.927 13.022 110.257 13.022ZM110.257 14.48C107.809 14.48 106.765 15.236 106.765 16.424C106.765 17.612 107.809 18.368 110.257 18.368C112.687 18.368 113.749 17.612 113.749 16.424C113.749 15.236 112.687 14.48 110.257 14.48ZM120.178 3.752C120.628 3.752 121.078 4.004 121.078 4.508V6.65H128.53V4.508C128.53 4.004 128.98 3.752 129.412 3.752C129.88 3.752 130.33 4.004 130.33 4.508V10.862C130.33 11.888 129.988 12.212 128.944 12.212H125.704V15.452H131.734C132.166 15.452 132.364 15.794 132.364 16.208C132.364 16.622 132.166 16.982 131.734 16.982H117.874C117.442 16.982 117.244 16.622 117.244 16.208C117.244 15.794 117.442 15.452 117.874 15.452H123.904V12.212H120.664C119.62 12.212 119.296 11.888 119.296 10.862V4.508C119.296 4.004 119.728 3.752 120.178 3.752ZM121.078 10.322C121.078 10.592 121.186 10.682 121.456 10.682H128.152C128.422 10.682 128.53 10.592 128.53 10.322V8.18H121.078V10.322Z" fill="white"/>
<line x1="172" y1="11" x2="252" y2="11" stroke="#96C4FC" stroke-width="2" stroke-linecap="round" stroke-dasharray="5 5"/>
<circle cx="12" cy="12" r="12" fill="#96C4FC"/>
<path d="M12.678 5.04C13.218 5.04 13.614 5.274 13.614 5.814V17.262C13.614 17.784 13.2 18.018 12.714 18.018C12.246 18.018 11.814 17.784 11.814 17.262V7.164L9.114 8.82C8.664 9.072 8.214 8.874 7.98 8.46C7.782 8.082 7.818 7.596 8.25 7.362L11.472 5.436C11.958 5.166 12.318 5.04 12.678 5.04Z" fill="black"/>
</svg>
