<svg width="30" height="30" viewBox="0 0 30 30" fill="none" xmlns="http://www.w3.org/2000/svg">
<path d="M30 14.5891C30 11.9033 27.8228 9.72604 25.137 9.72604C22.4512 9.72604 20.274 7.54879 20.274 4.86302C20.274 2.17725 18.0967 0 15.4109 0L14.5891 0C11.9033 0 9.72604 2.17725 9.72604 4.86302C9.72604 7.54879 7.54879 9.72604 4.86302 9.72604C2.17725 9.72604 0 11.9033 0 14.5891L0 15.4109C0 18.0967 2.17725 20.274 4.86302 20.274C7.54879 20.274 9.72604 22.4512 9.72604 25.137C9.72604 27.8228 11.9033 30 14.5891 30H15.4109C18.0967 30 20.274 27.8228 20.274 25.137C20.274 22.4512 22.4512 20.274 25.137 20.274C27.8228 20.274 30 18.0967 30 15.4109V14.5891Z" fill="#BBDA6C"/>
</svg>
