<svg width="121" height="56" viewBox="0 0 121 56" fill="none" xmlns="http://www.w3.org/2000/svg">
<path d="M3.6 40.68V18.12C3.6 15.44 4.84 14.16 7.52 14.16H17.8C23.76 14.16 28.04 17.92 28.04 23.88C28.04 29.8 23.72 33.6 17.8 33.6H10.32V40.68C10.32 42.68 8.96 44.04 6.96 44.04C4.96 44.04 3.6 42.68 3.6 40.68ZM10.32 19.64V27.96H16.64C19.32 27.96 21.4 26.48 21.4 23.8C21.4 21.08 19.32 19.64 16.64 19.64H10.32ZM33.6116 34.12C33.6116 36.96 35.1316 39.44 37.8516 39.44C40.5316 39.44 42.0916 36.96 42.0916 34.12C42.0916 31.28 40.5316 28.8 37.8516 28.8C35.1316 28.8 33.6116 31.28 33.6116 34.12ZM27.6516 34.12C27.6516 27.92 31.6516 23.84 37.8516 23.84C44.0516 23.84 48.0516 27.92 48.0516 34.12C48.0516 40.32 44.0516 44.4 37.8516 44.4C31.6516 44.4 27.6516 40.32 27.6516 34.12ZM56.5559 16.6V30.4L63.9959 24.96C65.4359 23.92 67.0359 23.76 68.1159 25.16C69.2359 26.6 68.7159 28.2 67.2759 29.24L63.0759 32.36L68.4359 39.32C69.5159 40.76 69.3959 42.52 68.0759 43.48C66.8359 44.4 65.1559 44.2 64.0759 42.72L58.6359 35.72L56.5559 37.24V41.04C56.5559 42.92 55.3559 44.04 53.4759 44.04C51.5959 44.04 50.4359 42.92 50.4359 41.04V16.6C50.4359 14.72 51.5959 13.56 53.4759 13.56C55.3559 13.56 56.5559 14.72 56.5559 16.6ZM72.6353 41V26.92C72.6353 25.04 73.8353 23.84 75.7153 23.84C77.5953 23.84 78.7553 25.04 78.7553 26.92V41C78.7553 42.88 77.5953 44.04 75.7153 44.04C73.8353 44.04 72.6353 42.88 72.6353 41ZM79.2353 16.68C79.2353 18.64 77.6753 20.2 75.7153 20.2C73.7553 20.2 72.1953 18.64 72.1953 16.68C72.1953 14.72 73.7553 13.16 75.7153 13.16C77.6753 13.16 79.2353 14.72 79.2353 16.68Z" fill="#6E97CF"/>
<path d="M110.369 14.758C110.361 12.9862 108.224 12.0987 106.963 13.3439L92.4647 27.6667C91.193 28.9231 92.0826 31.0895 93.8703 31.0895H97.674C98.7786 31.0895 99.674 31.985 99.674 33.0895V40.213C99.674 41.9889 101.816 42.8839 103.08 41.6358L117.535 27.3557C118.807 26.0994 117.917 23.9329 116.13 23.9329H112.4C111.299 23.9329 110.405 23.0428 110.4 21.9416L110.369 14.758Z" fill="#6E97CF"/>
</svg>
