<svg width="131" height="56" viewBox="0 0 131 56" fill="none" xmlns="http://www.w3.org/2000/svg">
<path d="M111.702 26.9209C110.048 24.0562 109.548 20.8449 110.05 17.8153C110.293 16.3541 108.978 14.93 107.695 15.6706C100.684 19.7184 98.2734 28.6697 102.312 35.664C106.35 42.6582 115.307 45.0463 122.319 40.9982C124.281 39.8651 125.878 38.3461 127.074 36.5936C128.035 35.1866 126.475 33.6041 124.778 33.7454C119.626 34.174 114.454 31.6863 111.703 26.9215L111.702 26.9209Z" fill="#F7C669"/>
<path d="M27.52 23.36C27.52 27 25.92 29.8 23.16 31.36L27.4 39.72C28.12 41.16 28.04 42.96 26.32 43.88C24.6 44.76 22.76 44.04 21.96 42.52L16.6 32.68H10.16V40.68C10.16 42.68 8.76 44.04 6.76 44.04C4.76 44.04 3.4 42.68 3.4 40.68V18.12C3.4 15.44 4.68 14.16 7.32 14.16H17.4C23.52 14.16 27.52 17.64 27.52 23.36ZM10.16 19.48V27.36H15.92C18.96 27.36 20.92 26.2 20.92 23.36C20.92 20.52 19 19.48 15.92 19.48H10.16ZM49.6038 27.28V41.12C49.6038 43 48.4838 44.04 46.6038 44.04C44.9238 44.04 44.0838 42.96 43.8438 41.56C43.0038 43.28 41.1238 44.4 38.2438 44.4C33.0838 44.4 29.6438 39.88 29.6438 34.04C29.6438 28.2 33.0838 23.84 38.0438 23.84C40.9238 23.84 42.8838 24.96 43.8438 26.52C44.0438 25.16 44.9238 24.16 46.6438 24.16C48.5238 24.16 49.6038 25.4 49.6038 27.28ZM35.5638 34.12C35.5638 37.2 37.2438 39.44 39.7238 39.44C42.2038 39.44 43.8038 37.2 43.8038 34.12C43.8038 31.04 42.2038 28.8 39.7238 28.8C37.2438 28.8 35.5638 31.04 35.5638 34.12ZM76.4188 41V32C76.4188 30.28 75.2588 28.92 73.4588 28.92C71.6588 28.92 70.4988 30.24 70.4988 32.32V41C70.4988 42.88 69.4988 44.04 67.6188 44.04C65.7388 44.04 64.6988 42.88 64.6988 41V32C64.6988 30.28 63.5388 28.92 61.7388 28.92C59.9388 28.92 58.7788 30.24 58.7788 32.32V41C58.7788 42.88 57.6988 44.04 55.8188 44.04C53.9388 44.04 52.8188 42.88 52.8188 41V27.24C52.8188 25.2 53.9788 24.16 55.7788 24.16C57.4988 24.16 58.5788 25.48 58.6988 26.92C59.6188 25.04 61.3388 23.84 64.0588 23.84C66.6988 23.84 68.2988 25.36 68.9388 27.36C70.2988 25 72.5788 23.84 75.6188 23.84C79.2988 23.84 82.3788 25.8 82.3788 30.6V41C82.3788 42.88 81.2588 44.04 79.3788 44.04C77.4588 44.04 76.4188 42.88 76.4188 41ZM86.4244 41V26.92C86.4244 25.04 87.6244 23.84 89.5044 23.84C91.3844 23.84 92.5444 25.04 92.5444 26.92V41C92.5444 42.88 91.3844 44.04 89.5044 44.04C87.6244 44.04 86.4244 42.88 86.4244 41ZM93.0244 16.68C93.0244 18.64 91.4644 20.2 89.5044 20.2C87.5444 20.2 85.9844 18.64 85.9844 16.68C85.9844 14.72 87.5444 13.16 89.5044 13.16C91.4644 13.16 93.0244 14.72 93.0244 16.68Z" fill="#F7C669"/>
</svg>
