<svg width="26" height="26" viewBox="0 0 26 26" fill="none" xmlns="http://www.w3.org/2000/svg">
<path d="M25.6349 23.8081L20.8148 19.0233C22.6858 16.6887 23.5919 13.7253 23.3467 10.7426C23.1016 7.75994 21.7238 4.98461 19.4968 2.9873C17.2697 0.989992 14.3626 -0.0774791 11.3732 0.00438298C8.38384 0.086245 5.53942 1.31122 3.42482 3.42742C1.31022 5.54362 0.0861795 8.39021 0.00437965 11.3818C-0.0774202 14.3735 0.98924 17.2828 2.98503 19.5116C4.98083 21.7403 7.75405 23.1191 10.7345 23.3645C13.7149 23.6098 16.676 22.703 19.0089 20.8306L23.79 25.6154C23.9108 25.7373 24.0545 25.834 24.2128 25.9C24.3711 25.966 24.541 26 24.7125 26C24.884 26 25.0538 25.966 25.2121 25.9C25.3705 25.834 25.5141 25.7373 25.6349 25.6154C25.8691 25.373 26 25.0489 26 24.7118C26 24.3746 25.8691 24.0505 25.6349 23.8081ZM11.7202 20.8306C9.92146 20.8306 8.16312 20.2968 6.66752 19.2967C5.17192 18.2966 4.00624 16.8752 3.31789 15.2121C2.62955 13.549 2.44944 11.719 2.80036 9.95349C3.15128 8.18797 4.01745 6.56624 5.28935 5.29337C6.56126 4.0205 8.18176 3.15367 9.94594 2.80249C11.7101 2.4513 13.5387 2.63154 15.2006 3.32041C16.8624 4.00929 18.2828 5.17585 19.2821 6.67258C20.2814 8.16932 20.8148 9.929 20.8148 11.7291C20.8148 14.143 19.8566 16.458 18.1511 18.1648C16.4455 19.8717 14.1322 20.8306 11.7202 20.8306Z" fill="black" fill-opacity="0.7"/>
</svg>
