<svg width="1507" height="825" viewBox="0 0 1507 825" fill="none" xmlns="http://www.w3.org/2000/svg">
<path opacity="0.2" d="M47.7725 705.836C47.6384 716.663 60.7829 722.091 68.3529 714.333L322.349 454.054C329.711 446.509 324.495 433.836 313.965 433.683L209.131 432.16C202.504 432.063 197.221 426.613 197.33 419.987L199.955 260.345C200.134 249.495 186.962 244.025 179.376 251.799L-74.1921 511.631C-81.5543 519.175 -76.3385 531.848 -65.8085 532.001L37.9536 533.509C44.5613 533.605 49.8375 539.025 49.7557 545.633L47.7725 705.836Z" fill="url(#paint0_linear_4927_170)"/>
<path opacity="0.2" d="M359.192 743.781C359.215 754.61 372.437 759.845 379.894 751.979L496.053 629.432C503.305 621.782 497.905 609.186 487.374 609.186L449.408 609.186C442.78 609.186 437.418 603.813 437.431 597.186L437.558 530.787C437.579 519.935 424.329 514.657 416.856 522.54L300.98 644.784C293.728 652.434 299.128 665.03 309.659 665.03L347.071 665.03C353.679 665.03 359.034 670.373 359.048 676.981L359.192 743.781Z" fill="url(#paint1_linear_4927_170)"/>
<path opacity="0.2" d="M1016.61 403.143C1016.64 413.971 1029.86 419.207 1037.32 411.34L1153.48 288.794C1160.73 281.143 1155.33 268.547 1144.8 268.547L1106.83 268.547C1100.2 268.547 1094.84 263.175 1094.85 256.547L1094.98 190.148C1095 179.296 1081.75 174.018 1074.28 181.902L958.402 304.145C951.15 311.795 956.55 324.391 967.081 324.391L1004.49 324.391C1011.1 324.391 1016.46 329.734 1016.47 336.343L1016.61 403.143Z" fill="url(#paint2_linear_4927_170)"/>
<path opacity="0.2" d="M1416.1 143.93C1416.21 149.343 1422.87 151.834 1426.53 147.83L1494.98 72.7811C1498.53 68.8872 1495.71 62.642 1490.45 62.7429L1465.58 63.2195C1462.27 63.283 1459.54 60.6486 1459.48 57.3354L1458.77 15.9301C1458.67 10.5049 1452 7.99327 1448.34 12.0059L1380.03 86.8868C1376.48 90.7807 1379.3 97.026 1384.57 96.9251L1409.11 96.4546C1412.41 96.3913 1415.14 99.011 1415.21 102.314L1416.1 143.93Z" fill="url(#paint3_linear_4927_170)"/>
<path opacity="0.2" d="M1043.1 808.93C1043.21 814.343 1049.87 816.834 1053.53 812.83L1121.98 737.781C1125.53 733.887 1122.71 727.642 1117.45 727.743L1092.58 728.22C1089.27 728.283 1086.54 725.649 1086.48 722.335L1085.77 680.93C1085.67 675.505 1079 672.993 1075.34 677.006L1007.03 751.887C1003.48 755.781 1006.3 762.026 1011.57 761.925L1036.11 761.455C1039.41 761.391 1042.14 764.011 1042.21 767.314L1043.1 808.93Z" fill="url(#paint4_linear_4927_170)"/>
<defs>
<linearGradient id="paint0_linear_4927_170" x1="358.742" y1="692.606" x2="127.364" y2="229.596" gradientUnits="userSpaceOnUse">
<stop stop-color="#99C5FC"/>
<stop offset="1" stop-color="#5B7596"/>
</linearGradient>
<linearGradient id="paint1_linear_4927_170" x1="526.359" y1="748.086" x2="398.304" y2="500.885" gradientUnits="userSpaceOnUse">
<stop stop-color="#99C5FC"/>
<stop offset="1" stop-color="#5B7596"/>
</linearGradient>
<linearGradient id="paint2_linear_4927_170" x1="1183.78" y1="407.447" x2="1055.73" y2="160.247" gradientUnits="userSpaceOnUse">
<stop stop-color="#99C5FC"/>
<stop offset="1" stop-color="#5B7596"/>
</linearGradient>
<linearGradient id="paint3_linear_4927_170" x1="1512.31" y1="142.297" x2="1435.88" y2="1.43368" gradientUnits="userSpaceOnUse">
<stop stop-color="#99C5FC"/>
<stop offset="1" stop-color="#5B7596"/>
</linearGradient>
<linearGradient id="paint4_linear_4927_170" x1="1139.31" y1="807.297" x2="1062.88" y2="666.434" gradientUnits="userSpaceOnUse">
<stop stop-color="#99C5FC"/>
<stop offset="1" stop-color="#5B7596"/>
</linearGradient>
</defs>
</svg>
