<svg width="1689" height="367" viewBox="0 0 1689 367" fill="none" xmlns="http://www.w3.org/2000/svg">
<path d="M971.772 219.08C973.164 219.08 973.62 219.512 973.62 220.88V230.576C973.62 231.944 973.164 232.376 971.772 232.376H966.564C965.172 232.376 964.716 231.944 964.716 230.576V220.88C964.716 219.512 965.172 219.08 966.564 219.08H971.772ZM967.452 221.144C967.092 221.144 966.948 221.264 966.948 221.624V229.832C966.948 230.192 967.092 230.312 967.452 230.312H970.884C971.244 230.312 971.388 230.192 971.388 229.832V221.624C971.388 221.264 971.244 221.144 970.884 221.144H967.452ZM981.828 217.328C982.404 217.328 982.956 217.616 982.956 218.264V237.128C982.956 237.776 982.404 238.064 981.828 238.064C981.276 238.064 980.724 237.776 980.724 237.128V226.736H978.156V236.12C978.156 236.768 977.604 237.056 977.028 237.056C976.476 237.056 975.924 236.768 975.924 236.12V218.504C975.924 217.856 976.476 217.568 977.028 217.568C977.604 217.568 978.156 217.856 978.156 218.504V224.696H980.724V218.264C980.724 217.616 981.276 217.328 981.828 217.328ZM994.888 217.928C999.52 217.928 1002.23 219.656 1002.23 222.848C1002.23 226.04 999.52 227.768 994.888 227.768C990.256 227.768 987.544 226.04 987.544 222.848C987.544 219.656 990.256 217.928 994.888 217.928ZM994.888 219.968C991.456 219.968 989.944 221.12 989.944 222.848C989.944 224.576 991.456 225.728 994.888 225.728C998.32 225.728 999.832 224.576 999.832 222.848C999.832 221.12 998.32 219.968 994.888 219.968ZM1004.13 229.952C1004.7 229.952 1004.97 230.432 1004.97 230.984C1004.97 231.536 1004.7 231.992 1004.13 231.992H996.088V238.736C996.088 239.432 995.512 239.744 994.888 239.744C994.264 239.744 993.688 239.432 993.688 238.736V231.992H985.648C985.072 231.992 984.808 231.536 984.808 230.984C984.808 230.432 985.072 229.952 985.648 229.952H1004.13ZM1016.68 218.216C1020.43 218.216 1022.28 220.448 1022.28 223.424C1022.28 226.424 1020.43 228.656 1016.68 228.656C1012.94 228.656 1011.09 226.424 1011.09 223.424C1011.09 220.448 1012.94 218.216 1016.68 218.216ZM1016.68 220.208C1014.31 220.208 1013.4 221.672 1013.4 223.424C1013.4 225.176 1014.31 226.64 1016.68 226.64C1019.06 226.64 1019.97 225.176 1019.97 223.424C1019.97 221.672 1019.06 220.208 1016.68 220.208ZM1027.15 217.328C1027.77 217.328 1028.35 217.64 1028.35 218.336V228.824C1028.35 229.52 1027.77 229.832 1027.15 229.832C1026.52 229.832 1025.95 229.52 1025.95 228.824V218.336C1025.95 217.64 1026.52 217.328 1027.15 217.328ZM1017.4 230.408C1018.03 230.408 1018.58 230.72 1018.58 231.392V232.544C1018.58 233.936 1018.82 234.536 1019.71 235.544C1020.09 235.952 1020.55 236.408 1020.91 236.744C1021.24 237.032 1021.44 237.032 1021.75 236.744C1022.13 236.408 1022.56 235.952 1022.95 235.544C1023.84 234.536 1024.08 233.936 1024.08 232.544V231.392C1024.08 230.72 1024.63 230.408 1025.25 230.408C1025.85 230.408 1026.43 230.72 1026.43 231.392V232.544C1026.43 233.984 1026.76 234.632 1027.84 235.64C1028.49 236.24 1029.33 236.888 1030.12 237.464C1030.56 237.8 1030.53 238.424 1030.17 238.856C1029.81 239.336 1029.24 239.456 1028.71 239.072C1028.04 238.568 1027.41 238.064 1026.88 237.584C1025.78 236.648 1025.4 236.144 1025.25 235.664H1025.23C1025.08 236.192 1024.75 236.6 1023.69 237.68C1023.31 238.064 1022.95 238.424 1022.56 238.736C1021.63 239.528 1021.03 239.528 1020.12 238.736C1019.73 238.424 1019.35 238.064 1018.99 237.68C1017.93 236.6 1017.57 236.192 1017.43 235.664H1017.4C1017.26 236.192 1016.88 236.672 1015.8 237.632C1015.27 238.088 1014.64 238.592 1013.95 239.096C1013.42 239.504 1012.87 239.36 1012.48 238.904C1012.12 238.424 1012.12 237.8 1012.56 237.464C1013.32 236.888 1014.16 236.24 1014.81 235.64C1015.89 234.632 1016.23 233.984 1016.23 232.544V231.392C1016.23 230.72 1016.8 230.408 1017.4 230.408ZM1041.41 218.936C1041.98 218.936 1042.25 219.416 1042.25 219.992C1042.25 220.544 1041.98 221 1041.41 221H1034.69C1034.33 221 1034.18 221.144 1034.18 221.504V230C1034.18 230.36 1034.33 230.504 1034.69 230.504C1037.83 230.504 1040.5 230.336 1043.09 229.976C1043.64 229.904 1044 230.312 1044.05 230.864C1044.12 231.44 1043.9 231.968 1043.38 232.04C1041.14 232.352 1038.29 232.568 1033.63 232.568C1032.24 232.568 1031.78 232.136 1031.78 230.768V220.736C1031.78 219.368 1032.24 218.936 1033.63 218.936H1041.41ZM1046.76 217.328C1047.38 217.328 1047.96 217.64 1047.96 218.336V224.576H1050.6C1051.22 224.576 1051.49 225.032 1051.49 225.608C1051.49 226.184 1051.22 226.664 1050.6 226.664H1047.96V237.056C1047.96 237.752 1047.38 238.064 1046.76 238.064C1046.14 238.064 1045.56 237.752 1045.56 237.056V218.336C1045.56 217.64 1046.14 217.328 1046.76 217.328ZM1053.68 233.624C1054.61 233.624 1055.31 234.32 1055.31 235.232C1055.31 236.168 1054.61 236.864 1053.68 236.864C1052.76 236.864 1052.07 236.168 1052.07 235.232C1052.07 234.32 1052.76 233.624 1053.68 233.624ZM986.692 252.912C987.196 253.248 987.436 253.8 986.98 254.448L980.188 264.264H985.996V259.872C985.996 259.176 986.572 258.864 987.172 258.864C987.796 258.864 988.372 259.176 988.372 259.872V264.264H990.124C990.724 264.264 990.94 264.72 990.94 265.248C990.94 265.776 990.724 266.232 990.124 266.232H988.372V269.016C988.372 269.712 987.796 270.024 987.172 270.024C986.572 270.024 985.996 269.712 985.996 269.016V266.232H978.868C977.764 266.232 977.308 265.848 977.308 265.056C977.308 264.744 977.356 264.528 977.956 263.64L985.204 253.2C985.588 252.648 986.188 252.6 986.692 252.912ZM997.212 252.576C1001.17 252.576 1003.24 255.144 1003.24 259.824V260.52C1003.24 268.152 1000.64 270.168 996.564 270.168C995.028 270.168 993.66 269.832 992.772 269.304C992.172 268.968 992.076 268.44 992.316 267.864C992.58 267.288 993.108 267.048 993.732 267.336C994.596 267.744 995.556 267.984 996.708 267.984C999.372 267.984 1000.69 266.4 1000.86 262.056C1000.07 263.304 998.364 264.024 996.684 264.024C993.372 264.024 991.284 261.888 991.284 258.576V258.168C991.284 254.856 993.66 252.576 997.212 252.576ZM997.26 254.76C995.028 254.76 993.66 255.984 993.66 258.24V258.432C993.66 260.712 994.812 261.912 997.164 261.912C999.54 261.912 1000.76 260.4 1000.76 258.576V258.384C1000.76 256.128 999.444 254.76 997.26 254.76ZM1006.46 267.624C1007.4 267.624 1008.09 268.32 1008.09 269.232C1008.09 270.168 1007.4 270.864 1006.46 270.864C1005.55 270.864 1004.85 270.168 1004.85 269.232C1004.85 268.32 1005.55 267.624 1006.46 267.624ZM1015.56 252.576C1018.96 252.576 1020.91 254.688 1020.91 257.16V257.376C1020.91 258.816 1020.04 260.28 1018.36 261.144C1020.12 261.648 1021.41 263.232 1021.41 265.128V265.416C1021.41 268.176 1019.25 270.168 1015.63 270.168C1011.91 270.168 1009.75 268.176 1009.75 265.416V265.128C1009.75 263.232 1011.09 261.624 1012.8 261.144C1011.14 260.352 1010.23 258.816 1010.23 257.376V257.16C1010.23 254.688 1012.1 252.576 1015.56 252.576ZM1015.58 254.688C1013.83 254.688 1012.65 255.696 1012.65 257.304V257.448C1012.65 259.152 1014 260.136 1015.6 260.136C1017.24 260.136 1018.51 259.152 1018.51 257.448V257.304C1018.51 255.696 1017.36 254.688 1015.58 254.688ZM1015.6 262.248C1013.76 262.248 1012.2 263.208 1012.2 265.152V265.296C1012.2 266.928 1013.52 268.056 1015.6 268.056C1017.72 268.056 1018.96 266.928 1018.96 265.296V265.152C1018.96 263.256 1017.5 262.248 1015.6 262.248ZM1027.16 252.576C1029.75 252.576 1031.09 254.208 1031.09 256.8V257.304C1031.09 259.896 1029.75 261.528 1027.16 261.528C1024.57 261.528 1023.22 259.896 1023.22 257.304V256.8C1023.22 254.208 1024.57 252.576 1027.16 252.576ZM1037.77 252.864C1038.2 253.08 1038.41 253.56 1038.1 254.088L1028.65 269.592C1028.36 270.048 1027.83 270.12 1027.37 269.88C1026.94 269.64 1026.73 269.184 1027.04 268.656L1036.49 253.152C1036.78 252.672 1037.31 252.624 1037.77 252.864ZM1027.16 254.28C1025.77 254.28 1025.14 255.096 1025.14 256.896V257.208C1025.14 259.032 1025.77 259.824 1027.16 259.824C1028.55 259.824 1029.2 259.032 1029.2 257.208V256.896C1029.2 255.096 1028.55 254.28 1027.16 254.28ZM1037.93 261.216C1040.53 261.216 1041.87 262.848 1041.87 265.416V265.944C1041.87 268.536 1040.53 270.168 1037.93 270.168C1035.34 270.168 1034 268.536 1034 265.944V265.416C1034 262.848 1035.34 261.216 1037.93 261.216ZM1037.93 262.896C1036.54 262.896 1035.92 263.712 1035.92 265.536V265.848C1035.92 267.672 1036.54 268.464 1037.93 268.464C1039.33 268.464 1039.97 267.672 1039.97 265.848V265.536C1039.97 263.712 1039.33 262.896 1037.93 262.896Z" fill="#F7DC75"/>
<path fill-rule="evenodd" clip-rule="evenodd" d="M831 246C831 243.239 833.239 241 836 241H854.125C856.886 241 859.125 243.239 859.125 246C859.125 248.761 856.886 251 854.125 251H836C833.239 251 831 248.761 831 246ZM867.25 246C867.25 243.239 869.489 241 872.25 241H890.375C893.136 241 895.375 243.239 895.375 246C895.375 248.761 893.136 251 890.375 251H872.25C869.489 251 867.25 248.761 867.25 246ZM903.5 246C903.5 243.239 905.739 241 908.5 241H926.625C929.386 241 931.625 243.239 931.625 246C931.625 248.761 929.386 251 926.625 251H908.5C905.739 251 903.5 248.761 903.5 246Z" fill="#F7DC75"/>
<path d="M1607.72 218.768C1608.29 218.768 1608.56 219.248 1608.56 219.8C1608.56 220.352 1608.29 220.832 1607.72 220.832H1603.88V222.344C1603.88 223.928 1604.38 225.008 1605.53 225.992C1606.59 226.88 1607.62 227.672 1608.34 228.224C1608.87 228.608 1608.87 229.208 1608.51 229.688C1608.2 230.096 1607.57 230.36 1607.02 229.952C1606.4 229.472 1605.49 228.776 1604.48 227.936C1603.28 226.952 1602.85 226.376 1602.73 225.848H1602.7C1602.58 226.424 1602.1 227.072 1600.9 228.056C1599.87 228.896 1598.89 229.664 1597.95 230.336C1597.42 230.744 1596.77 230.48 1596.49 230.072C1596.15 229.592 1596.08 228.944 1596.65 228.536C1597.69 227.768 1598.77 226.952 1599.82 226.04C1600.97 225.056 1601.48 224 1601.48 222.416V220.832H1597.47C1596.87 220.832 1596.61 220.352 1596.61 219.8C1596.61 219.248 1596.87 218.768 1597.47 218.768H1607.72ZM1612.85 217.328C1613.45 217.328 1614.03 217.64 1614.03 218.336V232.544C1614.03 233.24 1613.45 233.552 1612.85 233.552C1612.23 233.552 1611.65 233.24 1611.65 232.544V225.272H1608.2C1607.6 225.272 1607.33 224.792 1607.33 224.24C1607.33 223.664 1607.6 223.208 1608.2 223.208H1611.65V218.336C1611.65 217.64 1612.23 217.328 1612.85 217.328ZM1601.14 231.536C1601.74 231.536 1602.34 231.848 1602.34 232.544V236.6C1602.34 236.96 1602.46 237.08 1602.85 237.08H1613.74C1614.34 237.08 1614.61 237.56 1614.61 238.136C1614.61 238.688 1614.34 239.168 1613.74 239.168H1601.77C1600.37 239.168 1599.92 238.736 1599.92 237.368V232.544C1599.92 231.848 1600.49 231.536 1601.14 231.536ZM1623.18 223.952C1626.32 223.952 1628.22 225.872 1628.22 228.68C1628.22 231.488 1626.32 233.408 1623.18 233.408C1620.03 233.408 1618.14 231.488 1618.14 228.68C1618.14 225.872 1620.03 223.952 1623.18 223.952ZM1623.18 217.28C1623.8 217.28 1624.38 217.592 1624.38 218.288V220.352H1628.58C1629.15 220.352 1629.42 220.808 1629.42 221.36C1629.42 221.912 1629.15 222.392 1628.58 222.392H1617.51C1616.94 222.392 1616.67 221.912 1616.67 221.36C1616.67 220.808 1616.94 220.352 1617.51 220.352H1621.98V218.288C1621.98 217.592 1622.58 217.28 1623.18 217.28ZM1623.18 225.896C1621.4 225.896 1620.32 227 1620.32 228.68C1620.32 230.336 1621.4 231.464 1623.18 231.464C1624.95 231.464 1626.03 230.336 1626.03 228.68C1626.03 227 1624.95 225.896 1623.18 225.896ZM1633.5 217.328C1634.1 217.328 1634.67 217.64 1634.67 218.312V237.08C1634.67 237.752 1634.1 238.064 1633.5 238.064C1632.9 238.064 1632.32 237.752 1632.32 237.08V230.792H1629.9C1629.32 230.792 1629.08 230.336 1629.08 229.76C1629.08 229.208 1629.32 228.752 1629.9 228.752H1632.32V225.968H1629.82C1629.25 225.968 1628.98 225.488 1628.98 224.912C1628.98 224.36 1629.25 223.904 1629.82 223.904H1632.32V218.312C1632.32 217.64 1632.9 217.328 1633.5 217.328ZM1658.94 217.328C1659.54 217.328 1660.12 217.64 1660.12 218.336V228.2C1660.12 228.896 1659.54 229.208 1658.94 229.208C1658.32 229.208 1657.74 228.896 1657.74 228.2V224.384H1653.52C1653.13 226.832 1651.33 228.56 1648.09 228.56C1644.4 228.56 1642.57 226.328 1642.57 223.352C1642.57 220.4 1644.4 218.168 1648.09 218.168C1651.36 218.168 1653.16 219.92 1653.54 222.344H1657.74V218.336C1657.74 217.64 1658.32 217.328 1658.94 217.328ZM1645.67 230.24C1646.22 230.24 1646.75 230.528 1646.75 231.152V233.24H1650.32V231.152C1650.32 230.528 1650.85 230.24 1651.4 230.24C1651.96 230.24 1652.48 230.528 1652.48 231.152V237.56C1652.48 239 1652.1 239.36 1650.64 239.36H1646.44C1644.97 239.36 1644.59 239 1644.59 237.56V231.152C1644.59 230.528 1645.12 230.24 1645.67 230.24ZM1648.09 220.16C1645.76 220.16 1644.88 221.624 1644.88 223.352C1644.88 225.08 1645.76 226.544 1648.09 226.544C1650.42 226.544 1651.31 225.08 1651.31 223.352C1651.31 221.624 1650.42 220.16 1648.09 220.16ZM1657.38 230.24C1657.98 230.24 1658.56 230.552 1658.56 231.248V232.664C1658.56 234.032 1658.82 234.68 1659.68 235.64C1660.31 236.336 1660.96 237.032 1661.58 237.632C1661.99 238.016 1661.89 238.616 1661.51 238.976C1661.1 239.384 1660.48 239.408 1660.07 239C1659.54 238.496 1658.94 237.872 1658.48 237.416C1657.72 236.528 1657.5 236.144 1657.4 235.712H1657.38C1657.31 236.192 1657.07 236.576 1656.3 237.464C1655.84 237.92 1655.24 238.544 1654.72 239.048C1654.31 239.456 1653.68 239.408 1653.28 239.024C1652.89 238.64 1652.8 238.016 1653.18 237.632C1653.8 237.032 1654.48 236.336 1655.1 235.64C1655.96 234.68 1656.2 234.032 1656.2 232.664V231.248C1656.2 230.552 1656.78 230.24 1657.38 230.24ZM1646.75 237.056C1646.75 237.416 1646.87 237.536 1647.23 237.536H1649.84C1650.2 237.536 1650.32 237.416 1650.32 237.056V235.064H1646.75V237.056ZM1673.03 218.936C1673.61 218.936 1673.87 219.416 1673.87 219.992C1673.87 220.544 1673.61 221 1673.03 221H1666.31C1665.95 221 1665.81 221.144 1665.81 221.504V230C1665.81 230.36 1665.95 230.504 1666.31 230.504C1669.46 230.504 1672.12 230.336 1674.71 229.976C1675.26 229.904 1675.62 230.312 1675.67 230.864C1675.74 231.44 1675.53 231.968 1675 232.04C1672.77 232.352 1669.91 232.568 1665.26 232.568C1663.86 232.568 1663.41 232.136 1663.41 230.768V220.736C1663.41 219.368 1663.86 218.936 1665.26 218.936H1673.03ZM1678.38 217.328C1679.01 217.328 1679.58 217.64 1679.58 218.336V224.576H1682.22C1682.85 224.576 1683.11 225.032 1683.11 225.608C1683.11 226.184 1682.85 226.664 1682.22 226.664H1679.58V237.056C1679.58 237.752 1679.01 238.064 1678.38 238.064C1677.76 238.064 1677.18 237.752 1677.18 237.056V218.336C1677.18 217.64 1677.76 217.328 1678.38 217.328ZM1685.3 233.624C1686.24 233.624 1686.93 234.32 1686.93 235.232C1686.93 236.168 1686.24 236.864 1685.3 236.864C1684.39 236.864 1683.69 236.168 1683.69 235.232C1683.69 234.32 1684.39 233.624 1685.3 233.624ZM1622.11 252.576C1626.07 252.576 1628.14 255.144 1628.14 259.824V260.52C1628.14 268.152 1625.54 270.168 1621.46 270.168C1619.93 270.168 1618.56 269.832 1617.67 269.304C1617.07 268.968 1616.98 268.44 1617.22 267.864C1617.48 267.288 1618.01 267.048 1618.63 267.336C1619.5 267.744 1620.46 267.984 1621.61 267.984C1624.27 267.984 1625.59 266.4 1625.76 262.056C1624.97 263.304 1623.26 264.024 1621.58 264.024C1618.27 264.024 1616.18 261.888 1616.18 258.576V258.168C1616.18 254.856 1618.56 252.576 1622.11 252.576ZM1622.16 254.76C1619.93 254.76 1618.56 255.984 1618.56 258.24V258.432C1618.56 260.712 1619.71 261.912 1622.06 261.912C1624.44 261.912 1625.66 260.4 1625.66 258.576V258.384C1625.66 256.128 1624.34 254.76 1622.16 254.76ZM1631.36 267.624C1632.3 267.624 1632.99 268.32 1632.99 269.232C1632.99 270.168 1632.3 270.864 1631.36 270.864C1630.45 270.864 1629.75 270.168 1629.75 269.232C1629.75 268.32 1630.45 267.624 1631.36 267.624ZM1644.85 252.84C1646.07 252.84 1646.53 253.248 1646.53 254.136C1646.53 254.592 1646.43 254.856 1645.91 256.056L1639.86 269.4C1639.57 270.072 1638.87 270.144 1638.35 269.88C1637.79 269.64 1637.46 269.136 1637.77 268.416L1643.99 254.904H1635.23C1634.65 254.904 1634.39 254.424 1634.39 253.872C1634.39 253.32 1634.65 252.84 1635.23 252.84H1644.85ZM1652.06 252.576C1654.65 252.576 1655.99 254.208 1655.99 256.8V257.304C1655.99 259.896 1654.65 261.528 1652.06 261.528C1649.47 261.528 1648.12 259.896 1648.12 257.304V256.8C1648.12 254.208 1649.47 252.576 1652.06 252.576ZM1662.67 252.864C1663.1 253.08 1663.31 253.56 1663 254.088L1653.55 269.592C1653.26 270.048 1652.73 270.12 1652.27 269.88C1651.84 269.64 1651.63 269.184 1651.94 268.656L1661.39 253.152C1661.68 252.672 1662.21 252.624 1662.67 252.864ZM1652.06 254.28C1650.67 254.28 1650.04 255.096 1650.04 256.896V257.208C1650.04 259.032 1650.67 259.824 1652.06 259.824C1653.45 259.824 1654.1 259.032 1654.1 257.208V256.896C1654.1 255.096 1653.45 254.28 1652.06 254.28ZM1662.83 261.216C1665.43 261.216 1666.77 262.848 1666.77 265.416V265.944C1666.77 268.536 1665.43 270.168 1662.83 270.168C1660.24 270.168 1658.9 268.536 1658.9 265.944V265.416C1658.9 262.848 1660.24 261.216 1662.83 261.216ZM1662.83 262.896C1661.44 262.896 1660.82 263.712 1660.82 265.536V265.848C1660.82 267.672 1661.44 268.464 1662.83 268.464C1664.23 268.464 1664.87 267.672 1664.87 265.848V265.536C1664.87 263.712 1664.23 262.896 1662.83 262.896Z" fill="#BCD1EB"/>
<path fill-rule="evenodd" clip-rule="evenodd" d="M1463 246C1463 243.239 1465.24 241 1468 241H1486.12C1488.89 241 1491.12 243.239 1491.12 246C1491.12 248.761 1488.89 251 1486.12 251H1468C1465.24 251 1463 248.761 1463 246ZM1499.25 246C1499.25 243.239 1501.49 241 1504.25 241H1522.38C1525.14 241 1527.38 243.239 1527.38 246C1527.38 248.761 1525.14 251 1522.38 251H1504.25C1501.49 251 1499.25 248.761 1499.25 246ZM1535.5 246C1535.5 243.239 1537.74 241 1540.5 241H1558.62C1561.39 241 1563.62 243.239 1563.62 246C1563.62 248.761 1561.39 251 1558.62 251H1540.5C1537.74 251 1535.5 248.761 1535.5 246Z" fill="#BCD1EB"/>
<circle cx="120.5" cy="246.5" r="120.5" fill="white"/>
<path d="M120.505 139C97.5305 139 77.6701 145.259 58.8477 158.442L120.505 246.497V139Z" fill="#BCD1EB"/>
<path d="M58.8402 158.442C29.9094 178.706 13.6354 209.302 13.0234 244.623L120.505 246.497L58.8402 158.442Z" fill="#9EB366"/>
<path d="M13.0197 244.622C12.5782 269.734 19.534 291.136 34.6462 311.19C70.3778 358.602 137.775 368.076 185.195 332.352L120.501 246.497L13.0197 244.622Z" fill="#F4AFDD"/>
<path d="M120.5 139V246.497L185.193 332.352C213.218 311.237 227.997 281.586 227.997 246.497C227.997 187.125 179.864 139 120.5 139Z" fill="#F7DC75"/>
<circle cx="196.577" cy="207.576" r="6.27493" transform="rotate(59.8804 196.577 207.576)" fill="#FFEA9C" fill-opacity="0.6"/>
<circle cx="188.577" cy="251.576" r="6.27493" transform="rotate(59.8804 188.577 251.576)" fill="#FFEA9C" fill-opacity="0.6"/>
<path d="M142 165.297L167.224 183.999" stroke="#FFEA9C" stroke-opacity="0.6" stroke-width="11" stroke-linecap="round"/>
<path d="M58.5192 265.351C58.5192 265.351 72.0186 265.142 74.0991 275.134C75.1069 286.707 62.017 285.926 63.2977 298.503C64.968 304.495 72.3646 306.619 72.3646 306.619" stroke="#F7C5E6" stroke-opacity="0.6" stroke-width="10" stroke-linecap="round"/>
<circle cx="118.302" cy="288.301" r="9" transform="rotate(59.8804 118.302 288.301)" fill="#F6C5E6"/>
<circle cx="39.5766" cy="214.576" r="6.27493" transform="rotate(59.8804 39.5766 214.576)" fill="#B2C77C" fill-opacity="0.6"/>
<path d="M69.7254 236.004C66.7278 237.743 62.8879 236.723 61.1489 233.725C59.4099 230.728 60.4302 226.888 63.4278 225.149C66.4254 223.41 70.2652 224.43 72.0043 227.428C73.7433 230.425 72.723 234.265 69.7254 236.004Z" fill="#B2C77C" fill-opacity="0.6"/>
<circle cx="700.5" cy="246.5" r="120.5" fill="white"/>
<path d="M700.5 139V246.497L765.193 332.352C793.218 311.237 807.997 281.586 807.997 246.497C807.997 187.125 759.864 139 700.5 139Z" fill="#F7DC75"/>
<circle cx="776.577" cy="207.576" r="6.27493" transform="rotate(59.8804 776.577 207.576)" fill="#FFEA9C" fill-opacity="0.6"/>
<circle cx="768.577" cy="251.576" r="6.27493" transform="rotate(59.8804 768.577 251.576)" fill="#FFEA9C" fill-opacity="0.6"/>
<path d="M722 165.297L747.224 183.999" stroke="#FFEA9C" stroke-opacity="0.6" stroke-width="11" stroke-linecap="round"/>
<circle cx="1332.5" cy="246.5" r="120.5" fill="white"/>
<path d="M1332.5 139C1309.53 139 1289.67 145.259 1270.85 158.442L1332.5 246.497V139Z" fill="#BCD1EB"/>
<path d="M11.52 7.768C17.728 7.768 21.312 11.064 21.312 18.84V20.152C21.312 23.672 20.576 26.264 19.2 28.056L21.056 29.88C21.728 30.552 21.536 31.416 20.864 32.088C20.224 32.728 19.36 32.92 18.688 32.248L16.608 30.2C15.232 30.872 13.536 31.224 11.52 31.224C5.312 31.224 1.728 27.928 1.728 20.152V18.84C1.728 11.064 5.312 7.768 11.52 7.768ZM11.52 11.512C7.776 11.512 5.856 13.368 5.856 19.16V19.832C5.856 25.624 7.776 27.48 11.52 27.48C12.352 27.48 13.056 27.384 13.6 27.224L11.712 25.336C11.04 24.664 11.232 23.8 11.872 23.16C12.544 22.488 13.408 22.296 14.08 22.968L16.224 25.112C16.864 23.896 17.184 22.2 17.184 19.832V19.16C17.184 13.368 15.264 11.512 11.52 11.512ZM25.5317 27.416C26.9717 27.416 28.0598 28.504 28.0598 29.944C28.0598 31.384 26.9717 32.472 25.5317 32.472C24.0917 32.472 23.0037 31.384 23.0037 29.944C23.0037 28.504 24.0917 27.416 25.5317 27.416Z" fill="#F7DC75"/>
<path d="M42.856 14.336C46.192 14.336 47.704 16.544 47.704 19.496C47.704 22.472 46.192 24.68 42.856 24.68C39.52 24.68 38.008 22.472 38.008 19.496C38.008 16.544 39.52 14.336 42.856 14.336ZM42.856 16.328C40.936 16.328 40.216 17.768 40.216 19.496C40.216 21.224 40.936 22.664 42.856 22.664C44.776 22.664 45.496 21.224 45.496 19.496C45.496 17.768 44.776 16.328 42.856 16.328ZM55.504 13.328C56.08 13.328 56.632 13.616 56.632 14.264V24.272C56.632 24.896 56.08 25.208 55.504 25.208C54.952 25.208 54.4 24.896 54.4 24.272V20.504H51.832V24.152C51.832 24.776 51.28 25.088 50.704 25.088C50.152 25.088 49.6 24.776 49.6 24.152V14.384C49.6 13.736 50.152 13.448 50.704 13.448C51.28 13.448 51.832 13.736 51.832 14.384V18.488H54.4V14.264C54.4 13.616 54.952 13.328 55.504 13.328ZM43.168 26.24C43.768 26.24 44.368 26.552 44.368 27.224V29.24H54.28V27.224C54.28 26.552 54.856 26.24 55.432 26.24C56.056 26.24 56.632 26.552 56.632 27.224V33.536C56.632 34.904 56.176 35.336 54.784 35.336H43.864C42.472 35.336 42.016 34.904 42.016 33.536V27.224C42.016 26.552 42.592 26.24 43.168 26.24ZM44.368 31.16V32.864C44.368 33.224 44.488 33.368 44.872 33.368H53.776C54.136 33.368 54.28 33.224 54.28 32.864V31.16H44.368ZM68.5637 13.568C73.1717 13.568 75.8598 14.744 75.8598 17.408C75.8598 20.096 73.1717 21.272 68.5637 21.272C63.9557 21.272 61.2677 20.096 61.2677 17.408C61.2677 14.744 63.9557 13.568 68.5637 13.568ZM68.5637 15.464C65.1317 15.464 63.6437 16.16 63.6437 17.408C63.6437 18.656 65.1317 19.376 68.5637 19.376C71.9958 19.376 73.4837 18.656 73.4837 17.408C73.4837 16.16 71.9958 15.464 68.5637 15.464ZM77.8277 22.784C78.3797 22.784 78.6438 23.216 78.6438 23.744C78.6438 24.32 78.3797 24.752 77.8277 24.752H59.2997C58.7477 24.752 58.4837 24.32 58.4837 23.744C58.4837 23.216 58.7477 22.784 59.2997 22.784H77.8277ZM74.0597 26.6C75.4518 26.6 75.9078 27.032 75.9078 28.4V30.176C75.9078 31.544 75.4518 31.976 74.0597 31.976H63.9077C63.6437 31.976 63.5237 32.072 63.5237 32.336V33.32C63.5237 33.56 63.6437 33.68 63.9077 33.68H75.6438C76.1717 33.68 76.4358 34.136 76.4358 34.616C76.4358 35.12 76.1717 35.552 75.6438 35.552H63.0437C61.6517 35.552 61.1957 35.12 61.1957 33.752V31.976C61.1957 30.608 61.6517 30.176 63.0437 30.176H73.1957C73.4598 30.176 73.5798 30.056 73.5798 29.816V28.856C73.5798 28.592 73.4598 28.472 73.1957 28.472H61.9157C61.3877 28.472 61.1477 28.04 61.1477 27.536C61.1477 27.056 61.3877 26.6 61.9157 26.6H74.0597ZM100.488 14C101.016 14 101.256 14.432 101.256 14.936C101.256 15.44 101.016 15.896 100.488 15.896H89.3995C89.1355 15.896 89.0155 15.992 89.0155 16.256V17.6H100.248C100.776 17.6 101.016 18.008 101.016 18.488C101.016 18.992 100.776 19.4 100.248 19.4H89.0155V20.768C89.0155 21.008 89.1355 21.128 89.3995 21.128H100.896C101.424 21.128 101.664 21.56 101.664 22.064C101.664 22.568 101.424 23.024 100.896 23.024H95.1835V24.92H103.272C103.824 24.92 104.088 25.352 104.088 25.904C104.088 26.456 103.824 26.888 103.272 26.888H84.7435C84.1915 26.888 83.9275 26.456 83.9275 25.904C83.9275 25.352 84.1915 24.92 84.7435 24.92H92.8315V23.024H88.5595C87.1675 23.024 86.7115 22.592 86.7115 21.224V15.8C86.7115 14.432 87.1675 14 88.5595 14H100.488ZM94.0075 28.184C98.6395 28.184 101.352 29.336 101.352 32.024C101.352 34.688 98.6395 35.864 94.0075 35.864C89.3755 35.864 86.6635 34.688 86.6635 32.024C86.6635 29.336 89.3755 28.184 94.0075 28.184ZM94.0075 30.08C90.5515 30.08 89.0395 30.776 89.0395 32.024C89.0395 33.272 90.5515 33.944 94.0075 33.944C97.4635 33.944 98.9755 33.272 98.9755 32.024C98.9755 30.776 97.4635 30.08 94.0075 30.08ZM110.067 20C113.019 20 114.579 21.944 114.579 24.632C114.579 27.296 113.019 29.264 110.067 29.264C107.115 29.264 105.531 27.296 105.531 24.632C105.531 21.944 107.115 20 110.067 20ZM110.043 13.472C110.667 13.472 111.243 13.784 111.243 14.456V16.496H114.627C115.203 16.496 115.467 16.976 115.467 17.504C115.467 18.056 115.203 18.536 114.627 18.536H105.171C104.571 18.536 104.307 18.056 104.307 17.504C104.307 16.976 104.571 16.496 105.171 16.496H108.867V14.456C108.867 13.784 109.467 13.472 110.043 13.472ZM110.067 21.944C108.459 21.944 107.619 23.024 107.619 24.632C107.619 26.216 108.459 27.296 110.067 27.296C111.651 27.296 112.515 26.216 112.515 24.632C112.515 23.024 111.651 21.944 110.067 21.944ZM122.235 13.328C122.811 13.328 123.363 13.616 123.363 14.264V33.128C123.363 33.776 122.811 34.064 122.235 34.064C121.683 34.064 121.131 33.776 121.131 33.128V22.976H118.587V32.144C118.587 32.768 118.035 33.056 117.483 33.056C116.931 33.056 116.379 32.768 116.379 32.144V14.48C116.379 13.856 116.931 13.568 117.483 13.568C118.035 13.568 118.587 13.856 118.587 14.48V20.936H121.131V14.264C121.131 13.616 121.683 13.328 122.235 13.328ZM141.751 15.008C142.327 15.008 142.591 15.488 142.591 16.04C142.591 16.592 142.327 17.072 141.751 17.072H137.839V19.328C137.839 21.44 138.247 22.544 139.663 23.984C140.671 25.016 141.679 25.976 142.471 26.648C142.951 27.08 142.807 27.752 142.423 28.136C142.039 28.544 141.439 28.688 140.959 28.28C140.263 27.656 139.399 26.816 138.415 25.856C137.047 24.464 136.735 23.888 136.639 23.384H136.615C136.495 23.936 136.207 24.512 134.815 25.904C133.855 26.864 132.943 27.752 131.935 28.64C131.431 29.072 130.783 28.832 130.423 28.424C130.039 27.992 129.991 27.344 130.471 26.936C131.575 25.952 132.559 25.016 133.567 23.984C134.983 22.544 135.391 21.44 135.391 19.328V17.072H131.359C130.759 17.072 130.495 16.592 130.495 16.04C130.495 15.488 130.759 15.008 131.359 15.008H141.751ZM145.879 13.328C146.503 13.328 147.079 13.64 147.079 14.336V20.576H149.719C150.343 20.576 150.607 21.032 150.607 21.608C150.607 22.184 150.343 22.664 149.719 22.664H147.079V33.056C147.079 33.752 146.503 34.064 145.879 34.064C145.255 34.064 144.679 33.752 144.679 33.056V14.336C144.679 13.64 145.255 13.328 145.879 13.328ZM167.147 14.072C167.699 14.072 167.963 14.528 167.963 15.08C167.963 15.608 167.699 16.064 167.147 16.064H156.347C155.987 16.064 155.843 16.208 155.843 16.568V19.184C155.843 19.544 155.987 19.688 156.347 19.688H167.387C167.939 19.688 168.203 20.144 168.203 20.672C168.203 21.224 167.939 21.68 167.387 21.68H161.915V24.08H170.003C170.555 24.08 170.819 24.536 170.819 25.088C170.819 25.64 170.555 26.096 170.003 26.096H151.475C150.923 26.096 150.659 25.64 150.659 25.088C150.659 24.536 150.923 24.08 151.475 24.08H159.563V21.68H155.267C153.875 21.68 153.443 21.248 153.443 19.88V15.872C153.443 14.504 153.875 14.072 155.267 14.072H167.147ZM160.739 27.608C165.371 27.608 168.083 28.904 168.083 31.736C168.083 34.568 165.371 35.864 160.739 35.864C156.107 35.864 153.395 34.568 153.395 31.736C153.395 28.904 156.107 27.608 160.739 27.608ZM160.739 29.528C157.283 29.528 155.771 30.32 155.771 31.736C155.771 33.152 157.283 33.944 160.739 33.944C164.195 33.944 165.707 33.152 165.707 31.736C165.707 30.32 164.195 29.528 160.739 29.528ZM181.382 14.264C186.014 14.264 188.774 16.472 188.774 20.168C188.774 23.84 186.014 26.048 181.382 26.048C176.75 26.048 174.014 23.84 174.014 20.168C174.014 16.472 176.75 14.264 181.382 14.264ZM181.382 16.304C177.95 16.304 176.414 17.96 176.414 20.168C176.414 22.352 177.95 24.008 181.382 24.008C184.814 24.008 186.35 22.352 186.35 20.168C186.35 17.96 184.814 16.304 181.382 16.304ZM190.622 29.912C191.198 29.912 191.462 30.368 191.462 30.944C191.462 31.496 191.198 31.976 190.622 31.976H172.142C171.566 31.976 171.302 31.496 171.302 30.944C171.302 30.368 171.566 29.912 172.142 29.912H190.622ZM207.426 14.576C208.818 14.576 209.274 15.008 209.274 16.376V19.568C209.274 20.912 208.818 21.344 207.426 21.344H197.61C197.25 21.344 197.106 21.488 197.106 21.848V23.648C197.106 24.008 197.25 24.128 197.61 24.128H208.962C209.538 24.128 209.802 24.608 209.802 25.16C209.802 25.712 209.538 26.168 208.962 26.168H203.226V29.936H211.266C211.842 29.936 212.106 30.392 212.106 30.944C212.106 31.496 211.842 31.976 211.266 31.976H192.786C192.21 31.976 191.946 31.496 191.946 30.944C191.946 30.392 192.21 29.936 192.786 29.936H200.826V26.168H196.602C195.21 26.168 194.754 25.736 194.754 24.368V21.176C194.754 19.808 195.21 19.4 196.602 19.4H206.418C206.778 19.4 206.922 19.256 206.922 18.896V17.12C206.922 16.76 206.778 16.616 206.418 16.616H195.546C194.97 16.616 194.706 16.16 194.706 15.608C194.706 15.056 194.97 14.576 195.546 14.576H207.426ZM226.822 14.96C228.214 14.96 228.67 15.392 228.67 16.76V19.472C228.67 23.48 227.494 24.8 220.126 29.312C219.598 29.624 218.974 29.36 218.662 28.904C218.35 28.448 218.326 27.728 218.854 27.392C225.646 23.264 226.27 22.472 226.27 19.376V17.528C226.27 17.168 226.15 17.048 225.766 17.048H219.526C218.926 17.048 218.662 16.568 218.662 16.016C218.662 15.44 218.926 14.96 219.526 14.96H226.822ZM234.262 13.328C234.91 13.328 235.486 13.64 235.486 14.336V33.056C235.486 33.752 234.91 34.064 234.262 34.064C233.662 34.064 233.062 33.752 233.062 33.056V14.336C233.062 13.64 233.662 13.328 234.262 13.328ZM253.466 13.976C254.858 13.976 255.314 14.408 255.314 15.776V17.72C255.314 19.088 254.858 19.52 253.466 19.52H243.578C243.338 19.52 243.218 19.64 243.218 19.88V20.984C243.218 21.248 243.338 21.344 243.578 21.344H255.074C255.602 21.344 255.842 21.8 255.842 22.304C255.842 22.808 255.602 23.264 255.074 23.264H249.29V25.208H257.378C257.93 25.208 258.194 25.64 258.194 26.192C258.194 26.744 257.93 27.176 257.378 27.176H238.85C238.298 27.176 238.034 26.744 238.034 26.192C238.034 25.64 238.298 25.208 238.85 25.208H246.938V23.264H242.738C241.346 23.264 240.89 22.832 240.89 21.464V19.496C240.89 18.128 241.346 17.696 242.738 17.696H252.602C252.866 17.696 252.986 17.576 252.986 17.312V16.256C252.986 15.992 252.866 15.896 252.602 15.896H241.61C241.082 15.896 240.842 15.44 240.842 14.936C240.842 14.432 241.082 13.976 241.61 13.976H253.466ZM253.634 28.76C255.026 28.76 255.482 29.192 255.482 30.56V34.736C255.482 35.432 254.882 35.744 254.282 35.744C253.682 35.744 253.082 35.432 253.082 34.736V31.232C253.082 30.872 252.962 30.728 252.578 30.728H241.298C240.722 30.728 240.482 30.296 240.482 29.744C240.482 29.192 240.722 28.76 241.298 28.76H253.634ZM272.669 27.896C273.221 27.848 273.533 28.232 273.557 28.808C273.605 29.336 273.389 29.84 272.837 29.888C268.997 30.248 264.509 30.392 259.805 30.392C259.229 30.392 258.965 29.912 258.965 29.36C258.965 28.832 259.229 28.352 259.805 28.352C261.509 28.352 263.213 28.352 264.917 28.304V24.152H262.301C260.909 24.152 260.453 23.72 260.453 22.352V16.664C260.453 15.296 260.909 14.864 262.301 14.864H270.773C271.349 14.864 271.613 15.344 271.613 15.896C271.613 16.448 271.349 16.928 270.773 16.928H263.333C262.973 16.928 262.829 17.048 262.829 17.408V21.608C262.829 21.992 262.973 22.112 263.333 22.112H271.013C271.589 22.112 271.853 22.568 271.853 23.144C271.853 23.696 271.589 24.152 271.013 24.152H267.269V28.256C269.045 28.184 270.821 28.064 272.669 27.896ZM276.005 13.328C276.629 13.328 277.205 13.64 277.205 14.336V33.056C277.205 33.752 276.629 34.064 276.005 34.064C275.405 34.064 274.829 33.752 274.829 33.056V14.336C274.829 13.64 275.405 13.328 276.005 13.328ZM283.305 13.88C283.929 13.88 284.505 14.192 284.505 14.912V19.544C284.505 19.904 284.649 20.024 285.009 20.024H296.265C296.841 20.024 297.105 20.504 297.105 21.056C297.105 21.608 296.841 22.064 296.265 22.064H283.929C282.537 22.064 282.105 21.632 282.105 20.264V14.912C282.105 14.192 282.681 13.88 283.305 13.88ZM298.641 24.584C299.217 24.584 299.481 25.04 299.481 25.592C299.481 26.144 299.217 26.624 298.641 26.624H280.161C279.585 26.624 279.321 26.144 279.321 25.592C279.321 25.04 279.585 24.584 280.161 24.584H298.641ZM283.257 28.448C283.881 28.448 284.457 28.76 284.457 29.456V32.72C284.457 33.08 284.601 33.224 284.961 33.224H296.313C296.889 33.224 297.153 33.68 297.153 34.232C297.153 34.784 296.889 35.264 296.313 35.264H283.881C282.489 35.264 282.057 34.832 282.057 33.464V29.456C282.057 28.76 282.633 28.448 283.257 28.448ZM316.501 15.008C317.077 15.008 317.341 15.488 317.341 16.04C317.341 16.592 317.077 17.072 316.501 17.072H312.589V19.328C312.589 21.44 312.997 22.544 314.413 23.984C315.421 25.016 316.429 25.976 317.221 26.648C317.701 27.08 317.557 27.752 317.173 28.136C316.789 28.544 316.189 28.688 315.709 28.28C315.013 27.656 314.149 26.816 313.165 25.856C311.797 24.464 311.485 23.888 311.389 23.384H311.365C311.245 23.936 310.957 24.512 309.565 25.904C308.605 26.864 307.693 27.752 306.685 28.64C306.181 29.072 305.533 28.832 305.173 28.424C304.789 27.992 304.741 27.344 305.221 26.936C306.325 25.952 307.309 25.016 308.317 23.984C309.733 22.544 310.141 21.44 310.141 19.328V17.072H306.109C305.509 17.072 305.245 16.592 305.245 16.04C305.245 15.488 305.509 15.008 306.109 15.008H316.501ZM320.629 13.328C321.253 13.328 321.829 13.64 321.829 14.336V20.576H324.469C325.093 20.576 325.357 21.032 325.357 21.608C325.357 22.184 325.093 22.664 324.469 22.664H321.829V33.056C321.829 33.752 321.253 34.064 320.629 34.064C320.005 34.064 319.429 33.752 319.429 33.056V14.336C319.429 13.64 320.005 13.328 320.629 13.328ZM327.881 14.744C328.529 14.744 329.105 15.056 329.105 15.776V26.12C329.105 26.48 329.249 26.6 329.609 26.6C332.345 26.6 335.201 26.552 337.625 26.264C338.177 26.216 338.513 26.6 338.585 27.152C338.657 27.728 338.393 28.256 337.865 28.304C335.753 28.544 332.801 28.664 328.529 28.664C327.137 28.664 326.681 28.232 326.681 26.864V15.776C326.681 15.056 327.257 14.744 327.881 14.744ZM342.449 13.328C343.073 13.328 343.649 13.64 343.649 14.336V33.056C343.649 33.752 343.073 34.064 342.449 34.064C341.873 34.064 341.273 33.752 341.273 33.056V24.056H335.945C335.369 24.056 335.105 23.576 335.105 23.024C335.105 22.472 335.369 22.016 335.945 22.016H341.273V19.52H335.945C335.369 19.52 335.105 19.064 335.105 18.488C335.105 17.936 335.369 17.48 335.945 17.48H341.273V14.336C341.273 13.64 341.873 13.328 342.449 13.328ZM353.444 14.576C357.284 14.576 359.252 16.832 359.252 19.808C359.252 22.808 357.284 25.064 353.444 25.064C349.604 25.064 347.636 22.808 347.636 19.808C347.636 16.832 349.604 14.576 353.444 14.576ZM353.444 16.592C351.044 16.592 349.916 17.984 349.916 19.808C349.916 21.632 351.044 23.048 353.444 23.048C355.844 23.048 356.972 21.632 356.972 19.808C356.972 17.984 355.844 16.592 353.444 16.592ZM360.044 27.776C360.596 27.728 360.908 28.112 360.932 28.688C360.98 29.24 360.764 29.744 360.212 29.792C356.372 30.152 351.884 30.296 347.18 30.296C346.604 30.296 346.34 29.816 346.34 29.264C346.34 28.712 346.604 28.232 347.18 28.232C351.428 28.232 355.604 28.184 360.044 27.776ZM363.38 13.328C364.004 13.328 364.58 13.64 364.58 14.336V33.056C364.58 33.752 364.004 34.064 363.38 34.064C362.78 34.064 362.204 33.752 362.204 33.056V14.336C362.204 13.64 362.78 13.328 363.38 13.328ZM388.56 13.328C389.16 13.328 389.736 13.64 389.736 14.336V28.544C389.736 29.24 389.16 29.552 388.56 29.552C387.936 29.552 387.36 29.24 387.36 28.544V21.008H382.08C381.312 22.784 379.224 24.008 373.968 26.648C373.416 26.912 372.792 26.6 372.528 26.096C372.312 25.616 372.288 24.92 372.912 24.632C379.584 21.344 380.088 20.768 380.088 18.44V17.312C380.088 16.952 379.968 16.832 379.584 16.832H373.488C372.888 16.832 372.624 16.352 372.624 15.8C372.624 15.224 372.888 14.744 373.488 14.744H380.64C382.032 14.744 382.488 15.176 382.488 16.544V18.512C382.488 18.68 382.464 18.824 382.464 18.968H387.36V14.336C387.36 13.64 387.936 13.328 388.56 13.328ZM376.848 27.536C377.448 27.536 378.048 27.848 378.048 28.544V32.6C378.048 32.96 378.168 33.08 378.552 33.08H389.448C390.048 33.08 390.312 33.56 390.312 34.136C390.312 34.688 390.048 35.168 389.448 35.168H377.472C376.08 35.168 375.624 34.736 375.624 33.368V28.544C375.624 27.848 376.2 27.536 376.848 27.536ZM393.772 14.552H401.044C402.436 14.552 402.892 14.984 402.892 16.352V18.176C402.892 21.584 401.5 22.544 394.252 25.976C393.676 26.24 393.1 25.928 392.836 25.424C392.62 24.944 392.62 24.272 393.244 23.984C399.892 20.888 400.492 20.264 400.492 18.08V17.12C400.492 16.76 400.372 16.616 399.988 16.616H393.772C393.196 16.616 392.932 16.16 392.932 15.608C392.932 15.032 393.196 14.552 393.772 14.552ZM408.004 13.328C408.628 13.328 409.204 13.64 409.204 14.336V18.632H411.844C412.468 18.632 412.732 19.112 412.732 19.664C412.732 20.264 412.468 20.72 411.844 20.72H409.204V25.496C409.204 26.168 408.628 26.48 408.004 26.48C407.38 26.48 406.804 26.168 406.804 25.496V14.336C406.804 13.64 407.38 13.328 408.004 13.328ZM402.46 26.696C406.804 26.696 409.324 28.232 409.324 31.232C409.324 34.232 406.804 35.768 402.46 35.768C398.116 35.768 395.596 34.232 395.596 31.232C395.596 28.232 398.116 26.696 402.46 26.696ZM402.46 28.64C399.292 28.64 397.972 29.648 397.972 31.232C397.972 32.816 399.292 33.824 402.46 33.824C405.604 33.824 406.948 32.816 406.948 31.232C406.948 29.648 405.604 28.64 402.46 28.64ZM427.352 14.456C428.744 14.456 429.2 14.888 429.2 16.256V22.448C429.2 23.816 428.744 24.248 427.352 24.248H420.704C419.312 24.248 418.856 23.816 418.856 22.448V16.256C418.856 14.888 419.312 14.456 420.704 14.456H427.352ZM421.736 16.472C421.352 16.472 421.232 16.616 421.232 16.976V21.752C421.232 22.112 421.352 22.232 421.736 22.232H426.32C426.68 22.232 426.824 22.112 426.824 21.752V16.976C426.824 16.616 426.68 16.472 426.32 16.472H421.736ZM434.48 13.328C435.104 13.328 435.68 13.64 435.68 14.336V24.824C435.68 25.52 435.104 25.832 434.48 25.832C433.856 25.832 433.28 25.52 433.28 24.824V14.336C433.28 13.64 433.856 13.328 434.48 13.328ZM428.672 25.28C429.296 25.28 429.872 25.592 429.872 26.288V27.656H435.488C436.016 27.656 436.28 28.112 436.28 28.616C436.28 29.096 436.016 29.552 435.488 29.552H429.872V29.816C429.872 30.728 430.448 31.424 431.984 32.048C433.376 32.576 434.672 33.032 435.944 33.44C436.496 33.632 436.64 34.112 436.448 34.616C436.28 35.12 435.896 35.456 435.32 35.264C433.976 34.832 432.728 34.376 431.504 33.92C429.704 33.2 428.888 32.48 428.696 31.904H428.672C428.48 32.528 427.664 33.248 425.84 33.968C424.616 34.424 423.368 34.88 422.024 35.312C421.448 35.48 421.064 35.144 420.872 34.664C420.704 34.136 420.824 33.632 421.376 33.44C422.648 33.032 423.944 32.576 425.36 32.048C426.872 31.424 427.472 30.728 427.472 29.816V29.552H421.736C421.208 29.552 420.968 29.096 420.968 28.616C420.968 28.112 421.208 27.656 421.736 27.656H427.472V26.288C427.472 25.592 428.048 25.28 428.672 25.28ZM44.896 48.048C45.544 48.048 46.12 48.36 46.12 49.056V51.24C46.12 52.776 46.6 53.832 47.728 54.792C48.856 55.728 49.864 56.496 50.656 57.072C51.184 57.456 51.16 58.08 50.824 58.536C50.512 58.968 49.912 59.232 49.36 58.824C48.712 58.368 47.728 57.624 46.72 56.784C45.544 55.824 45.064 55.224 44.944 54.72H44.92C44.8 55.272 44.272 55.944 43.096 56.88C42.088 57.72 41.104 58.488 40.096 59.208C39.544 59.592 38.92 59.328 38.608 58.92C38.296 58.464 38.224 57.792 38.8 57.384C39.928 56.568 40.936 55.8 42.064 54.864C43.192 53.904 43.672 52.848 43.672 51.312V49.056C43.672 48.36 44.272 48.048 44.896 48.048ZM54.736 47.328C55.36 47.328 55.936 47.64 55.936 48.336V59.304C55.936 60 55.36 60.312 54.736 60.312C54.112 60.312 53.536 60 53.536 59.304V48.336C53.536 47.64 54.112 47.328 54.736 47.328ZM42.352 61.344H54.088C55.48 61.344 55.936 61.776 55.936 63.144V68.64C55.936 69.336 55.36 69.648 54.736 69.648C54.112 69.648 53.536 69.336 53.536 68.64V63.888C53.536 63.528 53.392 63.408 53.032 63.408H42.352C41.752 63.408 41.488 62.928 41.488 62.376C41.488 61.824 41.752 61.344 42.352 61.344ZM68.5637 47.64C69.2117 47.64 69.7878 47.952 69.7878 48.672V49.464C69.7878 50.784 70.5077 51.576 72.1877 52.32C73.7477 53.016 75.0437 53.544 76.4598 54.096C76.9397 54.288 77.0357 54.936 76.8437 55.416C76.6518 55.92 76.0998 56.256 75.5718 56.04C74.2997 55.56 72.8838 54.984 71.5877 54.408C69.4517 53.496 68.7317 52.776 68.5877 52.2H68.5637C68.3957 52.848 67.6997 53.544 65.5637 54.456C64.2437 55.032 62.8997 55.584 61.6037 56.088C60.9797 56.328 60.4757 55.968 60.2837 55.464C60.0677 54.984 60.1397 54.288 60.6677 54.096C62.0837 53.544 63.3797 53.016 64.9397 52.32C66.6197 51.576 67.3397 50.784 67.3397 49.464V48.672C67.3397 47.952 67.9158 47.64 68.5637 47.64ZM77.8038 57.672C78.3797 57.672 78.6438 58.104 78.6438 58.68C78.6438 59.232 78.3797 59.688 77.8038 59.688H59.3237C58.7477 59.688 58.4837 59.232 58.4837 58.68C58.4837 58.104 58.7477 57.672 59.3237 57.672H77.8038ZM62.3717 61.152C62.9717 61.152 63.5477 61.464 63.5477 62.136V63.648H73.5798V62.136C73.5798 61.464 74.1557 61.152 74.7317 61.152C75.3318 61.152 75.9317 61.464 75.9317 62.136V67.632C75.9317 69 75.4757 69.432 74.0838 69.432H63.0437C61.6517 69.432 61.2197 69 61.2197 67.632V62.136C61.2197 61.464 61.7957 61.152 62.3717 61.152ZM63.5477 67.128C63.5477 67.392 63.6677 67.488 63.9317 67.488H73.1957C73.4598 67.488 73.5798 67.392 73.5798 67.128V65.544H63.5477V67.128ZM81.3355 48.552H89.5915C90.9835 48.552 91.4395 48.984 91.4395 50.352V52.08C91.4395 53.4 91.2955 54.648 91.0075 55.704C90.8155 56.352 90.1915 56.568 89.5435 56.424C88.9195 56.28 88.5355 55.872 88.7035 55.2C88.9435 54.144 89.0635 53.16 89.0635 52.008V51.144C89.0635 50.76 88.9195 50.64 88.5595 50.64H81.3355C80.7595 50.64 80.4955 50.16 80.4955 49.608C80.4955 49.032 80.7595 48.552 81.3355 48.552ZM95.3995 47.328C96.0235 47.328 96.5995 47.64 96.5995 48.312V54H98.9275C99.5515 54 99.8155 54.48 99.8155 55.056C99.8155 55.632 99.5515 56.112 98.9275 56.112H96.5995V62.952C96.5995 63.624 96.0235 63.936 95.3995 63.936C94.7995 63.936 94.2235 63.624 94.2235 62.952V48.312C94.2235 47.64 94.7995 47.328 95.3995 47.328ZM84.4795 53.592C85.0795 53.592 85.6555 53.904 85.6555 54.576V58.416C87.7435 58.344 89.9035 58.248 92.0875 58.056C92.6395 57.984 92.9275 58.392 92.9755 58.968C93.0235 59.496 92.7835 60 92.2555 60.048C88.5835 60.36 84.3355 60.48 79.9195 60.48C79.3435 60.48 79.0795 60.024 79.0795 59.472C79.0795 58.92 79.3435 58.464 79.9195 58.464H83.3035V54.576C83.3035 53.904 83.8795 53.592 84.4795 53.592ZM83.5435 62.376C84.1435 62.376 84.7435 62.688 84.7435 63.384V66.672C84.7435 67.032 84.8635 67.176 85.2475 67.176H96.3355C96.9115 67.176 97.1755 67.632 97.1755 68.184C97.1755 68.736 96.9115 69.216 96.3355 69.216H84.1675C82.7755 69.216 82.3195 68.784 82.3195 67.416V63.384C82.3195 62.688 82.8955 62.376 83.5435 62.376ZM113.307 49.08C113.907 49.08 114.171 49.56 114.171 50.136C114.171 50.688 113.907 51.144 113.307 51.144H108.123C107.763 51.144 107.619 51.288 107.619 51.648V60C107.619 60.36 107.763 60.504 108.123 60.504C110.115 60.504 112.467 60.36 114.147 60.12C114.675 60.048 115.035 60.432 115.083 61.008C115.155 61.584 114.939 62.088 114.411 62.184C113.187 62.376 110.619 62.568 107.067 62.568C105.675 62.568 105.219 62.136 105.219 60.768V50.88C105.219 49.512 105.675 49.08 107.067 49.08H113.307ZM122.235 47.328C122.811 47.328 123.363 47.616 123.363 48.264V67.128C123.363 67.776 122.811 68.064 122.235 68.064C121.683 68.064 121.131 67.776 121.131 67.128V48.264C121.131 47.616 121.683 47.328 122.235 47.328ZM117.939 47.568C118.491 47.568 119.043 47.856 119.043 48.504V66.12C119.043 66.768 118.491 67.056 117.939 67.056C117.363 67.056 116.811 66.768 116.811 66.12V56.592H113.307C112.731 56.592 112.467 56.112 112.467 55.56C112.467 54.984 112.731 54.528 113.307 54.528H116.811V48.504C116.811 47.856 117.363 47.568 117.939 47.568ZM131.671 48.552C135.391 48.552 137.311 51.072 137.311 55.728C137.311 60.384 135.391 62.904 131.671 62.904C127.951 62.904 126.055 60.384 126.055 55.728C126.055 51.072 127.951 48.552 131.671 48.552ZM131.671 50.664C129.319 50.664 128.383 52.464 128.383 55.728C128.383 58.992 129.319 60.792 131.671 60.792C134.047 60.792 134.983 58.992 134.983 55.728C134.983 52.464 134.047 50.664 131.671 50.664ZM142.087 47.328C142.735 47.328 143.311 47.64 143.311 48.336V67.056C143.311 67.752 142.735 68.064 142.087 68.064C141.487 68.064 140.887 67.752 140.887 67.056V48.336C140.887 47.64 141.487 47.328 142.087 47.328ZM156.611 48.816C157.187 48.816 157.451 49.296 157.451 49.848C157.451 50.4 157.187 50.88 156.611 50.88H149.963C149.579 50.88 149.459 51 149.459 51.36V54.744H155.651C156.227 54.744 156.491 55.176 156.491 55.728C156.491 56.28 156.227 56.736 155.651 56.736H149.459V60.216C149.459 60.576 149.579 60.696 149.963 60.696C153.131 60.696 155.795 60.552 158.387 60.192C158.939 60.12 159.299 60.504 159.347 61.08C159.419 61.632 159.203 62.16 158.675 62.232C156.443 62.544 153.587 62.76 148.931 62.76C147.539 62.76 147.083 62.328 147.083 60.96V50.616C147.083 49.248 147.539 48.816 148.931 48.816H156.611ZM162.899 47.328C163.523 47.328 164.099 47.64 164.099 48.336V67.056C164.099 67.752 163.523 68.064 162.899 68.064C162.299 68.064 161.723 67.752 161.723 67.056V56.568H158.603C158.003 56.568 157.739 56.112 157.739 55.536C157.739 54.96 158.003 54.504 158.603 54.504H161.723V48.336C161.723 47.64 162.299 47.328 162.899 47.328ZM181.935 47.736C183.327 47.736 183.783 48.168 183.783 49.536V51.072C183.783 52.416 183.327 52.848 181.935 52.848H172.047C171.783 52.848 171.663 52.968 171.663 53.232V54.024C171.663 54.264 171.783 54.384 172.047 54.384H183.543C184.071 54.384 184.311 54.816 184.311 55.296C184.311 55.776 184.071 56.208 183.543 56.208H171.207C169.815 56.208 169.359 55.8 169.359 54.432V52.896C169.359 51.528 169.815 51.096 171.207 51.096H181.095C181.359 51.096 181.479 50.976 181.479 50.712V49.944C181.479 49.704 181.359 49.584 181.095 49.584H170.079C169.551 49.584 169.311 49.152 169.311 48.672C169.311 48.192 169.551 47.736 170.079 47.736H181.935ZM185.847 57.696C186.399 57.696 186.663 58.104 186.663 58.656C186.663 59.184 186.399 59.592 185.847 59.592H167.319C166.767 59.592 166.503 59.184 166.503 58.656C166.503 58.104 166.767 57.696 167.319 57.696H185.847ZM182.079 61.08C183.471 61.08 183.927 61.512 183.927 62.88V64.392C183.927 65.76 183.471 66.192 182.079 66.192H171.903C171.639 66.192 171.519 66.288 171.519 66.552V67.344C171.519 67.608 171.639 67.704 171.903 67.704H183.663C184.191 67.704 184.455 68.16 184.455 68.616C184.455 69.12 184.191 69.552 183.663 69.552H171.063C169.671 69.552 169.215 69.12 169.215 67.752V66.216C169.215 64.848 169.671 64.416 171.063 64.416H181.239C181.479 64.416 181.599 64.32 181.599 64.056V63.288C181.599 63.024 181.479 62.904 181.239 62.904H169.935C169.407 62.904 169.167 62.472 169.167 61.992C169.167 61.512 169.407 61.08 169.935 61.08H182.079ZM194.154 48.552H202.41C203.802 48.552 204.258 48.984 204.258 50.352V52.08C204.258 53.4 204.114 54.648 203.826 55.704C203.634 56.352 203.01 56.568 202.362 56.424C201.738 56.28 201.354 55.872 201.522 55.2C201.762 54.144 201.882 53.16 201.882 52.008V51.144C201.882 50.76 201.738 50.64 201.378 50.64H194.154C193.578 50.64 193.314 50.16 193.314 49.608C193.314 49.032 193.578 48.552 194.154 48.552ZM208.218 47.328C208.842 47.328 209.418 47.64 209.418 48.312V54H211.746C212.37 54 212.634 54.48 212.634 55.056C212.634 55.632 212.37 56.112 211.746 56.112H209.418V62.952C209.418 63.624 208.842 63.936 208.218 63.936C207.618 63.936 207.042 63.624 207.042 62.952V48.312C207.042 47.64 207.618 47.328 208.218 47.328ZM197.298 53.592C197.898 53.592 198.474 53.904 198.474 54.576V58.416C200.562 58.344 202.722 58.248 204.906 58.056C205.458 57.984 205.746 58.392 205.794 58.968C205.842 59.496 205.602 60 205.074 60.048C201.402 60.36 197.154 60.48 192.738 60.48C192.162 60.48 191.898 60.024 191.898 59.472C191.898 58.92 192.162 58.464 192.738 58.464H196.122V54.576C196.122 53.904 196.698 53.592 197.298 53.592ZM196.362 62.376C196.962 62.376 197.562 62.688 197.562 63.384V66.672C197.562 67.032 197.682 67.176 198.066 67.176H209.154C209.73 67.176 209.994 67.632 209.994 68.184C209.994 68.736 209.73 69.216 209.154 69.216H196.986C195.594 69.216 195.138 68.784 195.138 67.416V63.384C195.138 62.688 195.714 62.376 196.362 62.376ZM222.022 48.792C223.414 48.792 223.87 49.224 223.87 50.592V55.056C223.87 56.424 223.414 56.856 222.022 56.856H216.838C216.454 56.856 216.334 56.976 216.334 57.336V60.528C216.334 60.888 216.454 61.008 216.838 61.008C220.246 61.008 222.91 60.864 225.502 60.504C226.054 60.432 226.414 60.84 226.462 61.368C226.534 61.944 226.318 62.472 225.79 62.544C223.558 62.856 220.702 63.072 215.806 63.072C214.414 63.072 213.958 62.64 213.958 61.272V56.664C213.958 55.296 214.414 54.888 215.806 54.888H221.014C221.374 54.888 221.518 54.744 221.518 54.384V51.336C221.518 50.976 221.374 50.856 221.014 50.856H214.798C214.198 50.856 213.958 50.376 213.958 49.824C213.958 49.272 214.198 48.792 214.798 48.792H222.022ZM229.462 47.328C230.11 47.328 230.686 47.64 230.686 48.336V67.056C230.686 67.752 230.11 68.064 229.462 68.064C228.862 68.064 228.262 67.752 228.262 67.056V48.336C228.262 47.64 228.862 47.328 229.462 47.328ZM247.802 48.456C249.194 48.456 249.65 48.888 249.65 50.256V56.448C249.65 57.816 249.194 58.248 247.802 58.248H241.154C239.762 58.248 239.306 57.816 239.306 56.448V50.256C239.306 48.888 239.762 48.456 241.154 48.456H247.802ZM242.186 50.472C241.802 50.472 241.682 50.616 241.682 50.976V55.752C241.682 56.112 241.802 56.232 242.186 56.232H246.77C247.13 56.232 247.274 56.112 247.274 55.752V50.976C247.274 50.616 247.13 50.472 246.77 50.472H242.186ZM254.93 47.328C255.554 47.328 256.13 47.64 256.13 48.336V58.824C256.13 59.52 255.554 59.832 254.93 59.832C254.306 59.832 253.73 59.52 253.73 58.824V48.336C253.73 47.64 254.306 47.328 254.93 47.328ZM249.122 59.28C249.746 59.28 250.322 59.592 250.322 60.288V61.656H255.938C256.466 61.656 256.73 62.112 256.73 62.616C256.73 63.096 256.466 63.552 255.938 63.552H250.322V63.816C250.322 64.728 250.898 65.424 252.434 66.048C253.826 66.576 255.122 67.032 256.394 67.44C256.946 67.632 257.09 68.112 256.898 68.616C256.73 69.12 256.346 69.456 255.77 69.264C254.426 68.832 253.178 68.376 251.954 67.92C250.154 67.2 249.338 66.48 249.146 65.904H249.122C248.93 66.528 248.114 67.248 246.29 67.968C245.066 68.424 243.818 68.88 242.474 69.312C241.898 69.48 241.514 69.144 241.322 68.664C241.154 68.136 241.274 67.632 241.826 67.44C243.098 67.032 244.394 66.576 245.81 66.048C247.322 65.424 247.922 64.728 247.922 63.816V63.552H242.186C241.658 63.552 241.418 63.096 241.418 62.616C241.418 62.112 241.658 61.656 242.186 61.656H247.922V60.288C247.922 59.592 248.498 59.28 249.122 59.28ZM279.077 48.672C280.469 48.672 280.925 49.104 280.925 50.472V57.552C280.925 58.92 280.469 59.352 279.077 59.352H274.757V63.936H282.797C283.373 63.936 283.637 64.392 283.637 64.944C283.637 65.496 283.373 65.976 282.797 65.976H264.317C263.741 65.976 263.477 65.496 263.477 64.944C263.477 64.392 263.741 63.936 264.317 63.936H272.357V59.352H268.037C266.645 59.352 266.213 58.92 266.213 57.552V50.472C266.213 49.104 266.645 48.672 268.037 48.672H279.077ZM269.117 50.736C268.757 50.736 268.613 50.856 268.613 51.216V56.808C268.613 57.168 268.757 57.288 269.117 57.288H277.997C278.357 57.288 278.501 57.168 278.501 56.808V51.216C278.501 50.856 278.357 50.736 277.997 50.736H269.117ZM286.761 48.72C287.385 48.72 287.961 49.032 287.961 49.752V59.928C287.961 60.288 288.105 60.432 288.465 60.432C291.777 60.432 294.441 60.264 297.033 59.904C297.585 59.832 297.945 60.24 297.993 60.792C298.065 61.368 297.849 61.896 297.321 61.968C295.089 62.28 292.233 62.496 287.385 62.496C285.993 62.496 285.561 62.064 285.561 60.696V49.752C285.561 49.032 286.137 48.72 286.761 48.72ZM300.993 47.328C301.641 47.328 302.217 47.64 302.217 48.336V67.056C302.217 67.752 301.641 68.064 300.993 68.064C300.393 68.064 299.793 67.752 299.793 67.056V48.336C299.793 47.64 300.393 47.328 300.993 47.328ZM315.517 48.816C316.093 48.816 316.357 49.296 316.357 49.848C316.357 50.4 316.093 50.88 315.517 50.88H308.869C308.485 50.88 308.365 51 308.365 51.36V54.744H314.557C315.133 54.744 315.397 55.176 315.397 55.728C315.397 56.28 315.133 56.736 314.557 56.736H308.365V60.216C308.365 60.576 308.485 60.696 308.869 60.696C312.037 60.696 314.701 60.552 317.293 60.192C317.845 60.12 318.205 60.504 318.253 61.08C318.325 61.632 318.109 62.16 317.581 62.232C315.349 62.544 312.493 62.76 307.837 62.76C306.445 62.76 305.989 62.328 305.989 60.96V50.616C305.989 49.248 306.445 48.816 307.837 48.816H315.517ZM321.805 47.328C322.429 47.328 323.005 47.64 323.005 48.336V67.056C323.005 67.752 322.429 68.064 321.805 68.064C321.205 68.064 320.629 67.752 320.629 67.056V56.568H317.509C316.909 56.568 316.645 56.112 316.645 55.536C316.645 54.96 316.909 54.504 317.509 54.504H320.629V48.336C320.629 47.64 321.205 47.328 321.805 47.328ZM334.793 48.408C336.185 48.408 336.641 48.84 336.641 50.208V53.232C336.641 54.6 336.185 55.032 334.793 55.032H329.633C329.273 55.032 329.129 55.152 329.129 55.536V57.288C329.129 57.648 329.273 57.768 329.633 57.768C332.969 57.768 335.729 57.624 338.321 57.264C338.873 57.192 339.233 57.576 339.281 58.104C339.353 58.656 339.137 59.184 338.609 59.256C336.377 59.568 333.425 59.784 328.625 59.784C327.233 59.784 326.777 59.352 326.777 57.984V54.936C326.777 53.568 327.233 53.136 328.625 53.136H333.785C334.145 53.136 334.289 52.992 334.289 52.632V50.928C334.289 50.544 334.145 50.424 333.785 50.424H327.569C327.017 50.424 326.777 49.944 326.777 49.416C326.777 48.888 327.017 48.408 327.569 48.408H334.793ZM342.305 47.328C342.929 47.328 343.505 47.64 343.505 48.336V60.216C343.505 60.888 342.929 61.2 342.305 61.2C341.681 61.2 341.105 60.888 341.105 60.216V48.336C341.105 47.64 341.681 47.328 342.305 47.328ZM336.641 61.464C341.057 61.464 343.625 62.808 343.625 65.616C343.625 68.424 341.057 69.768 336.641 69.768C332.225 69.768 329.657 68.424 329.657 65.616C329.657 62.784 332.225 61.464 336.641 61.464ZM336.641 63.384C333.401 63.384 332.033 64.224 332.033 65.616C332.033 66.984 333.401 67.848 336.641 67.848C339.857 67.848 341.249 66.984 341.249 65.616C341.249 64.224 339.857 63.384 336.641 63.384ZM352.556 52.296C355.748 52.296 357.668 53.592 357.668 55.776C357.668 57.96 355.748 59.256 352.556 59.256C349.364 59.256 347.444 57.96 347.444 55.776C347.444 53.592 349.364 52.296 352.556 52.296ZM352.556 46.848C353.204 46.848 353.756 47.16 353.756 47.808V49.176H358.076C358.628 49.176 358.892 49.632 358.892 50.184C358.892 50.712 358.628 51.168 358.076 51.168H346.82C346.244 51.168 345.98 50.712 345.98 50.184C345.98 49.632 346.244 49.176 346.82 49.176H351.356V47.808C351.356 47.16 351.932 46.848 352.556 46.848ZM352.556 54.072C350.636 54.072 349.604 54.744 349.604 55.776C349.604 56.808 350.636 57.48 352.556 57.48C354.5 57.48 355.508 56.808 355.508 55.776C355.508 54.744 354.5 54.072 352.556 54.072ZM361.916 47.328C362.54 47.328 363.116 47.64 363.116 48.336V52.32H365.78C366.38 52.32 366.644 52.8 366.644 53.376C366.644 53.928 366.38 54.408 365.78 54.408H363.116V58.56C363.116 59.256 362.54 59.568 361.916 59.568C361.316 59.568 360.74 59.256 360.74 58.56V48.336C360.74 47.64 361.316 47.328 361.916 47.328ZM361.268 60.6C362.66 60.6 363.116 61.032 363.116 62.4V64.128C363.116 65.496 362.66 65.928 361.268 65.928H352.076C351.812 65.928 351.692 66.024 351.692 66.288V67.224C351.692 67.488 351.812 67.608 352.076 67.608H362.876C363.404 67.608 363.644 68.064 363.644 68.52C363.644 69.024 363.404 69.456 362.876 69.456H351.236C349.844 69.456 349.388 69.024 349.388 67.656V65.928C349.388 64.56 349.844 64.152 351.236 64.152H360.428C360.692 64.152 360.812 64.032 360.812 63.768V62.832C360.812 62.568 360.692 62.472 360.428 62.472H350.108C349.58 62.472 349.34 62.016 349.34 61.536C349.34 61.056 349.58 60.6 350.108 60.6H361.268ZM378.888 48.576C382.728 48.576 384.696 50.832 384.696 53.808C384.696 56.808 382.728 59.064 378.888 59.064C375.048 59.064 373.08 56.808 373.08 53.808C373.08 50.832 375.048 48.576 378.888 48.576ZM378.888 50.592C376.488 50.592 375.36 51.984 375.36 53.808C375.36 55.632 376.488 57.048 378.888 57.048C381.288 57.048 382.416 55.632 382.416 53.808C382.416 51.984 381.288 50.592 378.888 50.592ZM385.488 61.776C386.04 61.728 386.352 62.112 386.376 62.688C386.424 63.24 386.208 63.744 385.656 63.792C381.816 64.152 377.328 64.296 372.624 64.296C372.048 64.296 371.784 63.816 371.784 63.264C371.784 62.712 372.048 62.232 372.624 62.232C376.872 62.232 381.048 62.184 385.488 61.776ZM388.824 47.328C389.448 47.328 390.024 47.64 390.024 48.336V67.056C390.024 67.752 389.448 68.064 388.824 68.064C388.224 68.064 387.648 67.752 387.648 67.056V48.336C387.648 47.64 388.224 47.328 388.824 47.328ZM398.644 52.872C401.836 52.872 403.756 54.36 403.756 56.712C403.756 59.064 401.836 60.552 398.644 60.552C395.452 60.552 393.532 59.064 393.532 56.712C393.532 54.36 395.452 52.872 398.644 52.872ZM398.644 47.088C399.268 47.088 399.844 47.4 399.844 48.096V49.608H404.14C404.716 49.608 404.98 50.088 404.98 50.64C404.98 51.168 404.716 51.648 404.14 51.648H392.908C392.332 51.648 392.068 51.168 392.068 50.64C392.068 50.088 392.332 49.608 392.908 49.608H397.444V48.096C397.444 47.4 398.044 47.088 398.644 47.088ZM398.644 54.744C396.724 54.744 395.692 55.56 395.692 56.712C395.692 57.864 396.724 58.68 398.644 58.68C400.588 58.68 401.596 57.864 401.596 56.712C401.596 55.56 400.588 54.744 398.644 54.744ZM408.004 47.328C408.628 47.328 409.204 47.64 409.204 48.336V51.048H411.7C412.252 51.048 412.516 51.504 412.516 52.056C412.516 52.608 412.252 53.088 411.7 53.088H409.204V55.152H411.7C412.252 55.152 412.516 55.608 412.516 56.16C412.516 56.712 412.252 57.168 411.7 57.168H409.204V60.408C409.204 61.08 408.628 61.392 408.004 61.392C407.404 61.392 406.828 61.08 406.828 60.408V48.336C406.828 47.64 407.404 47.328 408.004 47.328ZM402.484 61.656C406.804 61.656 409.324 62.928 409.324 65.712C409.324 68.472 406.804 69.768 402.484 69.768C398.164 69.768 395.644 68.472 395.644 65.712C395.644 62.928 398.164 61.656 402.484 61.656ZM402.484 63.552C399.34 63.552 398.02 64.368 398.02 65.712C398.02 67.032 399.34 67.848 402.484 67.848C405.628 67.848 406.948 67.032 406.948 65.712C406.948 64.368 405.628 63.552 402.484 63.552ZM419.24 48.552C422.96 48.552 424.88 51.072 424.88 55.728C424.88 60.384 422.96 62.904 419.24 62.904C415.52 62.904 413.624 60.384 413.624 55.728C413.624 51.072 415.52 48.552 419.24 48.552ZM419.24 50.664C416.888 50.664 415.952 52.464 415.952 55.728C415.952 58.992 416.888 60.792 419.24 60.792C421.616 60.792 422.552 58.992 422.552 55.728C422.552 52.464 421.616 50.664 419.24 50.664ZM429.656 47.328C430.304 47.328 430.88 47.64 430.88 48.336V67.056C430.88 67.752 430.304 68.064 429.656 68.064C429.056 68.064 428.456 67.752 428.456 67.056V48.336C428.456 47.64 429.056 47.328 429.656 47.328ZM444.66 48.216C448.404 48.216 450.252 50.448 450.252 53.424C450.252 56.424 448.404 58.656 444.66 58.656C440.916 58.656 439.068 56.424 439.068 53.424C439.068 50.448 440.916 48.216 444.66 48.216ZM444.66 50.208C442.284 50.208 441.372 51.672 441.372 53.424C441.372 55.176 442.284 56.64 444.66 56.64C447.036 56.64 447.948 55.176 447.948 53.424C447.948 51.672 447.036 50.208 444.66 50.208ZM455.124 47.328C455.748 47.328 456.324 47.64 456.324 48.336V58.824C456.324 59.52 455.748 59.832 455.124 59.832C454.5 59.832 453.924 59.52 453.924 58.824V48.336C453.924 47.64 454.5 47.328 455.124 47.328ZM445.38 60.408C446.004 60.408 446.556 60.72 446.556 61.392V62.544C446.556 63.936 446.796 64.536 447.684 65.544C448.068 65.952 448.524 66.408 448.884 66.744C449.22 67.032 449.412 67.032 449.724 66.744C450.108 66.408 450.54 65.952 450.924 65.544C451.812 64.536 452.052 63.936 452.052 62.544V61.392C452.052 60.72 452.604 60.408 453.228 60.408C453.828 60.408 454.404 60.72 454.404 61.392V62.544C454.404 63.984 454.74 64.632 455.82 65.64C456.468 66.24 457.308 66.888 458.1 67.464C458.532 67.8 458.508 68.424 458.148 68.856C457.788 69.336 457.212 69.456 456.684 69.072C456.012 68.568 455.388 68.064 454.86 67.584C453.756 66.648 453.372 66.144 453.228 65.664H453.204C453.06 66.192 452.724 66.6 451.668 67.68C451.284 68.064 450.924 68.424 450.54 68.736C449.604 69.528 449.004 69.528 448.092 68.736C447.708 68.424 447.324 68.064 446.964 67.68C445.908 66.6 445.548 66.192 445.404 65.664H445.38C445.236 66.192 444.852 66.672 443.772 67.632C443.244 68.088 442.62 68.592 441.924 69.096C441.396 69.504 440.844 69.36 440.46 68.904C440.1 68.424 440.1 67.8 440.532 67.464C441.3 66.888 442.14 66.24 442.788 65.64C443.868 64.632 444.204 63.984 444.204 62.544V61.392C444.204 60.72 444.78 60.408 445.38 60.408ZM461.007 48.744C461.655 48.744 462.231 49.056 462.231 49.776V59.904C462.231 60.264 462.375 60.408 462.735 60.408C465.807 60.408 468.471 60.24 471.063 59.88C471.615 59.808 471.975 60.216 472.023 60.768C472.095 61.344 471.879 61.872 471.351 61.944C469.119 62.256 466.263 62.472 461.655 62.472C460.263 62.472 459.807 62.04 459.807 60.672V49.776C459.807 49.056 460.383 48.744 461.007 48.744ZM474.735 47.328C475.359 47.328 475.935 47.64 475.935 48.336V54.576H478.575C479.199 54.576 479.463 55.032 479.463 55.608C479.463 56.184 479.199 56.664 478.575 56.664H475.935V67.056C475.935 67.752 475.359 68.064 474.735 68.064C474.111 68.064 473.535 67.752 473.535 67.056V48.336C473.535 47.64 474.111 47.328 474.735 47.328ZM489.595 48.168C494.227 48.168 496.987 50.28 496.987 53.88C496.987 57.48 494.227 59.592 489.595 59.592C484.963 59.592 482.227 57.48 482.227 53.88C482.227 50.28 484.963 48.168 489.595 48.168ZM489.595 50.208C486.163 50.208 484.627 51.792 484.627 53.88C484.627 55.992 486.163 57.552 489.595 57.552C493.027 57.552 494.563 55.992 494.563 53.88C494.563 51.792 493.027 50.208 489.595 50.208ZM485.899 60.072C486.523 60.072 487.099 60.384 487.099 61.056V63.96H492.091V61.056C492.091 60.384 492.667 60.072 493.291 60.072C493.939 60.072 494.491 60.384 494.491 61.056V63.96H498.835C499.411 63.96 499.675 64.416 499.675 64.944C499.675 65.496 499.411 65.976 498.835 65.976H480.355C479.779 65.976 479.515 65.496 479.515 64.944C479.515 64.416 479.779 63.96 480.355 63.96H484.699V61.056C484.699 60.384 485.251 60.072 485.899 60.072ZM505.631 48.576C508.943 48.576 510.959 50.352 510.959 52.968V53.208C510.959 54.816 510.215 55.872 508.271 57.624C506.591 59.16 506.375 59.712 506.375 60.816C506.375 61.416 505.847 61.752 505.271 61.752C504.671 61.752 504.119 61.464 504.119 60.768C504.119 59.136 504.407 58.248 506.279 56.592C508.127 54.96 508.559 54.288 508.559 53.232V53.064C508.559 51.72 507.575 50.712 505.583 50.712C504.143 50.712 503.135 51.24 502.247 51.96C501.767 52.32 501.215 52.2 500.831 51.72C500.471 51.288 500.471 50.64 500.951 50.256C502.031 49.32 503.639 48.576 505.631 48.576ZM505.247 63.72C506.159 63.72 506.831 64.392 506.831 65.28C506.831 66.168 506.159 66.864 505.247 66.864C504.359 66.864 503.687 66.168 503.687 65.28C503.687 64.392 504.359 63.72 505.247 63.72Z" fill="white"/>
</svg>
