<svg width="427" height="424" viewBox="0 0 427 424" fill="none" xmlns="http://www.w3.org/2000/svg">
<g clip-path="url(#clip0_3127_142)">
<path d="M188.345 182.603C167.905 147.201 163.087 107.105 171.656 70.1579C174.541 57.716 163.38 45.3736 151.933 51.0393C148.979 52.5013 146.052 54.0656 143.155 55.738C64.094 101.384 36.9129 202.324 82.4492 281.195C127.985 360.066 228.992 386.996 308.06 341.347C335.234 325.658 356.185 303.407 370.204 277.778C376.336 266.568 364.492 254.97 351.939 257.358C288.764 269.38 222.25 241.328 188.348 182.609L188.345 182.603Z" fill="#F7DC75"/>
<path d="M130.822 216.219L130.822 230.438L128.916 230.438L128.916 223.266L127.634 223.266L127.634 229.781L125.744 229.781L125.744 216.422L127.634 216.422L127.634 221.641L128.916 221.641L128.916 216.219L130.822 216.219ZM118.9 226.859L118.9 217.688L124.556 217.688L124.556 226.859L118.9 226.859ZM120.759 225.297L122.697 225.297L122.697 219.266L120.759 219.266L120.759 225.297ZM144.522 224.172L144.522 225.797L138.959 225.797L138.959 230.453L136.991 230.453L136.991 225.797L131.506 225.797L131.506 224.172L144.522 224.172ZM132.819 219.922C132.811 217.945 134.92 216.695 137.975 216.688C141.03 216.695 143.163 217.945 143.163 219.922C143.163 221.852 141.03 223.094 137.975 223.094C134.92 223.094 132.811 221.852 132.819 219.922ZM134.866 219.922C134.858 220.938 136.069 221.508 137.975 221.516C139.897 221.508 141.1 220.938 141.1 219.922C141.1 218.867 139.897 218.289 137.975 218.281C136.069 218.289 134.858 218.867 134.866 219.922ZM154.891 220.453L154.891 221.766L160.437 221.766L160.437 223.359L147.422 223.359L147.422 221.766L152.922 221.766L152.922 220.453L154.891 220.453ZM147.984 219.781C150.547 219.641 152 218.891 152.422 218.078L148.625 218.078L148.625 216.563L159.234 216.563L159.234 218.078L155.398 218.078C155.805 218.898 157.242 219.641 159.844 219.781L159.219 221.266C156.477 221.07 154.648 220.195 153.922 218.93C153.187 220.195 151.359 221.07 148.625 221.266L147.984 219.781ZM148.609 226.297L148.609 224.813L152.906 224.813L152.906 223.75L154.906 223.75L154.906 224.813L159.203 224.813L159.203 226.297L148.609 226.297ZM149.531 228.594C149.523 227.375 151.109 226.719 153.891 226.719C156.648 226.719 158.273 227.375 158.281 228.594C158.273 229.836 156.648 230.492 153.891 230.484C151.109 230.492 149.523 229.836 149.531 228.594ZM151.578 228.594C151.578 228.992 152.367 229.172 153.891 229.172C155.437 229.172 156.187 228.992 156.203 228.594C156.187 228.188 155.437 228.047 153.891 228.031C152.367 228.047 151.578 228.188 151.578 228.594ZM164.294 217.219C166.466 217.219 168.036 219.18 168.044 222.281C168.036 225.406 166.466 227.359 164.294 227.359C162.114 227.359 160.536 225.406 160.544 222.281C160.536 219.18 162.114 217.219 164.294 217.219ZM162.466 222.281C162.466 224.398 163.208 225.555 164.294 225.547C165.403 225.555 166.13 224.398 166.138 222.281C166.13 220.172 165.403 219.016 164.294 219.016C163.208 219.016 162.466 220.172 162.466 222.281ZM169.684 230.438L169.684 216.219L171.684 216.219L171.684 221.578L173.778 221.578L173.778 223.234L171.684 223.234L171.684 230.438L169.684 230.438ZM184.775 216.234L184.775 220.594L186.697 220.594L186.697 222.219L184.775 222.219L184.775 226.844L182.775 226.844L182.775 216.234L184.775 216.234ZM173.494 219.297L173.494 217.719L176.728 217.719L176.728 216.203L178.713 216.203L178.713 217.719L181.931 217.719L181.931 219.297L173.494 219.297ZM174.181 222.547C174.181 220.898 175.642 219.797 177.713 219.797C179.775 219.797 181.213 220.898 181.213 222.547C181.213 224.188 179.775 225.266 177.713 225.266C175.642 225.266 174.181 224.188 174.181 222.547ZM175.556 230.188L175.556 226.031L177.541 226.031L177.541 228.594L185.291 228.594L185.291 230.188L175.556 230.188ZM176.134 222.547C176.127 223.328 176.759 223.75 177.713 223.75C178.673 223.75 179.322 223.328 179.322 222.547C179.322 221.758 178.673 221.32 177.713 221.313C176.759 221.32 176.127 221.758 176.134 222.547ZM197.741 216.219L197.741 221.5L199.834 221.5L199.834 223.125L197.741 223.125L197.741 230.469L195.741 230.469L195.741 216.219L197.741 216.219ZM187.084 227.016L187.084 217.531L193.756 217.531L193.756 219.141L189.069 219.141L189.069 225.375C191.131 225.359 192.834 225.25 194.725 224.922L194.944 226.594C192.733 226.969 190.795 227.023 188.287 227.016L187.084 227.016ZM107.774 271.5L107.774 267.316L118.532 250.547L125.176 250.547L125.176 267.246L128.411 267.246L128.411 271.5L125.176 271.5L125.176 276L120.149 276L120.149 271.5L107.774 271.5ZM113.118 267.246L120.219 267.246L120.219 256.348L119.973 256.348L113.118 267.035L113.118 267.246ZM139.337 250.195C144.611 250.213 149.603 253.359 149.603 262.605C149.62 271.254 145.525 276.352 139.126 276.352C134.011 276.352 130.495 273.135 129.986 268.828L135.189 268.828C135.628 270.709 137.087 271.816 139.126 271.816C142.589 271.816 144.417 268.705 144.435 263.625L144.224 263.625C143.029 265.875 140.515 267.211 137.685 267.211C133.114 267.211 129.739 263.766 129.704 259.02C129.704 253.904 133.589 250.178 139.337 250.195ZM134.872 258.879C134.872 261.393 136.718 263.344 139.337 263.344C141.921 263.344 143.907 261.287 143.907 258.844C143.872 256.418 141.974 254.361 139.372 254.344C136.771 254.361 134.837 256.348 134.872 258.879ZM153.428 276.316C151.775 276.316 150.439 274.998 150.475 273.363C150.439 271.746 151.775 270.428 153.428 270.445C154.992 270.428 156.346 271.746 156.346 273.363C156.346 274.998 154.992 276.316 153.428 276.316ZM167.835 276.352C162.526 276.352 158.641 273.223 158.554 268.828L163.686 268.828C163.809 270.814 165.62 272.186 167.835 272.168C170.471 272.186 172.352 270.322 172.335 267.668C172.352 264.961 170.436 263.08 167.764 263.063C165.848 263.063 164.512 263.783 163.757 265.207L158.975 265.207L160.346 250.547L176.026 250.547L176.026 254.871L164.706 254.871L164.003 261.305L164.214 261.305C165.145 260.057 167.079 259.143 169.311 259.16C173.987 259.143 177.468 262.641 177.468 267.527C177.468 272.678 173.565 276.352 167.835 276.352ZM185.933 263.273C182.119 263.273 180.062 260.496 180.062 256.488C180.062 252.463 182.224 249.668 185.933 249.668C189.748 249.668 191.787 252.463 191.804 256.488C191.787 260.531 189.695 263.273 185.933 263.273ZM183.648 256.488C183.666 258.686 184.457 260.127 185.933 260.145C187.445 260.127 188.201 258.686 188.218 256.488C188.201 254.291 187.515 252.797 185.933 252.797C184.439 252.814 183.666 254.326 183.648 256.488ZM183.718 276L201.226 250.547L205.164 250.547L187.656 276L183.718 276ZM197.254 270.059C197.254 266.033 199.416 263.256 203.089 263.238C206.939 263.256 208.978 266.033 208.996 270.059C208.978 274.102 206.886 276.844 203.089 276.844C199.31 276.844 197.254 274.066 197.254 270.059ZM200.839 270.059C200.857 272.256 201.648 273.715 203.089 273.715C204.636 273.715 205.392 272.256 205.41 270.059C205.392 267.861 204.689 266.367 203.089 266.402C201.613 266.385 200.857 267.896 200.839 270.059Z" fill="#AF8F12"/>
</g>
<g clip-path="url(#clip1_3127_142)">
<path d="M427 291.009C427 284.381 421.627 279.009 415 279.009H383.237C376.61 279.009 371.237 273.636 371.237 267.009V234.922C371.237 228.294 365.865 222.922 359.237 222.922H322.763C316.135 222.922 310.763 228.294 310.763 234.922V267.009C310.763 273.636 305.39 279.009 298.763 279.009H267C260.373 279.009 255 284.381 255 291.009V327.835C255 334.462 260.373 339.835 267 339.835H298.763C305.39 339.835 310.763 345.208 310.763 351.835V383.922C310.763 390.549 316.135 395.922 322.763 395.922H359.237C365.865 395.922 371.237 390.549 371.237 383.922V351.835C371.237 345.208 376.61 339.835 383.237 339.835H415C421.627 339.835 427 334.462 427 327.835V291.009Z" fill="#9EB366"/>
<path d="M290.634 294.156V304.531H288.65V299.438H286.322V297.828H288.65V294.156H290.634ZM278.572 301.328C280.923 300.594 281.986 298.742 281.994 296.922V296.703H279.134V295.109H286.853V296.703H284.025V296.938C284.017 298.586 285.033 300.344 287.291 301.078L286.306 302.656C284.736 302.141 283.65 301.109 283.033 299.836C282.4 301.25 281.267 302.398 279.588 302.953L278.572 301.328ZM281.197 308.109V303.625H283.197V306.516H290.978V308.109H281.197ZM299.959 296.266V297.859H291.709V296.266H294.834V294.344H296.866V296.266H299.959ZM292.413 302.047C292.405 300.062 293.866 298.648 295.85 298.656C297.795 298.648 299.28 300.062 299.288 302.047C299.28 304.016 297.795 305.43 295.85 305.438C293.866 305.43 292.405 304.016 292.413 302.047ZM294.209 302.047C294.209 303.117 294.881 303.75 295.85 303.734C296.795 303.75 297.483 303.117 297.491 302.047C297.483 300.977 296.795 300.336 295.85 300.328C294.881 300.336 294.209 300.977 294.209 302.047ZM299.725 300.438V298.828H301.709V294.141H303.678V308.359H301.709V303.953H299.741V302.359H301.709V300.438H299.725ZM315.047 298.375V299.688H320.594V301.281H307.578V299.688H313.078V298.375H315.047ZM308.141 297.703C310.703 297.562 312.156 296.812 312.578 296H308.781V294.484H319.391V296H315.555C315.961 296.82 317.398 297.562 320 297.703L319.375 299.188C316.633 298.992 314.805 298.117 314.078 296.852C313.344 298.117 311.516 298.992 308.781 299.188L308.141 297.703ZM308.766 304.219V302.734H313.063V301.672H315.063V302.734H319.359V304.219H308.766ZM309.688 306.516C309.68 305.297 311.266 304.641 314.047 304.641C316.805 304.641 318.43 305.297 318.438 306.516C318.43 307.758 316.805 308.414 314.047 308.406C311.266 308.414 309.68 307.758 309.688 306.516ZM311.734 306.516C311.734 306.914 312.523 307.094 314.047 307.094C315.594 307.094 316.344 306.914 316.359 306.516C316.344 306.109 315.594 305.969 314.047 305.953C312.523 305.969 311.734 306.109 311.734 306.516ZM324.45 295.141C326.622 295.141 328.192 297.102 328.2 300.203C328.192 303.328 326.622 305.281 324.45 305.281C322.27 305.281 320.692 303.328 320.7 300.203C320.692 297.102 322.27 295.141 324.45 295.141ZM322.622 300.203C322.622 302.32 323.364 303.477 324.45 303.469C325.559 303.477 326.286 302.32 326.294 300.203C326.286 298.094 325.559 296.938 324.45 296.938C323.364 296.938 322.622 298.094 322.622 300.203ZM329.841 308.359V294.141H331.841V299.5H333.934V301.156H331.841V308.359H329.841ZM344.869 294.141V299.703H346.963V301.344H344.869V308.359H342.9V294.141H344.869ZM333.572 297.859V296.266H336.791V294.359H338.791V296.266H341.931V297.859H333.572ZM334.15 302.047C334.142 300.062 335.689 298.648 337.791 298.656C339.861 298.648 341.416 300.062 341.416 302.047C341.416 304.031 339.861 305.43 337.791 305.438C335.689 305.43 334.142 304.031 334.15 302.047ZM336.056 302.047C336.056 303.148 336.783 303.805 337.791 303.797C338.783 303.805 339.509 303.148 339.509 302.047C339.509 300.953 338.783 300.281 337.791 300.266C336.783 300.281 336.056 300.953 336.056 302.047ZM352.194 298.016C352.186 300.312 353.373 302.773 355.756 303.766L354.678 305.328C353.006 304.617 351.85 303.203 351.209 301.484C350.569 303.352 349.389 304.914 347.709 305.688L346.569 304.109C348.928 303.055 350.147 300.422 350.147 298.016V297.141H347.131V295.516H355.162V297.141H352.194V298.016ZM356.569 308.359V294.141H358.584V308.359H356.569ZM366.516 294.828C368.703 294.82 370.328 296.211 370.328 298.141C370.328 300.086 368.703 301.469 366.516 301.469C364.344 301.469 362.68 300.086 362.688 298.141C362.68 296.211 364.344 294.82 366.516 294.828ZM363.875 307.984V302.531H365.812V306.359C366.602 306.305 367.344 306.188 368.078 305.953L368.359 307.5C367.164 307.93 366.016 307.984 364.656 307.984H363.875ZM364.641 298.141C364.625 299.188 365.438 299.836 366.516 299.844C367.594 299.836 368.391 299.188 368.391 298.141C368.391 297.102 367.594 296.461 366.516 296.469C365.438 296.461 364.625 297.102 364.641 298.141ZM367.875 304.016V302.547H370.5V301.547H372.438V302.547H375.031V304.016H367.875ZM368.703 306.359C368.688 305.133 369.805 304.344 371.438 304.344C373.062 304.344 374.195 305.133 374.203 306.359C374.195 307.594 373.062 308.367 371.438 308.359C369.797 308.367 368.688 307.594 368.703 306.359ZM370.469 306.359C370.461 306.789 370.875 307 371.438 307C372.008 307 372.414 306.789 372.422 306.359C372.414 305.953 372.008 305.727 371.438 305.719C370.875 305.727 370.461 305.953 370.469 306.359ZM371.875 301.156V294.141H373.875V297.094H375.797V298.734H373.875V301.156H371.875ZM387.169 298.016V299.578H377.231V294.641H379.216V298.016H387.169ZM375.606 302.672V301.109H388.622V302.672H375.606ZM377.106 308.047V303.828H379.106V306.453H387.263V308.047H377.106ZM399.869 294.141V299.422H401.963V301.047H399.869V308.391H397.869V294.141H399.869ZM389.213 304.938V295.453H395.884V297.062H391.197V303.297C393.259 303.281 394.963 303.172 396.853 302.844L397.072 304.516C394.861 304.891 392.923 304.945 390.416 304.938H389.213ZM403.522 307.062C402.787 307.062 402.194 306.477 402.209 305.75C402.194 305.031 402.787 304.445 403.522 304.453C404.217 304.445 404.819 305.031 404.819 305.75C404.819 306.477 404.217 307.062 403.522 307.062ZM325.131 333.117C322.182 333.117 320.023 331.379 319.975 328.938H322.826C322.895 330.041 323.9 330.803 325.131 330.793C326.596 330.803 327.641 329.768 327.631 328.293C327.641 326.789 326.576 325.744 325.092 325.734C324.027 325.734 323.285 326.135 322.865 326.926H320.209L320.971 318.781H329.682V321.184H323.393L323.002 324.758H323.119C323.637 324.064 324.711 323.557 325.951 323.566C328.549 323.557 330.482 325.5 330.482 328.215C330.482 331.076 328.314 333.117 325.131 333.117ZM332.744 333.098C331.826 333.098 331.084 332.365 331.104 331.457C331.084 330.559 331.826 329.826 332.744 329.836C333.613 329.826 334.365 330.559 334.365 331.457C334.365 332.365 333.613 333.098 332.744 333.098ZM340.748 333.117C337.799 333.117 335.641 331.379 335.592 328.938H338.443C338.512 330.041 339.518 330.803 340.748 330.793C342.213 330.803 343.258 329.768 343.248 328.293C343.258 326.789 342.193 325.744 340.709 325.734C339.645 325.734 338.902 326.135 338.482 326.926H335.826L336.588 318.781H345.299V321.184H339.01L338.619 324.758H338.736C339.254 324.064 340.328 323.557 341.568 323.566C344.166 323.557 346.1 325.5 346.1 328.215C346.1 331.076 343.932 333.117 340.748 333.117ZM350.803 325.852C348.684 325.852 347.541 324.309 347.541 322.082C347.541 319.846 348.742 318.293 350.803 318.293C352.922 318.293 354.055 319.846 354.064 322.082C354.055 324.328 352.893 325.852 350.803 325.852ZM349.533 322.082C349.543 323.303 349.982 324.104 350.803 324.113C351.643 324.104 352.062 323.303 352.072 322.082C352.062 320.861 351.682 320.031 350.803 320.031C349.973 320.041 349.543 320.881 349.533 322.082ZM349.572 332.922L359.299 318.781H361.486L351.76 332.922H349.572ZM357.092 329.621C357.092 327.385 358.293 325.842 360.334 325.832C362.473 325.842 363.605 327.385 363.615 329.621C363.605 331.867 362.443 333.391 360.334 333.391C358.234 333.391 357.092 331.848 357.092 329.621ZM359.084 329.621C359.094 330.842 359.533 331.652 360.334 331.652C361.193 331.652 361.613 330.842 361.623 329.621C361.613 328.4 361.223 327.57 360.334 327.59C359.514 327.58 359.094 328.42 359.084 329.621Z" fill="#617137"/>
</g>
<defs>
<clipPath id="clip0_3127_142">
<rect width="276.777" height="329.797" fill="white" transform="translate(0 138.389) rotate(-30)"/>
</clipPath>
<clipPath id="clip1_3127_142">
<rect width="172" height="173" fill="white" transform="translate(255 222.922)"/>
</clipPath>
</defs>
</svg>
