<svg width="405" height="424" viewBox="0 0 405 424" fill="none" xmlns="http://www.w3.org/2000/svg">
<g clip-path="url(#clip0_3127_59)">
<path d="M188.345 182.603C167.905 147.201 163.087 107.105 171.656 70.1579C174.541 57.716 163.38 45.3735 151.933 51.0393C148.979 52.5013 146.052 54.0656 143.155 55.738C64.094 101.384 36.9129 202.324 82.4492 281.195C127.985 360.066 228.992 386.996 308.06 341.347C335.234 325.658 356.185 303.407 370.204 277.778C376.336 266.568 364.492 254.97 351.939 257.358C288.764 269.38 222.25 241.328 188.348 182.609L188.345 182.603Z" fill="#F7DC75"/>
<path d="M115.091 216.219L115.091 230.438L113.184 230.438L113.184 223.266L111.903 223.266L111.903 229.781L110.012 229.781L110.012 216.422L111.903 216.422L111.903 221.641L113.184 221.641L113.184 216.219L115.091 216.219ZM103.169 226.859L103.169 217.688L108.825 217.688L108.825 226.859L103.169 226.859ZM105.028 225.297L106.966 225.297L106.966 219.266L105.028 219.266L105.028 225.297ZM128.791 224.172L128.791 225.797L123.228 225.797L123.228 230.453L121.259 230.453L121.259 225.797L115.775 225.797L115.775 224.172L128.791 224.172ZM117.087 219.922C117.08 217.945 119.189 216.695 122.244 216.688C125.298 216.695 127.431 217.945 127.431 219.922C127.431 221.852 125.298 223.094 122.244 223.094C119.189 223.094 117.08 221.852 117.087 219.922ZM119.134 219.922C119.127 220.938 120.337 221.508 122.244 221.516C124.166 221.508 125.369 220.938 125.369 219.922C125.369 218.867 124.166 218.289 122.244 218.281C120.337 218.289 119.127 218.867 119.134 219.922ZM143.3 222.578L143.3 224.156L139.175 224.156L139.175 227.188L144.722 227.188L144.722 228.813L131.706 228.813L131.706 227.188L137.191 227.188L137.191 224.156L133.237 224.156L133.237 217.219L143.191 217.219L143.191 218.813L135.237 218.813L135.237 222.578L143.3 222.578ZM151.219 216.406C154.383 216.414 156.383 217.445 156.391 219.172C156.383 220.867 154.383 221.883 151.219 221.875C148.07 221.883 146.031 220.867 146.031 219.172C146.031 217.445 148.07 216.414 151.219 216.406ZM144.734 224.203L144.734 222.609L157.703 222.609L157.703 224.203L152.203 224.203L152.203 225.438L156.156 225.438L156.156 230.281L146.234 230.281L146.234 225.438L150.219 225.438L150.219 224.203L144.734 224.203ZM148.109 219.172C148.094 219.953 149.227 220.359 151.219 220.359C153.18 220.359 154.328 219.953 154.328 219.172C154.328 218.352 153.18 217.93 151.219 217.938C149.227 217.93 148.094 218.352 148.109 219.172ZM148.203 228.688L154.203 228.688L154.203 227.016L148.203 227.016L148.203 228.688ZM169.669 216.219L169.669 230.469L167.653 230.469L167.653 216.219L169.669 216.219ZM158.184 222.281C158.177 219.18 159.762 217.219 161.95 217.219C164.091 217.219 165.684 219.18 165.684 222.281C165.684 225.406 164.091 227.359 161.95 227.359C159.762 227.359 158.177 225.406 158.184 222.281ZM160.106 222.281C160.098 224.398 160.841 225.555 161.95 225.547C163.028 225.555 163.755 224.398 163.762 222.281C163.755 220.172 163.028 219.016 161.95 219.016C160.841 219.016 160.098 220.172 160.106 222.281ZM181.975 219.547L181.975 221.063L179.459 221.063L179.459 221.984C180.616 221.93 181.756 221.859 182.85 221.75L182.944 223.078C179.944 223.531 176.694 223.602 173.991 223.594L173.756 222.078C174.905 222.078 176.155 222.078 177.428 222.047L177.428 221.063L175.006 221.063L175.006 216.797L181.834 216.797L181.834 218.281L177.069 218.281L177.069 219.547L181.975 219.547ZM175.912 225.75L175.912 224.203L185.647 224.203L185.647 227.969L177.912 227.969L177.912 228.766L186.006 228.766L186.006 230.344L175.959 230.344L175.959 226.516L183.678 226.516L183.678 225.75L175.912 225.75ZM183.662 223.703L183.662 216.234L185.647 216.234L185.647 223.703L183.662 223.703ZM201.578 216.234L201.578 225.672L199.594 225.672L199.594 221.609L197.078 221.609L197.078 219.984L199.594 219.984L199.594 216.234L201.578 216.234ZM189.75 223.484C192.977 222.531 194.523 220.953 194.82 218.891L190.516 218.891L190.516 217.313L196.969 217.313C196.969 221.156 194.93 223.703 190.609 225.047L189.75 223.484ZM191.25 228.813C194.273 228.375 195.766 226.711 195.781 225.094L195.781 224.594L197.75 224.594L197.75 225.094C197.75 226.711 199.25 228.336 202.25 228.797L201.453 230.375C199.219 230.008 197.609 229.008 196.758 227.625C195.891 229.008 194.266 230.016 192.031 230.391L191.25 228.813ZM216.791 216.219L216.791 219.172L218.712 219.172L218.712 220.797L216.791 220.797L216.791 223.688L214.791 223.688L214.791 216.219L216.791 216.219ZM205.447 222.344C208.962 221.766 210.486 220.352 210.689 218.75L206.15 218.75L206.15 217.188L212.931 217.188C212.923 220.938 210.611 223.125 206.291 223.938L205.447 222.344ZM207.416 230.281L207.416 224.219L216.837 224.219L216.837 225.688L209.416 225.688L209.416 226.531L216.697 226.531L216.697 227.953L209.416 227.953L209.416 228.813L217.15 228.813L217.15 230.281L207.416 230.281ZM229.756 216.219L229.756 221.5L231.85 221.5L231.85 223.125L229.756 223.125L229.756 230.469L227.756 230.469L227.756 216.219L229.756 216.219ZM219.1 227.016L219.1 217.531L225.772 217.531L225.772 219.141L221.084 219.141L221.084 225.375C223.147 225.359 224.85 225.25 226.741 224.922L226.959 226.594C224.748 226.969 222.811 227.023 220.303 227.016L219.1 227.016ZM233.409 229.141C232.675 229.141 232.081 228.555 232.097 227.828C232.081 227.109 232.675 226.523 233.409 226.531C234.105 226.523 234.706 227.109 234.706 227.828C234.706 228.555 234.105 229.141 233.409 229.141ZM127.793 276.352C122.204 276.352 118.196 273.275 118.09 268.828L123.434 268.828C123.522 270.727 125.368 271.975 127.829 271.992C130.36 271.975 132.17 270.568 132.153 268.512C132.17 266.438 130.325 264.979 127.336 264.961L124.981 264.961L124.981 261.059L127.336 261.059C129.85 261.059 131.608 259.688 131.59 257.684C131.608 255.732 130.114 254.396 127.864 254.414C125.614 254.396 123.768 255.662 123.68 257.613L118.618 257.613C118.705 253.236 122.643 250.195 127.864 250.195C133.172 250.195 136.705 253.342 136.688 257.367C136.705 260.215 134.719 262.236 131.871 262.746L131.871 262.957C135.616 263.414 137.672 265.682 137.637 268.863C137.672 273.223 133.541 276.352 127.793 276.352ZM148.845 250.195C154.118 250.213 159.111 253.359 159.111 262.605C159.128 271.254 155.032 276.352 148.634 276.352C143.519 276.352 140.003 273.135 139.493 268.828L144.696 268.828C145.136 270.709 146.595 271.816 148.634 271.816C152.097 271.816 153.925 268.705 153.943 263.625L153.732 263.625C152.536 265.875 150.023 267.211 147.193 267.211C142.622 267.211 139.247 263.766 139.212 259.02C139.212 253.904 143.097 250.178 148.845 250.195ZM144.38 258.879C144.38 261.393 146.226 263.344 148.845 263.344C151.429 263.344 153.415 261.287 153.415 258.844C153.38 256.418 151.482 254.361 148.88 254.344C146.279 254.361 144.345 256.348 144.38 258.879ZM162.936 276.316C161.283 276.316 159.947 274.998 159.982 273.363C159.947 271.746 161.283 270.428 162.936 270.445C164.5 270.428 165.854 271.746 165.854 273.363C165.854 274.998 164.5 276.316 162.936 276.316ZM177.026 250.195C182.3 250.213 187.292 253.359 187.292 262.605C187.309 271.254 183.214 276.352 176.815 276.352C171.7 276.352 168.184 273.135 167.675 268.828L172.878 268.828C173.317 270.709 174.776 271.816 176.815 271.816C180.278 271.816 182.106 268.705 182.124 263.625L181.913 263.625C180.718 265.875 178.204 267.211 175.374 267.211C170.804 267.211 167.429 263.766 167.393 259.02C167.393 253.904 171.278 250.178 177.026 250.195ZM172.561 258.879C172.561 261.393 174.407 263.344 177.026 263.344C179.61 263.344 181.596 261.287 181.596 258.844C181.561 256.418 179.663 254.361 177.061 254.344C174.46 254.361 172.526 256.348 172.561 258.879ZM195.757 263.273C191.943 263.273 189.886 260.496 189.886 256.488C189.886 252.463 192.048 249.668 195.757 249.668C199.572 249.668 201.611 252.463 201.629 256.488C201.611 260.531 199.519 263.273 195.757 263.273ZM193.472 256.488C193.49 258.686 194.281 260.127 195.757 260.145C197.269 260.127 198.025 258.686 198.043 256.488C198.025 254.291 197.339 252.797 195.757 252.797C194.263 252.814 193.49 254.326 193.472 256.488ZM193.543 276L211.05 250.547L214.988 250.547L197.48 276L193.543 276ZM207.078 270.059C207.078 266.033 209.24 263.256 212.914 263.238C216.763 263.256 218.802 266.033 218.82 270.059C218.802 274.102 216.711 276.844 212.914 276.844C209.134 276.844 207.078 274.066 207.078 270.059ZM210.664 270.059C210.681 272.256 211.472 273.715 212.914 273.715C214.461 273.715 215.216 272.256 215.234 270.059C215.216 267.861 214.513 266.367 212.914 266.402C211.437 266.385 210.681 267.896 210.664 270.059Z" fill="#AF8F12"/>
</g>
<g clip-path="url(#clip1_3127_59)">
<path d="M346.123 39C327.583 39 311.109 47.9261 300.334 61.8301C297.319 65.7211 290.68 65.7217 287.664 61.8308C276.888 47.9265 260.416 39 241.872 39C209.353 39 183 66.4375 183 100.203C183 133.968 203.167 164.923 229.233 190.35C250.818 211.41 281.078 231.641 290.835 237.969C292.775 239.227 295.22 239.218 297.152 237.946C306.728 231.645 336.204 211.685 358.767 190.35C387.903 162.812 405 134.074 405 100.203C405 66.3319 378.647 39 346.123 39Z" fill="#F4AFDD"/>
<path d="M219.761 111.219L219.761 118.531L217.777 118.531L217.777 117.109L215.152 117.109L215.152 118.125L208.386 118.125L208.386 111.828L210.386 111.828L210.386 113.484L213.183 113.484L213.183 111.828L215.152 111.828L215.152 113.031L217.777 113.031L217.777 111.219L219.761 111.219ZM210.292 120.594L210.292 119.062L219.761 119.062L219.761 122.859L212.308 122.859L212.308 123.719L220.183 123.719L220.183 125.281L210.308 125.281L210.308 121.406L217.777 121.406L217.777 120.594L210.292 120.594ZM210.386 116.562L213.183 116.562L213.183 115L210.386 115L210.386 116.562ZM215.152 115.609L217.777 115.609L217.777 114.516L215.152 114.516L215.152 115.609ZM233.82 122.219L233.82 123.859L220.805 123.859L220.805 122.219L226.289 122.219L226.289 120.078L222.305 120.078L222.305 115.297L230.352 115.297L230.352 113.734L222.289 113.734L222.289 112.141L232.32 112.141L232.32 116.859L224.305 116.859L224.305 118.453L232.648 118.453L232.648 120.078L228.273 120.078L228.273 122.219L233.82 122.219ZM248.314 117.578L248.314 119.156L244.189 119.156L244.189 122.187L249.736 122.187L249.736 123.812L236.72 123.812L236.72 122.187L242.205 122.187L242.205 119.156L238.252 119.156L238.252 112.219L248.205 112.219L248.205 113.812L240.252 113.812L240.252 117.578L248.314 117.578ZM256.233 111.406C259.397 111.414 261.397 112.445 261.405 114.172C261.397 115.867 259.397 116.883 256.233 116.875C253.084 116.883 251.045 115.867 251.045 114.172C251.045 112.445 253.084 111.414 256.233 111.406ZM249.748 119.203L249.748 117.609L262.717 117.609L262.717 119.203L257.217 119.203L257.217 120.437L261.17 120.437L261.17 125.281L251.248 125.281L251.248 120.437L255.233 120.437L255.233 119.203L249.748 119.203ZM253.123 114.172C253.108 114.953 254.241 115.359 256.233 115.359C258.194 115.359 259.342 114.953 259.342 114.172C259.342 113.352 258.194 112.93 256.233 112.937C254.241 112.93 253.108 113.352 253.123 114.172ZM253.217 123.687L259.217 123.687L259.217 122.016L253.217 122.016L253.217 123.687ZM274.683 111.219L274.683 125.469L272.667 125.469L272.667 111.219L274.683 111.219ZM263.198 117.281C263.191 114.18 264.777 112.219 266.964 112.219C269.105 112.219 270.698 114.18 270.698 117.281C270.698 120.406 269.105 122.359 266.964 122.359C264.777 122.359 263.191 120.406 263.198 117.281ZM265.12 117.281C265.113 119.398 265.855 120.555 266.964 120.547C268.042 120.555 268.769 119.398 268.777 117.281C268.769 115.172 268.042 114.016 266.964 114.016C265.855 114.016 265.113 115.172 265.12 117.281ZM287.161 117L287.161 118.594L284.395 118.594L284.395 120.93C285.567 120.883 286.739 120.805 287.848 120.687L288.005 122.141C284.895 122.617 281.661 122.641 278.989 122.641L278.755 121.016C279.888 121.023 281.122 121.023 282.395 120.992L282.395 118.594L279.692 118.594L279.692 112.484L287.083 112.484L287.083 114.062L281.677 114.062L281.677 117L287.161 117ZM288.661 125.469L288.661 111.219L290.645 111.219L290.645 125.469L288.661 125.469ZM297.236 115.094C297.228 117.391 298.416 119.852 300.798 120.844L299.72 122.406C298.048 121.695 296.892 120.281 296.252 118.562C295.611 120.43 294.431 121.992 292.752 122.766L291.611 121.187C293.97 120.133 295.189 117.5 295.189 115.094L295.189 114.219L292.173 114.219L292.173 112.594L300.205 112.594L300.205 114.219L297.236 114.219L297.236 115.094ZM301.611 125.437L301.611 111.219L303.627 111.219L303.627 125.437L301.611 125.437ZM311.558 111.906C313.745 111.898 315.37 113.289 315.37 115.219C315.37 117.164 313.745 118.547 311.558 118.547C309.386 118.547 307.722 117.164 307.73 115.219C307.722 113.289 309.386 111.898 311.558 111.906ZM308.917 125.062L308.917 119.609L310.855 119.609L310.855 123.437C311.644 123.383 312.386 123.266 313.12 123.031L313.402 124.578C312.206 125.008 311.058 125.062 309.698 125.062L308.917 125.062ZM309.683 115.219C309.667 116.266 310.48 116.914 311.558 116.922C312.636 116.914 313.433 116.266 313.433 115.219C313.433 114.18 312.636 113.539 311.558 113.547C310.48 113.539 309.667 114.18 309.683 115.219ZM312.917 121.094L312.917 119.625L315.542 119.625L315.542 118.625L317.48 118.625L317.48 119.625L320.073 119.625L320.073 121.094L312.917 121.094ZM313.745 123.437C313.73 122.211 314.847 121.422 316.48 121.422C318.105 121.422 319.238 122.211 319.245 123.437C319.238 124.672 318.105 125.445 316.48 125.437C314.839 125.445 313.73 124.672 313.745 123.437ZM315.511 123.437C315.503 123.867 315.917 124.078 316.48 124.078C317.05 124.078 317.456 123.867 317.464 123.437C317.456 123.031 317.05 122.805 316.48 122.797C315.917 122.805 315.503 123.031 315.511 123.437ZM316.917 118.234L316.917 111.219L318.917 111.219L318.917 114.172L320.839 114.172L320.839 115.812L318.917 115.812L318.917 118.234L316.917 118.234ZM327.148 111.422C330.422 111.422 332.313 112.281 332.32 113.844C332.313 115.43 330.422 116.281 327.148 116.281C323.867 116.281 321.961 115.43 321.961 113.844C321.961 112.281 323.867 111.422 327.148 111.422ZM320.664 118.531L320.664 116.953L333.633 116.953L333.633 118.531L320.664 118.531ZM322.164 120.812L322.164 119.359L332.055 119.359L332.055 122.984L324.133 122.984L324.133 123.844L332.43 123.844L332.43 125.344L322.18 125.344L322.18 121.594L330.086 121.594L330.086 120.812L322.164 120.812ZM324.055 113.844C324.047 114.539 325.063 114.812 327.148 114.812C329.25 114.812 330.258 114.539 330.258 113.844C330.258 113.211 329.25 112.875 327.148 112.875C325.063 112.875 324.047 113.211 324.055 113.844ZM348.564 111.234L348.564 120.672L346.58 120.672L346.58 116.609L344.064 116.609L344.064 114.984L346.58 114.984L346.58 111.234L348.564 111.234ZM336.736 118.484C339.963 117.531 341.509 115.953 341.806 113.891L337.502 113.891L337.502 112.312L343.955 112.312C343.955 116.156 341.916 118.703 337.595 120.047L336.736 118.484ZM338.236 123.812C341.259 123.375 342.752 121.711 342.767 120.094L342.767 119.594L344.736 119.594L344.736 120.094C344.736 121.711 346.236 123.336 349.236 123.797L348.439 125.375C346.205 125.008 344.595 124.008 343.744 122.625C342.877 124.008 341.252 125.016 339.017 125.391L338.236 123.812ZM363.777 111.219L363.777 114.172L365.698 114.172L365.698 115.797L363.777 115.797L363.777 118.687L361.777 118.687L361.777 111.219L363.777 111.219ZM352.433 117.344C355.948 116.766 357.472 115.352 357.675 113.75L353.136 113.75L353.136 112.187L359.917 112.187C359.909 115.937 357.597 118.125 353.277 118.937L352.433 117.344ZM354.402 125.281L354.402 119.219L363.823 119.219L363.823 120.687L356.402 120.687L356.402 121.531L363.683 121.531L363.683 122.953L356.402 122.953L356.402 123.812L364.136 123.812L364.136 125.281L354.402 125.281ZM376.742 111.219L376.742 116.5L378.836 116.5L378.836 118.125L376.742 118.125L376.742 125.469L374.742 125.469L374.742 111.219L376.742 111.219ZM366.086 122.016L366.086 112.531L372.758 112.531L372.758 114.141L368.07 114.141L368.07 120.375C370.133 120.359 371.836 120.25 373.727 119.922L373.945 121.594C371.734 121.969 369.797 122.023 367.289 122.016L366.086 122.016ZM380.395 124.141C379.661 124.141 379.067 123.555 379.083 122.828C379.067 122.109 379.661 121.523 380.395 121.531C381.091 121.523 381.692 122.109 381.692 122.828C381.692 123.555 381.091 124.141 380.395 124.141ZM270.623 138.031L270.623 155L267.084 155L267.084 141.383L266.99 141.383L263.099 143.82L263.099 140.703L267.295 138.031L270.623 138.031ZM279.946 155.234C275.692 155.234 273.126 152.07 273.126 146.516C273.126 140.973 275.716 137.797 279.946 137.797C284.177 137.797 286.766 140.973 286.766 146.516C286.766 152.094 284.188 155.234 279.946 155.234ZM276.735 146.516C276.712 150.43 277.977 152.328 279.946 152.328C281.915 152.328 283.169 150.43 283.157 146.516C283.169 142.637 281.903 140.691 279.946 140.68C277.989 140.691 276.735 142.637 276.735 146.516ZM289.363 155.211C288.262 155.211 287.371 154.332 287.395 153.242C287.371 152.164 288.262 151.285 289.363 151.297C290.406 151.285 291.309 152.164 291.309 153.242C291.309 154.332 290.406 155.211 289.363 155.211ZM292.874 155L292.851 152.445L298.945 146.844C300.527 145.332 301.382 144.395 301.382 143.047C301.382 141.535 300.245 140.598 298.687 140.609C297.093 140.598 296.05 141.605 296.062 143.234L292.71 143.234C292.698 139.918 295.159 137.797 298.734 137.797C302.366 137.797 304.78 139.871 304.78 142.812C304.78 144.746 303.843 146.328 300.351 149.492L297.773 152L297.773 152.094L305.015 152.094L305.015 155L292.874 155ZM310.776 146.516C308.233 146.516 306.862 144.664 306.862 141.992C306.862 139.309 308.303 137.445 310.776 137.445C313.319 137.445 314.678 139.309 314.69 141.992C314.678 144.687 313.284 146.516 310.776 146.516ZM309.252 141.992C309.264 143.457 309.791 144.418 310.776 144.43C311.784 144.418 312.288 143.457 312.299 141.992C312.288 140.527 311.83 139.531 310.776 139.531C309.78 139.543 309.264 140.551 309.252 141.992ZM309.299 155L320.971 138.031L323.596 138.031L311.924 155L309.299 155ZM318.323 151.039C318.323 148.355 319.764 146.504 322.213 146.492C324.78 146.504 326.139 148.355 326.151 151.039C326.139 153.734 324.745 155.562 322.213 155.562C319.694 155.562 318.323 153.711 318.323 151.039ZM320.713 151.039C320.725 152.504 321.252 153.477 322.213 153.477C323.245 153.477 323.748 152.504 323.76 151.039C323.748 149.574 323.28 148.578 322.213 148.602C321.229 148.59 320.725 149.598 320.713 151.039Z" fill="#CB198F"/>
</g>
<defs>
<clipPath id="clip0_3127_59">
<rect width="276.777" height="329.797" fill="white" transform="translate(0 138.389) rotate(-30)"/>
</clipPath>
<clipPath id="clip1_3127_59">
<rect width="222" height="200.991" fill="white" transform="translate(183 39)"/>
</clipPath>
</defs>
</svg>
