<svg width="381" height="190" viewBox="0 0 381 190" fill="none" xmlns="http://www.w3.org/2000/svg">
<g clip-path="url(#clip0_2977_1763)">
<path d="M367.373 146.047H13.6271C6.10105 146.047 0 152.148 0 159.675V176.372C0 183.899 6.10105 190 13.6271 190H367.373C374.899 190 381 183.899 381 176.372V159.675C381 152.148 374.899 146.047 367.373 146.047Z" fill="#FFECDB"/>
<path d="M335.072 12.093C335.072 5.41423 329.664 0 322.992 0C316.32 0 310.911 5.41423 310.911 12.093V154.186C310.911 160.865 316.32 166.279 322.992 166.279C329.664 166.279 335.072 160.865 335.072 154.186V12.093Z" fill="#FFECDB"/>
<path d="M345.188 80.1396H300.796C295.582 80.1396 291.354 84.3669 291.354 89.5815V133.977C291.354 139.191 295.582 143.419 300.796 143.419H345.188C350.403 143.419 354.63 139.191 354.63 133.977V89.5815C354.63 84.3669 350.403 80.1396 345.188 80.1396Z" fill="#DE1623"/>
<path d="M335.515 15.0928H310.47C299.913 15.0928 291.354 23.6514 291.354 34.2091V59.2556C291.354 69.8132 299.913 78.3718 310.47 78.3718H335.515C346.072 78.3718 354.63 69.8132 354.63 59.2556V34.2091C354.63 23.6514 346.072 15.0928 335.515 15.0928Z" fill="#0771BB"/>
<path d="M70.298 12.093C70.298 5.41423 64.8893 0 58.2174 0C51.5454 0 46.1367 5.41423 46.1367 12.093V149.349C46.1367 156.028 51.5454 161.442 58.2174 161.442C64.8893 161.442 70.298 156.028 70.298 149.349V12.093Z" fill="#FFECDB"/>
<path d="M82.1808 55.0928H32.9745C27.1437 55.0928 22.417 59.8146 22.417 65.6393C22.417 71.464 27.1437 76.1858 32.9745 76.1858H82.1808C88.0115 76.1858 92.7383 71.464 92.7383 65.6393C92.7383 59.8146 88.0115 55.0928 82.1808 55.0928Z" fill="#4CAA54"/>
<path d="M82.1808 77.5576H32.9745C27.1437 77.5576 22.417 82.2795 22.417 88.1041C22.417 93.9288 27.1437 98.6506 32.9745 98.6506H82.1808C88.0115 98.6506 92.7383 93.9288 92.7383 88.1041C92.7383 82.2795 88.0115 77.5576 82.1808 77.5576Z" fill="#FFE630"/>
<path d="M82.1808 100.046H32.9745C27.1437 100.046 22.417 104.768 22.417 110.592C22.417 116.417 27.1437 121.139 32.9745 121.139H82.1808C88.0115 121.139 92.7383 116.417 92.7383 110.592C92.7383 104.768 88.0115 100.046 82.1808 100.046Z" fill="#DE1623"/>
<path d="M82.1808 122.534H32.9745C27.1437 122.534 22.417 127.256 22.417 133.081C22.417 138.905 27.1437 143.627 32.9745 143.627H82.1808C88.0115 143.627 92.7383 138.905 92.7383 133.081C92.7383 127.256 88.0115 122.534 82.1808 122.534Z" fill="#0771BB"/>
<path d="M158.571 12.093C158.571 5.41423 153.163 0 146.491 0C139.819 0 134.41 5.41423 134.41 12.093V151.093C134.41 157.772 139.819 163.186 146.491 163.186C153.163 163.186 158.571 157.772 158.571 151.093V12.093Z" fill="#FFECDB"/>
<path d="M167.827 112.651H124.295C116.897 112.651 110.9 118.649 110.9 126.047V130.233C110.9 137.631 116.897 143.628 124.295 143.628H167.827C175.225 143.628 181.222 137.631 181.222 130.233V126.047C181.222 118.649 175.225 112.651 167.827 112.651Z" fill="#DE1623"/>
<path d="M165.734 79.3955H126.388C117.834 79.3955 110.9 86.3299 110.9 94.8839C110.9 103.438 117.834 110.372 126.388 110.372H165.734C174.288 110.372 181.222 103.438 181.222 94.8839C181.222 86.3299 174.288 79.3955 165.734 79.3955Z" fill="#0771BB"/>
<path d="M165.734 46.1396H126.388C117.834 46.1396 110.9 53.074 110.9 61.628C110.9 70.182 117.834 77.1164 126.388 77.1164H165.734C174.288 77.1164 181.222 70.182 181.222 61.628C181.222 53.074 174.288 46.1396 165.734 46.1396Z" fill="#51B056"/>
<path d="M165.734 12.8838H126.388C117.834 12.8838 110.9 19.8182 110.9 28.3722C110.9 36.9262 117.834 43.8605 126.388 43.8605H165.734C174.288 43.8605 181.222 36.9262 181.222 28.3722C181.222 19.8182 174.288 12.8838 165.734 12.8838Z" fill="#FFE630"/>
<path d="M246.822 12.093C246.822 5.41423 241.414 0 234.742 0C228.07 0 222.661 5.41423 222.661 12.093V158.581C222.661 165.26 228.07 170.674 234.742 170.674C241.414 170.674 246.822 165.26 246.822 158.581V12.093Z" fill="#FFECDB"/>
<path d="M234.521 146.07C252.964 146.07 267.915 134.95 267.915 121.233C267.915 107.516 252.964 96.3955 234.521 96.3955C216.079 96.3955 201.128 107.516 201.128 121.233C201.128 134.95 216.079 146.07 234.521 146.07Z" fill="#0771BB"/>
<path d="M234.521 56.8375C252.964 56.8375 267.915 45.7175 267.915 32.0003C267.915 18.2831 252.964 7.16309 234.521 7.16309C216.079 7.16309 201.128 18.2831 201.128 32.0003C201.128 45.7175 216.079 56.8375 234.521 56.8375Z" fill="#FFE630"/>
<path d="M256.287 55.0938H212.755C205.357 55.0938 199.36 61.0911 199.36 68.4891V86.6751C199.36 94.0732 205.357 100.07 212.755 100.07H256.287C263.685 100.07 269.682 94.0732 269.682 86.6751V68.4891C269.682 61.0911 263.685 55.0938 256.287 55.0938Z" fill="#DE1623"/>
</g>
<defs>
<clipPath id="clip0_2977_1763">
<rect width="381" height="190" fill="white"/>
</clipPath>
</defs>
</svg>
