<svg width="789" height="450" viewBox="0 0 789 450" fill="none" xmlns="http://www.w3.org/2000/svg">
<path d="M461.99 117.58H458.24V89.95H461.99V117.58ZM456.56 90.43V116.35H452.9V103.39H450.62V100.12H452.9V90.43H456.56ZM438.26 97.27V94.09H442.82V90.64H446.72V94.09H451.28V97.27H438.26ZM444.71 98.5C448.16 98.5 450.59 101.23 450.59 105.07C450.59 108.94 448.16 111.64 444.71 111.64C441.26 111.64 438.83 108.94 438.83 105.07C438.83 101.23 441.26 98.5 444.71 98.5ZM444.71 108.37C446.15 108.37 447.17 107.23 447.17 105.07C447.17 103 446.15 101.8 444.71 101.8C443.3 101.8 442.25 103 442.25 105.07C442.25 107.23 443.3 108.37 444.71 108.37ZM467.898 105.85V92.23H487.128V95.44H471.858V102.7H487.338V105.85H467.898ZM490.008 114.28H464.988V111.04H490.008V114.28ZM513.375 103.63V117.64H509.415V89.92H513.375V100.36H517.335V103.63H513.375ZM496.725 107.98C500.685 107.95 503.955 107.74 507.555 107.11L507.915 110.32C503.745 111.04 499.965 111.25 495.165 111.25H492.825V99.85H501.585V95.44H492.795V92.29H505.485V102.97H496.725V107.98ZM537.343 109.81V89.98H541.333V109.81H537.343ZM533.803 98.74C533.803 102.76 530.533 105.73 526.303 105.73C522.073 105.73 518.773 102.76 518.773 98.74C518.773 94.66 522.073 91.72 526.303 91.72C530.533 91.72 533.803 94.66 533.803 98.74ZM522.643 98.74C522.643 101.02 524.263 102.31 526.303 102.31C528.373 102.31 529.933 101.02 529.933 98.74C529.933 96.46 528.373 95.14 526.303 95.14C524.263 95.14 522.643 96.46 522.643 98.74ZM542.023 117.1H522.943V107.86H526.903V113.95H542.023V117.1ZM561.928 111.67H565.798V115H553.438V111.67H557.818V99.46L557.938 97.51L554.278 100.84L551.908 98.14L558.388 92.56H561.928V111.67Z" fill="white"/>
<path d="M473.294 26.058C466.072 25.138 460.874 22.286 458.114 18.238C455.354 22.286 450.34 25.138 442.934 26.058L440.818 21.412C450.386 20.308 454.986 15.662 454.986 11.384V10.142H461.242V11.384C461.242 15.662 465.934 20.308 475.364 21.412L473.294 26.058ZM477.296 33.004H461.058V37.052H454.986V33.004H438.978V28.174H477.296V33.004ZM461.15 39.536C461.15 42.986 465.244 46.528 474.628 47.264L472.65 51.818C465.428 51.128 460.552 48.782 457.976 45.47C455.4 48.782 450.616 51.22 443.394 51.818L441.416 47.264C450.662 46.528 454.894 42.664 454.894 39.49V38.708H461.15V39.536ZM513.08 30.75V51.956H507.008V9.59H513.08V25.736H519.244V30.75H513.08ZM495.462 20.998C495.462 27.438 498.82 34.982 505.766 38.156L502.408 42.94C497.624 40.778 494.404 36.546 492.518 31.532C490.632 37.098 487.228 41.652 482.398 43.998L478.994 39.168C485.94 35.994 489.39 27.99 489.39 20.998V18.652H480.604V13.638H503.88V18.652H495.462V20.998Z" fill="white"/>
<path d="M616.656 94.76C620.016 94.832 622.248 96.92 622.176 99.584C622.176 101.624 621 102.824 619.488 103.568C621.6 104.36 622.488 105.728 622.488 107.84C622.416 111.512 619.488 113.456 616.128 113.456C612.48 113.456 610.68 111.632 609.72 108.488L612.648 107.336C613.032 108.872 614.376 110.576 616.08 110.576C618.192 110.576 619.224 109.256 619.224 107.912C619.224 106.232 618.768 105.08 615.024 105.08V102.68C618.192 102.608 618.936 101.6 618.936 100.064C618.96 98.408 618.024 97.592 616.464 97.592C614.424 97.592 613.728 98.936 613.416 100.664C612.384 100.496 611.352 100.28 610.296 100.112C610.992 96.44 613.272 94.76 616.656 94.76ZM636.377 104.096C636.377 110.432 633.521 113.336 629.681 113.336C625.937 113.336 623.057 110.432 623.057 104.096C623.057 97.712 625.937 94.832 629.681 94.832C633.521 94.832 636.377 97.712 636.377 104.096ZM633.017 104.096C633.017 98.984 631.433 97.592 629.681 97.592C628.025 97.592 626.417 98.984 626.417 104.096C626.417 109.184 628.025 110.552 629.681 110.552C631.433 110.552 633.017 109.184 633.017 104.096Z" fill="white"/>
<path d="M623.136 32.944V35.656H620.88V40H617.976V35.656H609.48V32.968C612.288 29.296 614.976 25.552 617.784 21.88H620.88V32.944H623.136ZM617.976 27.4C617.976 27.184 618 26.536 618.024 25.888L612.744 32.992H617.976V27.4ZM630.785 28.84C633.569 28.84 636.185 30.64 636.185 34.312C636.185 37.696 633.593 40.456 629.729 40.456C625.841 40.456 623.417 37.864 623.417 34C623.417 32.368 624.185 30.52 625.553 28.6L630.425 22.024H634.457C632.633 24.256 630.929 26.44 629.177 28.672L628.577 29.248L628.841 29.128C629.393 28.936 630.041 28.84 630.785 28.84ZM626.585 34.48C626.585 36.52 627.833 37.744 629.681 37.744C631.505 37.744 632.969 36.448 632.969 34.504C632.969 32.392 631.649 31.336 629.705 31.336C627.785 31.336 626.585 32.56 626.585 34.48Z" fill="white"/>
<path d="M675.134 110.336H678.23V113H668.342V110.336H671.846V100.568L671.942 99.008L669.014 101.672L667.118 99.512L672.302 95.048H675.134V110.336ZM686.575 94.76C689.935 94.832 692.167 96.92 692.095 99.584C692.095 101.624 690.919 102.824 689.407 103.568C691.519 104.36 692.407 105.728 692.407 107.84C692.335 111.512 689.407 113.456 686.047 113.456C682.399 113.456 680.599 111.632 679.639 108.488L682.567 107.336C682.951 108.872 684.295 110.576 685.999 110.576C688.111 110.576 689.143 109.256 689.143 107.912C689.143 106.232 688.687 105.08 684.943 105.08V102.68C688.111 102.608 688.855 101.6 688.855 100.064C688.879 98.408 687.943 97.592 686.383 97.592C684.343 97.592 683.647 98.936 683.335 100.664C682.303 100.496 681.271 100.28 680.215 100.112C680.911 96.44 683.191 94.76 686.575 94.76ZM706.295 104.096C706.295 110.432 703.439 113.336 699.599 113.336C695.855 113.336 692.975 110.432 692.975 104.096C692.975 97.712 695.855 94.832 699.599 94.832C703.439 94.832 706.295 97.712 706.295 104.096ZM702.935 104.096C702.935 98.984 701.351 97.592 699.599 97.592C697.943 97.592 696.335 98.984 696.335 104.096C696.335 109.184 697.943 110.552 699.599 110.552C701.351 110.552 702.935 109.184 702.935 104.096ZM706.984 99.344C706.984 96.56 708.76 95 711.28 95C713.776 95 715.672 96.416 715.672 99.176V99.488C715.672 102.296 713.776 103.808 711.28 103.808C708.76 103.808 706.984 102.344 706.984 99.56V99.344ZM723.88 95.12L712.36 113H709.408L721.048 95.12H723.88ZM713.008 99.224C713.008 97.496 712.432 96.848 711.352 96.848C710.176 96.848 709.552 97.496 709.552 99.128L709.528 99.536C709.528 101.264 710.056 101.912 711.28 101.912C712.504 101.912 712.984 101.264 712.984 99.536L713.008 99.224ZM718.12 108.2C718.12 105.392 719.872 103.88 722.392 103.88C724.864 103.88 726.76 105.272 726.76 108.032V108.344C726.76 111.128 724.864 112.64 722.392 112.64C719.872 112.64 718.12 111.2 718.12 108.416V108.2ZM724.12 108.08C724.12 106.352 723.544 105.728 722.464 105.728C721.288 105.728 720.664 106.352 720.664 107.984L720.64 108.392C720.64 110.12 721.168 110.744 722.392 110.744C723.616 110.744 724.096 110.12 724.096 108.392L724.12 108.08Z" fill="white"/>
<path d="M675.134 37.336H678.23V40H668.342V37.336H671.846V27.568L671.942 26.008L669.014 28.672L667.118 26.512L672.302 22.048H675.134V37.336ZM692.719 31.096C692.719 37.432 689.863 40.336 686.023 40.336C682.279 40.336 679.399 37.432 679.399 31.096C679.399 24.712 682.279 21.832 686.023 21.832C689.863 21.832 692.719 24.712 692.719 31.096ZM689.359 31.096C689.359 25.984 687.775 24.592 686.023 24.592C684.367 24.592 682.759 25.984 682.759 31.096C682.759 36.184 684.367 37.552 686.023 37.552C687.775 37.552 689.359 36.184 689.359 31.096ZM706.295 31.096C706.295 37.432 703.439 40.336 699.599 40.336C695.855 40.336 692.975 37.432 692.975 31.096C692.975 24.712 695.855 21.832 699.599 21.832C703.439 21.832 706.295 24.712 706.295 31.096ZM702.935 31.096C702.935 25.984 701.351 24.592 699.599 24.592C697.943 24.592 696.335 25.984 696.335 31.096C696.335 36.184 697.943 37.552 699.599 37.552C701.351 37.552 702.935 36.184 702.935 31.096ZM706.984 26.344C706.984 23.56 708.76 22 711.28 22C713.776 22 715.672 23.416 715.672 26.176V26.488C715.672 29.296 713.776 30.808 711.28 30.808C708.76 30.808 706.984 29.344 706.984 26.56V26.344ZM723.88 22.12L712.36 40H709.408L721.048 22.12H723.88ZM713.008 26.224C713.008 24.496 712.432 23.848 711.352 23.848C710.176 23.848 709.552 24.496 709.552 26.128L709.528 26.536C709.528 28.264 710.056 28.912 711.28 28.912C712.504 28.912 712.984 28.264 712.984 26.536L713.008 26.224ZM718.12 35.2C718.12 32.392 719.872 30.88 722.392 30.88C724.864 30.88 726.76 32.272 726.76 35.032V35.344C726.76 38.128 724.864 39.64 722.392 39.64C719.872 39.64 718.12 38.2 718.12 35.416V35.2ZM724.12 35.08C724.12 33.352 723.544 32.728 722.464 32.728C721.288 32.728 720.664 33.352 720.664 34.984L720.64 35.392C720.64 37.12 721.168 37.744 722.392 37.744C723.616 37.744 724.096 37.12 724.096 35.392L724.12 35.08Z" fill="white"/>
<path d="M753.049 102.776V105.296H744.529V102.776H753.049ZM767.62 105.944V108.656H765.364V113H762.46V108.656H753.964V105.968C756.772 102.296 759.46 98.552 762.268 94.88H765.364V105.944H767.62ZM762.46 100.4C762.46 100.184 762.484 99.536 762.508 98.888L757.228 105.992H762.46V100.4ZM767.973 99.344C767.973 96.56 769.749 95 772.269 95C774.765 95 776.661 96.416 776.661 99.176V99.488C776.661 102.296 774.765 103.808 772.269 103.808C769.749 103.808 767.973 102.344 767.973 99.56V99.344ZM784.869 95.12L773.349 113H770.397L782.037 95.12H784.869ZM773.997 99.224C773.997 97.496 773.421 96.848 772.341 96.848C771.165 96.848 770.541 97.496 770.541 99.128L770.517 99.536C770.517 101.264 771.045 101.912 772.269 101.912C773.493 101.912 773.973 101.264 773.973 99.536L773.997 99.224ZM779.109 108.2C779.109 105.392 780.861 103.88 783.381 103.88C785.853 103.88 787.749 105.272 787.749 108.032V108.344C787.749 111.128 785.853 112.64 783.381 112.64C780.861 112.64 779.109 111.2 779.109 108.416V108.2ZM785.109 108.08C785.109 106.352 784.533 105.728 783.453 105.728C782.277 105.728 781.653 106.352 781.653 107.984L781.629 108.392C781.629 110.12 782.157 110.744 783.381 110.744C784.605 110.744 785.085 110.12 785.085 108.392L785.109 108.08Z" fill="white"/>
<path d="M753.049 29.776V32.296H744.529V29.776H753.049ZM767.62 32.944V35.656H765.364V40H762.46V35.656H753.964V32.968C756.772 29.296 759.46 25.552 762.268 21.88H765.364V32.944H767.62ZM762.46 27.4C762.46 27.184 762.484 26.536 762.508 25.888L757.228 32.992H762.46V27.4ZM767.973 26.344C767.973 23.56 769.749 22 772.269 22C774.765 22 776.661 23.416 776.661 26.176V26.488C776.661 29.296 774.765 30.808 772.269 30.808C769.749 30.808 767.973 29.344 767.973 26.56V26.344ZM784.869 22.12L773.349 40H770.397L782.037 22.12H784.869ZM773.997 26.224C773.997 24.496 773.421 23.848 772.341 23.848C771.165 23.848 770.541 24.496 770.541 26.128L770.517 26.536C770.517 28.264 771.045 28.912 772.269 28.912C773.493 28.912 773.973 28.264 773.973 26.536L773.997 26.224ZM779.109 35.2C779.109 32.392 780.861 30.88 783.381 30.88C785.853 30.88 787.749 32.272 787.749 35.032V35.344C787.749 38.128 785.853 39.64 783.381 39.64C780.861 39.64 779.109 38.2 779.109 35.416V35.2ZM785.109 35.08C785.109 33.352 784.533 32.728 783.453 32.728C782.277 32.728 781.653 33.352 781.653 34.984L781.629 35.392C781.629 37.12 782.157 37.744 783.381 37.744C784.605 37.744 785.085 37.12 785.085 35.392L785.109 35.08Z" fill="white"/>
<path d="M616.536 152.76C619.872 152.76 622.2 154.896 622.2 157.968C622.128 160.488 620.352 162.576 618.576 164.424L614.856 168.168C615.504 168 616.08 167.976 616.632 167.976H622.392V171H609.888V169.08L615.912 163.152C617.736 161.328 618.864 159.888 618.864 158.04C618.864 156.384 617.88 155.52 616.32 155.52C614.976 155.52 614.016 156.432 613.632 157.488C613.512 157.848 613.464 158.208 613.44 158.688L610.296 158.16C610.872 154.488 613.248 152.76 616.536 152.76ZM636.713 163.944V166.656H634.457V171H631.553V166.656H623.057V163.968C625.865 160.296 628.553 156.552 631.361 152.88H634.457V163.944H636.713ZM631.553 158.4C631.553 158.184 631.577 157.536 631.601 156.888L626.321 163.992H631.553V158.4Z" fill="white"/>
<path d="M675.134 168.336H678.23V171H668.342V168.336H671.846V158.568L671.942 157.008L669.014 159.672L667.118 157.512L672.302 153.048H675.134V168.336ZM686.575 152.76C689.935 152.832 692.167 154.92 692.095 157.584C692.095 159.624 690.919 160.824 689.407 161.568C691.519 162.36 692.407 163.728 692.407 165.84C692.335 169.512 689.407 171.456 686.047 171.456C682.399 171.456 680.599 169.632 679.639 166.488L682.567 165.336C682.951 166.872 684.295 168.576 685.999 168.576C688.111 168.576 689.143 167.256 689.143 165.912C689.143 164.232 688.687 163.08 684.943 163.08V160.68C688.111 160.608 688.855 159.6 688.855 158.064C688.879 156.408 687.943 155.592 686.383 155.592C684.343 155.592 683.647 156.936 683.335 158.664C682.303 158.496 681.271 158.28 680.215 158.112C680.911 154.44 683.191 152.76 686.575 152.76ZM698.399 156L697.799 159.504C698.543 159.384 699.215 159.336 699.863 159.336C703.703 159.336 705.767 161.784 705.767 164.952C705.767 168.816 702.839 171.432 698.975 171.432C696.767 171.432 694.799 170.424 693.575 169.272L695.255 166.824C696.383 167.76 697.631 168.576 699.167 168.576C701.375 168.576 702.551 167.208 702.551 165.096C702.551 163.176 701.423 162 699.215 162.072C698.327 162.144 697.463 162.312 696.599 162.624L694.583 162.024C695.327 157.416 695.807 154.584 696.071 153.048H705.143V156H698.399ZM706.984 157.344C706.984 154.56 708.76 153 711.28 153C713.776 153 715.672 154.416 715.672 157.176V157.488C715.672 160.296 713.776 161.808 711.28 161.808C708.76 161.808 706.984 160.344 706.984 157.56V157.344ZM723.88 153.12L712.36 171H709.408L721.048 153.12H723.88ZM713.008 157.224C713.008 155.496 712.432 154.848 711.352 154.848C710.176 154.848 709.552 155.496 709.552 157.128L709.528 157.536C709.528 159.264 710.056 159.912 711.28 159.912C712.504 159.912 712.984 159.264 712.984 157.536L713.008 157.224ZM718.12 166.2C718.12 163.392 719.872 161.88 722.392 161.88C724.864 161.88 726.76 163.272 726.76 166.032V166.344C726.76 169.128 724.864 170.64 722.392 170.64C719.872 170.64 718.12 169.2 718.12 166.416V166.2ZM724.12 166.08C724.12 164.352 723.544 163.728 722.464 163.728C721.288 163.728 720.664 164.352 720.664 165.984L720.64 166.392C720.64 168.12 721.168 168.744 722.392 168.744C723.616 168.744 724.096 168.12 724.096 166.392L724.12 166.08Z" fill="white"/>
<path d="M753.049 160.776V163.296H744.529V160.776H753.049ZM761.692 159.84C764.476 159.84 767.092 161.64 767.092 165.312C767.092 168.696 764.5 171.456 760.636 171.456C756.748 171.456 754.324 168.864 754.324 165C754.324 163.368 755.092 161.52 756.46 159.6L761.332 153.024H765.364C763.54 155.256 761.836 157.44 760.084 159.672L759.484 160.248L759.748 160.128C760.3 159.936 760.948 159.84 761.692 159.84ZM757.492 165.48C757.492 167.52 758.74 168.744 760.588 168.744C762.412 168.744 763.876 167.448 763.876 165.504C763.876 163.392 762.556 162.336 760.612 162.336C758.692 162.336 757.492 163.56 757.492 165.48ZM767.973 157.344C767.973 154.56 769.749 153 772.269 153C774.765 153 776.661 154.416 776.661 157.176V157.488C776.661 160.296 774.765 161.808 772.269 161.808C769.749 161.808 767.973 160.344 767.973 157.56V157.344ZM784.869 153.12L773.349 171H770.397L782.037 153.12H784.869ZM773.997 157.224C773.997 155.496 773.421 154.848 772.341 154.848C771.165 154.848 770.541 155.496 770.541 157.128L770.517 157.536C770.517 159.264 771.045 159.912 772.269 159.912C773.493 159.912 773.973 159.264 773.973 157.536L773.997 157.224ZM779.109 166.2C779.109 163.392 780.861 161.88 783.381 161.88C785.853 161.88 787.749 163.272 787.749 166.032V166.344C787.749 169.128 785.853 170.64 783.381 170.64C780.861 170.64 779.109 169.2 779.109 166.416V166.2ZM785.109 166.08C785.109 164.352 784.533 163.728 783.453 163.728C782.277 163.728 781.653 164.352 781.653 165.984L781.629 166.392C781.629 168.12 782.157 168.744 783.381 168.744C784.605 168.744 785.085 168.12 785.085 166.392L785.109 166.08Z" fill="white"/>
<path d="M456.992 173.064H453.992V150.96H456.992V173.064ZM452.648 151.344V172.08H449.72V161.712H447.896V159.096H449.72V151.344H452.648ZM438.008 156.816V154.272H441.656V151.512H444.776V154.272H448.424V156.816H438.008ZM443.168 157.8C445.928 157.8 447.872 159.984 447.872 163.056C447.872 166.152 445.928 168.312 443.168 168.312C440.408 168.312 438.464 166.152 438.464 163.056C438.464 159.984 440.408 157.8 443.168 157.8ZM443.168 165.696C444.32 165.696 445.136 164.784 445.136 163.056C445.136 161.4 444.32 160.44 443.168 160.44C442.04 160.44 441.2 161.4 441.2 163.056C441.2 164.784 442.04 165.696 443.168 165.696ZM461.718 163.68V152.784H477.102V155.352H464.886V161.16H477.27V163.68H461.718ZM479.406 170.424H459.39V167.832H479.406V170.424ZM498.1 161.904V173.112H494.932V150.936H498.1V159.288H501.268V161.904H498.1ZM484.78 165.384C487.948 165.36 490.564 165.192 493.444 164.688L493.732 167.256C490.396 167.832 487.372 168 483.532 168H481.66V158.88H488.668V155.352H481.636V152.832H491.788V161.376H484.78V165.384ZM517.274 166.848V150.984H520.466V166.848H517.274ZM514.442 157.992C514.442 161.208 511.826 163.584 508.442 163.584C505.058 163.584 502.418 161.208 502.418 157.992C502.418 154.728 505.058 152.376 508.442 152.376C511.826 152.376 514.442 154.728 514.442 157.992ZM505.514 157.992C505.514 159.816 506.81 160.848 508.442 160.848C510.098 160.848 511.346 159.816 511.346 157.992C511.346 156.168 510.098 155.112 508.442 155.112C506.81 155.112 505.514 156.168 505.514 157.992ZM521.018 172.68H505.754V165.288H508.922V170.16H521.018V172.68ZM534.686 152.76C538.022 152.76 540.35 154.896 540.35 157.968C540.278 160.488 538.502 162.576 536.726 164.424L533.006 168.168C533.654 168 534.23 167.976 534.782 167.976H540.542V171H528.038V169.08L534.062 163.152C535.886 161.328 537.014 159.888 537.014 158.04C537.014 156.384 536.03 155.52 534.47 155.52C533.126 155.52 532.166 156.432 531.782 157.488C531.662 157.848 531.614 158.208 531.59 158.688L528.446 158.16C529.022 154.488 531.398 152.76 534.686 152.76Z" fill="white"/>
<path d="M616.536 206.76C619.872 206.76 622.2 208.896 622.2 211.968C622.128 214.488 620.352 216.576 618.576 218.424L614.856 222.168C615.504 222 616.08 221.976 616.632 221.976H622.392V225H609.888V223.08L615.912 217.152C617.736 215.328 618.864 213.888 618.864 212.04C618.864 210.384 617.88 209.52 616.32 209.52C614.976 209.52 614.016 210.432 613.632 211.488C613.512 211.848 613.464 212.208 613.44 212.688L610.296 212.16C610.872 208.488 613.248 206.76 616.536 206.76ZM636.377 216.096C636.377 222.432 633.521 225.336 629.681 225.336C625.937 225.336 623.057 222.432 623.057 216.096C623.057 209.712 625.937 206.832 629.681 206.832C633.521 206.832 636.377 209.712 636.377 216.096ZM633.017 216.096C633.017 210.984 631.433 209.592 629.681 209.592C628.025 209.592 626.417 210.984 626.417 216.096C626.417 221.184 628.025 222.552 629.681 222.552C631.433 222.552 633.017 221.184 633.017 216.096Z" fill="white"/>
<path d="M618.792 276.336H621.888V279H612V276.336H615.504V266.568L615.6 265.008L612.672 267.672L610.776 265.512L615.96 261.048H618.792V276.336ZM629.777 279.456C626.033 279.456 623.417 277.44 623.417 274.104C623.417 272.064 624.329 270.48 626.441 269.64C624.905 268.8 624.041 267.408 624.041 265.68C624.041 262.728 626.441 260.736 629.777 260.736C633.161 260.736 635.585 262.728 635.585 265.68C635.585 267.408 634.697 268.848 633.137 269.64C635.249 270.48 636.161 272.064 636.161 274.104C636.161 277.44 633.545 279.456 629.777 279.456ZM629.777 268.464C631.649 268.464 632.393 266.976 632.393 265.728C632.393 264.36 631.505 263.28 629.777 263.28C628.049 263.28 627.209 264.36 627.209 265.728C627.209 266.976 627.929 268.464 629.777 268.464ZM629.777 276.816C631.697 276.816 632.873 275.712 632.873 274.056C632.873 272.136 631.625 271.056 629.777 271.056C627.929 271.056 626.753 272.136 626.753 274.056C626.753 275.712 627.857 276.816 629.777 276.816Z" fill="white"/>
<path d="M675.134 222.336H678.23V225H668.342V222.336H671.846V212.568L671.942 211.008L669.014 213.672L667.118 211.512L672.302 207.048H675.134V222.336ZM692.719 216.096C692.719 222.432 689.863 225.336 686.023 225.336C682.279 225.336 679.399 222.432 679.399 216.096C679.399 209.712 682.279 206.832 686.023 206.832C689.863 206.832 692.719 209.712 692.719 216.096ZM689.359 216.096C689.359 210.984 687.775 209.592 686.023 209.592C684.367 209.592 682.759 210.984 682.759 216.096C682.759 221.184 684.367 222.552 686.023 222.552C687.775 222.552 689.359 221.184 689.359 216.096ZM706.295 216.096C706.295 222.432 703.439 225.336 699.599 225.336C695.855 225.336 692.975 222.432 692.975 216.096C692.975 209.712 695.855 206.832 699.599 206.832C703.439 206.832 706.295 209.712 706.295 216.096ZM702.935 216.096C702.935 210.984 701.351 209.592 699.599 209.592C697.943 209.592 696.335 210.984 696.335 216.096C696.335 221.184 697.943 222.552 699.599 222.552C701.351 222.552 702.935 221.184 702.935 216.096ZM706.984 211.344C706.984 208.56 708.76 207 711.28 207C713.776 207 715.672 208.416 715.672 211.176V211.488C715.672 214.296 713.776 215.808 711.28 215.808C708.76 215.808 706.984 214.344 706.984 211.56V211.344ZM723.88 207.12L712.36 225H709.408L721.048 207.12H723.88ZM713.008 211.224C713.008 209.496 712.432 208.848 711.352 208.848C710.176 208.848 709.552 209.496 709.552 211.128L709.528 211.536C709.528 213.264 710.056 213.912 711.28 213.912C712.504 213.912 712.984 213.264 712.984 211.536L713.008 211.224ZM718.12 220.2C718.12 217.392 719.872 215.88 722.392 215.88C724.864 215.88 726.76 217.272 726.76 220.032V220.344C726.76 223.128 724.864 224.64 722.392 224.64C719.872 224.64 718.12 223.2 718.12 220.416V220.2ZM724.12 220.08C724.12 218.352 723.544 217.728 722.464 217.728C721.288 217.728 720.664 218.352 720.664 219.984L720.64 220.392C720.64 222.12 721.168 222.744 722.392 222.744C723.616 222.744 724.096 222.12 724.096 220.392L724.12 220.08Z" fill="white"/>
<path d="M675.134 276.336H678.23V279H668.342V276.336H671.846V266.568L671.942 265.008L669.014 267.672L667.118 265.512L672.302 261.048H675.134V276.336ZM692.719 270.096C692.719 276.432 689.863 279.336 686.023 279.336C682.279 279.336 679.399 276.432 679.399 270.096C679.399 263.712 682.279 260.832 686.023 260.832C689.863 260.832 692.719 263.712 692.719 270.096ZM689.359 270.096C689.359 264.984 687.775 263.592 686.023 263.592C684.367 263.592 682.759 264.984 682.759 270.096C682.759 275.184 684.367 276.552 686.023 276.552C687.775 276.552 689.359 275.184 689.359 270.096ZM706.295 270.096C706.295 276.432 703.439 279.336 699.599 279.336C695.855 279.336 692.975 276.432 692.975 270.096C692.975 263.712 695.855 260.832 699.599 260.832C703.439 260.832 706.295 263.712 706.295 270.096ZM702.935 270.096C702.935 264.984 701.351 263.592 699.599 263.592C697.943 263.592 696.335 264.984 696.335 270.096C696.335 275.184 697.943 276.552 699.599 276.552C701.351 276.552 702.935 275.184 702.935 270.096ZM706.984 265.344C706.984 262.56 708.76 261 711.28 261C713.776 261 715.672 262.416 715.672 265.176V265.488C715.672 268.296 713.776 269.808 711.28 269.808C708.76 269.808 706.984 268.344 706.984 265.56V265.344ZM723.88 261.12L712.36 279H709.408L721.048 261.12H723.88ZM713.008 265.224C713.008 263.496 712.432 262.848 711.352 262.848C710.176 262.848 709.552 263.496 709.552 265.128L709.528 265.536C709.528 267.264 710.056 267.912 711.28 267.912C712.504 267.912 712.984 267.264 712.984 265.536L713.008 265.224ZM718.12 274.2C718.12 271.392 719.872 269.88 722.392 269.88C724.864 269.88 726.76 271.272 726.76 274.032V274.344C726.76 277.128 724.864 278.64 722.392 278.64C719.872 278.64 718.12 277.2 718.12 274.416V274.2ZM724.12 274.08C724.12 272.352 723.544 271.728 722.464 271.728C721.288 271.728 720.664 272.352 720.664 273.984L720.64 274.392C720.64 276.12 721.168 276.744 722.392 276.744C723.616 276.744 724.096 276.12 724.096 274.392L724.12 274.08Z" fill="white"/>
<path d="M753.049 214.776V217.296H744.529V214.776H753.049ZM761.692 213.84C764.476 213.84 767.092 215.64 767.092 219.312C767.092 222.696 764.5 225.456 760.636 225.456C756.748 225.456 754.324 222.864 754.324 219C754.324 217.368 755.092 215.52 756.46 213.6L761.332 207.024H765.364C763.54 209.256 761.836 211.44 760.084 213.672L759.484 214.248L759.748 214.128C760.3 213.936 760.948 213.84 761.692 213.84ZM757.492 219.48C757.492 221.52 758.74 222.744 760.588 222.744C762.412 222.744 763.876 221.448 763.876 219.504C763.876 217.392 762.556 216.336 760.612 216.336C758.692 216.336 757.492 217.56 757.492 219.48ZM767.973 211.344C767.973 208.56 769.749 207 772.269 207C774.765 207 776.661 208.416 776.661 211.176V211.488C776.661 214.296 774.765 215.808 772.269 215.808C769.749 215.808 767.973 214.344 767.973 211.56V211.344ZM784.869 207.12L773.349 225H770.397L782.037 207.12H784.869ZM773.997 211.224C773.997 209.496 773.421 208.848 772.341 208.848C771.165 208.848 770.541 209.496 770.541 211.128L770.517 211.536C770.517 213.264 771.045 213.912 772.269 213.912C773.493 213.912 773.973 213.264 773.973 211.536L773.997 211.224ZM779.109 220.2C779.109 217.392 780.861 215.88 783.381 215.88C785.853 215.88 787.749 217.272 787.749 220.032V220.344C787.749 223.128 785.853 224.64 783.381 224.64C780.861 224.64 779.109 223.2 779.109 220.416V220.2ZM785.109 220.08C785.109 218.352 784.533 217.728 783.453 217.728C782.277 217.728 781.653 218.352 781.653 219.984L781.629 220.392C781.629 222.12 782.157 222.744 783.381 222.744C784.605 222.744 785.085 222.12 785.085 220.392L785.109 220.08Z" fill="white"/>
<path d="M753.049 268.776V271.296H744.529V268.776H753.049ZM761.692 267.84C764.476 267.84 767.092 269.64 767.092 273.312C767.092 276.696 764.5 279.456 760.636 279.456C756.748 279.456 754.324 276.864 754.324 273C754.324 271.368 755.092 269.52 756.46 267.6L761.332 261.024H765.364C763.54 263.256 761.836 265.44 760.084 267.672L759.484 268.248L759.748 268.128C760.3 267.936 760.948 267.84 761.692 267.84ZM757.492 273.48C757.492 275.52 758.74 276.744 760.588 276.744C762.412 276.744 763.876 275.448 763.876 273.504C763.876 271.392 762.556 270.336 760.612 270.336C758.692 270.336 757.492 271.56 757.492 273.48ZM767.973 265.344C767.973 262.56 769.749 261 772.269 261C774.765 261 776.661 262.416 776.661 265.176V265.488C776.661 268.296 774.765 269.808 772.269 269.808C769.749 269.808 767.973 268.344 767.973 265.56V265.344ZM784.869 261.12L773.349 279H770.397L782.037 261.12H784.869ZM773.997 265.224C773.997 263.496 773.421 262.848 772.341 262.848C771.165 262.848 770.541 263.496 770.541 265.128L770.517 265.536C770.517 267.264 771.045 267.912 772.269 267.912C773.493 267.912 773.973 267.264 773.973 265.536L773.997 265.224ZM779.109 274.2C779.109 271.392 780.861 269.88 783.381 269.88C785.853 269.88 787.749 271.272 787.749 274.032V274.344C787.749 277.128 785.853 278.64 783.381 278.64C780.861 278.64 779.109 277.2 779.109 274.416V274.2ZM785.109 274.08C785.109 272.352 784.533 271.728 783.453 271.728C782.277 271.728 781.653 272.352 781.653 273.984L781.629 274.392C781.629 276.12 782.157 276.744 783.381 276.744C784.605 276.744 785.085 276.12 785.085 274.392L785.109 274.08Z" fill="white"/>
<path d="M452.28 216.46V225.74H449.64V207.3H452.28V214.28H454.96V216.46H452.28ZM441.22 219.44C443.8 219.44 445.94 219.34 448.34 218.96L448.58 221.06C445.76 221.48 443.34 221.56 440.14 221.56H438.58V208.82H447.24V210.96H441.22V213.96H446.98V216.02H441.22V219.44ZM470.918 225.76H468.278V207.28H470.918V225.76ZM461.018 208.58C463.798 208.58 465.858 211.1 465.858 215.14C465.858 219.2 463.798 221.74 461.018 221.74C458.238 221.74 456.178 219.2 456.178 215.14C456.178 211.1 458.238 208.58 461.018 208.58ZM461.018 210.96C459.658 210.96 458.718 212.4 458.718 215.14C458.718 217.88 459.658 219.34 461.018 219.34C462.378 219.34 463.318 217.88 463.318 215.14C463.318 212.4 462.378 210.96 461.018 210.96ZM474.917 209.76V207.8H488.617V209.76H486.277V212.12H488.477V214.08H475.037V212.12H477.257V209.76H474.917ZM479.877 209.76V212.12H483.657V209.76H479.877ZM490.097 217.1H473.457V215.02H490.097V217.1ZM488.557 223.68V225.58H475.377V220.92H485.477V220.02H475.357V218.12H488.077V222.68H477.997V223.68H488.557ZM502.487 221.78H505.067V224H496.827V221.78H499.747V213.64L499.827 212.34L497.387 214.56L495.807 212.76L500.127 209.04H502.487V221.78Z" fill="white"/>
<path d="M450.752 271.214V279.566H448.376V262.97H450.752V269.252H453.164V271.214H450.752ZM440.798 273.896C443.12 273.896 445.046 273.806 447.206 273.464L447.422 275.354C444.884 275.732 442.706 275.804 439.826 275.804H438.422V264.338H446.216V266.264H440.798V268.964H445.982V270.818H440.798V273.896ZM467.527 279.584H465.151V262.952H467.527V279.584ZM458.617 264.122C461.119 264.122 462.973 266.39 462.973 270.026C462.973 273.68 461.119 275.966 458.617 275.966C456.115 275.966 454.261 273.68 454.261 270.026C454.261 266.39 456.115 264.122 458.617 264.122ZM458.617 266.264C457.393 266.264 456.547 267.56 456.547 270.026C456.547 272.492 457.393 273.806 458.617 273.806C459.841 273.806 460.687 272.492 460.687 270.026C460.687 267.56 459.841 266.264 458.617 266.264ZM471.125 265.184V263.42H483.455V265.184H481.349V267.308H483.329V269.072H471.233V267.308H473.231V265.184H471.125ZM475.589 265.184V267.308H478.991V265.184H475.589ZM484.787 271.79H469.811V269.918H484.787V271.79ZM483.401 277.712V279.422H471.539V275.228H480.629V274.418H471.521V272.708H482.969V276.812H473.897V277.712H483.401ZM494.246 264.32C496.748 264.32 498.494 265.922 498.494 268.226C498.44 270.116 497.108 271.682 495.776 273.068L492.986 275.876C493.472 275.75 493.904 275.732 494.318 275.732H498.638V278H489.26V276.56L493.778 272.114C495.146 270.746 495.992 269.666 495.992 268.28C495.992 267.038 495.254 266.39 494.084 266.39C493.076 266.39 492.356 267.074 492.068 267.866C491.978 268.136 491.942 268.406 491.924 268.766L489.566 268.37C489.998 265.616 491.78 264.32 494.246 264.32Z" fill="white"/>
<path d="M618.792 330.336H621.888V333H612V330.336H615.504V320.568L615.6 319.008L612.672 321.672L610.776 319.512L615.96 315.048H618.792V330.336ZM630.785 321.84C633.569 321.84 636.185 323.64 636.185 327.312C636.185 330.696 633.593 333.456 629.729 333.456C625.841 333.456 623.417 330.864 623.417 327C623.417 325.368 624.185 323.52 625.553 321.6L630.425 315.024H634.457C632.633 317.256 630.929 319.44 629.177 321.672L628.577 322.248L628.841 322.128C629.393 321.936 630.041 321.84 630.785 321.84ZM626.585 327.48C626.585 329.52 627.833 330.744 629.681 330.744C631.505 330.744 632.969 329.448 632.969 327.504C632.969 325.392 631.649 324.336 629.705 324.336C627.785 324.336 626.585 325.56 626.585 327.48Z" fill="white"/>
<path d="M675.134 330.336H678.23V333H668.342V330.336H671.846V320.568L671.942 319.008L669.014 321.672L667.118 319.512L672.302 315.048H675.134V330.336ZM693.055 325.944V328.656H690.799V333H687.895V328.656H679.399V325.968C682.207 322.296 684.895 318.552 687.703 314.88H690.799V325.944H693.055ZM687.895 320.4C687.895 320.184 687.919 319.536 687.943 318.888L682.663 325.992H687.895V320.4ZM706.295 324.096C706.295 330.432 703.439 333.336 699.599 333.336C695.855 333.336 692.975 330.432 692.975 324.096C692.975 317.712 695.855 314.832 699.599 314.832C703.439 314.832 706.295 317.712 706.295 324.096ZM702.935 324.096C702.935 318.984 701.351 317.592 699.599 317.592C697.943 317.592 696.335 318.984 696.335 324.096C696.335 329.184 697.943 330.552 699.599 330.552C701.351 330.552 702.935 329.184 702.935 324.096ZM706.984 319.344C706.984 316.56 708.76 315 711.28 315C713.776 315 715.672 316.416 715.672 319.176V319.488C715.672 322.296 713.776 323.808 711.28 323.808C708.76 323.808 706.984 322.344 706.984 319.56V319.344ZM723.88 315.12L712.36 333H709.408L721.048 315.12H723.88ZM713.008 319.224C713.008 317.496 712.432 316.848 711.352 316.848C710.176 316.848 709.552 317.496 709.552 319.128L709.528 319.536C709.528 321.264 710.056 321.912 711.28 321.912C712.504 321.912 712.984 321.264 712.984 319.536L713.008 319.224ZM718.12 328.2C718.12 325.392 719.872 323.88 722.392 323.88C724.864 323.88 726.76 325.272 726.76 328.032V328.344C726.76 331.128 724.864 332.64 722.392 332.64C719.872 332.64 718.12 331.2 718.12 328.416V328.2ZM724.12 328.08C724.12 326.352 723.544 325.728 722.464 325.728C721.288 325.728 720.664 326.352 720.664 327.984L720.64 328.392C720.64 330.12 721.168 330.744 722.392 330.744C723.616 330.744 724.096 330.12 724.096 328.392L724.12 328.08Z" fill="white"/>
<path d="M753.049 322.776V325.296H744.529V322.776H753.049ZM767.62 325.944V328.656H765.364V333H762.46V328.656H753.964V325.968C756.772 322.296 759.46 318.552 762.268 314.88H765.364V325.944H767.62ZM762.46 320.4C762.46 320.184 762.484 319.536 762.508 318.888L757.228 325.992H762.46V320.4ZM767.973 319.344C767.973 316.56 769.749 315 772.269 315C774.765 315 776.661 316.416 776.661 319.176V319.488C776.661 322.296 774.765 323.808 772.269 323.808C769.749 323.808 767.973 322.344 767.973 319.56V319.344ZM784.869 315.12L773.349 333H770.397L782.037 315.12H784.869ZM773.997 319.224C773.997 317.496 773.421 316.848 772.341 316.848C771.165 316.848 770.541 317.496 770.541 319.128L770.517 319.536C770.517 321.264 771.045 321.912 772.269 321.912C773.493 321.912 773.973 321.264 773.973 319.536L773.997 319.224ZM779.109 328.2C779.109 325.392 780.861 323.88 783.381 323.88C785.853 323.88 787.749 325.272 787.749 328.032V328.344C787.749 331.128 785.853 332.64 783.381 332.64C780.861 332.64 779.109 331.2 779.109 328.416V328.2ZM785.109 328.08C785.109 326.352 784.533 325.728 783.453 325.728C782.277 325.728 781.653 326.352 781.653 327.984L781.629 328.392C781.629 330.12 782.157 330.744 783.381 330.744C784.605 330.744 785.085 330.12 785.085 328.392L785.109 328.08Z" fill="white"/>
<path d="M451.016 327.096H437.688V325.416H443.272V324.184H439.384V318.168H441.48V319.608H447.224V318.168H449.32V324.184H445.384V325.416H451.016V327.096ZM447.224 322.52V321.24H441.48V322.52H447.224ZM449.528 330.44V332.12H439.304V327.96H441.416V330.44H449.528ZM453.559 323.752V318.264H463.559V323.752H453.559ZM455.639 319.912V322.088H461.479V319.912H455.639ZM465.255 326.584H459.831V329.096H457.719V326.584H451.911V324.92H465.255V326.584ZM463.783 330.44V332.12H453.463V327.848H455.575V330.44H463.783ZM474.382 317.32L470.414 333.112H468.846L472.814 317.32H474.382ZM490.547 332.408H488.435V324.504H485.795V328.936H478.723V318.792H480.819V322.344H483.715V318.792H485.795V322.808H488.435V317.624H490.547V332.408ZM480.819 323.992V327.256H483.715V323.992H480.819ZM494.065 324.712V318.104H504.225V319.704H496.161V320.632H503.873V322.168H496.161V323.128H504.321V324.712H494.065ZM505.745 327.256H492.401V325.592H505.745V327.256ZM504.401 330.44V332.12H494.001V328.008H496.113V330.44H504.401Z" fill="white"/>
<path d="M618.792 384.336H621.888V387H612V384.336H615.504V374.568L615.6 373.008L612.672 375.672L610.776 373.512L615.96 369.048H618.792V384.336ZM636.713 379.944V382.656H634.457V387H631.553V382.656H623.057V379.968C625.865 376.296 628.553 372.552 631.361 368.88H634.457V379.944H636.713ZM631.553 374.4C631.553 374.184 631.577 373.536 631.601 372.888L626.321 379.992H631.553V374.4Z" fill="white"/>
<path d="M675.134 384.336H678.23V387H668.342V384.336H671.846V374.568L671.942 373.008L669.014 375.672L667.118 373.512L672.302 369.048H675.134V384.336ZM692.719 378.096C692.719 384.432 689.863 387.336 686.023 387.336C682.279 387.336 679.399 384.432 679.399 378.096C679.399 371.712 682.279 368.832 686.023 368.832C689.863 368.832 692.719 371.712 692.719 378.096ZM689.359 378.096C689.359 372.984 687.775 371.592 686.023 371.592C684.367 371.592 682.759 372.984 682.759 378.096C682.759 383.184 684.367 384.552 686.023 384.552C687.775 384.552 689.359 383.184 689.359 378.096ZM706.295 378.096C706.295 384.432 703.439 387.336 699.599 387.336C695.855 387.336 692.975 384.432 692.975 378.096C692.975 371.712 695.855 368.832 699.599 368.832C703.439 368.832 706.295 371.712 706.295 378.096ZM702.935 378.096C702.935 372.984 701.351 371.592 699.599 371.592C697.943 371.592 696.335 372.984 696.335 378.096C696.335 383.184 697.943 384.552 699.599 384.552C701.351 384.552 702.935 383.184 702.935 378.096ZM706.984 373.344C706.984 370.56 708.76 369 711.28 369C713.776 369 715.672 370.416 715.672 373.176V373.488C715.672 376.296 713.776 377.808 711.28 377.808C708.76 377.808 706.984 376.344 706.984 373.56V373.344ZM723.88 369.12L712.36 387H709.408L721.048 369.12H723.88ZM713.008 373.224C713.008 371.496 712.432 370.848 711.352 370.848C710.176 370.848 709.552 371.496 709.552 373.128L709.528 373.536C709.528 375.264 710.056 375.912 711.28 375.912C712.504 375.912 712.984 375.264 712.984 373.536L713.008 373.224ZM718.12 382.2C718.12 379.392 719.872 377.88 722.392 377.88C724.864 377.88 726.76 379.272 726.76 382.032V382.344C726.76 385.128 724.864 386.64 722.392 386.64C719.872 386.64 718.12 385.2 718.12 382.416V382.2ZM724.12 382.08C724.12 380.352 723.544 379.728 722.464 379.728C721.288 379.728 720.664 380.352 720.664 381.984L720.64 382.392C720.64 384.12 721.168 384.744 722.392 384.744C723.616 384.744 724.096 384.12 724.096 382.392L724.12 382.08Z" fill="white"/>
<path d="M753.049 376.776V379.296H744.529V376.776H753.049ZM761.692 375.84C764.476 375.84 767.092 377.64 767.092 381.312C767.092 384.696 764.5 387.456 760.636 387.456C756.748 387.456 754.324 384.864 754.324 381C754.324 379.368 755.092 377.52 756.46 375.6L761.332 369.024H765.364C763.54 371.256 761.836 373.44 760.084 375.672L759.484 376.248L759.748 376.128C760.3 375.936 760.948 375.84 761.692 375.84ZM757.492 381.48C757.492 383.52 758.74 384.744 760.588 384.744C762.412 384.744 763.876 383.448 763.876 381.504C763.876 379.392 762.556 378.336 760.612 378.336C758.692 378.336 757.492 379.56 757.492 381.48ZM767.973 373.344C767.973 370.56 769.749 369 772.269 369C774.765 369 776.661 370.416 776.661 373.176V373.488C776.661 376.296 774.765 377.808 772.269 377.808C769.749 377.808 767.973 376.344 767.973 373.56V373.344ZM784.869 369.12L773.349 387H770.397L782.037 369.12H784.869ZM773.997 373.224C773.997 371.496 773.421 370.848 772.341 370.848C771.165 370.848 770.541 371.496 770.541 373.128L770.517 373.536C770.517 375.264 771.045 375.912 772.269 375.912C773.493 375.912 773.973 375.264 773.973 373.536L773.997 373.224ZM779.109 382.2C779.109 379.392 780.861 377.88 783.381 377.88C785.853 377.88 787.749 379.272 787.749 382.032V382.344C787.749 385.128 785.853 386.64 783.381 386.64C780.861 386.64 779.109 385.2 779.109 382.416V382.2ZM785.109 382.08C785.109 380.352 784.533 379.728 783.453 379.728C782.277 379.728 781.653 380.352 781.653 381.984L781.629 382.392C781.629 384.12 782.157 384.744 783.381 384.744C784.605 384.744 785.085 384.12 785.085 382.392L785.109 382.08Z" fill="white"/>
<path d="M444.014 379.366V372.548H445.736V375.194H446.842V372.324H448.592V379.45H446.842V376.678H445.736V379.366H444.014ZM443.286 373.066C443.286 376.356 441.9 378.61 438.4 379.982L437.546 378.666C438.946 378.162 439.87 377.532 440.5 376.748L437.896 377.028L437.658 375.572L441.228 375.404C441.326 375.124 441.382 374.83 441.424 374.536H438.204V373.066H443.286ZM448.606 385.05H439.842V379.982H441.676V381.088H446.786V379.982H448.606V385.05ZM441.676 382.516V383.622H446.786V382.516H441.676ZM456.851 377.952V376.468H458.993V375.46H456.851V373.99H458.993V372.31H460.841V381.858H458.993V377.952H456.851ZM456.739 380.262C455.395 379.716 454.499 378.736 453.953 377.504C453.407 378.848 452.427 379.87 450.957 380.416L449.991 378.974C452.119 378.232 453.001 376.384 453.001 374.536V373.038H454.877V374.536C454.877 376.328 455.703 378.05 457.761 378.834L456.739 380.262ZM461.121 384.98H452.329V380.99H454.177V383.51H461.121V384.98ZM469.71 372.03L466.238 385.848H464.866L468.338 372.03H469.71ZM483.853 385.232H482.005V378.316H479.695V382.194H473.507V373.318H475.341V376.426H477.875V373.318H479.695V376.832H482.005V372.296H483.853V385.232ZM475.341 377.868V380.724H477.875V377.868H475.341ZM486.932 378.498V372.716H495.822V374.116H488.766V374.928H495.514V376.272H488.766V377.112H495.906V378.498H486.932ZM497.152 380.724H485.476V379.268H497.152V380.724ZM495.976 383.51V384.98H486.876V381.382H488.724V383.51H495.976Z" fill="white"/>
<path d="M618.792 438.336H621.888V441H612V438.336H615.504V428.568L615.6 427.008L612.672 429.672L610.776 427.512L615.96 423.048H618.792V438.336ZM630.113 422.76C633.449 422.76 635.777 424.896 635.777 427.968C635.705 430.488 633.929 432.576 632.153 434.424L628.433 438.168C629.081 438 629.657 437.976 630.209 437.976H635.969V441H623.465V439.08L629.489 433.152C631.313 431.328 632.441 429.888 632.441 428.04C632.441 426.384 631.457 425.52 629.897 425.52C628.553 425.52 627.593 426.432 627.209 427.488C627.089 427.848 627.041 428.208 627.017 428.688L623.873 428.16C624.449 424.488 626.825 422.76 630.113 422.76Z" fill="white"/>
<path d="M675.134 438.336H678.23V441H668.342V438.336H671.846V428.568L671.942 427.008L669.014 429.672L667.118 427.512L672.302 423.048H675.134V438.336ZM692.719 432.096C692.719 438.432 689.863 441.336 686.023 441.336C682.279 441.336 679.399 438.432 679.399 432.096C679.399 425.712 682.279 422.832 686.023 422.832C689.863 422.832 692.719 425.712 692.719 432.096ZM689.359 432.096C689.359 426.984 687.775 425.592 686.023 425.592C684.367 425.592 682.759 426.984 682.759 432.096C682.759 437.184 684.367 438.552 686.023 438.552C687.775 438.552 689.359 437.184 689.359 432.096ZM706.295 432.096C706.295 438.432 703.439 441.336 699.599 441.336C695.855 441.336 692.975 438.432 692.975 432.096C692.975 425.712 695.855 422.832 699.599 422.832C703.439 422.832 706.295 425.712 706.295 432.096ZM702.935 432.096C702.935 426.984 701.351 425.592 699.599 425.592C697.943 425.592 696.335 426.984 696.335 432.096C696.335 437.184 697.943 438.552 699.599 438.552C701.351 438.552 702.935 437.184 702.935 432.096ZM706.984 427.344C706.984 424.56 708.76 423 711.28 423C713.776 423 715.672 424.416 715.672 427.176V427.488C715.672 430.296 713.776 431.808 711.28 431.808C708.76 431.808 706.984 430.344 706.984 427.56V427.344ZM723.88 423.12L712.36 441H709.408L721.048 423.12H723.88ZM713.008 427.224C713.008 425.496 712.432 424.848 711.352 424.848C710.176 424.848 709.552 425.496 709.552 427.128L709.528 427.536C709.528 429.264 710.056 429.912 711.28 429.912C712.504 429.912 712.984 429.264 712.984 427.536L713.008 427.224ZM718.12 436.2C718.12 433.392 719.872 431.88 722.392 431.88C724.864 431.88 726.76 433.272 726.76 436.032V436.344C726.76 439.128 724.864 440.64 722.392 440.64C719.872 440.64 718.12 439.2 718.12 436.416V436.2ZM724.12 436.08C724.12 434.352 723.544 433.728 722.464 433.728C721.288 433.728 720.664 434.352 720.664 435.984L720.64 436.392C720.64 438.12 721.168 438.744 722.392 438.744C723.616 438.744 724.096 438.12 724.096 436.392L724.12 436.08Z" fill="white"/>
<path d="M753.049 430.776V433.296H744.529V430.776H753.049ZM761.692 429.84C764.476 429.84 767.092 431.64 767.092 435.312C767.092 438.696 764.5 441.456 760.636 441.456C756.748 441.456 754.324 438.864 754.324 435C754.324 433.368 755.092 431.52 756.46 429.6L761.332 423.024H765.364C763.54 425.256 761.836 427.44 760.084 429.672L759.484 430.248L759.748 430.128C760.3 429.936 760.948 429.84 761.692 429.84ZM757.492 435.48C757.492 437.52 758.74 438.744 760.588 438.744C762.412 438.744 763.876 437.448 763.876 435.504C763.876 433.392 762.556 432.336 760.612 432.336C758.692 432.336 757.492 433.56 757.492 435.48ZM767.973 427.344C767.973 424.56 769.749 423 772.269 423C774.765 423 776.661 424.416 776.661 427.176V427.488C776.661 430.296 774.765 431.808 772.269 431.808C769.749 431.808 767.973 430.344 767.973 427.56V427.344ZM784.869 423.12L773.349 441H770.397L782.037 423.12H784.869ZM773.997 427.224C773.997 425.496 773.421 424.848 772.341 424.848C771.165 424.848 770.541 425.496 770.541 427.128L770.517 427.536C770.517 429.264 771.045 429.912 772.269 429.912C773.493 429.912 773.973 429.264 773.973 427.536L773.997 427.224ZM779.109 436.2C779.109 433.392 780.861 431.88 783.381 431.88C785.853 431.88 787.749 433.272 787.749 436.032V436.344C787.749 439.128 785.853 440.64 783.381 440.64C780.861 440.64 779.109 439.2 779.109 436.416V436.2ZM785.109 436.08C785.109 434.352 784.533 433.728 783.453 433.728C782.277 433.728 781.653 434.352 781.653 435.984L781.629 436.392C781.629 438.12 782.157 438.744 783.381 438.744C784.605 438.744 785.085 438.12 785.085 436.392L785.109 436.08Z" fill="white"/>
<path d="M447.5 434.688H437.516V433.44H441.704V432.516H438.464V431.268H439.796V429.588H438.392V428.34H446.612V429.588H445.208V431.268H446.528V432.516H443.288V433.44H447.5V434.688ZM443.636 431.268V429.588H441.368V431.268H443.636ZM443.312 435.384C443.312 436.44 444.38 437.532 446.828 437.784L446.276 438.996C444.44 438.768 443.18 438.108 442.508 437.148C441.836 438.108 440.564 438.768 438.728 438.996L438.176 437.784C440.624 437.532 441.692 436.44 441.692 435.384V435.204H443.312V435.384ZM458.203 437.796H448.195V436.512H452.407V433.992H449.323V428.82H450.907V432.732H457.147V433.992H453.991V436.512H458.203V437.796ZM460.05 434.928V428.784H467.73V430.056H461.658V431.22H467.478V432.444H461.658V433.68H467.814V434.928H460.05ZM468.882 437.76H458.874V436.476H468.882V437.76Z" fill="white"/>
<path d="M21.6 89.896V70.28H25.856V89.896H21.6ZM17.824 79.304C17.824 83.56 14.368 86.536 9.792 86.536C5.28 86.536 1.792 83.56 1.792 79.304C1.792 75.08 5.28 72.04 9.792 72.04C14.368 72.04 17.824 75.08 17.824 79.304ZM5.92 79.304C5.92 81.608 7.584 82.952 9.792 82.952C12.096 82.952 13.696 81.608 13.696 79.304C13.696 77 12.096 75.624 9.792 75.624C7.584 75.624 5.92 77 5.92 79.304ZM18.048 89C18.048 92.168 21.024 95.528 27.296 96.392L25.696 99.656C20.928 98.888 17.664 96.84 15.872 94.024C14.08 96.84 10.784 98.888 6.016 99.656L4.416 96.392C10.72 95.528 13.696 92.168 13.696 89V88.424H18.048V89ZM56.5415 96.52H29.8535V93.096H41.0855V88.2H32.9895V72.296H53.4695V75.656H37.2775V78.536H52.7975V81.8H37.2775V84.872H53.6935V88.2H45.3095V93.096H56.5415V96.52ZM82.875 99.784H78.619V70.312H82.875V99.784ZM73.051 89.128C74.299 89.032 75.483 88.936 76.731 88.776L76.987 91.816C70.779 92.84 63.995 93.032 58.715 93.032L58.267 89.576H61.595V76.392H59.035V73H75.579V76.392H73.051V89.128ZM65.691 89.48C66.811 89.48 67.867 89.416 68.987 89.384V76.392H65.691V89.48ZM109.881 84.872V99.752H105.657V70.28H109.881V81.384H114.169V84.872H109.881ZM94.7125 72.328C99.1605 72.328 102.457 76.36 102.457 82.824C102.457 89.32 99.1605 93.384 94.7125 93.384C90.2325 93.384 86.9685 89.32 86.9685 82.824C86.9685 76.36 90.2325 72.328 94.7125 72.328ZM94.7125 89.544C96.8885 89.544 98.3925 87.208 98.3925 82.824C98.3925 78.44 96.8885 76.136 94.7125 76.136C92.5045 76.136 91.0325 78.44 91.0325 82.824C91.0325 87.208 92.5045 89.544 94.7125 89.544ZM141.974 96.52H115.286V93.064H126.486V88.68H118.358V78.696H134.806V75.528H118.326V72.168H138.966V81.992H122.55V85.288H139.638V88.68H130.71V93.064H141.974V96.52ZM177.158 82.248H173.254V91.784H169.03V70.28H173.254V78.792H177.158V82.248ZM150.918 86.92V72.712H164.966V86.92H150.918ZM155.046 76.04V83.592H160.806V76.04H155.046ZM174.31 95.88V99.24H154.246V89.672H158.47V95.88H174.31ZM201.603 84.872V99.688H197.379V70.248H201.603V81.384H205.731V84.872H201.603ZM183.651 89C187.395 88.904 191.363 88.584 195.491 87.784L195.907 91.24C191.011 92.264 186.371 92.52 181.987 92.52H179.427V73.064H183.651V89ZM210.305 81.608V71.336H214.529V78.248H230.753V81.608H210.305ZM233.697 88.008H207.009V84.616H233.697V88.008ZM230.913 95.752V99.144H210.017V90.344H214.273V95.752H230.913ZM255.056 84.456C248.784 84.456 244.4 81.864 244.4 77.864C244.4 73.864 248.784 71.272 255.056 71.272C261.328 71.272 265.712 73.864 265.712 77.864C265.712 81.864 261.328 84.456 255.056 84.456ZM255.056 74.632C251.184 74.632 248.72 75.784 248.72 77.864C248.72 80.04 251.184 81.096 255.056 81.096C258.928 81.096 261.36 80.04 261.36 77.864C261.36 75.784 258.928 74.632 255.056 74.632ZM262.288 90.088V99.72H258V90.088H252.08V99.72H247.824V90.088H241.776V86.664H268.464V90.088H262.288ZM293.326 84.872V99.752H289.102V70.28H293.326V81.384H297.614V84.872H293.326ZM278.158 72.328C282.606 72.328 285.902 76.36 285.902 82.824C285.902 89.32 282.606 93.384 278.158 93.384C273.678 93.384 270.414 89.32 270.414 82.824C270.414 76.36 273.678 72.328 278.158 72.328ZM278.158 89.544C280.334 89.544 281.838 87.208 281.838 82.824C281.838 78.44 280.334 76.136 278.158 76.136C275.95 76.136 274.478 78.44 274.478 82.824C274.478 87.208 275.95 89.544 278.158 89.544ZM323.275 99.72H319.019V70.248H323.275V99.72ZM314.507 73.32C314.507 82.312 311.467 89.736 301.003 94.76L298.795 91.432C306.315 87.848 309.579 83.208 310.187 76.68H300.363V73.32H314.507ZM24.448 126.872V141.752H20.224V112.28H24.448V123.384H28.736V126.872H24.448ZM9.28 114.328C13.728 114.328 17.024 118.36 17.024 124.824C17.024 131.32 13.728 135.384 9.28 135.384C4.8 135.384 1.536 131.32 1.536 124.824C1.536 118.36 4.8 114.328 9.28 114.328ZM9.28 131.544C11.456 131.544 12.96 129.208 12.96 124.824C12.96 120.44 11.456 118.136 9.28 118.136C7.072 118.136 5.6 120.44 5.6 124.824C5.6 129.208 7.072 131.544 9.28 131.544ZM54.2695 141.816H50.0455V112.248H54.2695V141.816ZM38.4295 114.328C42.8775 114.328 46.1735 118.36 46.1735 124.824C46.1735 131.32 42.8775 135.384 38.4295 135.384C33.9815 135.384 30.6855 131.32 30.6855 124.824C30.6855 118.36 33.9815 114.328 38.4295 114.328ZM38.4295 118.136C36.2535 118.136 34.7495 120.44 34.7495 124.824C34.7495 129.208 36.2535 131.544 38.4295 131.544C40.6055 131.544 42.1095 129.208 42.1095 124.824C42.1095 120.44 40.6055 118.136 38.4295 118.136ZM61.659 122.136V112.856H81.627V116.216H65.851V118.808H81.851V122.136H61.659ZM85.019 127.032H58.363V123.704H85.019V127.032ZM82.491 138.264V141.496H61.403V133.528H77.563V131.864H61.371V128.696H81.723V136.504H65.595V138.264H82.491ZM111.385 141.816H107.161V112.248H111.385V141.816ZM96.2805 114.232C100.889 114.232 104.409 117.272 104.409 121.496C104.409 125.72 100.889 128.76 96.2805 128.76C91.6725 128.76 88.1845 125.72 88.1845 121.496C88.1845 117.272 91.6725 114.232 96.2805 114.232ZM96.2805 117.848C93.9765 117.848 92.2805 119.192 92.2805 121.496C92.2805 123.8 93.9765 125.144 96.2805 125.144C98.5845 125.144 100.281 123.8 100.281 121.496C100.281 119.192 98.5845 117.848 96.2805 117.848ZM86.9365 132.408C92.1205 132.408 99.3525 132.376 105.561 131.448L105.817 134.488C99.4805 135.768 92.5685 135.832 87.4805 135.832L86.9365 132.408ZM146.056 129.848H141.8V112.28H146.056V129.848ZM137.576 128.44C134.248 127.384 132.008 125.336 130.696 122.648C129.32 125.496 126.984 127.8 123.528 128.92L121.448 125.592C126.376 124.056 128.488 120.152 128.488 116.44V113.624H132.776V116.44C132.776 120.152 134.856 123.672 139.624 125.112L137.576 128.44ZM146.056 131.128V141.784H141.8V134.52H125.96V131.128H146.056ZM173.862 123.8C168.838 123.192 165.286 121.112 163.366 118.296C161.446 121.112 157.862 123.16 152.838 123.8L151.366 120.536C157.99 119.768 161.19 116.472 161.19 113.496V112.6H165.542V113.496C165.542 116.472 168.742 119.768 175.366 120.536L173.862 123.8ZM176.678 128.472H150.054V125.144H176.678V128.472ZM173.318 129.944V141.4H153.158V129.944H157.35V132.408H169.158V129.944H173.318ZM157.35 135.576V138.136H169.158V135.576H157.35ZM205.571 124.728H202.051V134.328H197.827V112.248H202.051V121.24H205.571V124.728ZM190.147 124.44C190.627 121.624 190.755 119.576 190.787 117.784H179.811V114.424H194.947V116.248C194.947 118.296 194.947 121.176 194.275 124.92L190.147 124.44ZM196.483 129.112C190.435 130.232 183.523 130.392 178.499 130.392L178.115 127.032C179.747 127.032 181.571 127.032 183.491 127V121.272H187.619V126.84C190.563 126.712 193.411 126.488 196.227 126.104L196.483 129.112ZM202.979 137.88V141.24H182.403V132.376H186.627V137.88H202.979ZM238.547 141.752H234.515V126.776H231.891V140.504H227.955V113.048H231.891V123.384H234.515V112.28H238.547V141.752ZM226.035 115.928C226.035 124.184 223.603 130.936 215.379 135.736L212.915 132.792C218.803 129.368 221.363 125.016 221.875 119.288H214.419V115.928H226.035ZM256.784 121.976V118.552H262.192V112.28H266.416V134.04H262.192V121.976H256.784ZM257.136 129.752C254.064 128.632 251.984 126.488 250.736 123.768C249.488 126.84 247.248 129.208 243.792 130.456L241.584 127.16C246.448 125.528 248.496 121.432 248.496 117.24V114.072H252.784V117.272C252.784 121.112 254.768 124.856 259.376 126.488L257.136 129.752ZM267.056 141.24H246.96V131.864H251.184V137.88H267.056V141.24Z" fill="white"/>
<path d="M9.984 39.448C6.784 39.448 3.648 38.2 1.344 35.992L4.064 32.728C5.76 34.296 8 35.352 10.08 35.352C12.544 35.352 13.856 34.296 13.856 32.632C13.856 30.84 12.448 30.36 10.304 29.432L7.136 28.088C4.736 27.064 2.336 25.176 2.336 21.72C2.336 17.848 5.76 14.872 10.528 14.872C13.344 14.872 16.032 15.96 17.952 17.912L15.552 20.888C14.048 19.64 12.48 18.936 10.528 18.936C8.448 18.936 7.104 19.864 7.104 21.432C7.104 23.032 8.8 23.768 10.816 24.536L13.92 25.848C16.864 27.032 18.688 28.824 18.688 32.28C18.688 36.152 15.456 39.448 9.984 39.448ZM25.3768 21.08L25.6968 22.936H25.8248C27.3288 21.656 29.1848 20.632 31.1048 20.632C35.5208 20.632 38.1448 24.248 38.1448 29.752C38.1448 35.896 34.4648 39.448 30.5288 39.448C28.9608 39.448 27.4568 38.744 26.0808 37.496L26.2088 40.44V45.88H21.5368V21.08H25.3768ZM29.4728 35.576C31.6488 35.576 33.3128 33.784 33.3128 29.816C33.3128 26.36 32.2248 24.504 29.7608 24.504C28.5128 24.504 27.4568 25.112 26.2088 26.36V34.232C27.3608 35.224 28.4808 35.576 29.4728 35.576ZM48.6585 39.448C44.1785 39.448 40.0505 35.96 40.0505 30.072C40.0505 24.088 44.1785 20.632 48.6585 20.632C53.1385 20.632 57.2665 24.088 57.2665 30.072C57.2665 35.96 53.1385 39.448 48.6585 39.448ZM48.6585 35.608C51.0905 35.608 52.4665 33.432 52.4665 30.072C52.4665 26.616 51.0905 24.472 48.6585 24.472C46.2265 24.472 44.8505 26.616 44.8505 30.072C44.8505 33.432 46.2265 35.608 48.6585 35.608ZM71.2817 37.304C70.0337 38.552 68.3377 39.448 66.5457 39.448C62.0657 39.448 59.2177 35.928 59.2177 30.072C59.2177 24.216 62.8657 20.632 66.7377 20.632C68.7857 20.632 70.1617 21.336 71.6017 22.84H71.7297L72.1137 21.08H75.7937V45.88H71.0897V40.184L71.2817 37.304ZM67.7617 35.576C69.0097 35.576 70.0657 35.096 71.0897 33.72V25.848C69.9697 24.856 68.8817 24.504 67.7617 24.504C65.7457 24.504 64.0497 26.424 64.0497 30.008C64.0497 33.72 65.2977 35.576 67.7617 35.576ZM84.2915 39.32C81.0915 39.32 78.9795 37.24 78.9795 34.136C78.7555 29.752 81.8595 27.736 89.2835 27.512C89.3795 26.744 89.2195 25.976 88.8675 25.24C88.4835 24.696 87.6195 24.408 86.2435 24.408C84.5795 24.408 82.6915 25.048 81.0595 26.104L79.6515 22.744C81.6035 21.56 84.2915 20.632 87.1075 20.632C91.6835 20.632 93.9875 23.256 93.9875 28.536V39H90.1475L89.7955 37.176H89.6995C88.1635 38.488 86.3395 39.32 84.2915 39.32ZM85.7315 35.736C87.1075 35.704 88.1635 35.128 89.2835 34.008V30.392C88.1635 30.488 87.0755 30.584 86.0515 30.744C84.0035 31.032 83.2675 32.056 83.2995 33.336C83.3315 34.84 84.3555 35.736 85.7315 35.736ZM109.232 15.32V24.632H118.192V15.32H122.896V39H118.192V28.76H109.232V39H104.496V15.32H109.232ZM131.786 39.32C128.586 39.32 126.474 37.24 126.474 34.136C126.25 29.752 129.354 27.736 136.778 27.512C136.874 26.744 136.714 25.976 136.362 25.24C135.978 24.696 135.114 24.408 133.738 24.408C132.074 24.408 130.186 25.048 128.554 26.104L127.146 22.744C129.098 21.56 131.786 20.632 134.602 20.632C139.178 20.632 141.483 23.256 141.483 28.536V39H137.642L137.29 37.176H137.194C135.658 38.488 133.834 39.32 131.786 39.32ZM133.226 35.736C134.602 35.704 135.658 35.128 136.778 34.008V30.392C135.658 30.488 134.57 30.584 133.546 30.744C131.498 31.032 130.762 32.056 130.794 33.336C130.826 34.84 131.85 35.736 133.226 35.736ZM149.157 21.08L149.477 23.448H149.605C151.173 21.912 152.997 20.632 155.429 20.632C159.301 20.632 160.965 23.32 160.965 27.832V39H156.261V28.408C156.261 25.624 155.525 24.664 153.733 24.664C152.229 24.664 151.365 25.368 149.989 26.68V39H145.317V21.08H149.157ZM178.603 39.448C175.403 39.448 172.267 38.2 169.963 35.992L172.683 32.728C174.379 34.296 176.619 35.352 178.699 35.352C181.163 35.352 182.475 34.296 182.475 32.632C182.475 30.84 181.067 30.36 178.923 29.432L175.755 28.088C173.355 27.064 170.955 25.176 170.955 21.72C170.955 17.848 174.379 14.872 179.147 14.872C181.963 14.872 184.651 15.96 186.571 17.912L184.171 20.888C182.667 19.64 181.099 18.936 179.147 18.936C177.067 18.936 175.723 19.864 175.723 21.432C175.723 23.032 177.419 23.768 179.435 24.536L182.539 25.848C185.483 27.032 187.307 28.824 187.307 32.28C187.307 36.152 184.075 39.448 178.603 39.448ZM194.572 39.32C191.372 39.32 189.26 37.24 189.26 34.136C189.036 29.752 192.14 27.736 199.564 27.512C199.66 26.744 199.5 25.976 199.148 25.24C198.764 24.696 197.9 24.408 196.524 24.408C194.86 24.408 192.972 25.048 191.34 26.104L189.932 22.744C191.884 21.56 194.572 20.632 197.388 20.632C201.964 20.632 204.268 23.256 204.268 28.536V39H200.428L200.076 37.176H199.98C198.444 38.488 196.62 39.32 194.572 39.32ZM196.012 35.736C197.388 35.704 198.444 35.128 199.564 34.008V30.392C198.444 30.488 197.356 30.584 196.332 30.744C194.284 31.032 193.548 32.056 193.58 33.336C193.612 34.84 194.636 35.736 196.012 35.736ZM211.942 21.08L212.262 23.448H212.39C213.958 21.912 215.782 20.632 218.214 20.632C222.086 20.632 223.75 23.32 223.75 27.832V39H219.046V28.408C219.046 25.624 218.31 24.664 216.518 24.664C215.014 24.664 214.15 25.368 212.774 26.68V39H208.102V21.08H211.942ZM232.762 39.448C230.33 39.448 227.738 38.424 225.946 36.92L228.09 33.976C229.722 35.224 231.226 35.928 232.89 35.928C234.682 35.928 235.482 35.16 235.482 34.04C235.482 32.696 233.626 32.12 231.738 31.352C229.466 30.52 226.842 29.112 226.842 26.136C226.842 22.904 229.498 20.632 233.498 20.632C236.186 20.632 238.106 21.72 239.61 22.84L237.498 25.688C236.218 24.792 235.002 24.152 233.626 24.152C231.994 24.152 231.258 24.856 231.258 25.88C231.258 27.16 233.018 27.704 234.906 28.376C237.274 29.304 239.898 30.424 239.898 33.784C239.898 36.92 237.434 39.448 232.762 39.448ZM254.032 15.32L260.912 27.928L263.28 33.048H263.44C263.184 30.584 262.832 27.448 262.832 24.76V15.32H267.312V39H262.512L255.664 26.328L253.264 21.24H253.104C253.328 23.8 253.68 26.776 253.68 29.496V39H249.2V15.32H254.032ZM279.6 39.448C274.608 39.448 270.704 35.96 270.704 30.072C270.704 24.28 274.8 20.632 279.056 20.632C283.984 20.632 286.544 24.248 286.544 29.208C286.544 30.072 286.448 30.936 286.32 31.352H275.28C275.664 34.296 277.552 35.832 280.24 35.832C281.744 35.832 282.992 35.384 284.272 34.584L285.872 37.464C284.08 38.712 281.904 39.448 279.6 39.448ZM282.512 28.248C282.512 25.816 281.424 24.28 279.12 24.28C277.232 24.28 275.568 25.656 275.216 28.248H282.512ZM296.946 39.448C292.466 39.448 288.338 35.96 288.338 30.072C288.338 24.088 292.466 20.632 296.946 20.632C301.426 20.632 305.554 24.088 305.554 30.072C305.554 35.96 301.426 39.448 296.946 39.448ZM296.946 35.608C299.378 35.608 300.754 33.432 300.754 30.072C300.754 26.616 299.378 24.472 296.946 24.472C294.514 24.472 293.138 26.616 293.138 30.072C293.138 33.432 294.514 35.608 296.946 35.608Z" fill="white" fill-opacity="0.6"/>
<path d="M2.13636 231.784V227.727H21.25V231.784H14.125V251H9.26136V231.784H2.13636ZM21.5343 251V233.545H26.148V236.625H26.3525C26.7161 235.602 27.3222 234.795 28.1707 234.205C29.0192 233.614 30.0343 233.318 31.2161 233.318C32.4131 233.318 33.432 233.617 34.273 234.216C35.1139 234.807 35.6745 235.61 35.9548 236.625H36.1366C36.4927 235.625 37.1366 234.826 38.0684 234.227C39.0078 233.621 40.1177 233.318 41.398 233.318C43.0267 233.318 44.3487 233.837 45.3639 234.875C46.3866 235.905 46.898 237.367 46.898 239.261V251H42.0684V240.216C42.0684 239.246 41.8108 238.519 41.2957 238.034C40.7805 237.549 40.1366 237.307 39.3639 237.307C38.4851 237.307 37.7995 237.587 37.307 238.148C36.8146 238.701 36.5684 239.432 36.5684 240.341V251H31.8752V240.114C31.8752 239.258 31.629 238.576 31.1366 238.068C30.6517 237.561 30.0116 237.307 29.2161 237.307C28.6783 237.307 28.1934 237.443 27.7616 237.716C27.3373 237.981 27.0002 238.356 26.7502 238.841C26.5002 239.318 26.3752 239.879 26.3752 240.523V251H21.5343ZM57.6482 251.341C55.883 251.341 54.3565 250.966 53.0686 250.216C51.7883 249.458 50.7997 248.405 50.1027 247.057C49.4058 245.701 49.0573 244.129 49.0573 242.341C49.0573 240.538 49.4058 238.962 50.1027 237.614C50.7997 236.258 51.7883 235.205 53.0686 234.455C54.3565 233.697 55.883 233.318 57.6482 233.318C59.4133 233.318 60.9361 233.697 62.2164 234.455C63.5042 235.205 64.4967 236.258 65.1936 237.614C65.8906 238.962 66.2391 240.538 66.2391 242.341C66.2391 244.129 65.8906 245.701 65.1936 247.057C64.4967 248.405 63.5042 249.458 62.2164 250.216C60.9361 250.966 59.4133 251.341 57.6482 251.341ZM57.6709 247.591C58.4739 247.591 59.1444 247.364 59.6823 246.909C60.2202 246.447 60.6255 245.818 60.8982 245.023C61.1785 244.227 61.3186 243.322 61.3186 242.307C61.3186 241.292 61.1785 240.386 60.8982 239.591C60.6255 238.795 60.2202 238.167 59.6823 237.705C59.1444 237.242 58.4739 237.011 57.6709 237.011C56.8603 237.011 56.1785 237.242 55.6255 237.705C55.08 238.167 54.6671 238.795 54.3868 239.591C54.1141 240.386 53.9777 241.292 53.9777 242.307C53.9777 243.322 54.1141 244.227 54.3868 245.023C54.6671 245.818 55.08 246.447 55.6255 246.909C56.1785 247.364 56.8603 247.591 57.6709 247.591ZM73.2677 240.909V251H68.4268V233.545H73.0405V236.625H73.245C73.6314 235.61 74.2791 234.807 75.1882 234.216C76.0973 233.617 77.1995 233.318 78.495 233.318C79.7071 233.318 80.7639 233.583 81.6655 234.114C82.567 234.644 83.2677 235.402 83.7677 236.386C84.2677 237.364 84.5177 238.53 84.5177 239.886V251H79.6768V240.75C79.6844 239.682 79.4117 238.848 78.8586 238.25C78.3056 237.644 77.5442 237.341 76.5745 237.341C75.923 237.341 75.3473 237.481 74.8473 237.761C74.3549 238.042 73.9685 238.451 73.6882 238.989C73.4155 239.519 73.2753 240.159 73.2677 240.909ZM95.3276 251.341C93.5322 251.341 91.9867 250.977 90.6913 250.25C89.4034 249.515 88.411 248.477 87.714 247.136C87.017 245.788 86.6685 244.193 86.6685 242.352C86.6685 240.557 87.017 238.981 87.714 237.625C88.411 236.269 89.392 235.212 90.6572 234.455C91.9299 233.697 93.4223 233.318 95.1344 233.318C96.286 233.318 97.3579 233.504 98.3503 233.875C99.3503 234.239 100.222 234.788 100.964 235.523C101.714 236.258 102.297 237.182 102.714 238.295C103.131 239.402 103.339 240.697 103.339 242.182V243.511H88.6003V240.511H98.7822C98.7822 239.814 98.6306 239.197 98.3276 238.659C98.0246 238.121 97.6041 237.701 97.0663 237.398C96.536 237.087 95.9185 236.932 95.214 236.932C94.4791 236.932 93.8276 237.102 93.2594 237.443C92.6988 237.777 92.2594 238.227 91.9413 238.795C91.6231 239.356 91.4602 239.981 91.4526 240.67V243.523C91.4526 244.386 91.6117 245.133 91.9299 245.761C92.2556 246.39 92.714 246.875 93.3049 247.216C93.8958 247.557 94.5966 247.727 95.4072 247.727C95.945 247.727 96.4375 247.652 96.8844 247.5C97.3314 247.348 97.714 247.121 98.0322 246.818C98.3503 246.515 98.5928 246.144 98.7594 245.705L103.237 246C103.009 247.076 102.544 248.015 101.839 248.818C101.142 249.614 100.24 250.235 99.1344 250.682C98.036 251.121 96.767 251.341 95.3276 251.341ZM108.058 257.545C107.444 257.545 106.869 257.496 106.331 257.398C105.8 257.307 105.361 257.189 105.012 257.045L106.103 253.432C106.672 253.606 107.183 253.701 107.637 253.716C108.1 253.731 108.497 253.625 108.831 253.398C109.172 253.17 109.448 252.784 109.66 252.239L109.944 251.5L103.683 233.545H108.774L112.387 246.364H112.569L116.217 233.545H121.342L114.558 252.886C114.232 253.826 113.789 254.644 113.228 255.341C112.675 256.045 111.975 256.587 111.126 256.966C110.278 257.352 109.255 257.545 108.058 257.545ZM129.396 251V227.727H138.578C140.336 227.727 141.836 228.042 143.078 228.67C144.328 229.292 145.279 230.174 145.931 231.318C146.59 232.455 146.919 233.792 146.919 235.33C146.919 236.875 146.586 238.205 145.919 239.318C145.253 240.424 144.287 241.273 143.021 241.864C141.764 242.455 140.241 242.75 138.453 242.75H132.306V238.795H137.658C138.597 238.795 139.378 238.667 139.999 238.409C140.62 238.152 141.082 237.765 141.385 237.25C141.696 236.735 141.851 236.095 141.851 235.33C141.851 234.557 141.696 233.905 141.385 233.375C141.082 232.845 140.616 232.443 139.987 232.17C139.366 231.89 138.582 231.75 137.635 231.75H134.317V251H129.396ZM141.965 240.409L147.749 251H142.317L136.658 240.409H141.965ZM156.951 251.341C155.186 251.341 153.659 250.966 152.371 250.216C151.091 249.458 150.102 248.405 149.405 247.057C148.708 245.701 148.36 244.129 148.36 242.341C148.36 240.538 148.708 238.962 149.405 237.614C150.102 236.258 151.091 235.205 152.371 234.455C153.659 233.697 155.186 233.318 156.951 233.318C158.716 233.318 160.239 233.697 161.519 234.455C162.807 235.205 163.799 236.258 164.496 237.614C165.193 238.962 165.542 240.538 165.542 242.341C165.542 244.129 165.193 245.701 164.496 247.057C163.799 248.405 162.807 249.458 161.519 250.216C160.239 250.966 158.716 251.341 156.951 251.341ZM156.973 247.591C157.776 247.591 158.447 247.364 158.985 246.909C159.523 246.447 159.928 245.818 160.201 245.023C160.481 244.227 160.621 243.322 160.621 242.307C160.621 241.292 160.481 240.386 160.201 239.591C159.928 238.795 159.523 238.167 158.985 237.705C158.447 237.242 157.776 237.011 156.973 237.011C156.163 237.011 155.481 237.242 154.928 237.705C154.383 238.167 153.97 238.795 153.689 239.591C153.417 240.386 153.28 241.292 153.28 242.307C153.28 243.322 153.417 244.227 153.689 245.023C153.97 245.818 154.383 246.447 154.928 246.909C155.481 247.364 156.163 247.591 156.973 247.591ZM178.923 243.568V233.545H183.763V251H179.116V247.83H178.934C178.54 248.852 177.885 249.674 176.968 250.295C176.059 250.917 174.949 251.227 173.638 251.227C172.472 251.227 171.445 250.962 170.559 250.432C169.673 249.902 168.979 249.148 168.479 248.17C167.987 247.193 167.737 246.023 167.729 244.659V233.545H172.57V243.795C172.578 244.826 172.854 245.64 173.4 246.239C173.945 246.837 174.676 247.136 175.593 247.136C176.176 247.136 176.722 247.004 177.229 246.739C177.737 246.466 178.146 246.064 178.457 245.534C178.775 245.004 178.93 244.348 178.923 243.568ZM191.516 240.909V251H186.676V233.545H191.289V236.625H191.494C191.88 235.61 192.528 234.807 193.437 234.216C194.346 233.617 195.448 233.318 196.744 233.318C197.956 233.318 199.013 233.583 199.914 234.114C200.816 234.644 201.516 235.402 202.016 236.386C202.516 237.364 202.766 238.53 202.766 239.886V251H197.926V240.75C197.933 239.682 197.66 238.848 197.107 238.25C196.554 237.644 195.793 237.341 194.823 237.341C194.172 237.341 193.596 237.481 193.096 237.761C192.604 238.042 192.217 238.451 191.937 238.989C191.664 239.519 191.524 240.159 191.516 240.909ZM212.054 251.284C210.728 251.284 209.527 250.943 208.451 250.261C207.383 249.572 206.535 248.561 205.906 247.227C205.285 245.886 204.974 244.242 204.974 242.295C204.974 240.295 205.296 238.633 205.94 237.307C206.584 235.973 207.44 234.977 208.508 234.318C209.584 233.652 210.762 233.318 212.042 233.318C213.02 233.318 213.834 233.485 214.485 233.818C215.145 234.144 215.675 234.553 216.076 235.045C216.485 235.53 216.796 236.008 217.008 236.477H217.156V227.727H221.985V251H217.213V248.205H217.008C216.781 248.689 216.459 249.17 216.042 249.648C215.633 250.117 215.099 250.508 214.44 250.818C213.788 251.129 212.993 251.284 212.054 251.284ZM213.588 247.432C214.368 247.432 215.027 247.22 215.565 246.795C216.11 246.364 216.527 245.761 216.815 244.989C217.11 244.216 217.258 243.311 217.258 242.273C217.258 241.235 217.114 240.333 216.826 239.568C216.538 238.803 216.122 238.212 215.576 237.795C215.031 237.379 214.368 237.17 213.588 237.17C212.792 237.17 212.122 237.386 211.576 237.818C211.031 238.25 210.618 238.848 210.338 239.614C210.057 240.379 209.917 241.265 209.917 242.273C209.917 243.288 210.057 244.186 210.338 244.966C210.626 245.739 211.038 246.345 211.576 246.784C212.122 247.216 212.792 247.432 213.588 247.432ZM230.335 251L223.676 227.727H229.051L232.903 243.898H233.096L237.346 227.727H241.949L246.187 243.932H246.392L250.244 227.727H255.619L248.96 251H244.165L239.733 235.784H239.551L235.131 251H230.335ZM257.202 251V233.545H262.043V251H257.202ZM259.634 231.295C258.914 231.295 258.297 231.057 257.781 230.58C257.274 230.095 257.02 229.515 257.02 228.841C257.02 228.174 257.274 227.602 257.781 227.125C258.297 226.64 258.914 226.398 259.634 226.398C260.353 226.398 260.967 226.64 261.475 227.125C261.99 227.602 262.247 228.174 262.247 228.841C262.247 229.515 261.99 230.095 261.475 230.58C260.967 231.057 260.353 231.295 259.634 231.295ZM269.801 240.909V251H264.961V233.545H269.574V236.625H269.779C270.165 235.61 270.813 234.807 271.722 234.216C272.631 233.617 273.733 233.318 275.029 233.318C276.241 233.318 277.298 233.583 278.199 234.114C279.101 234.644 279.801 235.402 280.301 236.386C280.801 237.364 281.051 238.53 281.051 239.886V251H276.211V240.75C276.218 239.682 275.945 238.848 275.392 238.25C274.839 237.644 274.078 237.341 273.108 237.341C272.457 237.341 271.881 237.481 271.381 237.761C270.889 238.042 270.502 238.451 270.222 238.989C269.949 239.519 269.809 240.159 269.801 240.909ZM290.339 251.284C289.013 251.284 287.812 250.943 286.736 250.261C285.668 249.572 284.82 248.561 284.191 247.227C283.57 245.886 283.259 244.242 283.259 242.295C283.259 240.295 283.581 238.633 284.225 237.307C284.869 235.973 285.725 234.977 286.793 234.318C287.869 233.652 289.047 233.318 290.327 233.318C291.305 233.318 292.119 233.485 292.77 233.818C293.43 234.144 293.96 234.553 294.361 235.045C294.77 235.53 295.081 236.008 295.293 236.477H295.441V227.727H300.27V251H295.498V248.205H295.293C295.066 248.689 294.744 249.17 294.327 249.648C293.918 250.117 293.384 250.508 292.725 250.818C292.073 251.129 291.278 251.284 290.339 251.284ZM291.873 247.432C292.653 247.432 293.312 247.22 293.85 246.795C294.395 246.364 294.812 245.761 295.1 244.989C295.395 244.216 295.543 243.311 295.543 242.273C295.543 241.235 295.399 240.333 295.111 239.568C294.823 238.803 294.407 238.212 293.861 237.795C293.316 237.379 292.653 237.17 291.873 237.17C291.077 237.17 290.407 237.386 289.861 237.818C289.316 238.25 288.903 238.848 288.623 239.614C288.342 240.379 288.202 241.265 288.202 242.273C288.202 243.288 288.342 244.186 288.623 244.966C288.911 245.739 289.323 246.345 289.861 246.784C290.407 247.216 291.077 247.432 291.873 247.432Z" fill="white" fill-opacity="0.6"/>
<path d="M23.624 281.568H26.312V300.96H23.624V281.568ZM15.56 299.264H17.832V300.16C17.832 305.632 12.744 309.28 6.888 310.368L5.864 308.288C11.016 307.424 15.56 304.32 15.56 300.16V299.264ZM16.04 299.264H18.312V300.16C18.312 304.256 22.76 307.392 27.912 308.288L26.856 310.368C21.064 309.28 16.04 305.6 16.04 300.16V299.264ZM10.792 283.456C15.144 283.456 18.312 286.272 18.312 290.336C18.312 294.4 15.144 297.216 10.792 297.216C6.408 297.216 3.24 294.4 3.24 290.336C3.24 286.272 6.408 283.456 10.792 283.456ZM10.792 285.728C7.912 285.728 5.832 287.584 5.832 290.336C5.832 293.056 7.912 294.944 10.792 294.944C13.672 294.944 15.752 293.056 15.752 290.336C15.752 287.584 13.672 285.728 10.792 285.728ZM34.4375 296.576H54.3095V298.72H34.4375V296.576ZM31.0775 304.704H57.2855V306.912H31.0775V304.704ZM42.8215 297.696H45.4455V305.728H42.8215V297.696ZM34.4375 283.904H53.9895V286.08H37.1255V297.376H34.4375V283.904ZM36.2615 290.112H53.3815V292.256H36.2615V290.112ZM80.611 281.568H83.267V310.496H80.611V281.568ZM60.259 284.672H76.643V286.848H60.259V284.672ZM59.811 303.36L59.491 301.088C64.867 301.088 71.971 301.024 78.115 300.288L78.275 302.24C72.035 303.232 65.091 303.328 59.811 303.36ZM63.459 286.304H66.019V301.696H63.459V286.304ZM70.851 286.304H73.443V301.696H70.851V286.304ZM95.7125 283.776C99.9685 283.776 102.977 287.712 102.977 293.856C102.977 300.032 99.9685 303.968 95.7125 303.968C91.4565 303.968 88.4485 300.032 88.4485 293.856C88.4485 287.712 91.4565 283.776 95.7125 283.776ZM95.7125 286.176C92.8965 286.176 90.9765 289.184 90.9765 293.856C90.9765 298.56 92.8965 301.632 95.7125 301.632C98.4965 301.632 100.449 298.56 100.449 293.856C100.449 289.184 98.4965 286.176 95.7125 286.176ZM107.585 281.568H110.273V310.496H107.585V281.568ZM109.633 293.12H115.009V295.36H109.633V293.12ZM116.51 304.736H142.718V306.944H116.51V304.736ZM128.222 298.528H130.878V305.664H128.222V298.528ZM119.678 283.712H139.486V292.48H122.398V298.272H119.774V290.336H136.862V285.856H119.678V283.712ZM119.774 297.152H140.158V299.328H119.774V297.152ZM152.962 284.16H166.242V297.568H152.962V284.16ZM163.65 286.304H155.554V295.424H163.65V286.304ZM171.554 281.536H174.21V302.752H171.554V281.536ZM173.378 290.368H178.498V292.576H173.378V290.368ZM156.194 307.68H175.522V309.856H156.194V307.68ZM156.194 300.736H158.85V308.608H156.194V300.736ZM201.759 293.088H207.103V295.328H201.759V293.088ZM199.807 281.536H202.495V310.496H199.807V281.536ZM181.375 284.384H184.031V302.304H181.375V284.384ZM181.375 300.928H183.679C187.967 300.928 192.351 300.64 197.119 299.648L197.439 301.856C192.511 302.88 188.063 303.168 183.679 303.168H181.375V300.928ZM212.253 290.24H231.901V292.416H212.253V290.24ZM208.701 296.288H234.941V298.464H208.701V296.288ZM212.253 282.624H214.877V291.328H212.253V282.624ZM212.061 307.616H232.061V309.792H212.061V307.616ZM212.061 301.344H214.685V308.192H212.061V301.344ZM250.688 299.456H253.408V310.496H250.688V299.456ZM260.64 299.456H263.36V310.496H260.64V299.456ZM243.968 298.016H270.208V300.224H243.968V298.016ZM257.024 282.72C263.072 282.72 267.136 285.152 267.136 289.024C267.136 292.864 263.072 295.328 257.024 295.328C251.008 295.328 246.912 292.864 246.912 289.024C246.912 285.152 251.008 282.72 257.024 282.72ZM257.024 284.864C252.608 284.864 249.6 286.496 249.6 289.024C249.6 291.552 252.608 293.184 257.024 293.184C261.44 293.184 264.416 291.552 264.416 289.024C264.416 286.496 261.44 284.864 257.024 284.864ZM280.158 283.776C284.414 283.776 287.422 287.712 287.422 293.856C287.422 300.032 284.414 303.968 280.158 303.968C275.902 303.968 272.894 300.032 272.894 293.856C272.894 287.712 275.902 283.776 280.158 283.776ZM280.158 286.176C277.342 286.176 275.422 289.184 275.422 293.856C275.422 298.56 277.342 301.632 280.158 301.632C282.942 301.632 284.894 298.56 284.894 293.856C284.894 289.184 282.942 286.176 280.158 286.176ZM292.03 281.568H294.718V310.496H292.03V281.568ZM294.078 293.12H299.454V295.36H294.078V293.12ZM322.011 281.568H324.667V310.496H322.011V281.568ZM313.531 284.672H316.155C316.155 293.056 312.379 300.384 302.715 305.12L301.307 302.976C309.659 298.944 313.531 292.8 313.531 285.12V284.672ZM302.619 284.672H314.683V286.848H302.619V284.672ZM10.28 325.776C14.536 325.776 17.544 329.712 17.544 335.856C17.544 342.032 14.536 345.968 10.28 345.968C6.024 345.968 3.016 342.032 3.016 335.856C3.016 329.712 6.024 325.776 10.28 325.776ZM10.28 328.176C7.464 328.176 5.544 331.184 5.544 335.856C5.544 340.56 7.464 343.632 10.28 343.632C13.064 343.632 15.016 340.56 15.016 335.856C15.016 331.184 13.064 328.176 10.28 328.176ZM22.152 323.568H24.84V352.496H22.152V323.568ZM24.2 335.12H29.576V337.36H24.2V335.12ZM52.0695 323.536H54.7255V352.528H52.0695V323.536ZM39.4615 325.776C43.7495 325.776 46.8215 329.712 46.8215 335.856C46.8215 342.032 43.7495 345.968 39.4615 345.968C35.2055 345.968 32.1335 342.032 32.1335 335.856C32.1335 329.712 35.2055 325.776 39.4615 325.776ZM39.4615 328.176C36.6455 328.176 34.6615 331.184 34.6615 335.856C34.6615 340.56 36.6455 343.632 39.4615 343.632C42.3095 343.632 44.2615 340.56 44.2615 335.856C44.2615 331.184 42.3095 328.176 39.4615 328.176ZM59.555 335.632H85.699V337.808H59.555V335.632ZM63.011 331.152H82.595V333.296H63.011V331.152ZM63.011 324.496H82.275V326.672H65.635V332.88H63.011V324.496ZM62.691 340.304H82.339V347.12H65.379V350.768H62.755V345.136H79.715V342.384H62.691V340.304ZM62.755 350.064H83.203V352.176H62.755V350.064ZM97.4085 325.648C101.921 325.648 105.153 328.432 105.153 332.464C105.153 336.528 101.921 339.312 97.4085 339.312C92.8965 339.312 89.6325 336.528 89.6325 332.464C89.6325 328.432 92.8965 325.648 97.4085 325.648ZM97.4085 327.952C94.4005 327.952 92.2245 329.776 92.2245 332.464C92.2245 335.152 94.4005 337.008 97.4085 337.008C100.385 337.008 102.561 335.152 102.561 332.464C102.561 329.776 100.385 327.952 97.4085 327.952ZM108.929 323.536H111.585V352.528H108.929V323.536ZM88.5445 346.192L88.1605 343.984C93.4405 343.984 100.737 343.952 107.041 342.96L107.265 344.912C100.769 346.16 93.6965 346.192 88.5445 346.192ZM130.82 324.944H133.028V327.76C133.028 333.232 129.764 337.936 124.868 339.792L123.524 337.68C127.908 336.08 130.82 332.08 130.82 327.76V324.944ZM131.3 324.944H133.476V327.76C133.476 331.92 136.452 335.664 140.74 337.168L139.396 339.248C134.564 337.488 131.3 333.072 131.3 327.76V324.944ZM127.684 342.448H147.012V352.496H144.324V344.624H127.684V342.448ZM144.324 323.568H147.012V340.976H144.324V323.568ZM155.074 340.912H157.698V344.272H171.842V340.912H174.498V352.112H155.074V340.912ZM157.698 346.32V349.968H171.842V346.32H157.698ZM151.746 336.752H177.89V338.896H151.746V336.752ZM163.49 323.888H165.762V325.168C165.762 330.192 160.162 333.808 154.21 334.704L153.25 332.624C158.466 331.92 163.49 328.816 163.49 325.168V323.888ZM163.906 323.888H166.178V325.168C166.178 328.752 171.266 331.92 176.418 332.624L175.426 334.704C169.538 333.808 163.906 330.128 163.906 325.168V323.888ZM181.791 325.808H194.591V327.984H181.791V325.808ZM186.143 332.272H188.767V339.504H186.143V332.272ZM193.535 325.808H196.159V327.344C196.159 329.232 196.159 332.112 195.391 335.92L192.799 335.632C193.535 331.824 193.535 329.2 193.535 327.344V325.808ZM200.095 323.568H202.751V345.36H200.095V323.568ZM201.535 332.976H206.879V335.184H201.535V332.976ZM184.479 349.68H203.679V351.856H184.479V349.68ZM184.479 343.344H187.103V350.352H184.479V343.344ZM180.319 340.752L180.031 338.576C185.183 338.576 192.287 338.448 198.143 337.648L198.335 339.568C192.319 340.624 185.407 340.752 180.319 340.752ZM237.475 323.568H240.035V352.496H237.475V323.568ZM232.803 335.184H238.339V337.36H232.803V335.184ZM225.315 327.28H227.875C227.875 334.736 225.315 341.648 217.059 346.288L215.491 344.4C222.755 340.336 225.315 334.48 225.315 327.792V327.28ZM216.611 327.28H226.211V329.488H216.611V327.28ZM231.043 324.336H233.571V351.088H231.043V324.336ZM258.816 330.384H266.112V332.592H258.816V330.384ZM251.232 325.328H253.376V328.88C253.376 334.48 250.24 339.152 245.408 341.104L244.032 338.992C248.32 337.392 251.232 333.296 251.232 328.88V325.328ZM251.744 325.328H253.888V328.976C253.888 333.008 256.704 336.816 260.896 338.352L259.456 340.4C254.848 338.608 251.744 334.128 251.744 328.976V325.328ZM265.12 323.6H267.776V345.232H265.12V323.6ZM249.184 349.68H268.48V351.856H249.184V349.68ZM249.184 342.832H251.84V350.704H249.184V342.832Z" fill="white"/>
</svg>
