<svg width="172" height="244" viewBox="0 0 172 244" fill="none" xmlns="http://www.w3.org/2000/svg">
<path d="M139.124 59.4244C139.124 59.4244 107.072 38.0833 95.7471 78.7438C95.7471 78.7438 125.857 102.556 139.124 59.4244Z" fill="#76BB3D"/>
<path d="M124.346 92.2029C124.346 92.2029 121.075 66.6752 95.5645 78.7856C95.5645 78.7856 96.7501 104.415 124.346 92.2029Z" fill="#76BB3D"/>
<path d="M22.8327 0.710971C22.8327 0.710971 12.8369 56.7289 74.6925 48.0291C74.6925 48.0291 89.1854 -6.8248 22.8327 0.710971Z" fill="#76BB3D"/>
<path d="M56.8483 55.4214C56.8483 55.4214 38.0627 37.8175 26.1045 63.386C26.1045 63.386 43.3366 82.399 56.8483 55.4214Z" fill="#76BB3D"/>
<path d="M55.3355 28.586C53.9046 30.0156 54.1703 32.4254 55.8874 33.4669C62.1016 37.245 74.5708 46.4554 76.1448 60.322C77.821 75.0668 76.7376 103.331 76.3084 112.909C76.2266 114.686 77.6575 116.177 79.4563 116.177H80.9894C82.7269 116.177 84.1374 114.767 84.1374 113.032V95.3256C84.1374 94.3249 84.6075 93.3855 85.4048 92.7933L101.492 80.928C102.862 79.9069 103.189 77.9872 102.208 76.5985L101.881 76.1492C100.94 74.8013 99.1005 74.4133 97.69 75.2711L93.2747 77.9259C92.1504 78.5999 90.6378 79.9069 89.0433 81.0505C87.0196 82.5005 84.1987 81.1935 84.0556 78.7224C83.8103 74.638 83.4219 69.0627 83.3811 68.4296C82.4203 55.0736 79.6199 42.228 67.723 34.1613C65.9855 32.9972 64.4319 31.5881 62.674 30.4649C61.8563 29.9339 60.4458 28.8515 59.0967 28.0551C57.8702 27.3403 56.3167 27.5649 55.3355 28.5656V28.586Z" fill="#36985E"/>
<path d="M132.277 243.978H39.555C33.7497 243.978 28.8846 239.629 28.251 233.869L18.9297 149.444H152.207L143.602 233.788C143.009 239.588 138.123 243.999 132.298 243.999L132.277 243.978Z" fill="#DD9564"/>
<path d="M163.45 113.44H7.68693C3.45557 113.44 0.000976562 116.871 0.000976562 121.119L4.25278 142.297C7.72781 149.24 10.0377 149.24 13.9011 149.24H157.216C161.079 149.24 163.389 149.24 166.864 142.297L171.116 121.119C171.116 116.892 167.682 113.44 163.43 113.44H163.45Z" fill="#DD9564"/>
<path d="M149.243 178.178L152.207 149.24H18.9297L22.1185 178.178H149.243Z" fill="#D0683E"/>
</svg>
