<svg width="1717" height="467" viewBox="0 0 1717 467" fill="none" xmlns="http://www.w3.org/2000/svg">
<rect y="28" width="1065" height="408" rx="39" fill="#F7DC75"/>
<path d="M854.868 155.566C846.494 125.139 762.106 120.18 647.873 138.911C611.405 94.3075 550.811 72.8301 491.68 89.1039C432.548 105.378 391.477 154.835 382.959 211.83C275.228 254.186 205.261 301.625 213.632 332.043C222.003 362.46 312.203 367.725 432.334 346.707C469.055 378.955 520.761 392.698 571.398 378.762C622.034 364.826 659.424 326.552 674.477 280.066C788.445 236.656 863.535 187.017 854.878 155.563L854.868 155.566ZM308.72 305.873C305.251 293.268 334.195 273.195 382.393 251.929C383.279 259.202 384.7 266.507 386.703 273.788C390.706 288.331 396.741 301.767 404.371 313.922C349.471 321.051 312.294 318.86 308.72 305.873ZM681.707 237.596C682.056 223.255 680.357 208.626 676.352 194.073C674.348 186.792 671.831 179.788 668.87 173.086C721.16 166.686 756.301 169.132 759.771 181.738C763.24 194.343 732.534 215.627 681.707 237.596Z" fill="#EAD06C"/>
<rect x="1098" y="28" width="619" height="408" rx="48" fill="#F4AFDD"/>
<rect x="1238" y="28" width="479" height="408" rx="48" fill="#F7DC75"/>
<rect x="1386" y="28" width="331" height="408" rx="48" fill="#BCD1EB"/>
<path d="M113.239 166.037V186.01H121.112V192.246H113.239V219.407H105.76V166.037H113.239ZM72.8594 207.039V170.326H80.318V183.275H91.4022V170.326H98.8608V207.039H72.8594ZM80.318 200.968H91.4022V189.097H80.318V200.968ZM171.745 194.877V200.885H122.975V194.877H171.745ZM128.962 173.061V167.28H165.861V182.032H136.483V185.844H166.835V191.459H129.045V176.686H158.361V173.061H128.962ZM129.128 218.475V203.827H136.607V212.446H167.022V218.475H129.128ZM209.128 173.62C209.086 180.271 212.898 186.735 221.662 189.366L217.974 195.25C211.883 193.302 207.677 189.511 205.295 184.622C202.871 189.884 198.541 194.069 192.263 196.099L188.513 190.236C197.443 187.356 201.358 180.436 201.379 173.62V168.503H209.128V173.62ZM196.697 206.169V200.181H233.347V219.407H225.847V206.169H196.697ZM225.847 197.881V166.037H233.347V197.881H225.847ZM253.649 198.047V202.584H275.61V198.047H283.048V218.807H246.253V198.047H253.649ZM240.576 195.354V189.345H289.222V195.354H240.576ZM242.938 181.141C254.871 179.711 261.025 173.89 261.045 168.399V166.597H268.753V168.399C268.732 173.744 274.885 179.773 286.777 181.141L284.146 186.983C274.968 185.823 268.297 181.99 264.899 176.852C261.439 182.011 254.747 185.823 245.672 186.983L242.938 181.141ZM253.649 212.923H275.61V208.24H253.649V212.923ZM322.328 169.932V173.268C322.286 176.977 322.286 182.28 321.105 188.91L313.75 188.227C314.703 183.13 314.931 179.235 314.993 176.023H294.855V169.932H322.328ZM291.727 192.805C294.71 192.805 298.067 192.785 301.609 192.722V182.26H309.047V192.474C314.372 192.246 319.821 191.831 324.835 191.106L325.207 196.493C314.123 198.523 301.63 198.731 292.369 198.751L291.727 192.805ZM299.558 218.475V202.419H307.058V212.446H337.038V218.475H299.558ZM327.714 205.982V166.037H335.359V182.322H341.844V188.558H335.359V205.982H327.714ZM368.568 166.825C380.854 166.825 387.94 170.036 387.961 175.899C387.94 181.866 380.854 185.057 368.568 185.057C356.262 185.057 349.135 181.866 349.155 175.899C349.135 170.036 356.262 166.825 368.568 166.825ZM344.287 193.51V187.584H392.933V193.51H344.287ZM349.901 202.066V196.576H386.987V210.188H357.277V213.399H388.375V219.035H349.943V204.967H379.611V202.066H349.901ZM356.987 175.899C356.946 178.53 360.758 179.546 368.568 179.566C376.483 179.546 380.254 178.53 380.254 175.899C380.254 173.558 376.483 172.273 368.568 172.294C360.758 172.273 356.946 173.558 356.987 175.899ZM458.617 193.551V199.414H409.846V193.551H430.44V190.257H415.958V167.343H452.919V173.123H423.416V176.086H451.676V181.514H423.416V184.559H453.375V190.257H437.94V193.551H458.617ZM415.523 210.602C415.523 204.988 422.277 201.818 434.19 201.838C445.958 201.818 452.733 204.988 452.774 210.602C452.733 216.362 445.958 219.407 434.19 219.387C422.277 219.407 415.523 216.362 415.523 210.602ZM423.002 210.602C422.981 212.881 426.545 213.876 434.19 213.855C441.711 213.876 445.253 212.881 445.274 210.602C445.253 208.365 441.711 207.37 434.19 207.37C426.545 207.37 422.981 208.365 423.002 210.602ZM487.537 174.2V180.146H461.722V174.2H471.045V167.55H478.4V174.2H487.537ZM463.007 195.167C462.986 187.791 467.958 182.55 474.754 182.55C481.57 182.55 486.439 187.791 486.46 195.167C486.439 202.646 481.57 207.909 474.754 207.909C467.958 207.909 462.986 202.646 463.007 195.167ZM469.574 195.167C469.554 199.249 471.667 201.59 474.754 201.569C477.758 201.59 479.871 199.249 479.892 195.167C479.871 191.169 477.758 188.744 474.754 188.744C471.667 188.744 469.554 191.169 469.574 195.167ZM489.505 217.108V167.094H496.508V187.771H500.838V166.037H507.945V219.407H500.838V193.738H496.508V217.108H489.505ZM570.127 166.037V183.565H576.964V189.718H570.127V207.702H562.647V166.037H570.127ZM526.909 196.721C530.762 196.721 535.217 196.68 539.878 196.535V193.489C534.077 192.64 530.451 189.76 530.472 185.575C530.451 180.312 535.652 177.225 543.545 177.246C551.397 177.225 556.577 180.312 556.598 185.575C556.577 189.718 553.014 192.598 547.337 193.468V196.203C551.688 195.934 556.059 195.519 560.161 194.919L560.7 200.077C549.491 202.232 536.853 202.356 527.675 202.481L526.909 196.721ZM528.317 175.775V170.388H539.878V165.872H547.337V170.388H558.815V175.775H528.317ZM534.388 218.475V204.925H541.929V212.446H571.971V218.475H534.388ZM537.62 185.575C537.599 187.564 539.754 188.703 543.545 188.703C547.295 188.703 549.429 187.564 549.45 185.575C549.429 183.316 547.295 182.218 543.545 182.218C539.754 182.218 537.599 183.316 537.62 185.575ZM598.778 174.449C598.778 180.913 602.549 187.128 610.981 189.718L607.024 195.54C601.347 193.675 597.41 190.029 595.111 185.367C592.811 190.733 588.667 194.96 582.576 197.032L578.557 191.169C587.445 188.185 591.257 181.079 591.299 173.724V168.896H598.778V174.449ZM585.912 209.048C585.891 202.605 592.935 198.772 604.165 198.793C615.228 198.772 622.169 202.605 622.169 209.048C622.169 215.616 615.228 219.407 604.165 219.387C592.935 219.407 585.891 215.616 585.912 209.048ZM593.391 209.048C593.37 212.094 597.183 213.523 604.165 213.544C611.105 213.523 614.793 212.094 614.793 209.048C614.793 206.169 611.105 204.615 604.165 204.615C597.183 204.615 593.37 206.169 593.391 209.048ZM614.171 197.695V166.037H621.671V178.53H628.84V184.725H621.671V197.695H614.171ZM648.458 169.622C656.952 169.622 663.23 175.07 663.271 182.715C663.23 190.381 656.952 195.809 648.458 195.809C640.067 195.809 633.644 190.381 633.665 182.715C633.644 175.07 640.067 169.622 648.458 169.622ZM631.448 202.543C640.958 202.543 654.135 202.419 665.55 200.823L666.11 206.21C654.3 208.51 641.642 208.613 632.298 208.613L631.448 202.543ZM641.082 182.715C641.082 186.942 644.273 189.345 648.458 189.345C652.726 189.345 655.958 186.942 655.979 182.715C655.958 178.551 652.747 176.086 648.458 176.086C644.252 176.086 641.082 178.551 641.082 182.715ZM668.575 219.532V166.037H676.013V219.532H668.575ZM713.976 179.483C713.976 188.123 716.379 197.032 723.693 201.714L719.611 207.474C715.012 204.698 712.09 200.119 710.391 194.67C708.506 200.699 705.295 205.754 700.467 208.696L695.909 203.144C703.803 198.254 706.724 188.869 706.724 179.836V170.637H713.976V179.483ZM718.057 190.153V184.062H724.956V166.866H731.959V216.942H724.956V190.153H718.057ZM735.958 219.407V166.037H743.106V219.407H735.958ZM794.961 166.037V219.407H787.917V166.037H794.961ZM747.951 203.04C758.725 196.638 763.49 188.869 764.526 178.406H751.038V172.398H771.922C771.922 175.07 771.757 177.64 771.425 180.126H776.77V167.26H783.835V217.025H776.77V199.456H769.208V193.406H776.77V186.196H770.182C767.696 194.981 762.268 202.398 752.323 208.282L747.951 203.04ZM849.323 189.967V195.519H800.553V189.967H849.323ZM806.126 203.351V198.171H843.502V210.768H813.605V213.814H845.055V218.91H806.167V206.023H836.084V203.351H806.126ZM806.54 172.108V167.032H843.439V179.546H814.061V182.405H844.351V187.46H806.623V174.801H835.939V172.108H806.54ZM893.501 169.083V175.112H875.808V179.256H892.383V185.16H875.808V189.532C884.489 189.511 890.104 189.242 896.34 188.061L897.189 193.945C889.979 195.209 883.515 195.416 872.7 195.395H868.267V169.083H893.501ZM873.736 218.807V199.559H908.605V218.807H873.736ZM881.112 212.819H901.209V205.423H881.112V212.819ZM901.105 197.239V166.037H908.605V178.53H915.774V184.725H908.605V197.239H901.105ZM963.092 166.037V198.316H955.633V187.812H948.734V181.721H955.633V166.037H963.092ZM918.257 176.666V170.72H930.295V165.623H937.691V170.72H949.687V176.666H918.257ZM921.179 188.019C921.179 182.405 926.545 178.427 934.024 178.427C941.503 178.427 946.807 182.405 946.807 188.019C946.807 193.8 941.503 197.633 934.024 197.653C926.545 197.633 921.179 193.8 921.179 188.019ZM927.249 218.807V200.554H963.092V218.807H927.249ZM928.368 188.019C928.327 190.692 930.543 192.122 934.024 192.122C937.401 192.122 939.639 190.692 939.639 188.019C939.639 185.471 937.401 184.041 934.024 184.062C930.543 184.041 928.327 185.471 928.368 188.019ZM934.728 212.819H955.778V206.438H934.728V212.819ZM209.128 257.62C209.086 264.271 212.898 270.735 221.662 273.366L217.974 279.25C211.883 277.302 207.677 273.511 205.295 268.622C202.871 273.884 198.541 278.069 192.263 280.099L188.513 274.236C197.443 271.356 201.358 264.436 201.379 257.62V252.503H209.128V257.62ZM196.697 290.169V284.181H233.347V303.407H225.847V290.169H196.697ZM225.847 281.881V250.037H233.347V281.881H225.847ZM267.779 253.58V259.506H250.085V263.939H266.66V269.699H250.085V274.34C258.766 274.278 264.381 273.988 270.617 272.869L271.467 278.732C264.257 279.975 257.793 280.244 246.978 280.244H242.544V253.58H267.779ZM246.978 290.479V284.512H282.882V303.407H275.382V290.479H246.978ZM275.382 282.316V250.037H282.882V263.09H290.051V269.326H282.882V282.316H275.382ZM323.621 252.275C331.784 252.254 337.71 256.895 337.71 263.628C337.71 270.258 331.784 274.961 323.621 274.92C315.52 274.961 309.595 270.258 309.636 263.628C309.595 256.895 315.52 252.254 323.621 252.275ZM306.363 278.193C315.831 278.173 329.215 277.986 340.548 276.246L341.066 281.757C336.694 282.627 332.157 283.186 327.723 283.559V301.812H320.223V284.015C315.541 284.202 311.107 284.243 307.275 284.285L306.363 278.193ZM316.846 263.628C316.826 266.943 319.664 268.87 323.621 268.849C327.744 268.87 330.603 266.943 330.624 263.628C330.603 260.21 327.744 258.242 323.621 258.262C319.664 258.242 316.826 260.21 316.846 263.628ZM343.78 303.366V250.12H351.197V303.366H343.78ZM404.316 250.037V303.407H397.169V250.037H404.316ZM358.571 273.138C358.55 261.225 363.129 253.87 370.152 253.87C376.575 253.87 380.988 259.858 381.796 269.782H386.147V250.866H393.212V300.942H386.147V275.749H381.858C381.216 286.211 376.741 292.551 370.152 292.53C363.129 292.551 358.55 285.155 358.571 273.138ZM365.449 273.138C365.408 281.363 367.169 285.383 370.152 285.362C373.239 285.383 375.062 281.363 375.062 273.138C375.062 264.996 373.239 260.914 370.152 260.935C367.169 260.914 365.408 264.996 365.449 273.138ZM468.736 250.037V278.048H461.278V271.916H454.834V266.032H461.278V262.323H454.834V256.46H461.278V250.037H468.736ZM423.778 271.398L429.434 271.377V258.946H425.145V253H453.529V258.946H449.158V270.88C450.939 270.776 452.68 270.652 454.358 270.507L454.648 275.873C444.807 277.261 433.37 277.468 424.441 277.489L423.778 271.398ZM433.267 285.859V280.12H468.736V294.043H440.705V297.275H470.269V303.035H433.35V288.698H461.319V285.859H433.267ZM436.685 271.315C438.446 271.273 440.228 271.253 442.01 271.191V258.946H436.685V271.315ZM520.612 250.037V303.532H513.195V283.186H503.976V277.157H513.195V272.206H503.976V266.094H513.195V250.037H520.612ZM475.385 287.703C483.983 283.87 488.147 274.775 488.168 266.778V264.706H477.104V258.76H488.209V251.26H495.668V258.76H506.462V264.706H495.606V266.778C495.606 274.485 499.874 283.228 508.575 287.019L504.494 292.717C498.485 290.189 494.28 285.051 491.938 278.96C489.639 285.383 485.454 290.811 479.362 293.442L475.385 287.703ZM548.145 264.581C548.145 273.221 552.599 282.441 561.529 286.149L557.509 292.012C551.211 289.36 546.881 284.057 544.478 277.593C542.074 284.616 537.661 290.459 531.363 293.338L527.116 287.475C535.942 283.518 540.52 273.635 540.541 264.581V261.308H529.208V255.196H559.312V261.308H548.145V264.581ZM564.574 303.407V250.037H572.136V303.407H564.574ZM622.666 264.623V270.486H585.415V251.943H592.852V264.623H622.666ZM579.303 282.047V276.184H628.073V282.047H579.303ZM584.917 302.227V286.419H592.397V296.218H622.997V302.227H584.917ZM693.757 279.747V285.756H682.341V303.407H674.758V285.756H663.819V303.407H656.153V285.756H644.986V279.747H693.757ZM649.876 263.898C649.855 256.543 657.79 251.84 669.227 251.84C680.684 251.84 688.681 256.543 688.681 263.898C688.681 271.087 680.684 275.645 669.227 275.624C657.79 275.645 649.855 271.087 649.876 263.898ZM657.583 263.898C657.542 267.648 662.079 269.72 669.227 269.74C676.437 269.72 680.953 267.648 680.953 263.898C680.953 259.961 676.437 257.827 669.227 257.807C662.079 257.827 657.542 259.961 657.583 263.898ZM740.371 276.515V282.441H724.998V291.453H745.675V297.441H696.904V291.453H717.477V282.441H702.664V253.746H739.956V259.754H710.246V265.079H738.693V270.942H710.246V276.515H740.371ZM793.552 250.037V303.407H785.99V250.037H793.552ZM748.635 285.03C750.583 285.03 752.654 285.03 754.809 284.989V260.997H750.065V254.968H780.272V260.997H775.527V284.16C777.868 283.974 780.168 283.746 782.406 283.477L782.799 289.029C771.446 290.894 759.098 291.101 749.339 291.122L748.635 285.03ZM762.019 284.844C764.07 284.782 766.163 284.72 768.255 284.616V260.997H762.019V284.844ZM814.952 253.808C823.094 253.808 828.978 261.184 829.02 272.786C828.978 284.512 823.094 291.847 814.952 291.847C806.789 291.847 800.843 284.512 800.884 272.786C800.843 261.184 806.789 253.808 814.952 253.808ZM808.115 272.786C808.094 280.762 810.87 285.072 814.952 285.072C819.137 285.072 821.83 280.762 821.851 272.786C821.83 264.892 819.137 260.562 814.952 260.562C810.87 260.562 808.094 264.892 808.115 272.786ZM835.194 303.407V250.037H842.673V270.175H850.546V276.412H842.673V303.407H835.194Z" fill="black"/>
<rect x="1532" y="28" width="185" height="408" rx="48" fill="#9EB366"/>
</svg>
