<svg width="290" height="126" viewBox="0 0 290 126" fill="none" xmlns="http://www.w3.org/2000/svg">
<path d="M288.043 63.0003C288.043 96.7125 260.713 124.043 227 124.043C207.423 124.043 189.999 114.841 178.84 100.511C170.774 90.1737 165.958 77.1351 165.958 63.0003C165.958 29.288 193.288 1.95801 227 1.95801C260.713 1.95801 288.043 29.288 288.043 63.0003Z" fill="#FFEE76"/>
<path d="M210.421 59.0208C213.717 59.0208 216.389 56.3487 216.389 53.0524C216.389 49.7561 213.717 47.084 210.421 47.084C207.124 47.084 204.452 49.7561 204.452 53.0524C204.452 56.3487 207.124 59.0208 210.421 59.0208Z" fill="#484848"/>
<path d="M243.91 59.0208C247.39 59.0208 250.21 56.3487 250.21 53.0524C250.21 49.7561 247.39 47.084 243.91 47.084C240.431 47.084 237.61 49.7561 237.61 53.0524C237.61 56.3487 240.431 59.0208 243.91 59.0208Z" fill="#484848"/>
<path d="M252.318 88.3179C252.318 88.3179 227.632 64.4721 201.683 88.3179" stroke="#484848" stroke-width="3" stroke-miterlimit="10"/>
<path d="M124.043 63.0003C124.043 96.7125 96.7125 124.043 63.0003 124.043C43.4229 124.043 25.999 114.841 14.8399 100.511C6.77404 90.1737 1.95801 77.1351 1.95801 63.0003C1.95801 29.288 29.288 1.95801 63.0003 1.95801C96.7125 1.95801 124.043 29.288 124.043 63.0003Z" fill="#FFEE76"/>
<path d="M46.4206 59.0208C49.7168 59.0208 52.389 56.3487 52.389 53.0524C52.389 49.7561 49.7168 47.084 46.4206 47.084C43.1243 47.084 40.4521 49.7561 40.4521 53.0524C40.4521 56.3487 43.1243 59.0208 46.4206 59.0208Z" fill="#484848"/>
<path d="M79.9104 59.0208C83.3897 59.0208 86.2104 56.3487 86.2104 53.0524C86.2104 49.7561 83.3897 47.084 79.9104 47.084C76.431 47.084 73.6104 49.7561 73.6104 53.0524C73.6104 56.3487 76.431 59.0208 79.9104 59.0208Z" fill="#484848"/>
<path d="M88.3181 77.7193C88.3181 77.7193 63.6321 101.565 37.6826 77.7193" stroke="#484848" stroke-width="3" stroke-miterlimit="10"/>
</svg>
