<svg width="371" height="390" viewBox="0 0 371 390" fill="none" xmlns="http://www.w3.org/2000/svg">
<g clip-path="url(#clip0_3127_34)">
<path d="M232.928 0C204.671 0 179.774 14.5211 164.548 36.7073C161.762 40.766 155.237 40.7666 152.451 36.7081C137.221 14.5214 112.328 0 84.0653 0C37.6297 0 0 39.1787 0 87.3934C0 135.608 28.7965 179.808 66.0172 216.117C97.925 247.248 143.106 277.11 155.342 284.993C157.285 286.245 159.711 286.235 161.646 284.969C173.657 277.116 217.614 247.669 250.983 216.117C292.586 176.794 317 135.759 317 87.3934C317 39.028 279.37 0 232.928 0Z" fill="#F4AFDD"/>
<path d="M169.172 103.437L169.172 131.875L165.359 131.875L165.359 103.437L169.172 103.437ZM144.766 115.75C144.766 109.391 147.188 105.453 150.953 105.469C153.328 105.453 155.203 107.016 156.25 109.75L159.609 109.75L159.609 103.844L163.359 103.844L163.359 130.562L159.609 130.562L159.609 121.75L156.266 121.75C155.203 124.516 153.344 126.094 150.953 126.094C147.188 126.094 144.766 122.141 144.766 115.75ZM148.391 115.75C148.359 120.125 149.281 122.281 150.953 122.25C152.594 122.281 153.594 120.125 153.609 115.75C153.594 111.391 152.594 109.219 150.953 109.219C149.281 109.219 148.359 111.391 148.391 115.75ZM157.047 112.937C157.172 113.812 157.234 114.75 157.234 115.75C157.234 116.734 157.172 117.672 157.063 118.531L159.609 118.531L159.609 112.937L157.047 112.937ZM109.209 176L119.932 155.047L119.932 154.871L107.452 154.871L107.452 150.547L125.416 150.547L125.416 154.941L114.694 176L109.209 176ZM136.448 176.352C130.068 176.352 126.218 171.605 126.218 163.273C126.218 154.959 130.103 150.195 136.448 150.195C142.794 150.195 146.679 154.959 146.679 163.273C146.679 171.641 142.812 176.352 136.448 176.352ZM131.632 163.273C131.597 169.145 133.495 171.992 136.448 171.992C139.402 171.992 141.282 169.145 141.265 163.273C141.282 157.455 139.384 154.537 136.448 154.52C133.513 154.537 131.632 157.455 131.632 163.273ZM150.574 176.316C148.922 176.316 147.586 174.998 147.621 173.363C147.586 171.746 148.922 170.428 150.574 170.445C152.139 170.428 153.492 171.746 153.492 173.363C153.492 174.998 152.139 176.316 150.574 176.316ZM164.454 176.352C158.864 176.352 154.856 173.275 154.751 168.828L160.095 168.828C160.182 170.727 162.028 171.975 164.489 171.992C167.02 171.975 168.831 170.568 168.813 168.512C168.831 166.437 166.985 164.979 163.997 164.961L161.641 164.961L161.641 161.059L163.997 161.059C166.511 161.059 168.268 159.687 168.251 157.684C168.268 155.732 166.774 154.396 164.524 154.414C162.274 154.396 160.429 155.662 160.341 157.613L155.278 157.613C155.366 153.236 159.304 150.195 164.524 150.195C169.833 150.195 173.366 153.342 173.348 157.367C173.366 160.215 171.38 162.236 168.532 162.746L168.532 162.957C172.276 163.414 174.333 165.682 174.298 168.863C174.333 173.223 170.202 176.352 164.454 176.352ZM182.904 163.273C179.089 163.273 177.033 160.496 177.033 156.488C177.033 152.463 179.195 149.668 182.904 149.668C186.718 149.668 188.757 152.463 188.775 156.488C188.757 160.531 186.666 163.273 182.904 163.273ZM180.619 156.488C180.636 158.686 181.427 160.127 182.904 160.145C184.416 160.127 185.171 158.686 185.189 156.488C185.171 154.291 184.486 152.797 182.904 152.797C181.41 152.814 180.636 154.326 180.619 156.488ZM180.689 176L198.197 150.547L202.134 150.547L184.627 176L180.689 176ZM194.224 170.059C194.224 166.033 196.386 163.256 200.06 163.238C203.91 163.256 205.949 166.033 205.966 170.059C205.949 174.102 203.857 176.844 200.06 176.844C196.281 176.844 194.224 174.066 194.224 170.059ZM197.81 170.059C197.828 172.256 198.619 173.715 200.06 173.715C201.607 173.715 202.363 172.256 202.38 170.059C202.363 167.861 201.66 166.367 200.06 166.402C198.584 166.385 197.828 167.896 197.81 170.059Z" fill="#CB198F"/>
</g>
<g clip-path="url(#clip1_3127_34)">
<path d="M295.197 158.631C295.163 150.627 285.48 146.646 279.826 152.313L158.322 274.09C152.662 279.763 156.68 289.447 164.693 289.447H210.052C215.023 289.447 219.052 293.477 219.052 298.447V368.238C219.052 376.261 228.756 380.274 234.423 374.595L355.677 253.072C361.337 247.4 357.319 237.715 349.306 237.715H304.498C299.542 237.715 295.519 233.709 295.498 228.754L295.197 158.631Z" fill="#BCD1EB"/>
<path d="M248.808 247.219C250.98 247.219 252.55 249.18 252.558 252.281C252.55 255.406 250.98 257.359 248.808 257.359C246.628 257.359 245.05 255.406 245.058 252.281C245.05 249.18 246.628 247.219 248.808 247.219ZM246.98 252.281C246.98 254.398 247.722 255.555 248.808 255.547C249.917 255.555 250.644 254.398 250.652 252.281C250.644 250.172 249.917 249.016 248.808 249.016C247.722 249.016 246.98 250.172 246.98 252.281ZM254.198 260.437L254.198 246.219L256.198 246.219L256.198 251.578L258.292 251.578L258.292 253.234L256.198 253.234L256.198 260.437L254.198 260.437ZM269.961 246.219L269.961 260.437L267.977 260.437L267.977 246.219L269.961 246.219ZM258.773 256.922L258.773 247.578L260.742 247.578L260.742 255.227C262.664 255.195 264.727 255.016 266.82 254.609L267.07 256.25C264.578 256.773 262.219 256.93 260.023 256.922L258.773 256.922ZM284.052 257.141L284.052 258.781L271.036 258.781L271.036 257.141L273.942 257.141L273.942 253.656C272.841 252.992 272.177 251.984 272.177 250.734C272.177 248.43 274.427 246.914 277.52 246.906C280.598 246.914 282.872 248.43 282.88 250.734C282.872 251.961 282.231 252.953 281.161 253.617L281.161 257.141L284.052 257.141ZM274.145 250.734C274.145 252.125 275.481 252.984 277.52 252.984C279.528 252.984 280.903 252.125 280.911 250.734C280.903 249.305 279.528 248.477 277.52 248.484C275.481 248.477 274.145 249.305 274.145 250.734ZM275.911 257.141L279.145 257.141L279.145 254.375C278.637 254.477 278.091 254.531 277.52 254.531C276.95 254.531 276.411 254.477 275.911 254.383L275.911 257.141ZM237.457 285L237.438 282.871L242.516 278.203C243.834 276.943 244.547 276.162 244.547 275.039C244.547 273.779 243.6 272.998 242.301 273.008C240.973 272.998 240.104 273.838 240.113 275.195L237.32 275.195C237.311 272.432 239.361 270.664 242.34 270.664C245.367 270.664 247.379 272.393 247.379 274.844C247.379 276.455 246.598 277.773 243.688 280.41L241.539 282.5L241.539 282.578L247.574 282.578L247.574 285L237.457 285ZM253.82 270.664C256.75 270.674 259.523 272.422 259.523 277.559C259.533 282.363 257.258 285.195 253.703 285.195C250.861 285.195 248.908 283.408 248.625 281.016L251.516 281.016C251.76 282.061 252.57 282.676 253.703 282.676C255.627 282.676 256.643 280.947 256.652 278.125L256.535 278.125C255.871 279.375 254.475 280.117 252.902 280.117C250.363 280.117 248.488 278.203 248.469 275.566C248.469 272.725 250.627 270.654 253.82 270.664ZM251.34 275.488C251.34 276.885 252.365 277.969 253.82 277.969C255.256 277.969 256.359 276.826 256.359 275.469C256.34 274.121 255.285 272.979 253.84 272.969C252.395 272.979 251.32 274.082 251.34 275.488ZM261.648 285.176C260.73 285.176 259.988 284.443 260.008 283.535C259.988 282.637 260.73 281.904 261.648 281.914C262.518 281.904 263.27 282.637 263.27 283.535C263.27 284.443 262.518 285.176 261.648 285.176ZM264.613 285L270.57 273.359L270.57 273.262L263.637 273.262L263.637 270.859L273.617 270.859L273.617 273.301L267.66 285L264.613 285ZM278.281 277.93C276.162 277.93 275.02 276.387 275.02 274.16C275.02 271.924 276.221 270.371 278.281 270.371C280.4 270.371 281.533 271.924 281.543 274.16C281.533 276.406 280.371 277.93 278.281 277.93ZM277.012 274.16C277.021 275.381 277.461 276.182 278.281 276.191C279.121 276.182 279.541 275.381 279.551 274.16C279.541 272.939 279.16 272.109 278.281 272.109C277.451 272.119 277.021 272.959 277.012 274.16ZM277.051 285L286.777 270.859L288.965 270.859L279.238 285L277.051 285ZM284.57 281.699C284.57 279.463 285.771 277.92 287.813 277.91C289.951 277.92 291.084 279.463 291.094 281.699C291.084 283.945 289.922 285.469 287.813 285.469C285.713 285.469 284.57 283.926 284.57 281.699ZM286.563 281.699C286.572 282.92 287.012 283.73 287.813 283.73C288.672 283.73 289.092 282.92 289.102 281.699C289.092 280.479 288.701 279.648 287.813 279.668C286.992 279.658 286.572 280.498 286.563 281.699Z" fill="#4886D1"/>
</g>
<defs>
<clipPath id="clip0_3127_34">
<rect width="317" height="287" fill="white"/>
</clipPath>
<clipPath id="clip1_3127_34">
<rect width="228" height="253" fill="white" transform="translate(143 137)"/>
</clipPath>
</defs>
</svg>
